<?xml version="1.0" encoding="utf-8"?>
<!-- Generator: Adobe Illustrator 19.0.0, SVG Export Plug-In . SVG Version: 6.00 Build 0)  -->
<svg xmlns:xlink="http://www.w3.org/1999/xlink" version="1.1" id="Layer_1" xmlns="http://www.w3.org/2000/svg" x="0px"
     y="0px"
     viewBox="-100 200 500 400">
    <style type="text/css">
        #appear1,#appear2,#appear3,#appear4,#appear5,#appear6,#appear7,#appear8,#appear9,#appear10,#appear11,#appear12,#appear13,#appear14 {fill:transparent;}
        
        #appear1 {
        animation: appear 0.5s 0.2s linear forwards;
        }
        
        #appear2 {
        animation: appear 0.5s 0.4s linear forwards;
        }
        
        #appear3 {
        animation: appear 0.5s 0.5s linear forwards;
        }
        
        #appear4 {
        animation: appear 0.5s 0.6s linear forwards;
        }
        
        #appear5 {
        animation: appear 0.5s 0.7s linear forwards;
        }
        
        #appear6 {
        animation: appear 0.5s 0.8s linear forwards;
        }
        
        #appear7 {
        animation: appear 0.5s 0.9s linear forwards;
        }
        
        #appear8 {
        animation: appear 0.5s 1s linear forwards;
        }
        
        #appear9 {
        animation: appear 0.5s 1.3s linear forwards;
        }
        
        #appear10 {
        animation: appear 0.5s 1.4s linear forwards;
        }
        
        #appear11 {
        animation: appear 0.5s 1.6s linear forwards;
        }
        
        #appear12 {
        animation: appear 0.5s 1.7s linear forwards;
        }
        
        #appear13 {
        animation: appear 0.5s 1.8s linear forwards;
        }
        
        #appear14 {
        animation: appear 0.5s 1.9s linear forwards;
        }
        
        @keyframes appear {
        100% {fill:#000;}
        }
    </style>
    <defs>
        <path id="path" d="M130.7,543.1c3.2,0,5.6,2.9,4.7,6.1c-1,3.3-2.1,6.5-3.4,9.7c-1,2.5-3.7,3.5-6.1,2.6c-2.4-0.9-3.7-3.4-2.9-6
		c1-3.1,2.1-6.3,3.3-9.3C127,544.2,128.7,543.1,130.7,543.1z"/>
    </defs>
    <animateMotion
            id="1"
            xlink:href="#plane"
            dur="2s"
            path="M50,601c10.4-18.7,22.7-44.6,32-77c11.1-38.8,12.7-69,14-97c2.4-51.8-4.1-75.4-8-87c-6.4-19.3-12.4-36.4-29-43
	c-15.1-6-36.6-2.4-49,13c-7.9,9.8-12.9,25.1-8,38c12.4,32.5,79.1,28.2,82,28c31.9-2.4,55.4-19.1,82-37c17.2-11.6,30.3-22.9,99-91"
            fill="freeze"
                   keyPoints="0;0.2;0.8;1"
    keyTimes="0;0.33;0.66;1"
                   calcMode="linear"
    />

    <g>
        <path id="appear1" d="M113.2,586.8c-2.3-1.3-4.8-0.5-6.5,1.9c-0.9,1.4-2,2.7-2.8,4.1c-0.1,0.2-0.2,0.3-0.3,0.4c-0.2,0.5-0.5,1-0.8,1.4
		c3.9,0,7.8,0,11.7,0c0.1-0.2,0.3-0.4,0.4-0.6c0,0,0.1,0,0.1,0c0.1-0.3,0.2-0.6,0.3-0.8C116.3,590.6,115.5,588.1,113.2,586.8z"/>
        <use xlink:href="#path" id="appear2"></use>
        <use xlink:href="#path" id="appear3" transform="rotate(-10) translate(-77,-30)"></use>
        <use xlink:href="#path" id="appear4" transform="rotate(-12) translate(-80,-72)"></use>
        <use xlink:href="#path" id="appear5" transform="rotate(-19) translate(-120,-115)"></use>
        <use xlink:href="#path" id="appear6" transform="rotate(-25) translate(-148,-160)"></use>
        <use xlink:href="#path" id="appear7" transform="rotate(-55) translate(-314,-260)"></use>
        <use xlink:href="#path" id="appear8" transform="rotate(-112) translate(-440,-575)"></use>
        <use xlink:href="#path" id="appear9" transform="rotate(1) translate(-66,-232)"></use>
        <use xlink:href="#path" id="appear10" transform="rotate(-75) translate(-460,-390)"></use>
        <use xlink:href="#path" id="appear11" transform="rotate(-105) translate(-523,-540)"></use>
        <use xlink:href="#path" id="appear12" transform="rotate(-120) translate(-537,-600)"></use>
        <use xlink:href="#path" id="appear13" transform="rotate(-135) translate(-535,-660)"></use>
        <use xlink:href="#path" id="appear14" transform="rotate(-150) translate(-520,-720)"></use>
        <g id="plane" transform="scale(0.5) translate(-263.9, -137.6)">
            <g>
                <animateTransform attributeName="transform"
                                  attributeType="XML"
                                  type="rotate"
                                  from="0 313.9 167.6"
                                  to="-360 313.9 167.6"
                                  dur="2s"
                                  calcMode="spline"
                                  keySplines="0.7 0.1 0.1 0.7"
                                  keyTimes="0;1"
                                  
                                  
                />
                    <path d="M263.9,167.6c7.6-1,14.9-2,22.3-2.8c2.3-0.2,3.6-1.2,4.8-3.1c2.6-4.3,5.5-8.4,8.2-12.6c1.8-2.8,4.5-4,6.8-3.2
		c2.6,0.9,3.4,2.7,2.6,5.3c-1.1,3.4-2,6.8-3.1,10.5c5.3-0.7,10.3-1.4,15.4-2.1c7.5-1,14.9-2.1,22.4-3c1.4-0.2,2.3-0.7,3.1-2
		c7.2-12.8,14.7-25.4,23.9-36.9c2.7-3.3,5.8-6.3,8.9-9.3c1-1,2.4-1.7,3.7-2.3c4.1-1.9,8.1,0.1,8.4,4.6c0.2,3.4-0.2,7-1.1,10.3
		c-2.7,10.2-7.3,19.5-12.1,28.8c-3.1,6-6.4,11.9-9.5,17.8c-0.3,0.6-0.5,1.6-0.3,2.1c5,11.7,10,23.4,15.1,35.2
		c0.1,0.2,0.2,0.3,0.5,0.7c2.5-2.7,4.9-5.2,7.3-7.9c1.7-1.9,3-2.2,5.2-1c4,2.1,4.7,4.7,2.5,8.6c-2.7,4.8-5.5,9.7-8.2,14.5
		c-0.3,0.6-0.6,1.5-0.3,2c3.5,7.7,7.2,15.3,11,23.3c2-2.6,3.7-5.1,5.5-7.4c1.8-2.4,4.1-3,6.6-1.8c3.1,1.5,4,3.8,2.5,7
		c-2.6,5.4-5.2,10.8-7.8,16.3c-0.4,0.8-0.4,2-0.1,2.7c3.3,8,6.7,16,10.2,23.9c1.3,3,1.3,5.8-0.5,8.7c-2.2,3.6-4.2,7.3-6.4,11.2
		c-0.5-0.7-1-1.2-1.3-1.7c-13.4-17.9-26.8-35.8-40.1-53.7c-4.5-6.1-8.8-12.3-14.6-17.2c-3.2-2.7-6.7-5.2-10.3-7.4
		c-4-2.4-7.8-1.6-11,1.8c-1.3,1.3-2.4,2.9-3.3,4.4c-9.2,16.2-19.6,31.7-30.6,46.8c-0.9,1.3-1.1,2.2-0.5,3.7
		c4.9,11.1,9.7,22.3,14.4,33.5c0.4,0.9,0.4,2.2,0,3.1c-1.6,4.5-3.4,8.9-5.1,13.3c-0.2,0.6-0.5,1.2-0.9,2
		c-9.4-10.2-18.7-20.2-28.2-30.5c-2.7,2.9-5.1,5.6-7.6,8.2c-0.1-0.1-0.2-0.1-0.4-0.2c1.1-3.5,2.1-7,3.2-10.7c-13.9-3-27.8-6-42-9
		c1.2-1.4,2.2-2.5,3.2-3.6c2.2-2.5,4.6-4.9,6.7-7.6c1.6-2,3.5-2.9,6-3.2c11.5-1.4,23.1-3.1,34.6-4.6c1.3-0.2,1.9-0.7,2.5-1.8
		c7.7-16.2,15.5-32.3,23.2-48.4c0.7-1.5,1.6-2.9,2.4-4.3c3.3-5.9,2-10.5-3.9-13.8c-6.6-3.8-13.7-6.1-21.1-7
		c-11.3-1.5-22.7-2.5-34.1-3.6c-15-1.5-30-2.8-45-4.2c-0.5,0-1-0.1-1.9-0.3c0.4-0.7,0.7-1.3,1-1.9c1.7-3,3.5-5.9,5-9
		c1.7-3.4,4-5.2,8.1-5.4c6.3-0.3,12.6-1.6,18.9-2.5c2.5-0.4,5.4-0.1,7.3-1.3c2-1.4,3.1-4.2,4.6-6.4c2.1-3.2,4.2-6.4,6.3-9.6
		c1.7-2.6,3.5-3.3,6-2.3c2.9,1.2,4.2,3.3,3.6,6.2C265.8,160.6,264.8,163.9,263.9,167.6z"/>
            </g>
        </g>
    </g>
</svg>
