<?xml version="1.0" encoding="UTF-8" standalone="no"?>
<svg
   xmlns:dc="http://purl.org/dc/elements/1.1/"
   xmlns:cc="http://creativecommons.org/ns#"
   xmlns:rdf="http://www.w3.org/1999/02/22-rdf-syntax-ns#"
   xmlns:svg="http://www.w3.org/2000/svg"
   xmlns="http://www.w3.org/2000/svg"
   xmlns:sodipodi="http://sodipodi.sourceforge.net/DTD/sodipodi-0.dtd"
   xmlns:inkscape="http://www.inkscape.org/namespaces/inkscape"
   inkscape:version="1.0 (4035a4fb49, 2020-05-01)"
   sodipodi:docname="bot-logo.svg"
   id="svg10"
   version="1.1"
   viewBox="0 0 11.130435 11.130435"
   class="bi bi-robot"
   fill="#3d85c6"
   height="16"
   width="16">
  <metadata
     id="metadata16">
    <rdf:RDF>
      <cc:Work
         rdf:about="">
        <dc:format>image/svg+xml</dc:format>
        <dc:type
           rdf:resource="http://purl.org/dc/dcmitype/StillImage" />
        <dc:title></dc:title>
      </cc:Work>
    </rdf:RDF>
  </metadata>
  <defs
     id="defs14" />
  <sodipodi:namedview
     inkscape:current-layer="svg10"
     inkscape:window-maximized="1"
     inkscape:window-y="-11"
     inkscape:window-x="-11"
     inkscape:cy="10.630088"
     inkscape:cx="15.053341"
     inkscape:zoom="19.086957"
     showgrid="false"
     id="namedview12"
     inkscape:window-height="1046"
     inkscape:window-width="1920"
     inkscape:pageshadow="2"
     inkscape:pageopacity="0"
     guidetolerance="10"
     gridtolerance="10"
     objecttolerance="10"
     borderopacity="1"
     bordercolor="#666666"
     pagecolor="#ffffff" />
  <path
     style="fill:#6b6b69;fill-opacity:1;stroke-width:0.13634783;stroke:#6b6b69;stroke-opacity:1;stroke-miterlimit:4;stroke-dasharray:none"
     id="path2-3"
     d="m 1.7946225,5.3819494 a 0.17167368,0.17167368 0 0 1 0.1661357,0.1661358 v 2.2483715 a 0.16890491,0.16890491 0 0 1 -0.3378098,0 V 5.5480852 A 0.17167368,0.17167368 0 0 1 1.7890841,5.3819494 m 0,-0.5537864 v 0 A 0.71992184,0.71992184 0 0 0 1.0691619,5.5480852 v 2.2483715 a 0.71992184,0.71992184 0 0 0 0.7199222,0.7199222 v 0 A 0.71992184,0.71992184 0 0 0 2.5090062,7.7964567 V 5.5480852 A 0.71992184,0.71992184 0 0 0 1.7890841,4.828163 Z" />
  <path
     style="fill:#6b6b69;fill-opacity:1;stroke-width:0.13634783;stroke:#6b6b69;stroke-opacity:1;stroke-miterlimit:4;stroke-dasharray:none"
     id="path4"
     d="m 9.1322867,5.3819494 a 0.17167368,0.17167368 0 0 1 0.1661359,0.1661358 v 2.2483715 a 0.16890484,0.16890484 0 0 1 -0.3378088,0 V 5.5480852 A 0.17167368,0.17167368 0 0 1 9.1267495,5.3819494 m 0,-0.5537864 A 0.71992184,0.71992184 0 0 0 8.4068273,5.5480852 v 2.2483715 a 0.72269085,0.72269085 0 0 0 1.4453813,0 V 5.5480852 A 0.71992184,0.71992184 0 0 0 9.1322867,4.828163 Z" />
  <path
     style="fill:#6b6b69;fill-opacity:1;stroke-width:0.13634783;stroke:#6b6b69;stroke-opacity:1;stroke-miterlimit:4;stroke-dasharray:none"
     id="path6"
     d="m 5.4717604,3.05051 a 2.1376141,2.1376141 0 0 1 2.09885,1.7610389 1.5893659,1.5893659 0 0 1 0,0.1772126 v 0 0 a 0.55378602,0.55378602 0 0 1 0,0.071986 v 2.303751 A 1.229405,1.229405 0 0 1 6.3799696,8.5883653 H 4.5801653 A 1.2238671,1.2238671 0 0 1 3.3562976,7.3644988 V 5.1493541 c 0,-0.033228 0,-0.066456 0,-0.099684 0,-0.033228 0,-0.08307 0,-0.1218332 a 1.5561388,1.5561388 0 0 1 0,-0.1661357 2.1320763,2.1320763 0 0 1 2.1154628,-1.7111992 m 0,-0.5537853 a 2.6914001,2.6914001 0 0 0 -2.63602,2.2151447 2.1210005,2.1210005 0 0 0 -0.03877,0.238128 c 0,0.08307 0,0.1716729 0,0.2547408 V 7.4198746 A 1.7776531,1.7776531 0 0 0 4.5801607,9.1421494 H 6.3799673 A 1.783191,1.783191 0 0 0 8.1631587,7.3644965 V 5.082898 a 0.98573906,0.98573906 0 0 0 0,-0.1605985 2.1210005,2.1210005 0 0 0 -0.03877,-0.2381279 2.6914001,2.6914001 0 0 0 -2.6526341,-2.1874551 z" />
  <path
     style="fill:#6b6b69;fill-opacity:1;stroke-width:0.13634783;stroke:#6b6b69;stroke-opacity:1;stroke-miterlimit:4;stroke-dasharray:none"
     id="path8"
     d="m 5.4717604,4.0528626 a 1.2460186,1.2460186 0 0 1 1.2404818,1.2404806 0.23259013,0.23259013 0 0 1 0,0.060914 v 0 C 6.590409,5.4982419 5.7818806,5.4982419 5.4772988,5.4982419 a 3.2341104,3.2341104 0 0 1 -1.2238665,-0.1329088 0.1938251,0.1938251 0 0 1 0,-0.071986 1.2460186,1.2460186 0 0 1 1.2183281,-1.2404806 m 0,-0.5537864 A 1.7942667,1.7942667 0 0 0 3.6885702,5.2933455 c 0,0.7420735 0.8029889,0.7586863 1.7831902,0.7586863 0.9802014,0 1.7942671,-0.033228 1.7942671,-0.7586863 A 1.7942667,1.7942667 0 0 0 5.4717604,3.4990773 Z" />
</svg>
