<svg xmlns="http://www.w3.org/2000/svg" width="23" height="23" fill="#3d85c6" class="bi bi-robot" viewBox="0 0 16 16">

  <path d="M1.36,7.21a.31.31,0,0,1,.3.3v4.06a.3.3,0,0,1-.61,0V7.51a.31.31,0,0,1,.3-.3m0-1h0a1.3,1.3,0,0,0-1.3,1.3v4.06a1.3,1.3,0,0,0,1.3,1.3h0a1.3,1.3,0,0,0,1.3-1.3V7.51a1.3,1.3,0,0,0-1.3-1.3Z"/>
  <path d="M14.61,7.21a.31.31,0,0,1,.3.3v4.06a.3.3,0,0,1-.61,0V7.51a.31.31,0,0,1,.3-.3m0-1a1.3,1.3,0,0,0-1.3,1.3v4.06a1.3,1.3,0,0,0,2.61,0V7.51a1.3,1.3,0,0,0-1.3-1.3Z"/>
  
  <path d="M8,3a3.86,3.86,0,0,1,3.79,3.18,2.87,2.87,0,0,1,0,.32v0h0a1,1,0,0,1,0,.13v4.16A2.22,2.22,0,0,1,9.64,13H6.39a2.21,2.21,0,0,1-2.21-2.21v-4c0-.06,0-.12,0-.18s0-.15,0-.22a2.81,2.81,0,0,1,0-.3A3.85,3.85,0,0,1,8,3M8,2a4.86,4.86,0,0,0-4.76,4,3.83,3.83,0,0,0-.07.43c0,.15,0,.31,0,.46v4A3.21,3.21,0,0,0,6.39,14H9.64a3.22,3.22,0,0,0,3.22-3.21V6.67a1.78,1.78,0,0,0,0-.29,3.83,3.83,0,0,0-.07-.43A4.86,4.86,0,0,0,8,2Z"/>
  
  <path d="M8,4.81a2.25,2.25,0,0,1,2.24,2.24.42.42,0,0,1,0,.11h0c-.22.26-1.68.26-2.23.26A5.84,5.84,0,0,1,5.8,7.18a.35.35,0,0,1,0-.13A2.25,2.25,0,0,1,8,4.81m0-1A3.24,3.24,0,0,0,4.78,7.05C4.78,8.39,6.23,8.42,8,8.42s3.24-.06,3.24-1.37A3.24,3.24,0,0,0,8,3.81Z"/>
</svg>
