<svg id="Layer_2" data-name="Layer 2" xmlns="http://www.w3.org/2000/svg" width="50" height="50" viewBox="0 0 50 50">
  <title>Пин жилой дом зеленый</title>
  <path d="M41.17,25.16A16.27,16.27,0,0,1,28.41,41a1.66,1.66,0,0,0-.95.58l-1.64,2.06a1.07,1.07,0,0,1-1.51.15l-.15-.15-1.64-2.06a1.66,1.66,0,0,0-.95-.58A16.16,16.16,0,1,1,41.16,25.16Z" style="fill: #30c900"/>
  <path d="M33,15.93V33.69H29.93V30.9H26.36v2.79H23.29V15.93H33m-3,3.32h1.19V18.05H30v1.19m-2.43,0h1.19V18.05H27.55v1.19m-2.42,0h1.19V18.05H25.12v1.19M30,21.54h1.19V20.35H30v1.19m-2.43,0h1.19V20.35H27.55v1.19m-2.42,0h1.19V20.35H25.12v1.19M30,23.83h1.19V22.64H30v1.19m-2.43,0h1.19V22.64H27.55v1.19m-2.42,0h1.19V22.64H25.12v1.19" style="fill: #fff"/>
  <path d="M21.77,24.48v9.21H15.21V26.78l6.56-2.3M19.1,28.54H20.3V27.34H19.1v1.19m0,2.29H20.3V29.64H19.1v1.19m-2.43,0h1.19V29.64H16.68v1.19" style="fill: #fff"/>
</svg>
