<svg xmlns="http://www.w3.org/2000/svg" width="220" height="75" class="svg"><path fill="none" stroke="#0071BC" stroke-width="15" stroke-linecap="round" stroke-linejoin="round" d="M36.63 12.47c-.3 6.47-6.54 14.16-13.31 14.74-6.2.54-7.83-7-1.8-7.5 4.71-.39 7.31 5.47 11.53 6.59 6.79 1.81 14.42-2.83 17.12-8.9-4.71 7.01-12.21 31.55 8.53 29.04 5.72-.69 6.45-30.54 15.54-31.21-6.43.58-10.46 16.79-2.26 16.08 5.3-.46 9.22-4.96 11.17-9.17-2.64 7.95-9.58 22 .83 21.07 8.11-.72 9.02-22.93 17.52-23.95.47 3.56-3.29 21.27-.27 22.03 7.58 1.92 17.96-15.01 18.83-19.4.52-2.62-2.96-4.5-2.71-.92.22 3.15 3.86 2.67 6.04 1.89 2.77-.99 7.78-3.16 10.3-7.53-2.52 4.38-12.21 24.32-.14 22.07 9.16-1.71 17.32-24.09 17.32-24.09s-7.95 22.96-2.69 22.33c11.58-1.4 18.65-18.33 19.29-24.63.28 5.81 12.43 16.98 8.84 28.85-3.97 13.13-15.56 12.03-16.89 6.88-1.27-4.92 2.75-12.33 20.17-5.08 19.13 7.96 28.42-13.72 22.58-21.67" style="animation:hNkMDpeQ_draw_0 6700ms linear 0ms infinite,hNkMDpeQ_fade 6700ms linear 0ms infinite" stroke-dasharray="554 556" stroke-dashoffset="555"/><path fill="none" stroke="#FFF" stroke-width="10" stroke-linecap="round" stroke-linejoin="round" d="M35.63 11.47c-.3 6.47-6.54 14.16-13.31 14.74-6.2.54-7.83-7-1.8-7.5 4.71-.39 7.31 5.47 11.53 6.59 6.79 1.81 14.42-2.83 17.12-8.9-4.71 7.01-12.21 31.55 8.53 29.04 5.72-.69 6.45-30.54 15.54-31.21-6.43.58-10.46 16.79-2.26 16.08 5.3-.46 9.22-4.96 11.17-9.17-2.64 7.95-9.58 22 .83 21.07 8.11-.72 9.02-22.93 17.52-23.95.47 3.56-3.29 21.27-.27 22.03 7.58 1.92 17.96-15.01 18.83-19.4.52-2.62-2.96-4.5-2.71-.92.22 3.15 3.86 2.67 6.04 1.89 2.77-.99 7.78-3.16 10.3-7.53-2.52 4.38-12.21 24.32-.14 22.07 9.16-1.71 17.32-24.09 17.32-24.09s-7.95 22.96-2.69 22.33c11.58-1.4 18.65-18.33 19.29-24.63.28 5.81 12.43 16.98 8.84 28.85-3.97 13.13-15.56 12.03-16.89 6.88-1.27-4.92 2.75-12.33 20.17-5.08 19.13 7.96 28.42-13.72 22.58-21.67" style="animation:hNkMDpeQ_draw_1 6700ms linear 0ms infinite,hNkMDpeQ_fade 6700ms linear 0ms infinite" stroke-dasharray="554 556" stroke-dashoffset="555"/><path fill="none" stroke="#C1272D" stroke-width="5" stroke-linecap="round" stroke-linejoin="round" d="M34.63 10.47c-.3 6.47-6.54 14.16-13.31 14.74-6.2.54-7.83-7-1.8-7.5 4.71-.39 7.31 5.47 11.53 6.59 6.79 1.81 14.42-2.83 17.12-8.9-4.71 7.01-12.21 31.55 8.53 29.04 5.72-.69 6.45-30.54 15.54-31.21-6.43.58-10.46 16.79-2.26 16.08 5.3-.46 9.22-4.96 11.17-9.17-2.64 7.95-9.58 22 .83 21.07 8.11-.72 9.02-22.93 17.52-23.95.47 3.56-3.29 21.27-.27 22.03 7.58 1.92 17.96-15.01 18.83-19.4.52-2.62-2.96-4.5-2.71-.92.22 3.15 3.86 2.67 6.04 1.89 2.77-.99 7.78-3.16 10.3-7.53-2.52 4.38-12.21 24.32-.14 22.07 9.16-1.71 17.32-24.09 17.32-24.09s-7.95 22.96-2.69 22.33c11.58-1.4 18.65-18.33 19.29-24.63.28 5.81 12.43 16.98 8.84 28.85-3.97 13.13-15.56 12.03-16.89 6.88-1.27-4.92 2.75-12.33 20.17-5.08 19.13 7.96 28.42-13.72 22.58-21.67" style="animation:hNkMDpeQ_draw_2 6700ms linear 0ms infinite,hNkMDpeQ_fade 6700ms linear 0ms infinite" stroke-dasharray="554 556" stroke-dashoffset="555"/><path fill="none" stroke="#0071BC" stroke-miterlimit="10" d="M102.93 70.08c-1.25 0-2.55-.31-3.88-.93-.45.31-.99.49-1.57.49H95.6c-.62 0-1.47 0-4.51-3.04v.33c0 1.47-1.2 2.67-2.67 2.67l-6.5-.01c-1.53 0-2.73-1.22-2.73-2.77V56.75c0-1.55 1.2-2.77 2.73-2.77h2.28c.36 0 .7.07 1.02.2.32-.13.67-.2 1.03-.2h2.07c1.7 0 2.41.82 3.49 2.07.23.27.51.59.85.97v-.35c0-1.45 1.21-2.68 2.65-2.68h2.11c.69 0 1.33.24 1.83.65 1.05-.66 2.35-1.02 3.76-1.02 1.18 0 2.35.24 3.4.69.36-.17.77-.27 1.2-.27h8.73c.56 0 1.1.18 1.54.49.49-.32 1.06-.5 1.67-.53h2.49c1.27.05 2.31.7 2.81 1.69.45-1 1.43-1.69 2.56-1.69h2.07c1.73 0 2.55.91 3.1 1.51l1.25 1.38v-.2c0-1.45 1.21-2.68 2.65-2.68h2.12c.24 0 .47.03.69.08.14-.02.29-.03.44-.03h8.73c.68 0 1.3.24 1.82.7l.02.02.03.03.01.01c.06.06.11.11.16.17l.01.01c.44.52.66 1.11.66 1.74v1.93c0 1.47-1.24 2.72-2.72 2.72h-.63v5.53c0 1.52-1.2 2.75-2.67 2.75h-2.21c-.86 0-1.62-.42-2.11-1.06-.53.64-1.32 1.06-2.19 1.06h-1.88c-1.9 0-3.13-1.45-3.94-2.42-.15-.17-.28-.34-.42-.48-.04-.04-.09-.1-.15-.16v.37c0 1.47-1.2 2.67-2.67 2.67h-5.61c-1.52 0-2.36-.91-2.66-1.8l-.5-1.29-.47 1.28c-.37 1.11-1.45 1.83-2.78 1.83h-6.62c-1.26 0-2.31-.89-2.59-2.09-.66.81-1.52 1.48-2.51 1.92-.9.38-1.89.58-2.91.58z" style="animation:hNkMDpeQ_draw_3 6700ms linear 0ms infinite,hNkMDpeQ_fade 6700ms linear 0ms infinite" stroke-dasharray="190 192" stroke-dashoffset="191"/><path fill="none" stroke="#0071BC" stroke-linejoin="round" stroke-miterlimit="10" d="M102.93 68.08c-1.41 0-2.96-.54-4.6-1.61v.3c0 .45-.4.87-.85.87H95.6c-1.1 0-6.46-6.08-6.51-6.14v5.42c0 .37-.3.67-.67.67l-6.5-.01c-.43 0-.73-.32-.73-.77V56.75c0-.44.31-.77.73-.77h2.28c.4 0 .72.34.72.77v7.33h.5v-7.16c0-.44.34-.93.83-.93h2.07c.79 0 1.02.26 1.98 1.38.25.29.56.64.93 1.06l3.43 3.73v-5.48c0-.36.31-.68.65-.68h2.11c.48 0 .9.41.9.88v7.5l.23-.3c.31-.44.55-.62.84-.62.25 0 .54.14.89.36.69.49 1.56 1.1 2.54 1.1.19 0 .37-.02.56-.07.26-.06.46-.23.55-.47.09-.24.04-.51-.12-.73-.27-.36-.73-.57-1.35-.61h.02c-1.42-.29-2.82-.72-3.45-1.85-.64-1.16-.56-2.73.21-3.83.78-1.11 2.13-1.73 3.78-1.73 1.42 0 2.86.47 3.87 1.26v-.16c0-.38.33-.68.73-.68h8.73c.38 0 .72.33.72.68v1.93c0 .38-.33.72-.72.72h-2.63v4.74h1.89l2.9-7.37c.19-.45.61-.73 1.13-.75h2.4c.53.02.96.32 1.1.75l2.93 7.37h.51v-7.19c0-.44.34-.93.83-.93h2.07c.84 0 1.15.34 1.62.85.08.09.17.18.26.28l4.46 4.97v-5.42c0-.36.31-.68.65-.68h2.12c.23 0 .43.08.61.25.14-.13.31-.2.52-.2h8.73c.17 0 .33.06.46.18l-.01-.01.04.04.01.01.01.01.01.01-.01-.01c.12.13.18.28.18.44v1.93c0 .38-.33.72-.72.72h-2.63v7.53c0 .37-.25.75-.67.75h-2.21c-.42 0-.67-.37-.67-.73v-7.54h-2.78v7.41c0 .45-.4.87-.85.87h-1.88c-.97 0-1.74-.91-2.42-1.71-.17-.2-.34-.4-.49-.56-.62-.65-3.57-3.84-3.6-3.87v5.45c0 .37-.3.67-.67.67h-5.61c-.28 0-.65-.05-.77-.46l-2.43-6.33-2.31 6.33c-.13.44-.66.48-.89.48h-6.62c-.42 0-.67-.37-.67-.73v-7.54h-2.67c-.36 0-.66-.25-.71-.61l-.37.4c-.21.22-.43.33-.68.33-.36 0-.72-.23-1.1-.48-.23-.15-.48-.31-.72-.41-.28-.11-.7-.19-1.08-.19-.5 0-.87.13-1.05.36-.13.18-.16.42-.07.71.21.72 1.12.87 1.92.99.28.04.54.09.75.15 1.08.34 1.91.86 2.47 1.55.62.76.83 1.66.61 2.59-.29 1.2-1.28 2.33-2.54 2.88-.62.27-1.34.42-2.08.42z" style="animation:hNkMDpeQ_draw_4 6700ms linear 0ms infinite,hNkMDpeQ_fade 6700ms linear 0ms infinite" stroke-dasharray="317 319" stroke-dashoffset="318"/><style>@keyframes hNkMDpeQ_draw{to{stroke-dashoffset:0}}@keyframes hNkMDpeQ_fade{0%,94.02985074626866%{stroke-opacity:1}to{stroke-opacity:0}}@keyframes hNkMDpeQ_draw_0{4.477611940298507%{stroke-dashoffset:555}43.88059701492537%,to{stroke-dashoffset:0}}@keyframes hNkMDpeQ_draw_1{5.820895522388059%{stroke-dashoffset:555}45.223880597014926%,to{stroke-dashoffset:0}}@keyframes hNkMDpeQ_draw_2{7.164179104477612%{stroke-dashoffset:555}46.56716417910447%,to{stroke-dashoffset:0}}@keyframes hNkMDpeQ_draw_3{8.507462686567164%{stroke-dashoffset:191}47.91044776119403%,to{stroke-dashoffset:0}}@keyframes hNkMDpeQ_draw_4{9.850746268656717%{stroke-dashoffset:318}49.25373134328358%,to{stroke-dashoffset:0}}</style></svg>
