<?xml version="1.0" encoding="UTF-8" standalone="no"?>
<svg
   xmlns:dc="http://purl.org/dc/elements/1.1/"
   xmlns:cc="http://creativecommons.org/ns#"
   xmlns:rdf="http://www.w3.org/1999/02/22-rdf-syntax-ns#"
   xmlns:svg="http://www.w3.org/2000/svg"
   xmlns="http://www.w3.org/2000/svg"
   xmlns:sodipodi="http://sodipodi.sourceforge.net/DTD/sodipodi-0.dtd"
   xmlns:inkscape="http://www.inkscape.org/namespaces/inkscape"
   inkscape:export-ydpi="96"
   inkscape:export-xdpi="96"
   inkscape:export-filename="C:\Users\vstar\Desktop\SVG\На сайт включая favicon\emiia_analytics_logo_bim_500_500.png"
   sodipodi:docname="logo_mrv.svg"
   inkscape:version="1.0 (4035a4fb49, 2020-05-01)"
   id="svg18207"
   version="1.1"
   viewBox="0 0 97.102486 21.960514"
   height="83"
   width="367">
  <defs
     id="defs18201" />
  <sodipodi:namedview
     inkscape:window-maximized="0"
     inkscape:window-y="0"
     inkscape:window-x="0"
     inkscape:window-height="1024"
     inkscape:window-width="1898"
     units="px"
     showgrid="false"
     inkscape:document-rotation="0"
     inkscape:current-layer="layer1"
     inkscape:document-units="mm"
     inkscape:cy="194.1114"
     inkscape:cx="204.47907"
     inkscape:zoom="0.98994951"
     inkscape:pageshadow="2"
     inkscape:pageopacity="0.0"
     borderopacity="1.0"
     bordercolor="#666666"
     pagecolor="#ffffff"
     id="base" />
  <metadata
     id="metadata18204">
    <rdf:RDF>
      <cc:Work
         rdf:about="">
        <dc:format>image/svg+xml</dc:format>
        <dc:type
           rdf:resource="http://purl.org/dc/dcmitype/StillImage" />
        <dc:title></dc:title>
      </cc:Work>
    </rdf:RDF>
  </metadata>
  <g
     id="layer1"
     inkscape:groupmode="layer"
     inkscape:label="Слой 1">
    <g
       transform="matrix(0.28616294,0,0,0.28616294,8.5095859,2.8252431)"
       style="font-size:60.6103px;line-height:1.25;font-family:sans-serif;fill:#383838;fill-opacity:1;stroke:none;stroke-width:0.631618;stroke-miterlimit:4;stroke-dasharray:none;stroke-opacity:1"
       id="text835"
       aria-label="EMIIA.AI">
      <path
         id="path1470"
         style="font-style:normal;font-variant:normal;font-weight:normal;font-stretch:normal;font-size:60.6103px;font-family:Orbitron;-inkscape-font-specification:Orbitron;fill:#383838;fill-opacity:1;stroke:none;stroke-width:0.631618;stroke-miterlimit:4;stroke-dasharray:none;stroke-opacity:1"
         d="M 90.521735,2.4454509 V 7.354885 H 55.610203 V 21.780136 H 83.672771 V 26.75018 H 55.610203 v 14.425251 h 34.911532 v 4.909435 H 50.700769 V 2.4454509 Z" />
      <path
         id="path1472"
         style="font-style:normal;font-variant:normal;font-weight:normal;font-stretch:normal;font-size:60.6103px;font-family:Orbitron;-inkscape-font-specification:Orbitron;fill:#383838;fill-opacity:1;stroke:none;stroke-width:0.631618;stroke-miterlimit:4;stroke-dasharray:none;stroke-opacity:1"
         d="M 120.05884,24.022717 138.18132,2.4454509 h 6.72774 V 46.084866 h -4.90944 V 8.0215983 L 120.05884,31.720225 100.11805,8.0215983 V 46.084866 H 95.208615 V 2.4454509 h 6.727745 z" />
      <path
         id="path1474"
         style="font-style:normal;font-variant:normal;font-weight:normal;font-stretch:normal;font-size:60.6103px;font-family:Orbitron;-inkscape-font-specification:Orbitron;fill:#383838;fill-opacity:1;stroke:none;stroke-width:0.631618;stroke-miterlimit:4;stroke-dasharray:none;stroke-opacity:1"
         d="M 151.49949,46.084866 V 2.4454509 h 4.90943 V 46.084866 Z" />
      <path
         id="path1476"
         style="font-style:normal;font-variant:normal;font-weight:normal;font-stretch:normal;font-size:60.6103px;font-family:Orbitron;-inkscape-font-specification:Orbitron;fill:#383838;fill-opacity:1;stroke:none;stroke-width:0.631618;stroke-miterlimit:4;stroke-dasharray:none;stroke-opacity:1"
         d="M 164.87636,46.084866 V 2.4454509 h 4.90944 V 46.084866 Z" />
      <path
         id="path1478"
         style="font-style:normal;font-variant:normal;font-weight:normal;font-stretch:normal;font-size:60.6103px;font-family:Orbitron;-inkscape-font-specification:Orbitron;fill:#383838;fill-opacity:1;stroke:none;stroke-width:0.631618;stroke-miterlimit:4;stroke-dasharray:none;stroke-opacity:1"
         d="m 185.58709,2.4454509 h 29.09295 q 3.03051,0 5.15187,2.1213604 2.12136,2.1213605 2.12136,5.1518754 V 46.084866 h -4.90943 V 30.144357 h -33.82055 v 15.940509 h -4.90943 V 9.7186867 q 0,-3.0305149 2.12136,-5.1518754 2.12136,-2.1213604 5.15187,-2.1213604 z m -2.3638,22.7894721 h 33.82055 V 9.7186867 q 0,-0.9697648 -0.72732,-1.6364781 Q 215.6498,7.354885 214.68004,7.354885 h -29.09295 q -0.96976,0 -1.69708,0.7273236 -0.66672,0.6667133 -0.66672,1.6364781 z" />
      <path
         id="path1480"
         style="font-style:normal;font-variant:normal;font-weight:normal;font-stretch:normal;font-size:60.6103px;font-family:Orbitron;-inkscape-font-specification:Orbitron;fill:#383838;fill-opacity:1;stroke:none;stroke-width:0.631618;stroke-miterlimit:4;stroke-dasharray:none;stroke-opacity:1"
         d="m 233.70788,41.114821 v 4.970045 h -4.97004 v -4.970045 z" />
      <path
         id="path1482"
         style="font-style:normal;font-variant:normal;font-weight:normal;font-stretch:normal;font-size:60.6103px;font-family:Orbitron;-inkscape-font-specification:Orbitron;fill:#383838;fill-opacity:1;stroke:none;stroke-width:0.631618;stroke-miterlimit:4;stroke-dasharray:none;stroke-opacity:1"
         d="m 249.27526,2.4454509 h 29.09294 q 3.03052,0 5.15188,2.1213604 2.12136,2.1213605 2.12136,5.1518754 V 46.084866 H 280.732 V 30.144357 h -33.82054 v 15.940509 h -4.90944 V 9.7186867 q 0,-3.0305149 2.12136,-5.1518754 2.12136,-2.1213604 5.15188,-2.1213604 z m -2.3638,22.7894721 H 280.732 V 9.7186867 q 0,-0.9697648 -0.72732,-1.6364781 Q 279.33797,7.354885 278.3682,7.354885 h -29.09294 q -0.96977,0 -1.69709,0.7273236 -0.66671,0.6667133 -0.66671,1.6364781 z" />
      <path
         id="path1484"
         style="font-style:normal;font-variant:normal;font-weight:normal;font-stretch:normal;font-size:60.6103px;font-family:Orbitron;-inkscape-font-specification:Orbitron;fill:#383838;fill-opacity:1;stroke:none;stroke-width:0.631618;stroke-miterlimit:4;stroke-dasharray:none;stroke-opacity:1"
         d="M 292.60784,46.084866 V 2.4454509 h 4.90943 V 46.084866 Z" />
    </g>
    <path
       id="path1384-0-5"
       d="m 18.476007,9.9960321 c 0.25823,4.1891769 -2.639753,7.7184069 -6.54199,8.4931239 -0.143477,0.02866 -0.286941,0.114766 -0.401709,0.229534 l -0.918172,1.090338 c -0.143467,0.143466 -0.373011,0.143466 -0.487778,0 L 9.2081859,18.71869 c -0.08611,-0.114759 -0.229548,-0.200854 -0.40171,-0.229534 -3.730076,-0.71733 -6.57069,-4.017023 -6.57069,-7.976647 0,-4.6482609 3.930937,-8.4070339 8.6365801,-8.0914179 4.074402,0.229545 7.345409,3.529227 7.603641,7.574941 z"
       class="st18"
       style="fill:none;fill-opacity:1;stroke:#383838;stroke-width:1.32684;stroke-miterlimit:4;stroke-dasharray:none;stroke-opacity:1" />
    <g
       transform="matrix(1.065803,0,0,1.065803,-20.30547,-60.489996)"
       id="g6433">
      <path
         id="path1148-5"
         d="m 28.473365,64.465887 a 0.6035959,0.6035959 0 0 0 -0.603636,0.603647 v 2.974435 a 0.6035959,0.6035959 0 0 0 0.603636,0.603661 0.6035959,0.6035959 0 0 0 0.603661,-0.603661 v -2.974435 a 0.6035959,0.6035959 0 0 0 -0.603661,-0.603647 z"
         style="color:#000000;font-style:normal;font-variant:normal;font-weight:normal;font-stretch:normal;font-size:medium;line-height:normal;font-family:sans-serif;font-variant-ligatures:normal;font-variant-position:normal;font-variant-caps:normal;font-variant-numeric:normal;font-variant-alternates:normal;font-variant-east-asian:normal;font-feature-settings:normal;font-variation-settings:normal;text-indent:0;text-align:start;text-decoration:none;text-decoration-line:none;text-decoration-style:solid;text-decoration-color:#000000;letter-spacing:normal;word-spacing:normal;text-transform:none;writing-mode:lr-tb;direction:ltr;text-orientation:mixed;dominant-baseline:auto;baseline-shift:baseline;text-anchor:start;white-space:normal;shape-padding:0;shape-margin:0;inline-size:0;clip-rule:nonzero;display:inline;overflow:visible;visibility:visible;isolation:auto;mix-blend-mode:normal;color-interpolation:sRGB;color-interpolation-filters:linearRGB;solid-color:#000000;solid-opacity:1;vector-effect:none;fill:#383838;fill-opacity:1;fill-rule:nonzero;stroke:#383838;stroke-width:0;stroke-linecap:round;stroke-linejoin:round;stroke-miterlimit:4;stroke-dasharray:none;stroke-dashoffset:0;stroke-opacity:1;color-rendering:auto;image-rendering:auto;shape-rendering:auto;text-rendering:auto;enable-background:accumulate;stop-color:#000000" />
      <path
         id="path1144-8"
         d="m 25.777073,65.806002 a 0.6035959,0.6035959 0 0 0 -0.603647,0.603648 v 1.702737 a 0.6035959,0.6035959 0 0 0 0.603647,0.603648 0.6035959,0.6035959 0 0 0 0.603661,-0.603648 V 66.40965 a 0.6035959,0.6035959 0 0 0 -0.603661,-0.603648 z"
         style="color:#000000;font-style:normal;font-variant:normal;font-weight:normal;font-stretch:normal;font-size:medium;line-height:normal;font-family:sans-serif;font-variant-ligatures:normal;font-variant-position:normal;font-variant-caps:normal;font-variant-numeric:normal;font-variant-alternates:normal;font-variant-east-asian:normal;font-feature-settings:normal;font-variation-settings:normal;text-indent:0;text-align:start;text-decoration:none;text-decoration-line:none;text-decoration-style:solid;text-decoration-color:#000000;letter-spacing:normal;word-spacing:normal;text-transform:none;writing-mode:lr-tb;direction:ltr;text-orientation:mixed;dominant-baseline:auto;baseline-shift:baseline;text-anchor:start;white-space:normal;shape-padding:0;shape-margin:0;inline-size:0;clip-rule:nonzero;display:inline;overflow:visible;visibility:visible;isolation:auto;mix-blend-mode:normal;color-interpolation:sRGB;color-interpolation-filters:linearRGB;solid-color:#000000;solid-opacity:1;vector-effect:none;fill:#383838;fill-opacity:1;fill-rule:nonzero;stroke:#383838;stroke-width:0;stroke-linecap:round;stroke-linejoin:round;stroke-miterlimit:4;stroke-dasharray:none;stroke-dashoffset:0;stroke-opacity:1;color-rendering:auto;image-rendering:auto;shape-rendering:auto;text-rendering:auto;enable-background:accumulate;stop-color:#000000" />
      <path
         id="path1152-3"
         d="m 31.210832,63.402123 a 0.6035959,0.6035959 0 0 0 -0.603661,0.603647 v 4.152682 a 0.6035959,0.6035959 0 0 0 0.603661,0.603653 0.6035959,0.6035959 0 0 0 0.603634,-0.603653 V 64.00577 a 0.6035959,0.6035959 0 0 0 -0.603634,-0.603647 z"
         style="color:#000000;font-style:normal;font-variant:normal;font-weight:normal;font-stretch:normal;font-size:medium;line-height:normal;font-family:sans-serif;font-variant-ligatures:normal;font-variant-position:normal;font-variant-caps:normal;font-variant-numeric:normal;font-variant-alternates:normal;font-variant-east-asian:normal;font-feature-settings:normal;font-variation-settings:normal;text-indent:0;text-align:start;text-decoration:none;text-decoration-line:none;text-decoration-style:solid;text-decoration-color:#000000;letter-spacing:normal;word-spacing:normal;text-transform:none;writing-mode:lr-tb;direction:ltr;text-orientation:mixed;dominant-baseline:auto;baseline-shift:baseline;text-anchor:start;white-space:normal;shape-padding:0;shape-margin:0;inline-size:0;clip-rule:nonzero;display:inline;overflow:visible;visibility:visible;isolation:auto;mix-blend-mode:normal;color-interpolation:sRGB;color-interpolation-filters:linearRGB;solid-color:#000000;solid-opacity:1;vector-effect:none;fill:#383838;fill-opacity:1;fill-rule:nonzero;stroke:#383838;stroke-width:0;stroke-linecap:round;stroke-linejoin:round;stroke-miterlimit:4;stroke-dasharray:none;stroke-dashoffset:0;stroke-opacity:1;color-rendering:auto;image-rendering:auto;shape-rendering:auto;text-rendering:auto;enable-background:accumulate;stop-color:#000000" />
    </g>
    <g
       style="font-size:3.42005px;line-height:1.25;font-family:Orbitron;-inkscape-font-specification:Orbitron;stroke-width:0.203855"
       id="text16754"
       aria-label="MACHINE RADIO VISION"
       transform="translate(-18.420187,-56.904471)">
      <path
         id="path16811"
         style="font-size:3.42005px;stroke-width:0.203855"
         d="m 68.520142,75.957716 1.022595,-1.217538 h 0.379626 v 2.462436 h -0.277024 v -2.147792 l -1.125197,1.33724 -1.125196,-1.33724 v 2.147792 h -0.277024 v -2.462436 h 0.379626 z" />
      <path
         id="path16813"
         style="font-size:3.42005px;stroke-width:0.203855"
         d="m 70.708066,74.740178 h 1.641624 q 0.171002,0 0.290704,0.119702 0.119702,0.119701 0.119702,0.290704 v 2.05203 h -0.277024 v -0.899473 h -1.908388 v 0.899473 H 70.29766 v -2.05203 q 0,-0.171003 0.119702,-0.290704 0.119701,-0.119702 0.290704,-0.119702 z m -0.133382,1.285939 h 1.908388 v -0.875533 q 0,-0.05472 -0.04104,-0.09234 -0.03762,-0.04104 -0.09234,-0.04104 h -1.641624 q -0.05472,0 -0.09576,0.04104 -0.03762,0.03762 -0.03762,0.09234 z" />
      <path
         id="path16815"
         style="font-size:3.42005px;stroke-width:0.203855"
         d="m 75.605364,75.017202 h -2.04519 q -0.05472,0 -0.09576,0.04104 -0.03762,0.03762 -0.03762,0.09234 v 1.641624 q 0,0.05472 0.03762,0.09576 0.04104,0.03762 0.09576,0.03762 h 2.04519 v 0.277024 h -2.04519 q -0.171002,0 -0.290704,-0.119702 -0.119702,-0.119702 -0.119702,-0.290704 V 75.15058 q 0,-0.171003 0.119702,-0.290704 0.119702,-0.119702 0.290704,-0.119702 h 2.04519 z" />
      <path
         id="path16817"
         style="font-size:3.42005px;stroke-width:0.203855"
         d="m 78.20893,74.740178 h 0.280444 v 2.462436 H 78.20893 v -1.090996 h -1.966529 v 1.090996 h -0.277024 v -2.462436 h 0.277024 v 1.090996 h 1.966529 z" />
      <path
         id="path16819"
         style="font-size:3.42005px;stroke-width:0.203855"
         d="m 78.877764,77.202614 v -2.462436 h 0.277024 v 2.462436 z" />
      <path
         id="path16821"
         style="font-size:3.42005px;stroke-width:0.203855"
         d="m 81.814571,76.887969 v -2.147791 h 0.277024 v 2.462436 H 81.71197 l -1.805787,-2.147792 v 2.147792 h -0.277024 v -2.462436 h 0.379626 z" />
      <path
         id="path16823"
         style="font-size:3.42005px;stroke-width:0.203855"
         d="m 84.728561,74.740178 v 0.277024 h -1.969949 v 0.813972 h 1.583483 v 0.280444 h -1.583483 v 0.813972 h 1.969949 v 0.277024 h -2.246973 v -2.462436 z" />
      <path
         id="path16825"
         style="font-size:3.42005px;stroke-width:0.203855"
         d="m 88.480729,75.154004 v 0.72163 q 0,0.171003 -0.119701,0.290705 -0.119702,0.119701 -0.290705,0.119701 h -0.376205 l 0.772931,0.916574 H 88.101104 L 87.331593,76.28604 h -0.902894 q -0.03078,0 -0.133382,-0.01368 v 0.930254 h -0.277024 v -2.459016 h 2.05203 q 0.171003,0 0.290705,0.119702 0.119701,0.119701 0.119701,0.290704 z m -2.05203,0.851592 h 1.641624 q 0.05472,0 0.09234,-0.03762 0.03762,-0.03762 0.03762,-0.09234 v -0.72163 q 0,-0.05472 -0.03762,-0.09234 -0.03762,-0.04104 -0.09234,-0.04104 h -1.641624 q -0.05472,0 -0.09576,0.04104 -0.03762,0.03762 -0.03762,0.09234 v 0.72163 q 0,0.05472 0.03762,0.09234 0.04104,0.03762 0.09576,0.03762 z" />
      <path
         id="path16827"
         style="font-size:3.42005px;stroke-width:0.203855"
         d="m 89.257828,74.740178 h 1.641624 q 0.171003,0 0.290704,0.119702 0.119702,0.119701 0.119702,0.290704 v 2.05203 h -0.277024 v -0.899473 h -1.908388 v 0.899473 h -0.277024 v -2.05203 q 0,-0.171003 0.119702,-0.290704 0.119702,-0.119702 0.290704,-0.119702 z m -0.133382,1.285939 h 1.908388 v -0.875533 q 0,-0.05472 -0.04104,-0.09234 -0.03762,-0.04104 -0.09234,-0.04104 H 89.25783 q -0.05472,0 -0.09576,0.04104 -0.03762,0.03762 -0.03762,0.09234 z" />
      <path
         id="path16829"
         style="font-size:3.42005px;stroke-width:0.203855"
         d="m 91.706372,74.740178 h 2.05203 q 0.171002,0 0.290704,0.119702 0.119702,0.119701 0.119702,0.290704 v 1.641624 q 0,0.171002 -0.119702,0.290704 -0.119702,0.119702 -0.290704,0.119702 h -2.05203 z m 2.185412,2.05203 v -1.641624 q 0,-0.05472 -0.04104,-0.09234 -0.03762,-0.04104 -0.09234,-0.04104 H 92.11678 q -0.05472,0 -0.09576,0.04104 -0.03762,0.03762 -0.03762,0.09234 v 1.641624 q 0,0.05472 0.03762,0.09576 0.04104,0.03762 0.09576,0.03762 h 1.641624 q 0.05472,0 0.09234,-0.03762 0.04104,-0.04104 0.04104,-0.09576 z" />
      <path
         id="path16831"
         style="font-size:3.42005px;stroke-width:0.203855"
         d="m 94.55522,77.202614 v -2.462436 h 0.277024 v 2.462436 z" />
      <path
         id="path16833"
         style="font-size:3.42005px;stroke-width:0.203855"
         d="m 95.71018,74.740178 h 1.641624 q 0.171002,0 0.290704,0.119702 0.119702,0.119701 0.119702,0.290704 v 1.641624 q 0,0.171002 -0.119702,0.290704 -0.119702,0.119702 -0.290704,0.119702 H 95.71018 q -0.171002,0 -0.290704,-0.119702 -0.119702,-0.119702 -0.119702,-0.290704 v -1.641624 q 0,-0.171003 0.119702,-0.290704 0.119702,-0.119702 0.290704,-0.119702 z m 0,2.185412 h 1.641624 q 0.05472,0 0.09234,-0.03762 0.04104,-0.04104 0.04104,-0.09576 v -1.641624 q 0,-0.05472 -0.04104,-0.09234 -0.03762,-0.04104 -0.09234,-0.04104 H 95.71018 q -0.05472,0 -0.09576,0.04104 -0.03762,0.03762 -0.03762,0.09234 v 1.641624 q 0,0.05472 0.03762,0.09576 0.04104,0.03762 0.09576,0.03762 z" />
      <path
         id="path16835"
         style="font-size:3.42005px;stroke-width:0.203855"
         d="m 100.58242,76.93243 1.25857,-2.192252 h 0.32491 l -1.42274,2.462436 h -0.32149 l -1.426158,-2.462436 h 0.324905 z" />
      <path
         id="path16837"
         style="font-size:3.42005px;stroke-width:0.203855"
         d="m 102.50416,77.202614 v -2.462436 h 0.27703 v 2.462436 z" />
      <path
         id="path16839"
         style="font-size:3.42005px;stroke-width:0.203855"
         d="m 105.7009,75.150584 v 0.09576 h -0.27703 v -0.09576 q 0,-0.05472 -0.041,-0.09234 -0.0376,-0.04104 -0.0923,-0.04104 h -1.64162 q -0.0547,0 -0.0958,0.04104 -0.0376,0.03762 -0.0376,0.09234 v 0.550628 q 0,0.05472 0.0376,0.09234 0.041,0.03762 0.0958,0.03762 h 1.64162 q 0.171,0 0.2907,0.119702 0.11971,0.119701 0.11971,0.290704 v 0.550628 q 0,0.171002 -0.11971,0.290704 -0.1197,0.119702 -0.2907,0.119702 h -1.64162 q -0.17101,0 -0.29071,-0.119702 -0.1197,-0.119702 -0.1197,-0.290704 v -0.09576 h 0.27702 v 0.09576 q 0,0.05472 0.0376,0.09576 0.041,0.03762 0.0958,0.03762 h 1.64162 q 0.0547,0 0.0923,-0.03762 0.041,-0.04104 0.041,-0.09576 V 76.24158 q 0,-0.05472 -0.041,-0.09234 -0.0376,-0.03762 -0.0923,-0.03762 h -1.64162 q -0.17101,0 -0.29071,-0.119702 -0.1197,-0.119702 -0.1197,-0.290704 v -0.550628 q 0,-0.171003 0.1197,-0.290704 0.1197,-0.119702 0.29071,-0.119702 h 1.64162 q 0.171,0 0.2907,0.119702 0.11971,0.119701 0.11971,0.290704 z" />
      <path
         id="path16841"
         style="font-size:3.42005px;stroke-width:0.203855"
         d="m 106.07117,77.202614 v -2.462436 h 0.27702 v 2.462436 z" />
      <path
         id="path16843"
         style="font-size:3.42005px;stroke-width:0.203855"
         d="m 107.22613,74.740178 h 1.64163 q 0.171,0 0.2907,0.119702 0.1197,0.119701 0.1197,0.290704 v 1.641624 q 0,0.171002 -0.1197,0.290704 -0.1197,0.119702 -0.2907,0.119702 h -1.64163 q -0.171,0 -0.2907,-0.119702 -0.1197,-0.119702 -0.1197,-0.290704 v -1.641624 q 0,-0.171003 0.1197,-0.290704 0.1197,-0.119702 0.2907,-0.119702 z m 0,2.185412 h 1.64163 q 0.0547,0 0.0923,-0.03762 0.041,-0.04104 0.041,-0.09576 v -1.641624 q 0,-0.05472 -0.041,-0.09234 -0.0376,-0.04104 -0.0923,-0.04104 h -1.64163 q -0.0547,0 -0.0958,0.04104 -0.0376,0.03762 -0.0376,0.09234 v 1.641624 q 0,0.05472 0.0376,0.09576 0.041,0.03762 0.0958,0.03762 z" />
      <path
         id="path16845"
         style="font-size:3.42005px;stroke-width:0.203855"
         d="m 111.84021,76.887969 v -2.147791 h 0.27702 v 2.462436 h -0.37962 l -1.80579,-2.147792 v 2.147792 h -0.27703 v -2.462436 h 0.37963 z" />
    </g>
  </g>
</svg>
