<svg xmlns="http://www.w3.org/2000/svg" id="svg877" version="1.1" viewBox="0 0 48.02 69.639"><style id="style863" type="text/css"/>

<path id="path5471-7" fill="none" stroke="#000" stroke-dasharray="none" stroke-dashoffset="0" stroke-linecap="round" stroke-linejoin="round" stroke-miterlimit="4" stroke-opacity="1" stroke-width="2.199" d="M29.863 16.06v11.36m-12.289-4.597v4.659m6.113-8.136v8.136"/><g id="g906" stroke="#000" stroke-dasharray="none" stroke-miterlimit="4" stroke-opacity="1" stroke-width="2.099" transform="matrix(.8875 0 0 .85675 80.916 -7.248)">


<path id="path892" style="line-height:normal;font-variant-ligatures:normal;font-variant-position:normal;font-variant-caps:normal;font-variant-numeric:normal;font-variant-alternates:normal;font-variant-east-asian:normal;font-feature-settings:normal;font-variation-settings:normal;text-indent:0;text-align:start;text-decoration-line:none;text-decoration-style:solid;text-decoration-color:#000;text-transform:none;text-orientation:mixed;white-space:normal;shape-padding:0;shape-margin:0;inline-size:0;isolation:auto;mix-blend-mode:normal;solid-color:#000;solid-opacity:1" fill="none" fill-opacity="1" fill-rule="nonzero" stroke="#000" stroke-dasharray="none" stroke-dashoffset="0" stroke-linecap="round" stroke-linejoin="round" stroke-miterlimit="4" stroke-opacity="1" stroke-width="2.099" d="M-64.055 67.837c4.162-4.192 9.321-9.392 12.323-12.35 4.564-4.641 8.05-8.69 9.561-12.776a21.13 21.13 0 0 0 1.29-6.558c.006-.118.004-.236.012-.354.15-2.252-.037-4.243-.375-6.133-2.118-11.838-12.461-19.01-22.305-18.986-5.572.013-11.19 1.93-15.694 5.84-2.27 1.97-4.263 4.451-5.676 7.297-1.29 2.597-2.097 5.498-2.191 8.59-.114 3.699.104 8.489 2.24 12.778.424.853.924 1.685 1.513 2.486.437.595 1.457 1.84 1.939 2.434 1.971 2.432 3.713 4.197 6.009 6.545 3.27 3.343 6.492 6.816 11.354 11.187z" baseline-shift="baseline" clip-rule="nonzero" color="#000" color-interpolation="sRGB" color-interpolation-filters="linearRGB" color-rendering="auto" direction="ltr" display="inline" dominant-baseline="auto" font-family="sans-serif" font-size="medium" font-stretch="normal" font-style="normal" font-variant="normal" font-weight="400" image-rendering="auto" letter-spacing="normal" overflow="visible" paint-order="markers fill stroke" shape-rendering="auto" stop-color="#000" text-anchor="start" text-decoration="none" text-rendering="auto" vector-effect="none" visibility="visible" word-spacing="normal" writing-mode="lr-tb"/>

<path/>

</svg>
