<?xml version="1.0" encoding="UTF-8" standalone="no"?>
<svg
   xmlns:dc="http://purl.org/dc/elements/1.1/"
   xmlns:cc="http://creativecommons.org/ns#"
   xmlns:rdf="http://www.w3.org/1999/02/22-rdf-syntax-ns#"
   xmlns:svg="http://www.w3.org/2000/svg"
   xmlns="http://www.w3.org/2000/svg"
   xmlns:sodipodi="http://sodipodi.sourceforge.net/DTD/sodipodi-0.dtd"
   xmlns:inkscape="http://www.inkscape.org/namespaces/inkscape"
   inkscape:export-ydpi="96"
   inkscape:export-xdpi="96"
   inkscape:export-filename="C:\Users\vstar\Desktop\SVG\На сайт включая favicon\emiia_analytics_logo_bim_500_500.png"
   sodipodi:docname="logo_mrv.svg"
   inkscape:version="1.0 (4035a4fb49, 2020-05-01)"
   id="svg18207"
   version="1.1"
   viewBox="0 0 97.102486 21.960514"
   height="83"
   width="367">
  <defs
     id="defs18201" />
  <sodipodi:namedview
     inkscape:window-maximized="0"
     inkscape:window-y="0"
     inkscape:window-x="0"
     inkscape:window-height="1024"
     inkscape:window-width="1898"
     units="px"
     showgrid="false"
     inkscape:document-rotation="0"
     inkscape:current-layer="layer1"
     inkscape:document-units="mm"
     inkscape:cy="243.35571"
     inkscape:cx="149.24158"
     inkscape:zoom="0.98994951"
     inkscape:pageshadow="2"
     inkscape:pageopacity="0.0"
     borderopacity="1.0"
     bordercolor="#666666"
     pagecolor="#ffffff"
     id="base" />
  <metadata
     id="metadata18204">
    <rdf:RDF>
      <cc:Work
         rdf:about="">
        <dc:format>image/svg+xml</dc:format>
        <dc:type
           rdf:resource="http://purl.org/dc/dcmitype/StillImage" />
        <dc:title></dc:title>
      </cc:Work>
    </rdf:RDF>
  </metadata>
  <g
     id="layer1"
     inkscape:groupmode="layer"
     inkscape:label="Слой 1">
    <g
       transform="matrix(0.28616294,0,0,0.28616294,8.5095859,2.8252431)"
       style="font-size:60.6103px;line-height:1.25;font-family:sans-serif;fill:#383838;fill-opacity:1;stroke:none;stroke-width:0.631618;stroke-miterlimit:4;stroke-dasharray:none;stroke-opacity:1"
       id="text835"
       aria-label="EMIIA.AI">
      <path
         id="path1470"
         style="font-style:normal;font-variant:normal;font-weight:normal;font-stretch:normal;font-size:60.6103px;font-family:Orbitron;-inkscape-font-specification:Orbitron;fill:#383838;fill-opacity:1;stroke:none;stroke-width:0.631618;stroke-miterlimit:4;stroke-dasharray:none;stroke-opacity:1"
         d="M 90.521735,2.4454509 V 7.354885 H 55.610203 V 21.780136 H 83.672771 V 26.75018 H 55.610203 v 14.425251 h 34.911532 v 4.909435 H 50.700769 V 2.4454509 Z" />
      <path
         id="path1472"
         style="font-style:normal;font-variant:normal;font-weight:normal;font-stretch:normal;font-size:60.6103px;font-family:Orbitron;-inkscape-font-specification:Orbitron;fill:#383838;fill-opacity:1;stroke:none;stroke-width:0.631618;stroke-miterlimit:4;stroke-dasharray:none;stroke-opacity:1"
         d="M 120.05884,24.022717 138.18132,2.4454509 h 6.72774 V 46.084866 h -4.90944 V 8.0215983 L 120.05884,31.720225 100.11805,8.0215983 V 46.084866 H 95.208615 V 2.4454509 h 6.727745 z" />
      <path
         id="path1474"
         style="font-style:normal;font-variant:normal;font-weight:normal;font-stretch:normal;font-size:60.6103px;font-family:Orbitron;-inkscape-font-specification:Orbitron;fill:#383838;fill-opacity:1;stroke:none;stroke-width:0.631618;stroke-miterlimit:4;stroke-dasharray:none;stroke-opacity:1"
         d="M 151.49949,46.084866 V 2.4454509 h 4.90943 V 46.084866 Z" />
      <path
         id="path1476"
         style="font-style:normal;font-variant:normal;font-weight:normal;font-stretch:normal;font-size:60.6103px;font-family:Orbitron;-inkscape-font-specification:Orbitron;fill:#383838;fill-opacity:1;stroke:none;stroke-width:0.631618;stroke-miterlimit:4;stroke-dasharray:none;stroke-opacity:1"
         d="M 164.87636,46.084866 V 2.4454509 h 4.90944 V 46.084866 Z" />
      <path
         id="path1478"
         style="font-style:normal;font-variant:normal;font-weight:normal;font-stretch:normal;font-size:60.6103px;font-family:Orbitron;-inkscape-font-specification:Orbitron;fill:#383838;fill-opacity:1;stroke:none;stroke-width:0.631618;stroke-miterlimit:4;stroke-dasharray:none;stroke-opacity:1"
         d="m 185.58709,2.4454509 h 29.09295 q 3.03051,0 5.15187,2.1213604 2.12136,2.1213605 2.12136,5.1518754 V 46.084866 h -4.90943 V 30.144357 h -33.82055 v 15.940509 h -4.90943 V 9.7186867 q 0,-3.0305149 2.12136,-5.1518754 2.12136,-2.1213604 5.15187,-2.1213604 z m -2.3638,22.7894721 h 33.82055 V 9.7186867 q 0,-0.9697648 -0.72732,-1.6364781 Q 215.6498,7.354885 214.68004,7.354885 h -29.09295 q -0.96976,0 -1.69708,0.7273236 -0.66672,0.6667133 -0.66672,1.6364781 z" />
      <path
         id="path1480"
         style="font-style:normal;font-variant:normal;font-weight:normal;font-stretch:normal;font-size:60.6103px;font-family:Orbitron;-inkscape-font-specification:Orbitron;fill:#383838;fill-opacity:1;stroke:none;stroke-width:0.631618;stroke-miterlimit:4;stroke-dasharray:none;stroke-opacity:1"
         d="m 233.70788,41.114821 v 4.970045 h -4.97004 v -4.970045 z" />
      <path
         id="path1482"
         style="font-style:normal;font-variant:normal;font-weight:normal;font-stretch:normal;font-size:60.6103px;font-family:Orbitron;-inkscape-font-specification:Orbitron;fill:#383838;fill-opacity:1;stroke:none;stroke-width:0.631618;stroke-miterlimit:4;stroke-dasharray:none;stroke-opacity:1"
         d="m 249.27526,2.4454509 h 29.09294 q 3.03052,0 5.15188,2.1213604 2.12136,2.1213605 2.12136,5.1518754 V 46.084866 H 280.732 V 30.144357 h -33.82054 v 15.940509 h -4.90944 V 9.7186867 q 0,-3.0305149 2.12136,-5.1518754 2.12136,-2.1213604 5.15188,-2.1213604 z m -2.3638,22.7894721 H 280.732 V 9.7186867 q 0,-0.9697648 -0.72732,-1.6364781 Q 279.33797,7.354885 278.3682,7.354885 h -29.09294 q -0.96977,0 -1.69709,0.7273236 -0.66671,0.6667133 -0.66671,1.6364781 z" />
      <path
         id="path1484"
         style="font-style:normal;font-variant:normal;font-weight:normal;font-stretch:normal;font-size:60.6103px;font-family:Orbitron;-inkscape-font-specification:Orbitron;fill:#383838;fill-opacity:1;stroke:none;stroke-width:0.631618;stroke-miterlimit:4;stroke-dasharray:none;stroke-opacity:1"
         d="M 292.60784,46.084866 V 2.4454509 h 4.90943 V 46.084866 Z" />
    </g>
    <path
       id="path1384-0-5"
       d="m 18.476007,9.9960321 c 0.25823,4.1891769 -2.639753,7.7184069 -6.54199,8.4931239 -0.143477,0.02866 -0.286941,0.114766 -0.401709,0.229534 l -0.918172,1.090338 c -0.143467,0.143466 -0.373011,0.143466 -0.487778,0 L 9.2081859,18.71869 c -0.08611,-0.114759 -0.229548,-0.200854 -0.40171,-0.229534 -3.730076,-0.71733 -6.57069,-4.017023 -6.57069,-7.976647 0,-4.6482609 3.930937,-8.4070339 8.6365801,-8.0914179 4.074402,0.229545 7.345409,3.529227 7.603641,7.574941 z"
       class="st18"
       style="fill:none;fill-opacity:1;stroke:#383838;stroke-width:1.32684;stroke-miterlimit:4;stroke-dasharray:none;stroke-opacity:1" />
    <g
       transform="matrix(1.065803,0,0,1.065803,-20.30547,-60.489996)"
       id="g6433">
      <path
         id="path1148-5"
         d="m 28.473365,64.465887 a 0.6035959,0.6035959 0 0 0 -0.603636,0.603647 v 2.974435 a 0.6035959,0.6035959 0 0 0 0.603636,0.603661 0.6035959,0.6035959 0 0 0 0.603661,-0.603661 v -2.974435 a 0.6035959,0.6035959 0 0 0 -0.603661,-0.603647 z"
         style="color:#000000;font-style:normal;font-variant:normal;font-weight:normal;font-stretch:normal;font-size:medium;line-height:normal;font-family:sans-serif;font-variant-ligatures:normal;font-variant-position:normal;font-variant-caps:normal;font-variant-numeric:normal;font-variant-alternates:normal;font-variant-east-asian:normal;font-feature-settings:normal;font-variation-settings:normal;text-indent:0;text-align:start;text-decoration:none;text-decoration-line:none;text-decoration-style:solid;text-decoration-color:#000000;letter-spacing:normal;word-spacing:normal;text-transform:none;writing-mode:lr-tb;direction:ltr;text-orientation:mixed;dominant-baseline:auto;baseline-shift:baseline;text-anchor:start;white-space:normal;shape-padding:0;shape-margin:0;inline-size:0;clip-rule:nonzero;display:inline;overflow:visible;visibility:visible;isolation:auto;mix-blend-mode:normal;color-interpolation:sRGB;color-interpolation-filters:linearRGB;solid-color:#000000;solid-opacity:1;vector-effect:none;fill:#383838;fill-opacity:1;fill-rule:nonzero;stroke:#383838;stroke-width:0;stroke-linecap:round;stroke-linejoin:round;stroke-miterlimit:4;stroke-dasharray:none;stroke-dashoffset:0;stroke-opacity:1;color-rendering:auto;image-rendering:auto;shape-rendering:auto;text-rendering:auto;enable-background:accumulate;stop-color:#000000" />
      <path
         id="path1144-8"
         d="m 25.777073,65.806002 a 0.6035959,0.6035959 0 0 0 -0.603647,0.603648 v 1.702737 a 0.6035959,0.6035959 0 0 0 0.603647,0.603648 0.6035959,0.6035959 0 0 0 0.603661,-0.603648 V 66.40965 a 0.6035959,0.6035959 0 0 0 -0.603661,-0.603648 z"
         style="color:#000000;font-style:normal;font-variant:normal;font-weight:normal;font-stretch:normal;font-size:medium;line-height:normal;font-family:sans-serif;font-variant-ligatures:normal;font-variant-position:normal;font-variant-caps:normal;font-variant-numeric:normal;font-variant-alternates:normal;font-variant-east-asian:normal;font-feature-settings:normal;font-variation-settings:normal;text-indent:0;text-align:start;text-decoration:none;text-decoration-line:none;text-decoration-style:solid;text-decoration-color:#000000;letter-spacing:normal;word-spacing:normal;text-transform:none;writing-mode:lr-tb;direction:ltr;text-orientation:mixed;dominant-baseline:auto;baseline-shift:baseline;text-anchor:start;white-space:normal;shape-padding:0;shape-margin:0;inline-size:0;clip-rule:nonzero;display:inline;overflow:visible;visibility:visible;isolation:auto;mix-blend-mode:normal;color-interpolation:sRGB;color-interpolation-filters:linearRGB;solid-color:#000000;solid-opacity:1;vector-effect:none;fill:#383838;fill-opacity:1;fill-rule:nonzero;stroke:#383838;stroke-width:0;stroke-linecap:round;stroke-linejoin:round;stroke-miterlimit:4;stroke-dasharray:none;stroke-dashoffset:0;stroke-opacity:1;color-rendering:auto;image-rendering:auto;shape-rendering:auto;text-rendering:auto;enable-background:accumulate;stop-color:#000000" />
      <path
         id="path1152-3"
         d="m 31.210832,63.402123 a 0.6035959,0.6035959 0 0 0 -0.603661,0.603647 v 4.152682 a 0.6035959,0.6035959 0 0 0 0.603661,0.603653 0.6035959,0.6035959 0 0 0 0.603634,-0.603653 V 64.00577 a 0.6035959,0.6035959 0 0 0 -0.603634,-0.603647 z"
         style="color:#000000;font-style:normal;font-variant:normal;font-weight:normal;font-stretch:normal;font-size:medium;line-height:normal;font-family:sans-serif;font-variant-ligatures:normal;font-variant-position:normal;font-variant-caps:normal;font-variant-numeric:normal;font-variant-alternates:normal;font-variant-east-asian:normal;font-feature-settings:normal;font-variation-settings:normal;text-indent:0;text-align:start;text-decoration:none;text-decoration-line:none;text-decoration-style:solid;text-decoration-color:#000000;letter-spacing:normal;word-spacing:normal;text-transform:none;writing-mode:lr-tb;direction:ltr;text-orientation:mixed;dominant-baseline:auto;baseline-shift:baseline;text-anchor:start;white-space:normal;shape-padding:0;shape-margin:0;inline-size:0;clip-rule:nonzero;display:inline;overflow:visible;visibility:visible;isolation:auto;mix-blend-mode:normal;color-interpolation:sRGB;color-interpolation-filters:linearRGB;solid-color:#000000;solid-opacity:1;vector-effect:none;fill:#383838;fill-opacity:1;fill-rule:nonzero;stroke:#383838;stroke-width:0;stroke-linecap:round;stroke-linejoin:round;stroke-miterlimit:4;stroke-dasharray:none;stroke-dashoffset:0;stroke-opacity:1;color-rendering:auto;image-rendering:auto;shape-rendering:auto;text-rendering:auto;enable-background:accumulate;stop-color:#000000" />
    </g>
    <g
       style="font-size:3.52779px;line-height:1.25;font-family:Orbitron;-inkscape-font-specification:Orbitron;stroke-width:0.264584"
       id="text1883"
       aria-label="MACHINE RADIO VISION">
      <path
         id="path2030"
         style="font-size:3.88057px;stroke-width:0.264584"
         d="m 44.170746,18.880861 1.16029,-1.381483 h 0.430743 v 2.79401 H 45.447453 V 17.85639 l -1.276707,1.517303 -1.276708,-1.517303 v 2.436998 h -0.314326 v -2.79401 h 0.430743 z" />
      <path
         id="path2032"
         style="font-size:3.88057px;stroke-width:0.264584"
         d="m 46.65328,17.499378 h 1.862673 q 0.194029,0 0.329849,0.13582 0.13582,0.13582 0.13582,0.329848 v 2.328342 h -0.314327 v -1.02059 h -2.165358 v 1.02059 h -0.314326 v -2.328342 q 0,-0.194028 0.13582,-0.329848 0.13582,-0.13582 0.329849,-0.13582 z m -0.151343,1.459094 h 2.165358 v -0.993426 q 0,-0.06209 -0.04657,-0.104775 -0.04269,-0.04657 -0.104776,-0.04657 H 46.65328 q -0.06209,0 -0.108656,0.04657 -0.04269,0.04269 -0.04269,0.104775 z" />
      <path
         id="path2034"
         style="font-size:3.88057px;stroke-width:0.264584"
         d="m 52.210013,17.813704 h -2.32058 q -0.06209,0 -0.108656,0.04657 -0.04269,0.04269 -0.04269,0.104775 v 1.862674 q 0,0.06209 0.04269,0.108656 0.04657,0.04269 0.108656,0.04269 h 2.32058 v 0.314326 h -2.32058 q -0.194029,0 -0.329849,-0.13582 -0.13582,-0.13582 -0.13582,-0.329848 v -1.862674 q 0,-0.194028 0.13582,-0.329848 0.13582,-0.13582 0.329849,-0.13582 h 2.32058 z" />
      <path
         id="path2036"
         style="font-size:3.88057px;stroke-width:0.264584"
         d="m 55.164158,17.499378 h 0.318206 v 2.79401 H 55.164158 V 19.055487 H 52.93283 v 1.237901 h -0.314326 v -2.79401 h 0.314326 v 1.237902 h 2.231328 z" />
      <path
         id="path2038"
         style="font-size:3.88057px;stroke-width:0.264584"
         d="m 55.923052,20.293388 v -2.79401 h 0.314326 v 2.79401 z" />
      <path
         id="path2040"
         style="font-size:3.88057px;stroke-width:0.264584"
         d="m 59.255309,19.936376 v -2.436998 h 0.314327 v 2.79401 H 59.138892 L 57.089951,17.85639 v 2.436998 h -0.314326 v -2.79401 h 0.430744 z" />
      <path
         id="path2042"
         style="font-size:3.88057px;stroke-width:0.264584"
         d="m 62.561677,17.499378 v 0.314326 h -2.235208 v 0.923576 h 1.796703 v 0.318207 h -1.796703 v 0.923575 h 2.235208 v 0.314326 h -2.549535 v -2.79401 z" />
      <path
         id="path2044"
         style="font-size:3.88057px;stroke-width:0.264584"
         d="m 66.819085,17.968927 v 0.8188 q 0,0.194029 -0.13582,0.329849 -0.13582,0.13582 -0.329848,0.13582 h -0.426863 l 0.877009,1.039992 h -0.415221 l -0.873128,-1.039992 h -1.024471 q -0.03493,0 -0.151342,-0.01552 v 1.055515 h -0.314326 v -2.790129 h 2.328342 q 0.194028,0 0.329848,0.13582 0.13582,0.135819 0.13582,0.329848 z m -2.328342,0.966262 h 1.862674 q 0.06209,0 0.104775,-0.04269 0.04269,-0.04269 0.04269,-0.104776 v -0.8188 q 0,-0.06209 -0.04269,-0.104775 -0.04269,-0.04657 -0.104775,-0.04657 h -1.862674 q -0.06209,0 -0.108656,0.04657 -0.04269,0.04269 -0.04269,0.104775 v 0.8188 q 0,0.06209 0.04269,0.104776 0.04657,0.04269 0.108656,0.04269 z" />
      <path
         id="path2046"
         style="font-size:3.88057px;stroke-width:0.264584"
         d="m 67.700824,17.499378 h 1.862673 q 0.194029,0 0.329849,0.13582 0.13582,0.13582 0.13582,0.329848 v 2.328342 h -0.314327 v -1.02059 h -2.165358 v 1.02059 h -0.314326 v -2.328342 q 0,-0.194028 0.13582,-0.329848 0.13582,-0.13582 0.329849,-0.13582 z m -0.151343,1.459094 h 2.165358 v -0.993426 q 0,-0.06209 -0.04657,-0.104775 -0.04269,-0.04657 -0.104776,-0.04657 h -1.862673 q -0.06209,0 -0.108656,0.04657 -0.04269,0.04269 -0.04269,0.104775 z" />
      <path
         id="path2048"
         style="font-size:3.88057px;stroke-width:0.264584"
         d="m 70.479069,17.499378 h 2.328342 q 0.194028,0 0.329848,0.13582 0.13582,0.13582 0.13582,0.329848 v 1.862674 q 0,0.194028 -0.13582,0.329848 -0.13582,0.13582 -0.329848,0.13582 h -2.328342 z m 2.479684,2.328342 v -1.862674 q 0,-0.06209 -0.04657,-0.104775 -0.04269,-0.04657 -0.104775,-0.04657 h -1.862674 q -0.06209,0 -0.108656,0.04657 -0.04269,0.04269 -0.04269,0.104775 v 1.862674 q 0,0.06209 0.04269,0.108656 0.04657,0.04269 0.108656,0.04269 h 1.862674 q 0.06209,0 0.104775,-0.04269 0.04657,-0.04657 0.04657,-0.108656 z" />
      <path
         id="path2050"
         style="font-size:3.88057px;stroke-width:0.264584"
         d="m 73.711524,20.293388 v -2.79401 h 0.314326 v 2.79401 z" />
      <path
         id="path2052"
         style="font-size:3.88057px;stroke-width:0.264584"
         d="m 75.022004,17.499378 h 1.862673 q 0.194029,0 0.329849,0.13582 0.13582,0.13582 0.13582,0.329848 v 1.862674 q 0,0.194028 -0.13582,0.329848 -0.13582,0.13582 -0.329849,0.13582 h -1.862673 q -0.194029,0 -0.329849,-0.13582 -0.13582,-0.13582 -0.13582,-0.329848 v -1.862674 q 0,-0.194028 0.13582,-0.329848 0.13582,-0.13582 0.329849,-0.13582 z m 0,2.479684 h 1.862673 q 0.06209,0 0.104776,-0.04269 0.04657,-0.04657 0.04657,-0.108656 v -1.862674 q 0,-0.06209 -0.04657,-0.104775 -0.04269,-0.04657 -0.104776,-0.04657 h -1.862673 q -0.06209,0 -0.108656,0.04657 -0.04269,0.04269 -0.04269,0.104775 v 1.862674 q 0,0.06209 0.04269,0.108656 0.04657,0.04269 0.108656,0.04269 z" />
      <path
         id="path2054"
         style="font-size:3.88057px;stroke-width:0.264584"
         d="m 80.5503,19.986823 1.42805,-2.487445 h 0.368654 l -1.614317,2.79401 h -0.364774 l -1.618198,-2.79401 h 0.368655 z" />
      <path
         id="path2056"
         style="font-size:3.88057px;stroke-width:0.264584"
         d="m 82.730817,20.293388 v -2.79401 h 0.314326 v 2.79401 z" />
      <path
         id="path2058"
         style="font-size:3.88057px;stroke-width:0.264584"
         d="m 86.357997,17.965046 v 0.108656 h -0.314326 v -0.108656 q 0,-0.06209 -0.04657,-0.104775 -0.04269,-0.04657 -0.104776,-0.04657 h -1.862673 q -0.06209,0 -0.108656,0.04657 -0.04269,0.04269 -0.04269,0.104775 v 0.624772 q 0,0.06209 0.04269,0.104776 0.04657,0.04269 0.108656,0.04269 h 1.862673 q 0.194029,0 0.329849,0.13582 0.13582,0.13582 0.13582,0.329848 v 0.624772 q 0,0.194028 -0.13582,0.329848 -0.13582,0.13582 -0.329849,0.13582 h -1.862673 q -0.194029,0 -0.329849,-0.13582 -0.13582,-0.13582 -0.13582,-0.329848 v -0.108656 h 0.314327 v 0.108656 q 0,0.06209 0.04269,0.108656 0.04657,0.04269 0.108656,0.04269 h 1.862673 q 0.06209,0 0.104776,-0.04269 0.04657,-0.04657 0.04657,-0.108656 v -0.624772 q 0,-0.06209 -0.04657,-0.104775 -0.04269,-0.04269 -0.104776,-0.04269 h -1.862673 q -0.194029,0 -0.329849,-0.13582 -0.13582,-0.13582 -0.13582,-0.329849 v -0.624772 q 0,-0.194028 0.13582,-0.329848 0.13582,-0.13582 0.329849,-0.13582 h 1.862673 q 0.194029,0 0.329849,0.13582 0.13582,0.13582 0.13582,0.329848 z" />
      <path
         id="path2060"
         style="font-size:3.88057px;stroke-width:0.264584"
         d="m 86.778131,20.293388 v -2.79401 h 0.314326 v 2.79401 z" />
      <path
         id="path2062"
         style="font-size:3.88057px;stroke-width:0.264584"
         d="m 88.08861,17.499378 h 1.862674 q 0.194028,0 0.329848,0.13582 0.13582,0.13582 0.13582,0.329848 v 1.862674 q 0,0.194028 -0.13582,0.329848 -0.13582,0.13582 -0.329848,0.13582 H 88.08861 q -0.194028,0 -0.329848,-0.13582 -0.13582,-0.13582 -0.13582,-0.329848 v -1.862674 q 0,-0.194028 0.13582,-0.329848 0.13582,-0.13582 0.329848,-0.13582 z m 0,2.479684 h 1.862674 q 0.06209,0 0.104775,-0.04269 0.04657,-0.04657 0.04657,-0.108656 v -1.862674 q 0,-0.06209 -0.04657,-0.104775 -0.04269,-0.04657 -0.104775,-0.04657 H 88.08861 q -0.06209,0 -0.108656,0.04657 -0.04269,0.04269 -0.04269,0.104775 v 1.862674 q 0,0.06209 0.04269,0.108656 0.04657,0.04269 0.108656,0.04269 z" />
      <path
         id="path2064"
         style="font-size:3.88057px;stroke-width:0.264584"
         d="m 93.323984,19.936376 v -2.436998 h 0.314326 v 2.79401 h -0.430744 l -2.04894,-2.436998 v 2.436998 h -0.314327 v -2.79401 h 0.430744 z" />
    </g>
  </g>
</svg>
