<svg xmlns="http://www.w3.org/2000/svg" 
    xmlns:xlink="http://www.w3.org/1999/xlink"
 width="80%" height="80%" viewBox="0 80 400 400"  preserveAspectRatio="xMinYMin meet" >
<defs>
 <path id="Halifax" d="m0.59924304 90.492027c0 0 29.57819496 34.822463 50.33641496 40.748523 32.519562 9.28369 66.881642-13.94954 100.672832-12.5841 30.37494 1.2274 59.20656 14.18356 89.28721 18.57653 27.96955 4.08467 58.59856-4.1424 84.49327 7.19092 25.77547 11.28113 52.64841 30.50699 62.32127 56.92809 5.88571 16.07661 5.1424 38.46927-6.59167 50.93565-6.5515 6.96038-19.86195 10.13007-28.16442 5.39319-14.3782-8.20332-24.75614-32.23615-16.7788-46.74095 5.72157-10.40323 24.45669-13.69659 34.75609-7.79017 8.54871 4.90246 8.98864 28.16443 8.98864 28.16443" />
 <path id="Montreal" d="m -18.644068,327.45763 c 0,0 50,-47.45763 51.694915,-80.08475 1.694916,-32.62712 46.250035,-33.90219 71.610173,-47.0339 38.40742,-19.88771 77.52234,-48.41729 120.76271,-47.45762 47.91599,1.06344 115.32666,29.09793 131.35593,58.47457 12.83212,23.51727 12.89881,61.90554 -6.77966,80.08475 -19.6086,18.11467 -60.92349,19.01095 -80.08475,0.42373 -20.18116,-19.57658 -20.69859,-63.21974 -2.11864,-84.32204 12.85378,-14.59876 40.7128,-14.749 58.05084,-5.9322 15.74146,8.00489 24.69348,28.21661 26.69493,45.76271 1.45817,12.7834 -1.19117,29.08693 -11.44068,36.86441 -15.87121,12.04331 -45.19359,15.30265 -59.74577,1.69491 -16.00262,-14.96405 -17.80904,-49.96379 -2.54237,-65.67796 10.03942,-10.3337 33.12482,-9.85517 43.22034,0.42373 12.07486,12.29419 11.35765,39.1192 -0.42373,51.69491 -6.58418,7.0281 -24.20393,10.57422 -28.81356,2.11864 -5.50315,-10.09461 -4.82155,-33.30802 20.76271,-27.54237 l 0,0"/>
 <path id="Calgary" d="m 432.65347,83.900354 c 0,0 -74.25173,59.645606 -115.05466,83.894026 -21.66047,12.87242 -47.63894,17.95673 -68.31371,32.35912 -21.32587,14.85596 -31.17874,46.00191 -55.7296,54.53112 -21.44134,7.44893 -54.97923,11.59821 -67.71446,-7.19092 -13.26989,-19.57794 -1.03144,-56.02328 19.17577,-68.3137 24.39964,-14.84034 67.47957,-5.99168 83.89403,17.37804 11.3655,16.18138 6.22235,45.4026 -8.3894,58.72582 -29.70449,27.08502 -95.53425,37.54029 -120.44785,5.99243 -31.850022,-40.33137 74.30061,-107.14247 43.1455,-148.01303 -19.35366,-25.388926 -70.767475,-18.378576 -95.761463,1.4825 -33.042095,26.25638 -55.9689527,89.22217 -30.508474,122.88136 15.856908,20.96311 57.894292,18.45707 78.813559,2.54237 22.902008,-17.4231 36.994628,-60.43224 20.338978,-83.8983 -13.30818,-18.74982 -49.918097,-20.12139 -68.644063,-6.77966 -20.814245,14.82957 -33.335737,54.28626 -17.79661,74.57627 11.684603,15.25701 42.223092,13.18501 57.627119,1.69491 14.994174,-11.18438 24.016704,-38.18846 14.406784,-54.23729 -8.201675,-13.69702 -33.749705,-20.47655 -46.610174,-11.01695 -8.098266,5.95673 -6.684637,24.51514 -2.118644,30.08476"/>
  </defs>

 <image width="400" height="400" xlink:href="https://i.stack.imgur.com/1Yn0f.gif"/> 

<text id="Halifax_Airplan"    transform="rotate(180)" >  &#9992; 
<animateMotion id="MotionHal" dur="8s" fill="freeze" rotate="auto-reverse"   >
<mpath xlink:href="#Halifax" />
</animateMotion>
</text>  

<text id="Montreal_Airplan"    transform="rotate(180)" >  &#9992; 
<animateMotion dur="16s"  begin="1s" fill="freeze" rotate="auto-reverse"   >
<mpath xlink:href="#Montreal" />
</animateMotion>
</text>   

<text id="Calgary_Airplan" fill="lightcyan"   transform="rotate(180)" >  &#9992; 
<animateMotion dur="16s"  begin="4s" fill="freeze" rotate="auto-reverse"   >
<mpath xlink:href="#Calgary" />
</animateMotion>
</text> 

</svg>
