<svg id="москва_сити" data-name="москва сити" xmlns="http://www.w3.org/2000/svg" viewBox="0 0 1920 1080"><title>Питер-Москва</title><polygon points="1264.27 539.44 1261.77 529.64 1253.93 529.64 1251.79 539.44 1264.27 539.44" style="fill:none;stroke:#0a83dd;stroke-linecap:round;stroke-linejoin:round;stroke-width:1.5px"/><path d="M1244.48,564c4.55-4.46,3-12.12,9.09-13.37h9.33c6.06,1.25,4.55,8.91,9.09,13.37" style="fill:none;stroke:#0a83dd;stroke-linecap:round;stroke-linejoin:round;stroke-width:1.5px"/><line x1="1249.29" y1="564.04" x2="1266.05" y2="564.04" style="fill:none;stroke:#0a83dd;stroke-linecap:round;stroke-linejoin:round;stroke-width:1.5px"/><line x1="1251.79" y1="571.17" x2="1251.79" y2="577.59" style="fill:none;stroke:#0a83dd;stroke-linecap:round;stroke-linejoin:round;stroke-width:1.5px"/><line x1="1264.74" y1="571.17" x2="1264.74" y2="577.59" style="fill:none;stroke:#0a83dd;stroke-linecap:round;stroke-linejoin:round;stroke-width:1.5px"/><line x1="1243.06" y1="583.29" x2="1273.72" y2="583.29" style="fill:none;stroke:#0a83dd;stroke-linecap:round;stroke-linejoin:round;stroke-width:1.5px"/><line x1="1246.35" y1="566.67" x2="1246.35" y2="583.29" style="fill:none;stroke:#0a83dd;stroke-linecap:round;stroke-linejoin:round;stroke-width:1.5px"/><line x1="1271" y1="566.67" x2="1271" y2="583.29" style="fill:none;stroke:#0a83dd;stroke-linecap:round;stroke-linejoin:round;stroke-width:1.5px"/><line x1="1246.35" y1="585.52" x2="1246.35" y2="605.31" style="fill:none;stroke:#0a83dd;stroke-linecap:round;stroke-linejoin:round;stroke-width:1.5px"/><line x1="1271" y1="587.04" x2="1271" y2="605.31" style="fill:none;stroke:#0a83dd;stroke-linecap:round;stroke-linejoin:round;stroke-width:1.5px"/><line x1="1240.47" y1="607.09" x2="1275.85" y2="607.09" style="fill:none;stroke:#0a83dd;stroke-linecap:round;stroke-linejoin:round;stroke-width:1.5px"/><line x1="1240.47" y1="611.22" x2="1240.47" y2="625.72" style="fill:none;stroke:#0a83dd;stroke-linecap:round;stroke-linejoin:round;stroke-width:1.5px"/><line x1="1258.39" y1="610.03" x2="1258.39" y2="625.72" style="fill:none;stroke:#0a83dd;stroke-linecap:round;stroke-linejoin:round;stroke-width:1.5px"/><line x1="1272" y1="610.03" x2="1272" y2="616.92" style="fill:none;stroke:#0a83dd;stroke-linecap:round;stroke-linejoin:round;stroke-width:1.5px"/><polyline points="1275.85 613.48 1307.76 613.48 1323.45 625.72" style="fill:none;stroke:#0a83dd;stroke-linecap:round;stroke-linejoin:round;stroke-width:1.5px"/><path d="M1304.55,597.91c0-7,3.48-10.16,8.2-12.39" style="fill:none;stroke:#0a83dd;stroke-linecap:round;stroke-linejoin:round;stroke-width:1.5px"/><path d="M1323.45,597.91c0-7-3.48-10.16-8.2-12.39" style="fill:none;stroke:#0a83dd;stroke-linecap:round;stroke-linejoin:round;stroke-width:1.5px"/><line x1="1301.58" y1="597.91" x2="1326.06" y2="597.91" style="fill:none;stroke:#0a83dd;stroke-linecap:round;stroke-linejoin:round;stroke-width:1.5px"/><line x1="1304.55" y1="597.91" x2="1304.55" y2="611.22" style="fill:none;stroke:#0a83dd;stroke-linecap:round;stroke-linejoin:round;stroke-width:1.5px"/><line x1="1322.82" y1="597.91" x2="1322.82" y2="618.47" style="fill:none;stroke:#0a83dd;stroke-linecap:round;stroke-linejoin:round;stroke-width:1.5px"/><path d="M1311.27,577.77h4.81a2.2,2.2,0,0,0,1.43-2.08c0-2.32-3.61-3.27-3.61-3.27s-3.77,1.37-3.77,3.27S1311.27,577.77,1311.27,577.77Z" style="fill:none;stroke:#0a83dd;stroke-linecap:round;stroke-linejoin:round;stroke-width:1.5px"/><line x1="1311.68" y1="577.77" x2="1311.68" y2="586.05" style="fill:none;stroke:#0a83dd;stroke-linecap:round;stroke-linejoin:round;stroke-width:1.5px"/><line x1="1315.66" y1="577.77" x2="1315.66" y2="585.72" style="fill:none;stroke:#0a83dd;stroke-linecap:round;stroke-linejoin:round;stroke-width:1.5px"/><polyline points="1255.76 520.55 1258.24 447.11 1260.61 520.55" style="fill:none;stroke:#0a83dd;stroke-linecap:round;stroke-linejoin:round;stroke-width:1.5px"/><path d="M1258.43,442.16s2.68-2.83.53-4.41a7.13,7.13,0,0,0-4.26-1.43Z" style="fill:none;stroke:#0a83dd;stroke-linecap:round;stroke-linejoin:round;stroke-width:1.5px"/><path d="M1327.84,617.16c1.13-4,5.41-8.5,9.45-9.63" style="fill:none;stroke:#0a83dd;stroke-linecap:round;stroke-linejoin:round;stroke-width:1.5px"/><path d="M1352,607.53c4.34,1.13,10,5.94,11.5,12.06" style="fill:none;stroke:#0a83dd;stroke-linecap:round;stroke-linejoin:round;stroke-width:1.5px"/><line x1="1336.9" y1="604.95" x2="1351.97" y2="604.95" style="fill:none;stroke:#0a83dd;stroke-linecap:round;stroke-linejoin:round;stroke-width:1.5px"/><path d="M1343.5,586.05c.45,2.41-4.28,6.15-4.28,10h10" style="fill:none;stroke:#0a83dd;stroke-linecap:round;stroke-linejoin:round;stroke-width:1.5px"/><path d="M1345.06,586.05c.27,3.1,4.14,6.24,4.14,10" style="fill:none;stroke:#0a83dd;stroke-linecap:round;stroke-linejoin:round;stroke-width:1.5px"/><path d="M1344,580.68c-.36,1.49-3.35,2.73-2,4.4h4.16c.93-2.61-1.79-2.91-2.18-4.4" style="fill:none;stroke:#0a83dd;stroke-linecap:round;stroke-linejoin:round;stroke-width:1.5px"/><line x1="1344.04" y1="578.3" x2="1344.04" y2="573.25" style="fill:none;stroke:#0a83dd;stroke-linecap:round;stroke-linejoin:round;stroke-width:1.5px"/><line x1="1339.85" y1="596.08" x2="1339.85" y2="602.13" style="fill:none;stroke:#0a83dd;stroke-linecap:round;stroke-linejoin:round;stroke-width:1.5px"/><line x1="1348.34" y1="596.08" x2="1348.34" y2="601.89" style="fill:none;stroke:#0a83dd;stroke-linecap:round;stroke-linejoin:round;stroke-width:1.5px"/><line x1="1313.89" y1="572.42" x2="1313.89" y2="562.88" style="fill:none;stroke:#0a83dd;stroke-linecap:round;stroke-linejoin:round;stroke-width:1.5px"/><line x1="1312.22" y1="564.93" x2="1315.25" y2="564.93" style="fill:none;stroke:#0a83dd;stroke-linecap:round;stroke-linejoin:round;stroke-width:1.5px"/><line x1="1251.79" y1="602.13" x2="1251.79" y2="594.11" style="fill:none;stroke:#0a83dd;stroke-linecap:round;stroke-linejoin:round;stroke-width:1.5px"/><line x1="1265.69" y1="602.66" x2="1265.69" y2="594.11" style="fill:none;stroke:#0a83dd;stroke-linecap:round;stroke-linejoin:round;stroke-width:1.5px"/><line x1="1309.54" y1="609.44" x2="1309.54" y2="602.66" style="fill:none;stroke:#0a83dd;stroke-linecap:round;stroke-linejoin:round;stroke-width:1.5px"/><line x1="1317.51" y1="610.03" x2="1317.51" y2="602.66" style="fill:none;stroke:#0a83dd;stroke-linecap:round;stroke-linejoin:round;stroke-width:1.5px"/><line x1="1254.02" y1="543.99" x2="1254.02" y2="550.67" style="fill:none;stroke:#0a83dd;stroke-linecap:round;stroke-linejoin:round;stroke-width:1.5px"/><line x1="1262.81" y1="539.44" x2="1262.81" y2="550.67" style="fill:none;stroke:#0a83dd;stroke-linecap:round;stroke-linejoin:round;stroke-width:1.5px"/><line x1="1186.91" y1="633.92" x2="1393.52" y2="633.92" style="fill:none;stroke:#0a83dd;stroke-linecap:round;stroke-linejoin:round;stroke-width:1.5px"/><polyline points="1339.85 625.72 1361.24 625.72 1361.24 633.56" style="fill:none;stroke:#0a83dd;stroke-linecap:round;stroke-linejoin:round;stroke-width:1.5px"/><line x1="1200.34" y1="640.93" x2="1381.99" y2="640.93" style="fill:none;stroke:#0a83dd;stroke-linecap:round;stroke-linejoin:round;stroke-width:1.5px"/><path d="M1210.56,654.44v-5s0-1.52,1.43-1.52c1.25,0,1.25,1.43,1.25,1.43" style="fill:none;stroke:#0a83dd;stroke-linecap:round;stroke-linejoin:round;stroke-width:1.5px"/><path d="M1225.29,654.44v-5s0-1.52,1.43-1.52c1.25,0,1.25,1.43,1.25,1.43" style="fill:none;stroke:#0a83dd;stroke-linecap:round;stroke-linejoin:round;stroke-width:1.5px"/><path d="M1240.14,654.44v-5s0-1.52,1.43-1.52c1.25,0,1.25,1.43,1.25,1.43" style="fill:none;stroke:#0a83dd;stroke-linecap:round;stroke-linejoin:round;stroke-width:1.5px"/><path d="M1254.76,654.44v-5s0-1.52,1.43-1.52c1.25,0,1.25,1.43,1.25,1.43" style="fill:none;stroke:#0a83dd;stroke-linecap:round;stroke-linejoin:round;stroke-width:1.5px"/><path d="M1017.88,623.1c1.35-80.13,10.7-167,20.23-271.68" style="fill:none;stroke:#0a83dd;stroke-linecap:round;stroke-linejoin:round;stroke-width:1.5px"/><path d="M1043.79,615.24c2.84-95,5.66-141.88-5.68-263.82" style="fill:none;stroke:#0a83dd;stroke-linecap:round;stroke-linejoin:round;stroke-width:1.5px"/><path d="M1063.14,609.27c0-79.19-10.32-184.14-24.48-256.51" style="fill:none;stroke:#0a83dd;stroke-linecap:round;stroke-linejoin:round;stroke-width:1.5px"/><path d="M1019.4,577.76c-4-67.7,3.33-147,18.71-226.34" style="fill:none;stroke:#0a83dd;stroke-linecap:round;stroke-linejoin:round;stroke-width:1.5px"/><path d="M1021.26,637.82s68.59-46,68.59-45.34-1,14.64-1,14.64" style="fill:none;stroke:#0a83dd;stroke-linecap:round;stroke-linejoin:round;stroke-width:1.5px"/><path d="M1001.62,645.29c.81,0,186.36-72,186.36-72l-23.47,79.93" style="fill:none;stroke:#0a83dd;stroke-linecap:round;stroke-linejoin:round;stroke-width:1.5px"/><path d="M965,644.89l-9.92-35.61,71.43,17.81c-.27.74-5.25,10.74-5.25,10.74" style="fill:none;stroke:#0a83dd;stroke-linecap:round;stroke-linejoin:round;stroke-width:1.5px"/><line x1="1023.07" y1="623.1" x2="1039.6" y2="621.2" style="fill:none;stroke:#0a83dd;stroke-linecap:round;stroke-linejoin:round;stroke-width:1.5px"/><line x1="1082.56" y1="644.69" x2="1166.13" y2="644.69" style="fill:none;stroke:#0a83dd;stroke-linecap:round;stroke-linejoin:round;stroke-width:1.5px"/><line x1="1096.52" y1="637.89" x2="1169" y2="637.89" style="fill:none;stroke:#0a83dd;stroke-linecap:round;stroke-linejoin:round;stroke-width:1.5px"/><line x1="1105.83" y1="631.09" x2="1171" y2="631.09" style="fill:none;stroke:#0a83dd;stroke-linecap:round;stroke-linejoin:round;stroke-width:1.5px"/><line x1="1117.36" y1="624.3" x2="1172.61" y2="624.3" style="fill:none;stroke:#0a83dd;stroke-linecap:round;stroke-linejoin:round;stroke-width:1.5px"/><line x1="911.46" y1="658.44" x2="1242.08" y2="658.44" style="fill:none;stroke:#0a83dd;stroke-linecap:round;stroke-linejoin:round;stroke-width:1.5px"/><path d="M546.89,534.59c.71,10.87,20.06,15.13,9,30.26H535.41c-11.06-15.13,8.29-19.39,9-30.26Z" style="fill:none;stroke:#f94212;stroke-linecap:round;stroke-linejoin:round;stroke-width:1.5px"/><path d="M584.51,559.57c.57,8.77,16.18,12.2,7.26,24.4H575.26c-8.92-12.2,6.69-15.64,7.26-24.4Z" style="fill:none;stroke:#f94212;stroke-linecap:round;stroke-linejoin:round;stroke-width:1.5px"/><path d="M575.78,464.62c.29,3.88,8.28,5.4,3.72,10.79H571c-4.56-5.4,3.42-6.91,3.72-10.79Z" style="fill:none;stroke:#f94212;stroke-linecap:round;stroke-linejoin:round;stroke-width:1.5px"/><path d="M545.12,534.59c-.87,11.32-11.16,16.18-4,30.26" style="fill:none;stroke:#f94212;stroke-linecap:round;stroke-linejoin:round;stroke-width:1.5px"/><path d="M546.14,534.59c.87,11.32,9.79,16.18,2.58,30.26" style="fill:none;stroke:#f94212;stroke-linecap:round;stroke-linejoin:round;stroke-width:1.5px"/><circle cx="545.65" cy="528.25" r="1.85" style="fill:none;stroke:#f94212;stroke-linecap:round;stroke-linejoin:round;stroke-width:1.5px"/><line x1="545.65" y1="515.19" x2="545.65" y2="526.4" style="fill:none;stroke:#f94212;stroke-linecap:round;stroke-linejoin:round;stroke-width:1.5px"/><line x1="543.24" y1="518.67" x2="547.78" y2="518.67" style="fill:none;stroke:#f94212;stroke-linecap:round;stroke-linejoin:round;stroke-width:1.5px"/><path d="M612.8,531.43c.59,10.27,16.71,14.3,7.5,28.6H603.24c-9.21-14.3,6.91-18.33,7.5-28.6Z" style="fill:none;stroke:#f94212;stroke-linecap:round;stroke-linejoin:round;stroke-width:1.5px"/><circle cx="611.77" cy="522.57" r="1.85" style="fill:none;stroke:#f94212;stroke-linecap:round;stroke-linejoin:round;stroke-width:1.5px"/><line x1="611.77" y1="509.51" x2="611.77" y2="520.72" style="fill:none;stroke:#f94212;stroke-linecap:round;stroke-linejoin:round;stroke-width:1.5px"/><line x1="609.5" y1="512.99" x2="614.04" y2="512.99" style="fill:none;stroke:#f94212;stroke-linecap:round;stroke-linejoin:round;stroke-width:1.5px"/><polyline points="535.87 583.83 535.87 568.32 555.22 568.32 555.22 583.83" style="fill:none;stroke:#f94212;stroke-linecap:round;stroke-linejoin:round;stroke-width:1.5px"/><path d="M545.54,587.21a4.57,4.57,0,1,1,9.09,0" style="fill:none;stroke:#f94212;stroke-linecap:round;stroke-linejoin:round;stroke-width:1.5px"/><path d="M545.54,587.21a4.57,4.57,0,1,1,9.09,0" style="fill:none;stroke:#f94212;stroke-linecap:round;stroke-linejoin:round;stroke-width:1.5px"/><path d="M559.93,542.16a4.57,4.57,0,1,1,9.09,0" style="fill:none;stroke:#f94212;stroke-linecap:round;stroke-linejoin:round;stroke-width:1.5px"/><path d="M557.77,546.65a5.57,5.57,0,0,1,4.69-2.72c3.16,0,5.72,2.85,5.72,6.37" style="fill:none;stroke:#f94212;stroke-linecap:round;stroke-linejoin:round;stroke-width:1.5px"/><path d="M569.78,550.29c0-3.52,2.56-6.37,5.72-6.37a5.51,5.51,0,0,1,4.42,2.33" style="fill:none;stroke:#f94212;stroke-linecap:round;stroke-linejoin:round;stroke-width:1.5px"/><path d="M588.55,544.35c3.16,0,5.72,2.85,5.72,6.37" style="fill:none;stroke:#f94212;stroke-linecap:round;stroke-linejoin:round;stroke-width:1.5px"/><path d="M570.84,542.16a4.82,4.82,0,0,1,4.55-5.06,4.19,4.19,0,0,1,2.36.73" style="fill:none;stroke:#f94212;stroke-linecap:round;stroke-linejoin:round;stroke-width:1.5px"/><path d="M585.91,537.1a4.82,4.82,0,0,1,4.55,5.06" style="fill:none;stroke:#f94212;stroke-linecap:round;stroke-linejoin:round;stroke-width:1.5px"/><path d="M536.45,587.21a4.57,4.57,0,1,1,9.09,0" style="fill:none;stroke:#f94212;stroke-linecap:round;stroke-linejoin:round;stroke-width:1.5px"/><path d="M536.45,587.21a4.57,4.57,0,1,1,9.09,0" style="fill:none;stroke:#f94212;stroke-linecap:round;stroke-linejoin:round;stroke-width:1.5px"/><path d="M559.18,587.21c0-2.79-1-5.06-2.27-5.06s-2.27,2.26-2.27,5.06" style="fill:none;stroke:#f94212;stroke-linecap:round;stroke-linejoin:round;stroke-width:1.5px"/><path d="M536.45,587.21c0-2.79-1-5.06-2.27-5.06s-2.27,2.26-2.27,5.06" style="fill:none;stroke:#f94212;stroke-linecap:round;stroke-linejoin:round;stroke-width:1.5px"/><line x1="531.9" y1="590.29" x2="559.3" y2="590.29" style="fill:none;stroke:#f94212;stroke-linecap:round;stroke-linejoin:round;stroke-width:1.5px"/><polyline points="557.84 593.43 559.18 615.7 531.9 615.7 533.25 593.43" style="fill:none;stroke:#f94212;stroke-linecap:round;stroke-linejoin:round;stroke-width:1.5px"/><polyline points="539.53 593.43 545.6 615.7 551.86 593.43 559.18 615.7" style="fill:none;stroke:#f94212;stroke-linecap:round;stroke-linejoin:round;stroke-width:1.5px"/><polyline points="536.84 627.51 507.47 627.51 518.23 621.45 571.14 621.45" style="fill:none;stroke:#f94212;stroke-linecap:round;stroke-linejoin:round;stroke-width:1.5px"/><polyline points="511.28 630.87 511.28 660.01 562.39 660.01" style="fill:none;stroke:#f94212;stroke-linecap:round;stroke-linejoin:round;stroke-width:1.5px"/><line x1="509.56" y1="630.87" x2="567.1" y2="630.87" style="fill:none;stroke:#f94212;stroke-linecap:round;stroke-linejoin:round;stroke-width:1.5px"/><path d="M521,643.35V637.2a1.85,1.85,0,0,1,1.85-1.85h0a1.85,1.85,0,0,1,1.85,1.85v3.74" style="fill:none;stroke:#f94212;stroke-linecap:round;stroke-linejoin:round;stroke-width:1.5px"/><path d="M531.34,640.94V637.2a1.85,1.85,0,0,1,1.85-1.85h0A1.85,1.85,0,0,1,535,637.2v1.29" style="fill:none;stroke:#f94212;stroke-linecap:round;stroke-linejoin:round;stroke-width:1.5px"/><path d="M538.33,639.61V637.2a1.85,1.85,0,0,1,1.85-1.85h0A1.85,1.85,0,0,1,542,637.2v2.41" style="fill:none;stroke:#f94212;stroke-linecap:round;stroke-linejoin:round;stroke-width:1.5px"/><path d="M545.58,640V637.2a1.85,1.85,0,0,1,1.85-1.85h0a1.85,1.85,0,0,1,1.85,1.85V640" style="fill:none;stroke:#f94212;stroke-linecap:round;stroke-linejoin:round;stroke-width:1.5px"/><path d="M597.36,645.18v-6.51a1.85,1.85,0,0,1,1.85-1.85h0a1.85,1.85,0,0,1,1.85,1.85V642" style="fill:none;stroke:#f94212;stroke-linecap:round;stroke-linejoin:round;stroke-width:1.5px"/><path d="M619.67,635.85v-3.74a1.85,1.85,0,0,1,1.85-1.85h0a1.85,1.85,0,0,1,1.85,1.85v3.74" style="fill:none;stroke:#f94212;stroke-linecap:round;stroke-linejoin:round;stroke-width:1.5px"/><circle cx="575.36" cy="461.4" r="1.2" style="fill:none;stroke:#f94212;stroke-linecap:round;stroke-linejoin:round;stroke-width:1.5px"/><line x1="575.36" y1="452.91" x2="575.36" y2="460.2" style="fill:none;stroke:#f94212;stroke-linecap:round;stroke-linejoin:round;stroke-width:1.5px"/><line x1="573.8" y1="455.17" x2="576.75" y2="455.17" style="fill:none;stroke:#f94212;stroke-linecap:round;stroke-linejoin:round;stroke-width:1.5px"/><polyline points="572.37 485.6 572.37 478.5 578.65 478.5 578.65 485.6" style="fill:none;stroke:#f94212;stroke-linecap:round;stroke-linejoin:round;stroke-width:1.5px"/><line x1="571.64" y1="487.56" x2="579.49" y2="487.56" style="fill:none;stroke:#f94212;stroke-linecap:round;stroke-linejoin:round;stroke-width:1.5px"/><polyline points="561.8 524.42 572.04 490.46 578.5 490.46 588.74 524.42" style="fill:none;stroke:#f94212;stroke-linecap:round;stroke-linejoin:round;stroke-width:1.5px"/><line x1="575.27" y1="493.11" x2="575.27" y2="521.36" style="fill:none;stroke:#f94212;stroke-linecap:round;stroke-linejoin:round;stroke-width:1.5px"/><line x1="558.69" y1="527.52" x2="592.32" y2="527.52" style="fill:none;stroke:#f94212;stroke-linecap:round;stroke-linejoin:round;stroke-width:1.5px"/><circle cx="583.51" cy="553.01" r="1.85" style="fill:none;stroke:#f94212;stroke-linecap:round;stroke-linejoin:round;stroke-width:1.5px"/><line x1="583.51" y1="539.95" x2="583.51" y2="551.16" style="fill:none;stroke:#f94212;stroke-linecap:round;stroke-linejoin:round;stroke-width:1.5px"/><line x1="581.24" y1="543.42" x2="585.78" y2="543.42" style="fill:none;stroke:#f94212;stroke-linecap:round;stroke-linejoin:round;stroke-width:1.5px"/><line x1="561.81" y1="528.81" x2="561.81" y2="536.21" style="fill:none;stroke:#f94212;stroke-linecap:round;stroke-linejoin:round;stroke-width:1.5px"/><line x1="588.74" y1="529.15" x2="588.74" y2="536.66" style="fill:none;stroke:#f94212;stroke-linecap:round;stroke-linejoin:round;stroke-width:1.5px"/><line x1="559.93" y1="557.68" x2="579.93" y2="557.68" style="fill:none;stroke:#f94212;stroke-linecap:round;stroke-linejoin:round;stroke-width:1.5px"/><line x1="558.06" y1="561.21" x2="582.25" y2="561.21" style="fill:none;stroke:#f94212;stroke-linecap:round;stroke-linejoin:round;stroke-width:1.5px"/><line x1="586.72" y1="561.21" x2="596.13" y2="561.21" style="fill:none;stroke:#f94212;stroke-linecap:round;stroke-linejoin:round;stroke-width:1.5px"/><line x1="558.99" y1="580.32" x2="570.2" y2="580.32" style="fill:none;stroke:#f94212;stroke-linecap:round;stroke-linejoin:round;stroke-width:1.5px"/><polyline points="562.92 580.32 562.92 571.46 564.6 568.32 566.13 571.35 566.13 580.32" style="fill:none;stroke:#f94212;stroke-linecap:round;stroke-linejoin:round;stroke-width:1.5px"/><polyline points="561.79 634.53 569.87 630.87 578.24 611.22 585.26 627.51 593.33 611.22 599.9 628.7" style="fill:none;stroke:#f94212;stroke-linecap:round;stroke-linejoin:round;stroke-width:1.5px"/><path d="M565.82,645.93a4,4,0,1,1,7.92,0" style="fill:none;stroke:#f94212;stroke-linecap:round;stroke-linejoin:round;stroke-width:1.5px"/><path d="M573.74,645.93a4,4,0,0,1,7.92,0" style="fill:none;stroke:#f94212;stroke-linecap:round;stroke-linejoin:round;stroke-width:1.5px"/><path d="M586.65,645.93a4,4,0,0,1,7.92,0" style="fill:none;stroke:#f94212;stroke-linecap:round;stroke-linejoin:round;stroke-width:1.5px"/><polyline points="581.73 658.22 581.73 650.52 586.33 650.52 586.33 654.41" style="fill:none;stroke:#f94212;stroke-linecap:round;stroke-linejoin:round;stroke-width:1.5px"/><polyline points="563.52 654.41 563.52 650.52 568.12 650.52 568.12 658.22" style="fill:none;stroke:#f94212;stroke-linecap:round;stroke-linejoin:round;stroke-width:1.5px"/><path d="M581.41,648.77a1.23,1.23,0,0,1-1.23-1.23h0a1.23,1.23,0,0,1,1.23-1.23h5.24a1.23,1.23,0,0,1,1.23,1.23h0a1.23,1.23,0,0,1-1.23,1.23" style="fill:none;stroke:#f94212;stroke-linecap:round;stroke-linejoin:round;stroke-width:1.5px"/><path d="M563.2,648.77a1.23,1.23,0,0,1-1.23-1.23h0a1.23,1.23,0,0,1,1.23-1.23h5.24a1.23,1.23,0,0,1,1.23,1.23h0a1.23,1.23,0,0,1-1.23,1.23" style="fill:none;stroke:#f94212;stroke-linecap:round;stroke-linejoin:round;stroke-width:1.5px"/><line x1="601.03" y1="597.32" x2="622.01" y2="597.32" style="fill:none;stroke:#f94212;stroke-linecap:round;stroke-linejoin:round;stroke-width:1.5px"/><line x1="599.31" y1="618.69" x2="628.9" y2="618.69" style="fill:none;stroke:#f94212;stroke-linecap:round;stroke-linejoin:round;stroke-width:1.5px"/><line x1="601.85" y1="621.45" x2="626.34" y2="621.45" style="fill:none;stroke:#f94212;stroke-linecap:round;stroke-linejoin:round;stroke-width:1.5px"/><line x1="561.8" y1="636.42" x2="593.67" y2="636.42" style="fill:none;stroke:#f94212;stroke-linecap:round;stroke-linejoin:round;stroke-width:1.5px"/><line x1="607.68" y1="643.35" x2="639.96" y2="643.35" style="fill:none;stroke:#f94212;stroke-linecap:round;stroke-linejoin:round;stroke-width:1.5px"/><line x1="608.67" y1="537.26" x2="623.13" y2="551.72" style="fill:none;stroke:#f94212;stroke-linecap:round;stroke-linejoin:round;stroke-width:1.5px"/><line x1="603.75" y1="543.64" x2="619.98" y2="559.87" style="fill:none;stroke:#f94212;stroke-linecap:round;stroke-linejoin:round;stroke-width:1.5px"/><line x1="600.45" y1="550.89" x2="609.44" y2="559.87" style="fill:none;stroke:#f94212;stroke-linecap:round;stroke-linejoin:round;stroke-width:1.5px"/><line x1="614.95" y1="537.39" x2="600.4" y2="551.94" style="fill:none;stroke:#f94212;stroke-linecap:round;stroke-linejoin:round;stroke-width:1.5px"/><line x1="619.61" y1="543.4" x2="603.14" y2="559.87" style="fill:none;stroke:#f94212;stroke-linecap:round;stroke-linejoin:round;stroke-width:1.5px"/><line x1="623.1" y1="551.05" x2="614.16" y2="560.03" style="fill:none;stroke:#f94212;stroke-linecap:round;stroke-linejoin:round;stroke-width:1.5px"/><polyline points="603.14 576.08 603.14 564.85 619.61 564.85 619.61 576.08" style="fill:none;stroke:#f94212;stroke-linecap:round;stroke-linejoin:round;stroke-width:1.5px"/><polyline points="576.51 600.52 576.51 589.29 590.52 589.29 590.52 600.52" style="fill:none;stroke:#f94212;stroke-linecap:round;stroke-linejoin:round;stroke-width:1.5px"/><path d="M606.07,578.7a2.52,2.52,0,0,1,5,0" style="fill:none;stroke:#f94212;stroke-linecap:round;stroke-linejoin:round;stroke-width:1.5px"/><path d="M611.11,578.7a2.52,2.52,0,0,1,5,0" style="fill:none;stroke:#f94212;stroke-linecap:round;stroke-linejoin:round;stroke-width:1.5px"/><path d="M616.15,578.7a2.52,2.52,0,0,1,5,0" style="fill:none;stroke:#f94212;stroke-linecap:round;stroke-linejoin:round;stroke-width:1.5px"/><path d="M601,578.7a2.52,2.52,0,0,1,5,0" style="fill:none;stroke:#f94212;stroke-linecap:round;stroke-linejoin:round;stroke-width:1.5px"/><path d="M595.43,586.63a5.32,5.32,0,0,1,10.63,0" style="fill:none;stroke:#f94212;stroke-linecap:round;stroke-linejoin:round;stroke-width:1.5px"/><path d="M606.06,586.63a5.32,5.32,0,0,1,10.63,0" style="fill:none;stroke:#f94212;stroke-linecap:round;stroke-linejoin:round;stroke-width:1.5px"/><path d="M616.7,586.63a5.32,5.32,0,0,1,10.63,0" style="fill:none;stroke:#f94212;stroke-linecap:round;stroke-linejoin:round;stroke-width:1.5px"/><polyline points="596.13 591.08 597.25 597.36 597.25 614.28" style="fill:none;stroke:#f94212;stroke-linecap:round;stroke-linejoin:round;stroke-width:1.5px"/><polyline points="596.13 591.08 597.25 597.36 597.25 614.28" style="fill:none;stroke:#f94212;stroke-linecap:round;stroke-linejoin:round;stroke-width:1.5px"/><polyline points="626.34 591.08 625.22 597.36 625.22 614.28" style="fill:none;stroke:#f94212;stroke-linecap:round;stroke-linejoin:round;stroke-width:1.5px"/><line x1="370.73" y1="516.18" x2="370.73" y2="509.34" style="fill:none;stroke:#f94212;stroke-linecap:round;stroke-linejoin:round;stroke-width:1.5px"/><line x1="369.55" y1="508.33" x2="382.53" y2="508.33" style="fill:none;stroke:#f94212;stroke-linecap:round;stroke-linejoin:round;stroke-width:1.5px"/><polyline points="367.7 531.01 367.7 517.48 384.69 517.48 384.69 531.01" style="fill:none;stroke:#f94212;stroke-linecap:round;stroke-linejoin:round;stroke-width:1.5px"/><line x1="360.69" y1="573.03" x2="360.69" y2="538.72" style="fill:none;stroke:#f94212;stroke-linecap:round;stroke-linejoin:round;stroke-width:1.5px"/><line x1="367.7" y1="571.45" x2="367.7" y2="538.72" style="fill:none;stroke:#f94212;stroke-linecap:round;stroke-linejoin:round;stroke-width:1.5px"/><line x1="362.42" y1="533.77" x2="362.42" y2="538.72" style="fill:none;stroke:#f94212;stroke-linecap:round;stroke-linejoin:round;stroke-width:1.5px"/><line x1="366.04" y1="533.77" x2="366.04" y2="538.72" style="fill:none;stroke:#f94212;stroke-linecap:round;stroke-linejoin:round;stroke-width:1.5px"/><line x1="383.43" y1="571.45" x2="383.43" y2="538.72" style="fill:none;stroke:#f94212;stroke-linecap:round;stroke-linejoin:round;stroke-width:1.5px"/><line x1="390.43" y1="571.45" x2="390.43" y2="538.72" style="fill:none;stroke:#f94212;stroke-linecap:round;stroke-linejoin:round;stroke-width:1.5px"/><line x1="385.16" y1="533.77" x2="385.16" y2="538.72" style="fill:none;stroke:#f94212;stroke-linecap:round;stroke-linejoin:round;stroke-width:1.5px"/><line x1="388.78" y1="533.77" x2="388.78" y2="538.72" style="fill:none;stroke:#f94212;stroke-linecap:round;stroke-linejoin:round;stroke-width:1.5px"/><line x1="369.66" y1="540.91" x2="381.7" y2="540.91" style="fill:none;stroke:#f94212;stroke-linecap:round;stroke-linejoin:round;stroke-width:1.5px"/><polyline points="351.17 663.35 351.17 573.03 361.25 573.03 361.25 641" style="fill:none;stroke:#f94212;stroke-linecap:round;stroke-linejoin:round;stroke-width:1.5px"/><polyline points="390.43 640.69 390.43 573.03 400.5 573.03 400.5 663.35" style="fill:none;stroke:#f94212;stroke-linecap:round;stroke-linejoin:round;stroke-width:1.5px"/><polyline points="392.75 573.03 394.17 563.43 396.21 563.43 397.75 573.03" style="fill:none;stroke:#f94212;stroke-linecap:round;stroke-linejoin:round;stroke-width:1.5px"/><polyline points="353.71 573.03 355.13 563.43 357.17 563.43 358.71 573.03" style="fill:none;stroke:#f94212;stroke-linecap:round;stroke-linejoin:round;stroke-width:1.5px"/><circle cx="376.51" cy="468.37" r="2.73" style="fill:none;stroke:#f94212;stroke-linecap:round;stroke-linejoin:round;stroke-width:1.5px"/><line x1="376.51" y1="460.89" x2="376.51" y2="463.35" style="fill:none;stroke:#f94212;stroke-linecap:round;stroke-linejoin:round;stroke-width:1.5px"/><polyline points="373 508.19 376.51 471.1 379.22 508.33" style="fill:none;stroke:#f94212;stroke-linecap:round;stroke-linejoin:round;stroke-width:1.5px"/><line x1="404.6" y1="575.78" x2="404.6" y2="663.35" style="fill:none;stroke:#f94212;stroke-linecap:round;stroke-linejoin:round;stroke-width:1.5px"/><line x1="346.77" y1="575.78" x2="346.77" y2="661.46" style="fill:none;stroke:#f94212;stroke-linecap:round;stroke-linejoin:round;stroke-width:1.5px"/><line x1="407.19" y1="613.31" x2="451.88" y2="613.31" style="fill:none;stroke:#f94212;stroke-linecap:round;stroke-linejoin:round;stroke-width:1.5px"/><line x1="448.03" y1="608.83" x2="483.51" y2="608.83" style="fill:none;stroke:#f94212;stroke-linecap:round;stroke-linejoin:round;stroke-width:1.5px"/><line x1="461.72" y1="608.83" x2="461.72" y2="584.04" style="fill:none;stroke:#f94212;stroke-linecap:round;stroke-linejoin:round;stroke-width:1.5px"/><line x1="477.53" y1="608.83" x2="477.53" y2="584.04" style="fill:none;stroke:#f94212;stroke-linecap:round;stroke-linejoin:round;stroke-width:1.5px"/><line x1="464.63" y1="584.04" x2="464.63" y2="589.23" style="fill:none;stroke:#f94212;stroke-linecap:round;stroke-linejoin:round;stroke-width:1.5px"/><line x1="474.64" y1="584.04" x2="474.64" y2="589.23" style="fill:none;stroke:#f94212;stroke-linecap:round;stroke-linejoin:round;stroke-width:1.5px"/><polyline points="466.91 588.05 466.91 577.2 472.22 577.2 472.22 588.05" style="fill:none;stroke:#f94212;stroke-linecap:round;stroke-linejoin:round;stroke-width:1.5px"/><line x1="480.52" y1="611.58" x2="480.52" y2="663.35" style="fill:none;stroke:#f94212;stroke-linecap:round;stroke-linejoin:round;stroke-width:1.5px"/><line x1="458.96" y1="611.58" x2="458.96" y2="656.27" style="fill:none;stroke:#f94212;stroke-linecap:round;stroke-linejoin:round;stroke-width:1.5px"/><polyline points="411.76 613.31 411.76 605.76 418.37 605.76 418.37 611.25" style="fill:none;stroke:#f94212;stroke-linecap:round;stroke-linejoin:round;stroke-width:1.5px"/><line x1="344.44" y1="613.31" x2="299.75" y2="613.31" style="fill:none;stroke:#f94212;stroke-linecap:round;stroke-linejoin:round;stroke-width:1.5px"/><line x1="303.61" y1="608.83" x2="268.12" y2="608.83" style="fill:none;stroke:#f94212;stroke-linecap:round;stroke-linejoin:round;stroke-width:1.5px"/><line x1="289.92" y1="608.83" x2="289.92" y2="584.04" style="fill:none;stroke:#f94212;stroke-linecap:round;stroke-linejoin:round;stroke-width:1.5px"/><line x1="274.1" y1="608.83" x2="274.1" y2="584.04" style="fill:none;stroke:#f94212;stroke-linecap:round;stroke-linejoin:round;stroke-width:1.5px"/><line x1="287.01" y1="584.04" x2="287.01" y2="589.23" style="fill:none;stroke:#f94212;stroke-linecap:round;stroke-linejoin:round;stroke-width:1.5px"/><line x1="277" y1="584.04" x2="277" y2="589.23" style="fill:none;stroke:#f94212;stroke-linecap:round;stroke-linejoin:round;stroke-width:1.5px"/><polyline points="284.73 588.05 284.73 577.2 279.42 577.2 279.42 588.05" style="fill:none;stroke:#f94212;stroke-linecap:round;stroke-linejoin:round;stroke-width:1.5px"/><line x1="271.11" y1="611.58" x2="271.11" y2="663.35" style="fill:none;stroke:#f94212;stroke-linecap:round;stroke-linejoin:round;stroke-width:1.5px"/><line x1="292.67" y1="611.58" x2="292.67" y2="656.27" style="fill:none;stroke:#f94212;stroke-linecap:round;stroke-linejoin:round;stroke-width:1.5px"/><polyline points="339.88 613.31 339.88 605.76 333.27 605.76 333.27 611.25" style="fill:none;stroke:#f94212;stroke-linecap:round;stroke-linejoin:round;stroke-width:1.5px"/><line x1="263.71" y1="661.46" x2="220.71" y2="661.46" style="fill:none;stroke:#f94212;stroke-linecap:round;stroke-linejoin:round;stroke-width:1.5px"/><line x1="202.63" y1="667.72" x2="287.01" y2="667.72" style="fill:none;stroke:#f94212;stroke-linecap:round;stroke-linejoin:round;stroke-width:1.5px"/><line x1="1481.74" y1="542.03" x2="1550.14" y2="542.03" style="fill:none;stroke:#0a83dd;stroke-linecap:round;stroke-linejoin:round;stroke-width:1.5px"/><line x1="1483.56" y1="546.51" x2="1548.32" y2="546.51" style="fill:none;stroke:#0a83dd;stroke-linecap:round;stroke-linejoin:round;stroke-width:1.5px"/><line x1="1490.7" y1="530.04" x2="1541.18" y2="530.04" style="fill:none;stroke:#0a83dd;stroke-linecap:round;stroke-linejoin:round;stroke-width:1.5px"/><path d="M1490.7,529.44c0-12.59,4.6-21.31,15.62-26" style="fill:none;stroke:#0a83dd;stroke-linecap:round;stroke-linejoin:round;stroke-width:1.5px"/><path d="M1541.18,530c0-12.59-4.6-21.91-15.62-26.63" style="fill:none;stroke:#0a83dd;stroke-linecap:round;stroke-linejoin:round;stroke-width:1.5px"/><line x1="1507.44" y1="498.98" x2="1523.66" y2="498.98" style="fill:none;stroke:#0a83dd;stroke-linecap:round;stroke-linejoin:round;stroke-width:1.5px"/><line x1="1511.19" y1="498.98" x2="1511.19" y2="490.27" style="fill:none;stroke:#0a83dd;stroke-linecap:round;stroke-linejoin:round;stroke-width:1.5px"/><line x1="1520.39" y1="498.98" x2="1520.39" y2="490.27" style="fill:none;stroke:#0a83dd;stroke-linecap:round;stroke-linejoin:round;stroke-width:1.5px"/><line x1="1508.89" y1="486.88" x2="1521.84" y2="486.88" style="fill:none;stroke:#0a83dd;stroke-linecap:round;stroke-linejoin:round;stroke-width:1.5px"/><path d="M1510.34,486.63c0-4.06,2.24-6.36,5.21-6.36,3.15,0,4.84,1.76,5.21,6.6" style="fill:none;stroke:#0a83dd;stroke-linecap:round;stroke-linejoin:round;stroke-width:1.5px"/><circle cx="1515.55" cy="476.35" r="1.48" style="fill:none;stroke:#0a83dd;stroke-linecap:round;stroke-linejoin:round;stroke-width:1.5px"/><line x1="1515.55" y1="472.68" x2="1515.55" y2="467.35" style="fill:none;stroke:#0a83dd;stroke-linecap:round;stroke-linejoin:round;stroke-width:1.5px"/><line x1="1486.53" y1="551.23" x2="1486.53" y2="574.11" style="fill:none;stroke:#0a83dd;stroke-linecap:round;stroke-linejoin:round;stroke-width:1.5px"/><line x1="1493.88" y1="551.23" x2="1493.88" y2="574.11" style="fill:none;stroke:#0a83dd;stroke-linecap:round;stroke-linejoin:round;stroke-width:1.5px"/><line x1="1501.23" y1="551.23" x2="1501.23" y2="574.11" style="fill:none;stroke:#0a83dd;stroke-linecap:round;stroke-linejoin:round;stroke-width:1.5px"/><line x1="1508.59" y1="551.23" x2="1508.59" y2="574.11" style="fill:none;stroke:#0a83dd;stroke-linecap:round;stroke-linejoin:round;stroke-width:1.5px"/><line x1="1515.94" y1="551.23" x2="1515.94" y2="574.11" style="fill:none;stroke:#0a83dd;stroke-linecap:round;stroke-linejoin:round;stroke-width:1.5px"/><line x1="1523.3" y1="551.23" x2="1523.3" y2="574.11" style="fill:none;stroke:#0a83dd;stroke-linecap:round;stroke-linejoin:round;stroke-width:1.5px"/><line x1="1530.65" y1="551.23" x2="1530.65" y2="574.11" style="fill:none;stroke:#0a83dd;stroke-linecap:round;stroke-linejoin:round;stroke-width:1.5px"/><line x1="1538" y1="551.23" x2="1538" y2="574.11" style="fill:none;stroke:#0a83dd;stroke-linecap:round;stroke-linejoin:round;stroke-width:1.5px"/><line x1="1545.36" y1="551.23" x2="1545.36" y2="574.11" style="fill:none;stroke:#0a83dd;stroke-linecap:round;stroke-linejoin:round;stroke-width:1.5px"/><line x1="1486.53" y1="534.28" x2="1543.18" y2="534.28" style="fill:none;stroke:#0a83dd;stroke-linecap:round;stroke-linejoin:round;stroke-width:1.5px"/><polyline points="1466.22 608.12 1515.34 589.72 1563.55 608.12" style="fill:none;stroke:#0a83dd;stroke-linecap:round;stroke-linejoin:round;stroke-width:1.5px"/><line x1="1466.22" y1="616.84" x2="1564.88" y2="616.84" style="fill:none;stroke:#0a83dd;stroke-linecap:round;stroke-linejoin:round;stroke-width:1.5px"/><line x1="1482.41" y1="621.54" x2="1482.41" y2="655.09" style="fill:none;stroke:#0a83dd;stroke-linecap:round;stroke-linejoin:round;stroke-width:1.5px"/><line x1="1485.92" y1="621.54" x2="1485.92" y2="655.09" style="fill:none;stroke:#0a83dd;stroke-linecap:round;stroke-linejoin:round;stroke-width:1.5px"/><line x1="1470.37" y1="621.54" x2="1470.37" y2="655.09" style="fill:none;stroke:#0a83dd;stroke-linecap:round;stroke-linejoin:round;stroke-width:1.5px"/><line x1="1473.88" y1="621.54" x2="1473.88" y2="655.09" style="fill:none;stroke:#0a83dd;stroke-linecap:round;stroke-linejoin:round;stroke-width:1.5px"/><line x1="1495.15" y1="621.54" x2="1495.15" y2="655.09" style="fill:none;stroke:#0a83dd;stroke-linecap:round;stroke-linejoin:round;stroke-width:1.5px"/><line x1="1498.66" y1="621.54" x2="1498.66" y2="655.09" style="fill:none;stroke:#0a83dd;stroke-linecap:round;stroke-linejoin:round;stroke-width:1.5px"/><line x1="1507.98" y1="621.54" x2="1507.98" y2="655.09" style="fill:none;stroke:#0a83dd;stroke-linecap:round;stroke-linejoin:round;stroke-width:1.5px"/><line x1="1511.49" y1="621.54" x2="1511.49" y2="655.09" style="fill:none;stroke:#0a83dd;stroke-linecap:round;stroke-linejoin:round;stroke-width:1.5px"/><line x1="1519.36" y1="621.54" x2="1519.36" y2="655.09" style="fill:none;stroke:#0a83dd;stroke-linecap:round;stroke-linejoin:round;stroke-width:1.5px"/><line x1="1522.87" y1="621.54" x2="1522.87" y2="655.09" style="fill:none;stroke:#0a83dd;stroke-linecap:round;stroke-linejoin:round;stroke-width:1.5px"/><polyline points="1511.98 589 1513.88 578.83 1516.49 578.83 1518.39 589" style="fill:none;stroke:#0a83dd;stroke-linecap:round;stroke-linejoin:round;stroke-width:1.5px"/><line x1="1414.98" y1="654.73" x2="1414.98" y2="597.8" style="fill:none;stroke:#0a83dd;stroke-linecap:round;stroke-linejoin:round;stroke-width:1.5px"/><line x1="1410.63" y1="593.72" x2="1452.39" y2="593.72" style="fill:none;stroke:#0a83dd;stroke-linecap:round;stroke-linejoin:round;stroke-width:1.5px"/><line x1="1451.03" y1="584.55" x2="1475.63" y2="584.55" style="fill:none;stroke:#0a83dd;stroke-linecap:round;stroke-linejoin:round;stroke-width:1.5px"/><line x1="1455.29" y1="574.11" x2="1455.29" y2="581.32" style="fill:none;stroke:#0a83dd;stroke-linecap:round;stroke-linejoin:round;stroke-width:1.5px"/><line x1="1471.64" y1="574.11" x2="1471.64" y2="581.91" style="fill:none;stroke:#0a83dd;stroke-linecap:round;stroke-linejoin:round;stroke-width:1.5px"/><path d="M1456.38,564.91c.85-3,2.54-6.42,7.51-6.42,5.45,0,6.66,6.42,6.66,6.42" style="fill:none;stroke:#0a83dd;stroke-linecap:round;stroke-linejoin:round;stroke-width:1.5px"/><line x1="1452.39" y1="567.57" x2="1473.94" y2="567.57" style="fill:none;stroke:#0a83dd;stroke-linecap:round;stroke-linejoin:round;stroke-width:1.5px"/><line x1="1452.39" y1="570.11" x2="1473.94" y2="570.11" style="fill:none;stroke:#0a83dd;stroke-linecap:round;stroke-linejoin:round;stroke-width:1.5px"/><line x1="1463.46" y1="557.77" x2="1463.46" y2="550.26" style="fill:none;stroke:#0a83dd;stroke-linecap:round;stroke-linejoin:round;stroke-width:1.5px"/><line x1="1473.94" y1="587.54" x2="1473.94" y2="598.92" style="fill:none;stroke:#0a83dd;stroke-linecap:round;stroke-linejoin:round;stroke-width:1.5px"/><line x1="1453.72" y1="587.54" x2="1453.72" y2="659.81" style="fill:none;stroke:#0a83dd;stroke-linecap:round;stroke-linejoin:round;stroke-width:1.5px"/><line x1="1417.77" y1="616.48" x2="1449.48" y2="616.48" style="fill:none;stroke:#0a83dd;stroke-linecap:round;stroke-linejoin:round;stroke-width:1.5px"/><line x1="1616.54" y1="654.73" x2="1616.54" y2="597.8" style="fill:none;stroke:#0a83dd;stroke-linecap:round;stroke-linejoin:round;stroke-width:1.5px"/><line x1="1620.89" y1="593.72" x2="1579.13" y2="593.72" style="fill:none;stroke:#0a83dd;stroke-linecap:round;stroke-linejoin:round;stroke-width:1.5px"/><line x1="1580.49" y1="584.55" x2="1555.89" y2="584.55" style="fill:none;stroke:#0a83dd;stroke-linecap:round;stroke-linejoin:round;stroke-width:1.5px"/><line x1="1576.23" y1="574.11" x2="1576.23" y2="581.32" style="fill:none;stroke:#0a83dd;stroke-linecap:round;stroke-linejoin:round;stroke-width:1.5px"/><line x1="1559.88" y1="574.11" x2="1559.88" y2="581.91" style="fill:none;stroke:#0a83dd;stroke-linecap:round;stroke-linejoin:round;stroke-width:1.5px"/><path d="M1575.14,564.91c-.85-3-2.54-6.42-7.51-6.42-5.45,0-6.66,6.42-6.66,6.42" style="fill:none;stroke:#0a83dd;stroke-linecap:round;stroke-linejoin:round;stroke-width:1.5px"/><line x1="1579.13" y1="567.57" x2="1557.58" y2="567.57" style="fill:none;stroke:#0a83dd;stroke-linecap:round;stroke-linejoin:round;stroke-width:1.5px"/><line x1="1579.13" y1="570.11" x2="1557.58" y2="570.11" style="fill:none;stroke:#0a83dd;stroke-linecap:round;stroke-linejoin:round;stroke-width:1.5px"/><line x1="1568.05" y1="557.77" x2="1568.05" y2="550.26" style="fill:none;stroke:#0a83dd;stroke-linecap:round;stroke-linejoin:round;stroke-width:1.5px"/><line x1="1557.58" y1="587.54" x2="1557.58" y2="605.85" style="fill:none;stroke:#0a83dd;stroke-linecap:round;stroke-linejoin:round;stroke-width:1.5px"/><line x1="1577.8" y1="587.54" x2="1577.8" y2="659.81" style="fill:none;stroke:#0a83dd;stroke-linecap:round;stroke-linejoin:round;stroke-width:1.5px"/><line x1="1577.8" y1="616.48" x2="1612.42" y2="616.48" style="fill:none;stroke:#0a83dd;stroke-linecap:round;stroke-linejoin:round;stroke-width:1.5px"/><line x1="1627.67" y1="618.41" x2="1627.67" y2="656.91" style="fill:none;stroke:#0a83dd;stroke-linecap:round;stroke-linejoin:round;stroke-width:1.5px"/><line x1="1405.42" y1="619.62" x2="1405.42" y2="658.6" style="fill:none;stroke:#0a83dd;stroke-linecap:round;stroke-linejoin:round;stroke-width:1.5px"/><line x1="1601.76" y1="656.91" x2="1722.09" y2="656.91" style="fill:none;stroke:#0a83dd;stroke-linecap:round;stroke-linejoin:round;stroke-width:1.5px"/><line x1="1632.76" y1="650.03" x2="1680.09" y2="650.03" style="fill:none;stroke:#0a83dd;stroke-linecap:round;stroke-linejoin:round;stroke-width:1.5px"/><polyline points="768.38 505.01 721.52 505.01 721.52 635.31" style="fill:none;stroke:#f94212;stroke-linecap:round;stroke-linejoin:round;stroke-width:1.5px"/><path d="M769.76,635.31c-4.29-34.55.82-124.92,4-143.14,2.29-13.3,6.48-20.27,9.9-2.43,2.37,12.32,3.43,111-.29,145.57" style="fill:none;stroke:#f94212;stroke-linecap:round;stroke-linejoin:round;stroke-width:1.5px"/><line x1="763.81" y1="500.61" x2="727.24" y2="500.61" style="fill:none;stroke:#f94212;stroke-linecap:round;stroke-linejoin:round;stroke-width:1.5px"/><path d="M727.24,500.61c1-16,6.19-21.75,10.76-21.75h40.28" style="fill:none;stroke:#f94212;stroke-linecap:round;stroke-linejoin:round;stroke-width:1.5px"/><polyline points="737.97 635.31 787.96 635.31 787.96 658.8" style="fill:none;stroke:#f94212;stroke-linecap:round;stroke-linejoin:round;stroke-width:1.5px"/><polyline points="745.11 639.16 714.26 639.16 714.26 650.25" style="fill:none;stroke:#f94212;stroke-linecap:round;stroke-linejoin:round;stroke-width:1.5px"/><line x1="737.83" y1="643.4" x2="745.11" y2="643.4" style="fill:none;stroke:#f94212;stroke-linecap:round;stroke-linejoin:round;stroke-width:1.5px"/><line x1="737.83" y1="647.68" x2="745.11" y2="647.68" style="fill:none;stroke:#f94212;stroke-linecap:round;stroke-linejoin:round;stroke-width:1.5px"/><path d="M838.47,630.46C832.18,599,799,505,795.23,474.86L830.09,485c5.89,25.12,16,79.38,2.78,123.39" style="fill:none;stroke:#f94212;stroke-linecap:round;stroke-linejoin:round;stroke-width:1.5px"/><path d="M800.13,497.83c-4.89,19.68-9.56,59-6,82.29,4,25.76,7.6,37,15.72,64.59" style="fill:none;stroke:#f94212;stroke-linecap:round;stroke-linejoin:round;stroke-width:1.5px"/><path d="M799.59,608.08c-3.43,10.35-4.65,20.78-5.69,27.23" style="fill:none;stroke:#f94212;stroke-linecap:round;stroke-linejoin:round;stroke-width:1.5px"/><polyline points="801.39 658.8 801.39 647.05 819.04 647.05" style="fill:none;stroke:#f94212;stroke-linecap:round;stroke-linejoin:round;stroke-width:1.5px"/><polyline points="819.04 658.8 819.04 633.83 872.56 633.83 872.56 649.14" style="fill:none;stroke:#f94212;stroke-linecap:round;stroke-linejoin:round;stroke-width:1.5px"/><path d="M816.42,478.2l.86-101.76a72,72,0,0,1,22.57,9.08c14,9,15.52,17.52,15.52,17.52s7.24,72.63,9.81,126.3c2,42.33,3.07,77.65,3.14,104.46" style="fill:none;stroke:#f94212;stroke-linecap:round;stroke-linejoin:round;stroke-width:1.5px"/><polyline points="878.91 635.31 878.91 403.07 893.39 403.07 905.2 423.34 905.2 452.51" style="fill:none;stroke:#f94212;stroke-linecap:round;stroke-linejoin:round;stroke-width:1.5px"/><polyline points="901.39 444.45 917.77 479.08 917.77 532.71" style="fill:none;stroke:#f94212;stroke-linecap:round;stroke-linejoin:round;stroke-width:1.5px"/><polyline points="925.77 641.22 925.77 555.08 905.2 514.13 905.2 578.73" style="fill:none;stroke:#f94212;stroke-linecap:round;stroke-linejoin:round;stroke-width:1.5px"/><line x1="901.39" y1="416.8" x2="901.39" y2="637" style="fill:none;stroke:#f94212;stroke-linecap:round;stroke-linejoin:round;stroke-width:1.5px"/><polyline points="673.09 632.99 673.09 563.44 701.88 563.44" style="fill:none;stroke:#f94212;stroke-linecap:round;stroke-linejoin:round;stroke-width:1.5px"/><line x1="709.72" y1="567.8" x2="709.72" y2="628.62" style="fill:none;stroke:#f94212;stroke-linecap:round;stroke-linejoin:round;stroke-width:1.5px"/><polyline points="678.75 563.44 677.77 557.16 703.61 557.16" style="fill:none;stroke:#f94212;stroke-linecap:round;stroke-linejoin:round;stroke-width:1.5px"/><line x1="822.54" y1="421.65" x2="850.73" y2="421.65" style="fill:none;stroke:#f94212;stroke-linecap:round;stroke-linejoin:round;stroke-width:1.5px"/><line x1="822.54" y1="429.68" x2="850.73" y2="429.68" style="fill:none;stroke:#f94212;stroke-linecap:round;stroke-linejoin:round;stroke-width:1.5px"/><line x1="822.54" y1="437.7" x2="850.73" y2="437.7" style="fill:none;stroke:#f94212;stroke-linecap:round;stroke-linejoin:round;stroke-width:1.5px"/><line x1="822.54" y1="445.72" x2="850.73" y2="445.72" style="fill:none;stroke:#f94212;stroke-linecap:round;stroke-linejoin:round;stroke-width:1.5px"/><line x1="822.54" y1="453.74" x2="850.73" y2="453.74" style="fill:none;stroke:#f94212;stroke-linecap:round;stroke-linejoin:round;stroke-width:1.5px"/><line x1="721.53" y1="520.67" x2="763.81" y2="520.67" style="fill:none;stroke:#f94212;stroke-linecap:round;stroke-linejoin:round;stroke-width:1.5px"/><line x1="721.53" y1="527.22" x2="763.81" y2="527.22" style="fill:none;stroke:#f94212;stroke-linecap:round;stroke-linejoin:round;stroke-width:1.5px"/><line x1="721.53" y1="533.76" x2="762.29" y2="533.76" style="fill:none;stroke:#f94212;stroke-linecap:round;stroke-linejoin:round;stroke-width:1.5px"/><line x1="721.53" y1="540.31" x2="762.29" y2="540.31" style="fill:none;stroke:#f94212;stroke-linecap:round;stroke-linejoin:round;stroke-width:1.5px"/><line x1="628.36" y1="650.25" x2="729.68" y2="650.25" style="fill:none;stroke:#f94212;stroke-linecap:round;stroke-linejoin:round;stroke-width:1.5px"/><line x1="857.11" y1="649.14" x2="972.09" y2="649.14" style="fill:none;stroke:#f94212;stroke-linecap:round;stroke-linejoin:round;stroke-width:1.5px"/></svg>