<svg xmlns="http://www.w3.org/2000/svg" width="220" height="75" class="svg">



<path fill="none" stroke="#0071BC" stroke-miterlimit="10" 


d="M102.93 70.08c-1.25 0-2.55-.31-3.88-.93-.45.31-.99.49-1.57.49H95.6c-.62 0-1.47 0-4.51-3.04v.33c0 1.47-1.2 2.67-2.67 2.67l-6.5-.01c-1.53 0-2.73-1.22-2.73-2.77V56.75c0-1.55 1.2-2.77 2.73-2.77h2.28c.36 0 .7.07 1.02.2.32-.13.67-.2 1.03-.2h2.07c1.7 0 2.41.82 3.49 2.07.23.27.51.59.85.97v-.35c0-1.45 1.21-2.68 2.65-2.68h2.11c.69 0 1.33.24 1.83.65 1.05-.66 2.35-1.02 3.76-1.02 1.18 0 2.35.24 3.4.69.36-.17.77-.27 1.2-.27h8.73c.56 0 1.1.18 1.54.49.49-.32 1.06-.5 1.67-.53h2.49c1.27.05 2.31.7 2.81 1.69.45-1 1.43-1.69 2.56-1.69h2.07c1.73 0 2.55.91 3.1 1.51l1.25 1.38v-.2c0-1.45 1.21-2.68 2.65-2.68h2.12c.24 0 .47.03.69.08.14-.02.29-.03.44-.03h8.73c.68 0 1.3.24 1.82.7l.02.02.03.03.01.01c.06.06.11.11.16.17l.01.01c.44.52.66 1.11.66 1.74v1.93c0 1.47-1.24 2.72-2.72 2.72h-.63v5.53c0 1.52-1.2 2.75-2.67 2.75h-2.21c-.86 0-1.62-.42-2.11-1.06-.53.64-1.32 1.06-2.19 1.06h-1.88c-1.9 0-3.13-1.45-3.94-2.42-.15-.17-.28-.34-.42-.48-.04-.04-.09-.1-.15-.16v.37c0 1.47-1.2 2.67-2.67 2.67h-5.61c-1.52 0-2.36-.91-2.66-1.8l-.5-1.29-.47 1.28c-.37 1.11-1.45 1.83-2.78 1.83h-6.62c-1.26 0-2.31-.89-2.59-2.09-.66.81-1.52 1.48-2.51 1.92-.9.38-1.89.58-2.91.58z"


style="animation:hNkMDpeQ_draw_3 6700ms linear 0ms infinite,hNkMDpeQ_fade 6700ms linear 0ms infinite" stroke-dasharray="190 192" stroke-dashoffset="191"/>




<style>@keyframes hNkMDpeQ_draw{to{stroke-dashoffset:0}}@keyframes hNkMDpeQ_fade{0%,94.02985074626866%{stroke-opacity:1}to{stroke-opacity:0}}@keyframes hNkMDpeQ_draw_0{4.477611940298507%{stroke-dashoffset:555}43.88059701492537%,to{stroke-dashoffset:0}}@keyframes hNkMDpeQ_draw_1{5.820895522388059%{stroke-dashoffset:555}45.223880597014926%,to{stroke-dashoffset:0}}@keyframes hNkMDpeQ_draw_2{7.164179104477612%{stroke-dashoffset:555}46.56716417910447%,to{stroke-dashoffset:0}}@keyframes hNkMDpeQ_draw_3{8.507462686567164%{stroke-dashoffset:191}47.91044776119403%,to{stroke-dashoffset:0}}@keyframes hNkMDpeQ_draw_4{9.850746268656717%{stroke-dashoffset:318}49.25373134328358%,to{stroke-dashoffset:0}}</style>



</svg>
