<svg xmlns="http://www.w3.org/2000/svg" xmlns:xlink="http://www.w3.org/1999/xlink" height="210" width="500">


 
 
<path id="loop-normal" d="m 124.01371,33.223769 a 0.7927009,0.7927009 45 0 0 -0.0217,0.08917 l -0.0283,0.156246 -0.24718,1.405638 a 0.7927009,0.7927009 45 0 0 0.64409,0.918224 0.7927009,0.7927009 45 0 0 0.91779,-0.642736 l 0.24717,-1.405629 0.0278,-0.154895 a 0.7927009,0.7927009 45 0 0 -0.64228,-0.919141 0.7927009,0.7927009 45 0 0 -0.8976,0.553039 z m -1.09743,6.247462 a 0.7927009,0.7927009 45 0 0 -0.0217,0.08917 l -0.27232,1.561397 a 0.7927009,0.7927009 45 0 0 0.64272,0.917781 0.7927009,0.7927009 45 0 0 0.91823,-0.644096 l 0.27233,-1.561397 a 0.7927009,0.7927009 45 0 0 -0.64273,-0.917781 0.7927009,0.7927009 45 0 0 -0.89668,0.554841 z m -1.09291,6.24743 a 0.7927009,0.7927009 45 0 0 -0.0217,0.08917 l -0.27232,1.561397 a 0.7927009,0.7927009 45 0 0 0.64452,0.916864 0.7927009,0.7927009 45 0 0 0.91687,-0.644539 l 0.27369,-1.560953 a 0.7927009,0.7927009 45 0 0 -0.64454,-0.916868 0.7927009,0.7927009 45 0 0 -0.89667,0.554844 z m -1.09112,6.24651 a 0.7927009,0.7927009 45 0 0 -0.0198,0.08979 l -0.27232,1.561397 a 0.7927009,0.7927009 45 0 0 0.64409,0.918215 0.7927009,0.7927009 45 0 0 0.91731,-0.645889 l 0.27232,-1.561397 a 0.7927009,0.7927009 45 0 0 -0.64453,-0.916864 0.7927009,0.7927009 45 0 0 -0.89668,0.554841 z m -1.08975,6.246956 a 0.7927009,0.7927009 45 0 0 -0.0198,0.08979 l -0.27277,1.562757 a 0.7927009,0.7927009 45 0 0 0.64454,0.916867 0.7927009,0.7927009 45 0 0 0.91686,-0.644538 l 0.27276,-1.56276 a 0.7927009,0.7927009 45 0 0 -0.64453,-0.916864 0.7927009,0.7927009 45 0 0 -0.89668,0.554841 z m -1.08884,6.248755 a 0.7927009,0.7927009 45 0 0 -0.0217,0.08917 l -0.27232,1.561396 a 0.7927009,0.7927009 45 0 0 0.64589,0.917298 0.7927009,0.7927009 45 0 0 0.91686,-0.64452 l 0.27141,-1.563208 a 0.7927009,0.7927009 45 0 0 -0.64453,-0.916855 0.7927009,0.7927009 45 0 0 -0.89576,0.556634 z m -1.08839,6.247399 a 0.7927009,0.7927009 45 0 0 -0.0217,0.08917 l -0.27231,1.5614 a 0.7927009,0.7927009 45 0 0 0.64453,0.916865 0.7927009,0.7927009 45 0 0 0.91685,-0.644542 l 0.27277,-1.562757 a 0.7927009,0.7927009 45 0 0 -0.64453,-0.916864 0.7927009,0.7927009 45 0 0 -0.89576,0.556644 z m -1.0884,6.247396 a 0.7927009,0.7927009 45 0 0 -0.0217,0.08917 l -0.27097,1.56184 a 0.7927009,0.7927009 45 0 0 0.64454,0.916867 0.7927009,0.7927009 45 0 0 0.91685,-0.644532 l 0.27142,-1.563206 a 0.7927009,0.7927009 45 0 0 -0.64454,-0.916858 0.7927009,0.7927009 45 0 0 -0.89576,0.556634 z m -1.08839,6.247398 a 0.7927009,0.7927009 45 0 0 -0.0198,0.08979 l -0.27233,1.561397 a 0.7927009,0.7927009 45 0 0 0.64453,0.916864 0.7927009,0.7927009 45 0 0 0.91687,-0.644539 l 0.27277,-1.562756 a 0.7927009,0.7927009 45 0 0 -0.64454,-0.916868 0.7927009,0.7927009 45 0 0 -0.89712,0.556201 z m -1.08703,6.247842 a 0.7927009,0.7927009 45 0 0 -0.0217,0.08917 l -0.27232,1.56141 a 0.7927009,0.7927009 45 0 0 0.64589,0.917297 0.7927009,0.7927009 45 0 0 0.91686,-0.644529 l 0.2714,-1.563202 a 0.7927009,0.7927009 45 0 0 -0.64497,-0.915505 0.7927009,0.7927009 45 0 0 -0.89532,0.555284 z m -1.0884,6.247405 a 0.7927009,0.7927009 45 0 0 -0.0198,0.08979 l -0.27234,1.561384 a 0.7927009,0.7927009 45 0 0 0.64591,0.917313 0.7927009,0.7927009 45 0 0 0.91686,-0.644541 l 0.27141,-1.5632 a 0.7927009,0.7927009 45 0 0 -0.64454,-0.916867 0.7927009,0.7927009 45 0 0 -0.89713,0.55621 z m -1.08703,6.247838 a 0.7927009,0.7927009 45 0 0 -0.0198,0.0898 l -0.27233,1.5614 a 0.7927009,0.7927009 45 0 0 0.6459,0.9173 0.7927009,0.7927009 45 0 0 0.91551,-0.64497 l 0.27277,-1.56276 a 0.7927009,0.7927009 45 0 0 -0.64454,-0.91686 0.7927009,0.7927009 45 0 0 -0.89713,0.5562 z m -1.08704,6.24785 a 0.7927009,0.7927009 45 0 0 -0.0198,0.0898 l -0.27233,1.56139 a 0.7927009,0.7927009 45 0 0 0.64589,0.9173 0.7927009,0.7927009 45 0 0 0.91595,-0.64633 l 0.27234,-1.5614 a 0.7927009,0.7927009 45 0 0 -0.6459,-0.91731 0.7927009,0.7927009 45 0 0 -0.89577,0.55665 z m -1.08702,6.24783 a 0.7927009,0.7927009 45 0 0 -0.0198,0.0898 l -0.27233,1.5614 a 0.7927009,0.7927009 45 0 0 0.64589,0.9173 0.7927009,0.7927009 45 0 0 0.91731,-0.64589 l 0.27097,-1.56185 a 0.7927009,0.7927009 45 0 0 -0.64453,-0.91685 0.7927009,0.7927009 45 0 0 -0.89712,0.5562 z m -1.08567,6.24828 a 0.7927009,0.7927009 45 0 0 -0.0217,0.0892 l -0.27097,1.56184 a 0.7927009,0.7927009 45 0 0 0.64453,0.91687 0.7927009,0.7927009 45 0 0 0.91731,-0.6459 l 0.27097,-1.56185 a 0.7927009,0.7927009 45 0 0 -0.64453,-0.91686 0.7927009,0.7927009 45 0 0 -0.89577,0.55665 z m -1.0866,6.24647 a 0.7927009,0.7927009 45 0 0 -0.0217,0.0892 l -0.27143,1.56321 a 0.7927009,0.7927009 45 0 0 0.64455,0.91686 0.7927009,0.7927009 45 0 0 0.9173,-0.64589 l 0.27233,-1.56141 a 0.7927009,0.7927009 45 0 0 -0.6459,-0.9173 0.7927009,0.7927009 45 0 0 -0.89532,0.55528 z m -1.08703,6.24784 a 0.7927009,0.7927009 45 0 0 -0.0198,0.0898 l -0.27277,1.56277 a 0.7927009,0.7927009 45 0 0 0.64633,0.91594 0.7927009,0.7927009 45 0 0 0.91687,-0.64454 l 0.27096,-1.56183 a 0.7927009,0.7927009 45 0 0 -0.64453,-0.91687 0.7927009,0.7927009 45 0 0 -0.89668,0.55484 z m -1.08567,6.24829 a 0.7927009,0.7927009 45 0 0 -0.0217,0.0892 l -0.27097,1.56184 a 0.7927009,0.7927009 45 0 0 0.64453,0.91686 0.7927009,0.7927009 45 0 0 0.91686,-0.64453 l 0.27233,-1.5614 a 0.7927009,0.7927009 45 0 0 -0.64589,-0.91731 0.7927009,0.7927009 45 0 0 -0.89533,0.55529 z m -1.08567,6.24828 a 0.7927009,0.7927009 45 0 0 -0.0217,0.0892 l -0.27097,1.56185 a 0.7927009,0.7927009 45 0 0 0.64454,0.91686 0.7927009,0.7927009 45 0 0 0.91687,-0.64453 l 0.27141,-1.56321 a 0.7927009,0.7927009 45 0 0 -0.64499,-0.9155 0.7927009,0.7927009 45 0 0 -0.89532,0.55528 z m -1.08703,6.24784 a 0.7927009,0.7927009 45 0 0 -0.0198,0.0898 l -0.27233,1.56141 a 0.7927009,0.7927009 45 0 0 0.64589,0.91729 0.7927009,0.7927009 45 0 0 0.91551,-0.64497 l 0.27277,-1.56275 a 0.7927009,0.7927009 45 0 0 -0.64633,-0.91595 0.7927009,0.7927009 45 0 0 -0.89533,0.55528 z m -1.08568,6.24828 a 0.7927009,0.7927009 45 0 0 -0.0217,0.0892 l -0.27098,1.56185 a 0.7927009,0.7927009 45 0 0 0.64454,0.91687 0.7927009,0.7927009 45 0 0 0.91731,-0.64591 l 0.27097,-1.56183 a 0.7927009,0.7927009 45 0 0 -0.64453,-0.91687 0.7927009,0.7927009 45 0 0 -0.89578,0.55664 z m -1.08567,6.2483 a 0.7927009,0.7927009 45 0 0 -0.0217,0.0892 l -0.27097,1.56184 a 0.7927009,0.7927009 45 0 0 0.64454,0.91687 0.7927009,0.7927009 45 0 0 0.9173,-0.6459 l 0.27097,-1.56184 a 0.7927009,0.7927009 45 0 0 -0.64453,-0.91687 0.7927009,0.7927009 45 0 0 -0.89577,0.55664 z m -1.08659,6.24648 a 0.7927009,0.7927009 45 0 0 -0.0198,0.0898 l -0.271397,1.5632 a 0.7927009,0.7927009 45 0 0 0.644977,0.9155 0.7927009,0.7927009 45 0 0 0.91686,-0.64453 l 0.27097,-1.56184 a 0.7927009,0.7927009 45 0 0 -0.64454,-0.91687 0.7927009,0.7927009 45 0 0 -0.89667,0.55484 z m -1.085671,6.24828 a 0.7927009,0.7927009 45 0 0 -0.01978,0.0898 l -0.272326,1.5614 a 0.7927009,0.7927009 45 0 0 0.645889,0.91731 0.7927009,0.7927009 45 0 0 0.916864,-0.64454 l 0.27096,-1.56185 a 0.7927009,0.7927009 45 0 0 -0.644529,-0.91686 0.7927009,0.7927009 45 0 0 -0.896671,0.55484 z m -1.08567,6.24829 a 0.7927009,0.7927009 45 0 0 -0.01978,0.0898 l -0.272325,1.56139 a 0.7927009,0.7927009 45 0 0 0.645898,0.91731 0.7927009,0.7927009 45 0 0 0.916858,-0.64454 l 0.271418,-1.56319 a 0.7927009,0.7927009 45 0 0 -0.646341,-0.91595 0.7927009,0.7927009 45 0 0 -0.89532,0.55528 z m -1.085679,6.24828 a 0.7927009,0.7927009 45 0 0 -0.01978,0.0898 l -0.272325,1.56139 a 0.7927009,0.7927009 45 0 0 0.645889,0.91731 0.7927009,0.7927009 45 0 0 0.91595,-0.64634 l 0.272326,-1.5614 a 0.7927009,0.7927009 45 0 0 -0.645889,-0.9173 0.7927009,0.7927009 45 0 0 -0.895763,0.55664 z m -1.08567,6.24828 a 0.7927009,0.7927009 45 0 0 -0.01977,0.0898 l -0.272326,1.5614 a 0.7927009,0.7927009 45 0 0 0.645899,0.91731 0.7927009,0.7927009 45 0 0 0.917297,-0.64589 l 0.270979,-1.56185 a 0.7927009,0.7927009 45 0 0 -0.645899,-0.91731 0.7927009,0.7927009 45 0 0 -0.895766,0.55665 z m -1.085236,6.24692 a 0.7927009,0.7927009 45 0 0 -0.01978,0.0898 l -0.272772,1.56277 a 0.7927009,0.7927009 45 0 0 0.646344,0.91594 0.7927009,0.7927009 45 0 0 0.916868,-0.64454 l 0.270956,-1.56184 a 0.7927009,0.7927009 45 0 0 -0.645892,-0.9173 0.7927009,0.7927009 45 0 0 -0.895317,0.55528 z m -1.085669,6.24829 a 0.7927009,0.7927009 45 0 0 -0.01978,0.0898 l -0.270969,1.56185 a 0.7927009,0.7927009 45 0 0 0.644542,0.91686 0.7927009,0.7927009 45 0 0 0.916855,-0.64454 l 0.271408,-1.5632 a 0.7927009,0.7927009 45 0 0 -0.644981,-0.9155 0.7927009,0.7927009 45 0 0 -0.896671,0.55484 z m -1.085673,6.24829 a 0.7927009,0.7927009 45 0 0 -0.01978,0.0898 l -0.270972,1.56183 a 0.7927009,0.7927009 45 0 0 0.644539,0.91687 0.7927009,0.7927009 45 0 0 0.917307,-0.64589 l 0.270969,-1.56185 a 0.7927009,0.7927009 45 0 0 -0.644975,-0.9155 0.7927009,0.7927009 45 0 0 -0.89668,0.55484 z m -1.084316,6.24872 a 0.7927009,0.7927009 45 0 0 -0.02168,0.0892 l -0.270979,1.56184 a 0.7927009,0.7927009 45 0 0 0.644542,0.91686 0.7927009,0.7927009 45 0 0 0.917307,-0.64589 l 0.270966,-1.56184 a 0.7927009,0.7927009 45 0 0 -0.644539,-0.91686 0.7927009,0.7927009 45 0 0 -0.895763,0.55664 z m -1.085663,6.24829 a 0.7927009,0.7927009 45 0 0 -0.02168,0.0892 l -0.270962,1.56183 a 0.7927009,0.7927009 45 0 0 0.646341,0.91596 0.7927009,0.7927009 45 0 0 0.915495,-0.64498 l 0.270969,-1.56185 a 0.7927009,0.7927009 45 0 0 -0.644529,-0.91686 0.7927009,0.7927009 45 0 0 -0.895767,0.55665 z m -1.085233,6.24692 a 0.7927009,0.7927009 45 0 0 -0.02168,0.0892 l -0.271402,1.56321 a 0.7927009,0.7927009 45 0 0 0.646332,0.91595 0.7927009,0.7927009 45 0 0 0.915498,-0.64499 l 0.272335,-1.56139 a 0.7927009,0.7927009 45 0 0 -0.645898,-0.91731 0.7927009,0.7927009 45 0 0 -0.895311,0.55528 z m -1.08567,6.24828 a 0.7927009,0.7927009 45 0 0 -0.01978,0.0898 l -0.270966,1.56184 a 0.7927009,0.7927009 45 0 0 0.644539,0.91687 0.7927009,0.7927009 45 0 0 0.917307,-0.64589 l 0.270969,-1.56185 a 0.7927009,0.7927009 45 0 0 -0.646344,-0.91594 0.7927009,0.7927009 45 0 0 -0.89532,0.55528 z m -1.084319,6.24873 a 0.7927009,0.7927009 45 0 0 -0.02168,0.0892 l -0.270969,1.56184 a 0.7927009,0.7927009 45 0 0 0.644539,0.91687 0.7927009,0.7927009 45 0 0 0.917301,-0.6459 l 0.270975,-1.56184 a 0.7927009,0.7927009 45 0 0 -0.644538,-0.91686 0.7927009,0.7927009 45 0 0 -0.895764,0.55664 z m -1.085673,6.24829 a 0.7927009,0.7927009 45 0 0 -0.02168,0.0892 l -0.270963,1.56183 a 0.7927009,0.7927009 45 0 0 0.646332,0.91595 0.7927009,0.7927009 45 0 0 0.915504,-0.64498 l 0.272329,-1.5614 a 0.7927009,0.7927009 45 0 0 -0.645898,-0.91731 0.7927009,0.7927009 45 0 0 -0.895757,0.55665 z m -1.085224,6.24691 a 0.7927009,0.7927009 45 0 0 -0.01977,0.0898 l -0.271422,1.56321 a 0.7927009,0.7927009 45 0 0 0.644982,0.91551 0.7927009,0.7927009 45 0 0 0.916867,-0.64454 l 0.2714,-1.5632 a 0.7927009,0.7927009 45 0 0 -0.646332,-0.91595 0.7927009,0.7927009 45 0 0 -0.89532,0.55528 z m -1.084319,6.24873 a 0.7927009,0.7927009 45 0 0 -0.02168,0.0892 l -0.270966,1.56184 a 0.7927009,0.7927009 45 0 0 0.644539,0.91687 0.7927009,0.7927009 45 0 0 0.917297,-0.6459 l 0.270979,-1.56184 a 0.7927009,0.7927009 45 0 0 -0.644982,-0.91551 0.7927009,0.7927009 45 0 0 -0.89532,0.55528 z"

       style="color:#000000;font-style:normal;font-variant:normal;font-weight:normal;font-stretch:normal;font-size:medium;line-height:normal;font-family:sans-serif;font-variant-ligatures:normal;font-variant-position:normal;font-variant-caps:normal;font-variant-numeric:normal;font-variant-alternates:normal;font-variant-east-asian:normal;font-feature-settings:normal;font-variation-settings:normal;text-indent:0;text-align:start;text-decoration:none;text-decoration-line:none;text-decoration-style:solid;text-decoration-color:#000000;letter-spacing:normal;word-spacing:normal;text-transform:none;writing-mode:lr-tb;direction:ltr;text-orientation:mixed;dominant-baseline:auto;baseline-shift:baseline;text-anchor:start;white-space:normal;shape-padding:0;shape-margin:0;inline-size:0;clip-rule:nonzero;display:inline;overflow:visible;visibility:visible;opacity:1;isolation:auto;mix-blend-mode:normal;color-interpolation:sRGB;color-interpolation-filters:linearRGB;solid-color:#000000;solid-opacity:1;vector-effect:none;fill:#000000;fill-opacity:1;fill-rule:nonzero;stroke:none;stroke-width:1.5854;stroke-linecap:round;stroke-linejoin:miter;stroke-miterlimit:4;stroke-dasharray:1.5854, 4.75621;stroke-dashoffset:0;stroke-opacity:1;color-rendering:auto;image-rendering:auto;shape-rendering:auto;text-rendering:auto;enable-background:accumulate;stop-color:#000000;stop-opacity:1" />
       
       
       
       <circle id="plug" class="circ" cx="0" cy="0" r="7"/> 
	<animateMotion
		xlink:href="#plug"
	  	dur="10s"
		rotate="auto"
		repeatCount="indefinite"
		calcMode="linear"
		keyTimes="0;1"    
		keyPoints="0;1">
		<mpath xlink:href="#loop-normal"/>
	</animateMotion> 
    

    
 
</svg>
