<svg xmlns="http://www.w3.org/2000/svg" xmlns:xlink="http://www.w3.org/1999/xlink" viewBox="184.64 83.41 389.16 433.07">
  <defs>
    <path d="M200.05 429.61c26.29 30.73 55.8 52.8 88.53 66.21a265.15 265.15 0 0 0 55.9 15.84 127.39 127.39 0 0 0 91.74-19.28c21.76-14.38 36.06-29.03 42.92-43.96 18.8-40.95 16.55-89.29 10.21-119.89-6.34-30.61-8.47-85.69-20.16-119.84-7.78-22.77-24.58-34.58-50.4-35.45l11.34-69.28a1.2 1.2 0 0 1 1.43-.99l20.12 4a6.8 6.8 0 0 1 3.57 1.96l20.58 21.58a25.43 25.43 0 0 1 6.7 21.55l-1.31 8.19a34.66 34.66 0 0 0 4.98 24.09l47.79 75.12a23.65 23.65 0 0 1 2.98 18.47l-4.44 17.66c20.46-13.28 32.54-29.01 36.25-47.18 3.01-14.74 2.67-52.06-1.03-111.96a46.34 46.34 0 0 0-24.68-38.16l-23.01-12.12a15.34 15.34 0 0 0-13.66-.3l-42.72 20.1-33.08-7.96a.35.35 0 0 1-.26-.34v-1.01a3.18 3.18 0 0 0-2.98-3.17l-8.43-.53a4.58 4.58 0 0 0-4.84 5.03l3.84 37.76a32.76 32.76 0 0 1-2.6 16.44l-6.66 15.17 6.33 7.79c13.17 2.89 21.9 9.75 26.2 20.56 6.46 16.23 1.08 54.58 1.94 72.35 1.79 37.1-1.78 16.01 3.37 60.47 5.15 44.45-12.16 85.67-31.51 110.6-19.34 24.92-49.78 50.64-75.86 54.01-40.13 5.19-66.8-13.56-80-56.26-29.35 7.44-49.72 3.08-61.13-13.09-17.1-24.26-18.66-74.4 9.35-125.9 28.01-51.5 96.91-70.78 102.69-80.1 5.77-9.33 20.22-32.88 40.91-46.97 20.68-14.09 38.51-13.74 46.54-9.4 5.35 2.9 10.46 7.47 15.32 13.73l-65.5 124.46c-8.71 13.78-14.51 25.51-17.42 35.18-4.35 14.5-5.36 21.73 0 22.83 5.36 1.09 9.29-8.43 11.21-13.39 1.91-4.96 1.91-29.23-1.97-30.08-3.89-.84-15.5-.59-26.85 6.64-11.34 7.22-12.04 18.67-10.23 23.44 1.82 4.78 10.77-.82 17.94-9.44 4.78-5.75 8.08-11.73 9.9-17.94" id="a"/>
  </defs>
<use xlink:href="#a" fill-opacity="0" stroke="#000" class="v1" />


  <defs>
    <path d="M200.05 429.61c26.29 30.73 55.8 52.8 88.53 66.21a265.15 265.15 0 0 0 55.9 15.84 127.39 127.39 0 0 0 91.74-19.28c21.76-14.38 36.06-29.03 42.92-43.96 18.8-40.95 16.55-89.29 10.21-119.89-6.34-30.61-8.47-85.69-20.16-119.84-7.78-22.77-24.58-34.58-50.4-35.45l11.34-69.28a1.2 1.2 0 0 1 1.43-.99l20.12 4a6.8 6.8 0 0 1 3.57 1.96l20.58 21.58a25.43 25.43 0 0 1 6.7 21.55l-1.31 8.19a34.66 34.66 0 0 0 4.98 24.09l47.79 75.12a23.65 23.65 0 0 1 2.98 18.47l-4.44 17.66c20.46-13.28 32.54-29.01 36.25-47.18 3.01-14.74 2.67-52.06-1.03-111.96a46.34 46.34 0 0 0-24.68-38.16l-23.01-12.12a15.34 15.34 0 0 0-13.66-.3l-42.72 20.1-33.08-7.96a.35.35 0 0 1-.26-.34v-1.01a3.18 3.18 0 0 0-2.98-3.17l-8.43-.53a4.58 4.58 0 0 0-4.84 5.03l3.84 37.76a32.76 32.76 0 0 1-2.6 16.44l-6.66 15.17 6.33 7.79c13.17 2.89 21.9 9.75 26.2 20.56 6.46 16.23 1.08 54.58 1.94 72.35 1.79 37.1-1.78 16.01 3.37 60.47 5.15 44.45-12.16 85.67-31.51 110.6-19.34 24.92-49.78 50.64-75.86 54.01-40.13 5.19-66.8-13.56-80-56.26-29.35 7.44-49.72 3.08-61.13-13.09-17.1-24.26-18.66-74.4 9.35-125.9 28.01-51.5 96.91-70.78 102.69-80.1 5.77-9.33 20.22-32.88 40.91-46.97 20.68-14.09 38.51-13.74 46.54-9.4 5.35 2.9 10.46 7.47 15.32 13.73l-65.5 124.46c-8.71 13.78-14.51 25.51-17.42 35.18-4.35 14.5-5.36 21.73 0 22.83 5.36 1.09 9.29-8.43 11.21-13.39 1.91-4.96 1.91-29.23-1.97-30.08-3.89-.84-15.5-.59-26.85 6.64-11.34 7.22-12.04 18.67-10.23 23.44 1.82 4.78 10.77-.82 17.94-9.44 4.78-5.75 8.08-11.73 9.9-17.94" id="a"/>
  </defs>
<use xlink:href="#a" fill-opacity="0" stroke="#000" class="v4" />



</svg>
