<svg xmlns="http://www.w3.org/2000/svg" xmlns:xlink="http://www.w3.org/1999/xlink" height="220" width="340" style="text-align: center">





  <path  style="text-align: center" id="c"
   d="m 9.851835,15.798412 v 4.053602 m 5.185514,-6.814049 v 6.814049 m 5.186159,-9.587396 v 9.587396 m 8.799894,-4.856583 c 0,3.921384 -1.61241,7.468689 -4.211617,10.016298 l -0.02258,0.02387 -9.793786,9.599005 -9.8015234,-9.608034 -0.00838,-0.0084 C 2.5798561,22.470558 0.96744502,18.923254 0.96744502,14.99542 c 0,-7.7524712 6.27550378,-14.02797498 14.02797498,-14.02797498 7.746024,0 14.027977,6.27550378 14.027977,14.02797498 z" fill="none" stroke="white" stroke-width="1.7" stroke-linecap="round" stroke-miterlimit="10"  >
   
  
    <animateMotion style="text-align: center" calcMode="linear"  id="a" dur="25s" repeatCount="indefinite" keyTimes="0;0.1;1" keyPoints="0;0.0;1" 
      path="M29.64 141.583c.707-10.975-.038-34.092.58-55.61.042-1.486 4.19-9.012 12.354-9.37 18.472-.81 52.623-.173 71.818-.389 21.354-.24 14.96-10.195 15.091-14.487.348-11.399-3.21-26.814 6.74-26.847 41.397-.137 33.217.87 68.297.169-4.293 19.812 13.204 67.094-24.178 80.138-17.918 6.253-50.593 4.267-76.227 4.582-13.657.168-25.855.394-38.828 1.818-16.287 1.788 4.641 20.93-35.648 19.996 z" />
  </path>
  

  

    

  <path  style="text-align: center" id="c"
   d="m 9.851835,15.798412 v 4.053602 m 5.185514,-6.814049 v 6.814049 m 5.186159,-9.587396 v 9.587396 m 8.799894,-4.856583 c 0,3.921384 -1.61241,7.468689 -4.211617,10.016298 l -0.02258,0.02387 -9.793786,9.599005 -9.8015234,-9.608034 -0.00838,-0.0084 C 2.5798561,22.470558 0.96744502,18.923254 0.96744502,14.99542 c 0,-7.7524712 6.27550378,-14.02797498 14.02797498,-14.02797498 7.746024,0 14.027977,6.27550378 14.027977,14.02797498 z" fill="none" stroke="white" stroke-width="1.7" stroke-linecap="round" stroke-miterlimit="10"  >
     
  
    <animateMotion style="text-align: center" calcMode="linear"  id="b" dur="22s" repeatCount="indefinite" keyTimes="0;0.4;1" keyPoints="0;0.0;1" 
      path="M240.967 22.482c11.487.563 35.673-.18 58.191.26 1.556.03 9.449 3.572 9.86 10.608.927 15.917.41 45.355.718 61.9.344 18.403 10.733 12.85 15.225 12.944 11.929.25 28.043-2.882 28.12 5.693.324 35.68-.766 28.634.121 58.867-20.749-3.615-70.147 11.67-83.959-20.493-6.62-15.417-4.685-43.588-5.126-65.681-.235-11.771-.524-22.283-2.071-33.459-1.942-14.03-21.88 4.091-21.079-30.639 z" />
  </path>
  
  





  <path  style="text-align: center" id="c"
   d="m 9.851835,15.798412 v 4.053602 m 5.185514,-6.814049 v 6.814049 m 5.186159,-9.587396 v 9.587396 m 8.799894,-4.856583 c 0,3.921384 -1.61241,7.468689 -4.211617,10.016298 l -0.02258,0.02387 -9.793786,9.599005 -9.8015234,-9.608034 -0.00838,-0.0084 C 2.5798561,22.470558 0.96744502,18.923254 0.96744502,14.99542 c 0,-7.7524712 6.27550378,-14.02797498 14.02797498,-14.02797498 7.746024,0 14.027977,6.27550378 14.027977,14.02797498 z" fill="none" stroke="white" stroke-width="1.7" stroke-linecap="round" stroke-miterlimit="10"  >
    
    <animateMotion style="text-align: center" id="c" dur="21s" repeatCount="indefinite"
      path="M20,50 C20,-50 180,150 180,50 C180-50 20,150 20,50 z" />
  </path>
  
  
  


  
</svg>
