<svg xmlns="http://www.w3.org/2000/svg" xmlns:xlink="http://www.w3.org/1999/xlink" height="220" width="340" style="text-align: center">







<defs>  
     
<path id="loop-normal" d="M29.64 141.583c.707-10.975-.038-34.092.58-55.61.042-1.486 4.19-9.012 12.354-9.37 18.472-.81 52.623-.173 71.818-.389 21.354-.24 14.96-10.195 15.091-14.487.348-11.399-3.21-26.814 6.74-26.847 41.397-.137 33.217.87 68.297.169-4.293 19.812 13.204 67.094-24.178 80.138-17.918 6.253-50.593 4.267-76.227 4.582-13.657.168-25.855.394-38.828 1.818-16.287 1.788 4.641 20.93-35.648 19.996 z"/>
    
    
    
<!-- radial gradient has same color at constnnt distance from center,
         regardless of direction-->
	  <radialGradient id="fade" cx="0" cy="0" fx="0" fy="0" r="20" gradientUnits="userSpaceOnUse">
	    <stop stop-color="#383838" stop-opacity="1" offset="0" />

	  </radialGradient> 
      

  </defs>
  


   
  <use style="fill:none;stroke:#ccc;stroke-width:0;"
       xlink:href="#loop-normal" />

  <!-- outer group makes sure mask is applied after animateMotion -->
  <g style="mask:url(#tail)">
    <!-- circle with gradient radius -->
    
    
    
    
              <circle cx="0" cy="0" fill="none" r="0" stroke="red" stroke-width="18">
  
    <animate attributeName="r" from="0.9" to="21" dur="1s" begin="0s" repeatCount="indefinite"/>
    <animate attributeName="opacity" from="0.9" to="0" dur="1s" begin="0s" repeatCount="indefinite"/>
    
        <animateMotion calcMode="linear"  id="a" dur="25s" keyTimes="0;0.1;1" keyPoints="0;0.0;1" repeatCount="indefinite"   
      path="M29.64 141.583c.707-10.975-.038-34.092.58-55.61.042-1.486 4.19-9.012 12.354-9.37 18.472-.81 52.623-.173 71.818-.389 21.354-.24 14.96-10.195 15.091-14.487.348-11.399-3.21-26.814 6.74-26.847 41.397-.137 33.217.87 68.297.169-4.293 19.812 13.204 67.094-24.178 80.138-17.918 6.253-50.593 4.267-76.227 4.582-13.657.168-25.855.394-38.828 1.818-16.287 1.788 4.641 20.93-35.648 19.996 z" />
  
  </circle>

    
   <circle style="fill:url(#fade);" fill="#383838" stroke="white" stroke-width="3" stroke-miterlimit="1"  cx="0" cy="0" r="10">
   

    
    
      <animateMotion style="text-align: center" calcMode="linear"  id="a" dur="25s" repeatCount="indefinite" keyTimes="0;0.1;1" keyPoints="0;0.0;1">
                     
	      <mpath xlink:href="#loop-normal"/>
      </animateMotion>
    </circle>
    

 
  </g>
  
  
    

 


























<defs>  
     
<path id="loop-normalb" d="M240.967 22.482c11.487.563 35.673-.18 58.191.26 1.556.03 9.449 3.572 9.86 10.608.927 15.917.41 45.355.718 61.9.344 18.403 10.733 12.85 15.225 12.944 11.929.25 28.043-2.882 28.12 5.693.324 35.68-.766 28.634.121 58.867-20.749-3.615-70.147 11.67-83.959-20.493-6.62-15.417-4.685-43.588-5.126-65.681-.235-11.771-.524-22.283-2.071-33.459-1.942-14.03-21.88 4.091-21.079-30.639 z"/>
    
    
    
<!-- radial gradient has same color at constnnt distance from center,
         regardless of direction-->
	  <radialGradient id="fadeb" cx="0" cy="0" fx="0" fy="0" r="20" gradientUnits="userSpaceOnUse">
	    <stop stop-color="#3d85c6" stop-opacity="1" offset="0" />

	  </radialGradient> 
      

  </defs>
  


   
  <use style="fill:none;stroke:#ccc;stroke-width:0;"
       xlink:href="#loop-normalb" />

  <!-- outer group makes sure mask is applied after animateMotion -->
  <g style="mask:url(#tail)">
    <!-- circle with gradient radius -->
    
    
    
    


       <circle style="fill:url(#fadeb);" fill="#3d85c6" stroke="white" stroke-width="3" stroke-miterlimit="1"  cx="0" cy="0" r="10">
   

    
    
      <animateMotion style="text-align: center" calcMode="linear" dur="50s" repeatCount="indefinite" keyTimes="0;0.1;1" keyPoints="0;0.0;1">
                     
	      <mpath xlink:href="#loop-normalb"/>
      </animateMotion>
    </circle>

    

 
  </g>
  













<defs>  
     
<path id="loop-normalc" d="M20,50 C20,-50 180,150 180,50 C180-50 20,150 20,50 z"/>
    
    
    
<!-- radial gradient has same color at constnnt distance from center,
         regardless of direction-->
	  <radialGradient id="fadec" cx="0" cy="0" fx="0" fy="0" r="20" gradientUnits="userSpaceOnUse">
	    <stop stop-color="#383838" stop-opacity="1" offset="0" />

	  </radialGradient> 
      

  </defs>
  


   
  <use style="fill:none;stroke:#ccc;stroke-width:0;"
       xlink:href="#loop-normalc" />

  <!-- outer group makes sure mask is applied after animateMotion -->
  <g style="mask:url(#tail)">
    <!-- circle with gradient radius -->
    
    
    
    


       <circle style="fill:url(#fadec);" fill="#383838" stroke="white" stroke-width="3" stroke-miterlimit="1"  cx="0" cy="0" r="10">
   

    
    

      
      
      
      <animateMotion style="text-align: center"  dur="21s" repeatCount="indefinite" >
      
 
                     
	      <mpath xlink:href="#loop-normalc"/>
      </animateMotion>
    </circle>

    

 
  </g>









  
</svg>
