<svg xmlns="http://www.w3.org/2000/svg" xmlns:xlink="http://www.w3.org/1999/xlink" width="225.07mm" height="188.21mm" viewBox="0 0 638 533.5">
  <defs>
    <linearGradient id="linear-gradient" x1="299.47" y1="200.26" x2="299.47" y2="156.91" gradientTransform="translate(483.58 -73.91) rotate(90)" gradientUnits="userSpaceOnUse">
      <stop offset="0" stop-color="#2581c4"/>
      <stop offset="0.03" stop-color="#2581c4" stop-opacity="0.94"/>
      <stop offset="0.22" stop-color="#2581c4" stop-opacity="0.66"/>
      <stop offset="0.41" stop-color="#2581c4" stop-opacity="0.42"/>
      <stop offset="0.58" stop-color="#2581c4" stop-opacity="0.24"/>
      <stop offset="0.74" stop-color="#2581c4" stop-opacity="0.11"/>
      <stop offset="0.88" stop-color="#2581c4" stop-opacity="0.03"/>
      <stop offset="1" stop-color="#2581c4" stop-opacity="0"/>
    </linearGradient>
  </defs>
  <title>м1</title>
  <g id="Layer_4" data-name="Layer 4">
    <path d="M319.27,36.42V266.76H88.92C88.92,139.55,192,36.42,319.27,36.42Z" style="fill: #f8f9fa"/>
    <path d="M549.61,266.76c0,127.22-103.12,230.35-230.34,230.35V266.76Z" style="fill: #f8f9fa"/>
  </g>
  <g id="Layer_1" data-name="Layer 1">
    <g>
      <path d="M88.92,266.76H319.27V497.11C192,497.11,88.92,394,88.92,266.76Z" style="fill: none;stroke: #c6c6c6;stroke-miterlimit: 10"/>
      <path d="M549.61,266.76H319.27V36.42C446.49,36.42,549.61,139.55,549.61,266.76Z" style="fill: none;stroke: #c6c6c6;stroke-miterlimit: 10"/>
      <circle cx="319.27" cy="266.76" r="230.35" style="fill: none;stroke: #c6c6c6;stroke-miterlimit: 10"/>
      <circle cx="319.27" cy="266.76" r="175.51" style="fill: none;stroke: #c6c6c6;stroke-miterlimit: 10"/>
      <circle cx="319.27" cy="266.76" r="122.85" style="fill: none;stroke: #c6c6c6;stroke-miterlimit: 10"/>
      <circle cx="319.27" cy="266.76" r="67.51" style="fill: none;stroke: #c6c6c6;stroke-miterlimit: 10"/>
      <line x1="561.43" y1="266.76" x2="77.1" y2="266.76" style="fill: none;stroke: #878787;stroke-miterlimit: 10"/>
      <line x1="439.34" y1="56.46" x2="199.2" y2="477.07" style="fill: none;stroke: #878787;stroke-miterlimit: 10"/>
      <line x1="528.78" y1="145.31" x2="109.76" y2="388.22" style="fill: none;stroke: #878787;stroke-miterlimit: 10"/>
      <line x1="528.48" y1="388.73" x2="110.06" y2="144.79" style="fill: none;stroke: #878787;stroke-miterlimit: 10"/>
      <line x1="440.99" y1="476.12" x2="197.55" y2="57.41" style="fill: none;stroke: #878787;stroke-miterlimit: 10"/>
      <line x1="319.27" y1="24.6" x2="319.27" y2="508.93" style="fill: none;stroke: #878787;stroke-miterlimit: 10"/>
      <line x1="319" y1="36.42" x2="324.58" y2="36.42" style="fill: none;stroke: #878787;stroke-miterlimit: 10"/>
      <line x1="319" y1="91.25" x2="324.58" y2="91.25" style="fill: none;stroke: #878787;stroke-miterlimit: 10"/>
      <line x1="319" y1="143.92" x2="324.58" y2="143.92" style="fill: none;stroke: #878787;stroke-miterlimit: 10"/>
      <line x1="319" y1="199.25" x2="324.58" y2="199.25" style="fill: none;stroke: #878787;stroke-miterlimit: 10"/>
      <line x1="319" y1="254.53" x2="324.58" y2="254.53" style="fill: none;stroke: #878787;stroke-miterlimit: 10"/>
      <circle cx="319.27" cy="266.76" r="12.24" style="fill: #f8f9fa;stroke: #c6c6c6;stroke-miterlimit: 10"/>
    </g>
  </g>
  <g id="Layer_3" data-name="Layer 3">
    <g>
      <polygon points="328.69 248.87 282.42 235.54 282.42 214.09 328.69 202.25 328.69 248.87" style="fill: url(#linear-gradient)"/>
      <path d="M293.14,224.81a10.72,10.72,0,1,0-10.72,10.72,10.72,10.72,0,0,0,10.72-10.72Z" style="fill: #c6c6c6"/>
      <path d="M291.14,224.81a8.72,8.72,0,1,1-8.72-8.72,8.73,8.73,0,0,1,8.72,8.72" style="fill: #3d85c6"/>
    </g>
  </g>
  <g id="Layer_2" data-name="Layer 2">
    <g>
      <path d="M182.47,41a2.91,2.91,0,0,1,.92,2.23,3,3,0,0,1-1.84,2.88,5.17,5.17,0,0,1-2.22.43,6.68,6.68,0,0,1-2.3-.39,4.66,4.66,0,0,1-1.74-1l.56-.91a4.11,4.11,0,0,0,1.49.94,5.44,5.44,0,0,0,2,.36,3.34,3.34,0,0,0,2.13-.6,2,2,0,0,0,.75-1.66,2,2,0,0,0-.75-1.63,3.64,3.64,0,0,0-2.27-.59h-.8v-.85l3.1-3.89h-5.73v-1H183v.82l-3.17,4A4.15,4.15,0,0,1,182.47,41Z" style="fill: #878787"/>
      <path d="M191.41,41a2.91,2.91,0,0,1,.92,2.23,3,3,0,0,1-1.84,2.88,5.17,5.17,0,0,1-2.22.43,6.68,6.68,0,0,1-2.3-.39,4.66,4.66,0,0,1-1.74-1l.56-.91a4.11,4.11,0,0,0,1.49.94,5.44,5.44,0,0,0,2,.36,3.34,3.34,0,0,0,2.13-.6,2,2,0,0,0,.75-1.66,2,2,0,0,0-.75-1.63,3.64,3.64,0,0,0-2.27-.59h-.8v-.85l3.1-3.89H184.7v-1h7.2v.82l-3.17,4A4.15,4.15,0,0,1,191.41,41Z" style="fill: #878787"/>
      <path d="M196.1,45.85a4.5,4.5,0,0,1-1.58-2,8.37,8.37,0,0,1,0-6.06,4.5,4.5,0,0,1,1.58-2,4.23,4.23,0,0,1,4.62,0,4.56,4.56,0,0,1,1.59,2,8.27,8.27,0,0,1,0,6.06,4.56,4.56,0,0,1-1.59,2,4.23,4.23,0,0,1-4.62,0Zm4-.91a3.52,3.52,0,0,0,1.16-1.58,7.79,7.79,0,0,0,0-5,3.52,3.52,0,0,0-1.16-1.58,3,3,0,0,0-3.44,0,3.52,3.52,0,0,0-1.16,1.58,7.79,7.79,0,0,0,0,5,3.52,3.52,0,0,0,1.16,1.58,3,3,0,0,0,3.44,0Z" style="fill: #878787"/>
    </g>
    <g>
      <path d="M82.92,135.91a2.91,2.91,0,0,1,.92,2.23A3,3,0,0,1,82,141a5.17,5.17,0,0,1-2.22.43,6.68,6.68,0,0,1-2.3-.39,4.66,4.66,0,0,1-1.74-1l.56-.91a4.11,4.11,0,0,0,1.49.94,5.44,5.44,0,0,0,2,.36,3.34,3.34,0,0,0,2.13-.6,2,2,0,0,0,.75-1.66,2,2,0,0,0-.75-1.63,3.64,3.64,0,0,0-2.27-.59h-.8v-.85l3.1-3.89H76.21v-1h7.2V131l-3.17,4A4.15,4.15,0,0,1,82.92,135.91Z" style="fill: #878787"/>
      <path d="M87.61,140.76a4.5,4.5,0,0,1-1.58-2,8.37,8.37,0,0,1,0-6.06,4.5,4.5,0,0,1,1.58-2,4.23,4.23,0,0,1,4.62,0,4.56,4.56,0,0,1,1.59,2,8.27,8.27,0,0,1,0,6.06,4.56,4.56,0,0,1-1.59,2,4.23,4.23,0,0,1-4.62,0Zm4-.91a3.52,3.52,0,0,0,1.16-1.58,7.79,7.79,0,0,0,0-5,3.52,3.52,0,0,0-1.16-1.58,3,3,0,0,0-3.44,0A3.52,3.52,0,0,0,87,133.24a7.79,7.79,0,0,0,0,5,3.52,3.52,0,0,0,1.16,1.58,3,3,0,0,0,3.44,0Z" style="fill: #878787"/>
      <path d="M98.2,140.76a4.5,4.5,0,0,1-1.58-2,8.37,8.37,0,0,1,0-6.06,4.5,4.5,0,0,1,1.58-2,4.23,4.23,0,0,1,4.62,0,4.56,4.56,0,0,1,1.59,2,8.27,8.27,0,0,1,0,6.06,4.56,4.56,0,0,1-1.59,2,4.23,4.23,0,0,1-4.62,0Zm4-.91a3.52,3.52,0,0,0,1.16-1.58,7.79,7.79,0,0,0,0-5,3.52,3.52,0,0,0-1.16-1.58,3,3,0,0,0-3.44,0,3.52,3.52,0,0,0-1.16,1.58,7.79,7.79,0,0,0,0,5,3.52,3.52,0,0,0,1.16,1.58,3,3,0,0,0,3.44,0Z" style="fill: #878787"/>
    </g>
    <g>
      <path d="M54.58,271.21v1H46.73v-.82l4.66-4.56a6,6,0,0,0,1.19-1.5,2.85,2.85,0,0,0,.31-1.27,1.88,1.88,0,0,0-.68-1.54,3,3,0,0,0-1.94-.55,3.84,3.84,0,0,0-3.06,1.25l-.82-.7a4.29,4.29,0,0,1,1.67-1.18,6,6,0,0,1,2.3-.42,4.19,4.19,0,0,1,2.71.81,2.69,2.69,0,0,1,1,2.22,3.8,3.8,0,0,1-.38,1.66,7,7,0,0,1-1.46,1.84l-3.81,3.74Z" style="fill: #878787"/>
      <path d="M63.86,261v.82l-4.69,10.38H57.93l4.61-10.18H56.78v2.1H55.64V261Z" style="fill: #878787"/>
      <path d="M67.22,271.64a4.51,4.51,0,0,1-1.58-2,8.37,8.37,0,0,1,0-6.06,4.5,4.5,0,0,1,1.58-2,4.23,4.23,0,0,1,4.62,0,4.56,4.56,0,0,1,1.59,2,8.27,8.27,0,0,1,0,6.06,4.57,4.57,0,0,1-1.59,2,4.23,4.23,0,0,1-4.62,0Zm4-.91a3.52,3.52,0,0,0,1.16-1.58,7.79,7.79,0,0,0,0-5,3.52,3.52,0,0,0-1.16-1.58,3,3,0,0,0-3.44,0,3.52,3.52,0,0,0-1.16,1.58,7.79,7.79,0,0,0,0,5,3.52,3.52,0,0,0,1.16,1.58,3,3,0,0,0,3.44,0Z" style="fill: #878787"/>
    </g>
    <g>
      <path d="M85.23,403.5v1H77.38v-.82L82,399.14a6,6,0,0,0,1.19-1.5,2.85,2.85,0,0,0,.31-1.27,1.88,1.88,0,0,0-.68-1.54,3,3,0,0,0-1.94-.55,3.84,3.84,0,0,0-3.06,1.25l-.82-.7a4.29,4.29,0,0,1,1.67-1.18,6,6,0,0,1,2.3-.42,4.19,4.19,0,0,1,2.71.81,2.69,2.69,0,0,1,1,2.22,3.8,3.8,0,0,1-.38,1.66,7,7,0,0,1-1.46,1.84l-3.81,3.74Z" style="fill: #878787"/>
      <path d="M95.82,401.58H93.58v2.94H92.43v-2.94H86.11v-.83L92,393.32h1.28l-5.73,7.23h4.86V398h1.12v2.59h2.24Z" style="fill: #878787"/>
      <path d="M99,403.93a4.5,4.5,0,0,1-1.58-2,8.37,8.37,0,0,1,0-6.06,4.5,4.5,0,0,1,1.58-2,4.23,4.23,0,0,1,4.62,0,4.56,4.56,0,0,1,1.59,2,8.27,8.27,0,0,1,0,6.06,4.56,4.56,0,0,1-1.59,2,4.23,4.23,0,0,1-4.62,0Zm4-.91a3.51,3.51,0,0,0,1.16-1.58,7.79,7.79,0,0,0,0-5,3.51,3.51,0,0,0-1.16-1.58,3,3,0,0,0-3.44,0,3.51,3.51,0,0,0-1.16,1.58,7.79,7.79,0,0,0,0,5A3.51,3.51,0,0,0,99.63,403a3,3,0,0,0,3.44,0Z" style="fill: #878787"/>
    </g>
    <g>
      <path d="M185.73,497.81v1h-7.86V498l4.66-4.56a6,6,0,0,0,1.19-1.5,2.85,2.85,0,0,0,.31-1.27,1.88,1.88,0,0,0-.68-1.54,3,3,0,0,0-1.94-.55,3.84,3.84,0,0,0-3.06,1.25l-.82-.7a4.29,4.29,0,0,1,1.67-1.18,6,6,0,0,1,2.3-.42,4.19,4.19,0,0,1,2.71.81,2.69,2.69,0,0,1,1,2.22,3.8,3.8,0,0,1-.38,1.66,7,7,0,0,1-1.46,1.84l-3.81,3.74Z" style="fill: #878787"/>
      <path d="M190.28,487.63v11.2h-1.15V488.66h-2.64v-1Z" style="fill: #878787"/>
      <path d="M195.1,498.24a4.5,4.5,0,0,1-1.58-2,8.37,8.37,0,0,1,0-6.06,4.5,4.5,0,0,1,1.58-2,4.23,4.23,0,0,1,4.62,0,4.56,4.56,0,0,1,1.59,2,8.27,8.27,0,0,1,0,6.06,4.56,4.56,0,0,1-1.59,2,4.23,4.23,0,0,1-4.62,0Zm4-.91a3.51,3.51,0,0,0,1.16-1.58,7.79,7.79,0,0,0,0-5,3.51,3.51,0,0,0-1.16-1.58,3,3,0,0,0-3.44,0,3.51,3.51,0,0,0-1.16,1.58,7.79,7.79,0,0,0,0,5,3.51,3.51,0,0,0,1.16,1.58,3,3,0,0,0,3.44,0Z" style="fill: #878787"/>
    </g>
    <g>
      <path d="M311.9,516v11.2h-1.15V517H308.1v-1Z" style="fill: #878787"/>
      <path d="M322.61,522.35a2.61,2.61,0,0,1,.57,1.7,2.82,2.82,0,0,1-.53,1.7,3.32,3.32,0,0,1-1.51,1.12,6.24,6.24,0,0,1-2.31.39,5.17,5.17,0,0,1-3.17-.86A2.78,2.78,0,0,1,314.5,524a2.66,2.66,0,0,1,.55-1.71,3.33,3.33,0,0,1,1.61-1,2.79,2.79,0,0,1-1.31-1,2.52,2.52,0,0,1-.45-1.5,2.56,2.56,0,0,1,1.06-2.16,4.64,4.64,0,0,1,2.86-.8,5.48,5.48,0,0,1,2.07.36,3.14,3.14,0,0,1,1.38,1,2.57,2.57,0,0,1,.5,1.57,2.46,2.46,0,0,1-.46,1.5,2.89,2.89,0,0,1-1.33,1A3.4,3.4,0,0,1,322.61,522.35Zm-1.46,3.33a2,2,0,0,0,0-3.29,4.79,4.79,0,0,0-4.64,0,1.91,1.91,0,0,0-.84,1.64,1.93,1.93,0,0,0,.83,1.66,4.77,4.77,0,0,0,4.65,0Zm-4.36-5.34a3.35,3.35,0,0,0,2,.54,3.39,3.39,0,0,0,2-.54,1.71,1.71,0,0,0,.74-1.46,1.74,1.74,0,0,0-.76-1.49,3.41,3.41,0,0,0-2-.54,3.35,3.35,0,0,0-2,.54,1.83,1.83,0,0,0,0,2.94Z" style="fill: #878787"/>
      <path d="M326.93,526.57a4.49,4.49,0,0,1-1.58-2,8.37,8.37,0,0,1,0-6.06,4.49,4.49,0,0,1,1.58-2,4.23,4.23,0,0,1,4.62,0,4.55,4.55,0,0,1,1.59,2,8.26,8.26,0,0,1,0,6.06,4.55,4.55,0,0,1-1.59,2,4.22,4.22,0,0,1-4.62,0Zm4-.91a3.51,3.51,0,0,0,1.16-1.58,7.79,7.79,0,0,0,0-5,3.52,3.52,0,0,0-1.16-1.58,3,3,0,0,0-3.44,0,3.52,3.52,0,0,0-1.16,1.58,7.79,7.79,0,0,0,0,5,3.51,3.51,0,0,0,1.16,1.58,3,3,0,0,0,3.44,0Z" style="fill: #878787"/>
    </g>
    <g>
      <path d="M441.8,487.63v11.2h-1.15V488.66H438v-1Z" style="fill: #878787"/>
      <path d="M451,493.1a2.92,2.92,0,0,1,1.11,2.44,3.34,3.34,0,0,1-.46,1.74,3.1,3.1,0,0,1-1.37,1.21,5.11,5.11,0,0,1-2.24.44,6.62,6.62,0,0,1-2.28-.39,4.67,4.67,0,0,1-1.74-1l.56-.91a4.14,4.14,0,0,0,1.47.94,5.33,5.33,0,0,0,2,.36,3.31,3.31,0,0,0,2.15-.62,2,2,0,0,0,.76-1.66,2,2,0,0,0-.86-1.74,5.28,5.28,0,0,0-2.89-.59h-2.38l.58-5.62h6.13v1h-5.12l-.38,3.57h1.44A5.76,5.76,0,0,1,451,493.1Z" style="fill: #878787"/>
      <path d="M455.68,498.24a4.5,4.5,0,0,1-1.58-2,8.37,8.37,0,0,1,0-6.06,4.5,4.5,0,0,1,1.58-2,4.23,4.23,0,0,1,4.62,0,4.56,4.56,0,0,1,1.59,2,8.27,8.27,0,0,1,0,6.06,4.57,4.57,0,0,1-1.59,2,4.23,4.23,0,0,1-4.62,0Zm4-.91a3.51,3.51,0,0,0,1.16-1.58,7.79,7.79,0,0,0,0-5,3.52,3.52,0,0,0-1.16-1.58,3,3,0,0,0-3.44,0,3.52,3.52,0,0,0-1.16,1.58,7.79,7.79,0,0,0,0,5,3.51,3.51,0,0,0,1.16,1.58,3,3,0,0,0,3.44,0Z" style="fill: #878787"/>
    </g>
    <g>
      <path d="M538.76,393v11.2h-1.15V394H535v-1Z" style="fill: #878787"/>
      <path d="M549.08,403.18v1h-7.86v-.82l4.66-4.56a6,6,0,0,0,1.19-1.5,2.85,2.85,0,0,0,.31-1.27,1.88,1.88,0,0,0-.68-1.54,3,3,0,0,0-1.94-.55,3.84,3.84,0,0,0-3.06,1.25l-.82-.7a4.3,4.3,0,0,1,1.67-1.18,6,6,0,0,1,2.3-.42,4.19,4.19,0,0,1,2.71.81,2.69,2.69,0,0,1,1,2.21,3.8,3.8,0,0,1-.38,1.66,7,7,0,0,1-1.46,1.84l-3.81,3.74Z" style="fill: #878787"/>
      <path d="M552.61,403.62a4.5,4.5,0,0,1-1.58-2,8.37,8.37,0,0,1,0-6.06,4.5,4.5,0,0,1,1.58-2,4.23,4.23,0,0,1,4.62,0,4.56,4.56,0,0,1,1.59,2,8.27,8.27,0,0,1,0,6.06,4.57,4.57,0,0,1-1.59,2,4.23,4.23,0,0,1-4.62,0Zm4-.91a3.51,3.51,0,0,0,1.16-1.58,7.79,7.79,0,0,0,0-5,3.52,3.52,0,0,0-1.16-1.58,3,3,0,0,0-3.44,0A3.52,3.52,0,0,0,552,396.1a7.79,7.79,0,0,0,0,5,3.51,3.51,0,0,0,1.16,1.58,3,3,0,0,0,3.44,0Z" style="fill: #878787"/>
    </g>
    <g>
      <path d="M572.47,263a6.42,6.42,0,0,1,1.18,4.14,7.12,7.12,0,0,1-.64,3.17,4.48,4.48,0,0,1-1.79,2,5.29,5.29,0,0,1-2.69.66,5,5,0,0,1-2.66-.61l.46-.93a3.91,3.91,0,0,0,2.18.53,3.72,3.72,0,0,0,2.91-1.18,5,5,0,0,0,1.06-3.42c0-.28,0-.58,0-.91a3,3,0,0,1-1.33,1.42,4.26,4.26,0,0,1-2.1.5,4.43,4.43,0,0,1-2-.42,3.19,3.19,0,0,1-1.34-1.18,3.25,3.25,0,0,1-.48-1.77,3.31,3.31,0,0,1,.5-1.81,3.27,3.27,0,0,1,1.37-1.21,4.43,4.43,0,0,1,2-.42A4.13,4.13,0,0,1,572.47,263Zm-1.78,4a2.52,2.52,0,0,0,1-.88,2.23,2.23,0,0,0,.37-1.25,2.18,2.18,0,0,0-.34-1.18,2.48,2.48,0,0,0-1-.88,3.54,3.54,0,0,0-1.6-.34,2.9,2.9,0,0,0-2,.66,2.23,2.23,0,0,0-.76,1.77,2.21,2.21,0,0,0,.76,1.76,3,3,0,0,0,2.06.66A3.34,3.34,0,0,0,570.68,267Z" style="fill: #878787"/>
      <path d="M577.47,272.22a4.51,4.51,0,0,1-1.58-2,8.37,8.37,0,0,1,0-6.06,4.5,4.5,0,0,1,1.58-2,4.23,4.23,0,0,1,4.62,0,4.56,4.56,0,0,1,1.59,2,8.27,8.27,0,0,1,0,6.06,4.57,4.57,0,0,1-1.59,2,4.23,4.23,0,0,1-4.62,0Zm4-.91a3.52,3.52,0,0,0,1.16-1.58,7.79,7.79,0,0,0,0-5,3.52,3.52,0,0,0-1.16-1.58,3,3,0,0,0-3.44,0,3.52,3.52,0,0,0-1.16,1.58,7.79,7.79,0,0,0,0,5,3.52,3.52,0,0,0,1.16,1.58,3,3,0,0,0,3.44,0Z" style="fill: #878787"/>
    </g>
    <g>
      <path d="M541.42,136.84a3.18,3.18,0,0,1,1.34,1.18,3.24,3.24,0,0,1,.48,1.77,3.31,3.31,0,0,1-.5,1.81,3.27,3.27,0,0,1-1.37,1.21,4.42,4.42,0,0,1-2,.42,4.13,4.13,0,0,1-3.41-1.46,6.42,6.42,0,0,1-1.18-4.14,7.1,7.1,0,0,1,.64-3.17,4.48,4.48,0,0,1,1.79-2,5.29,5.29,0,0,1,2.69-.66,5.05,5.05,0,0,1,2.66.61l-.46.93a3.91,3.91,0,0,0-2.18-.53A3.71,3.71,0,0,0,537,134a5,5,0,0,0-1.06,3.42q0,.4,0,.91a3,3,0,0,1,1.33-1.42,4.26,4.26,0,0,1,2.1-.5A4.43,4.43,0,0,1,541.42,136.84Zm-.08,4.74a2.23,2.23,0,0,0,.76-1.77,2.21,2.21,0,0,0-.76-1.76,3,3,0,0,0-2.06-.66,3.35,3.35,0,0,0-1.5.32,2.52,2.52,0,0,0-1,.88,2.22,2.22,0,0,0-.37,1.25,2.17,2.17,0,0,0,.34,1.18,2.47,2.47,0,0,0,1,.88,3.54,3.54,0,0,0,1.6.34A2.89,2.89,0,0,0,541.34,141.58Z" style="fill: #878787"/>
      <path d="M546.72,142.53a4.5,4.5,0,0,1-1.58-2,8.37,8.37,0,0,1,0-6.06,4.5,4.5,0,0,1,1.58-2,4.23,4.23,0,0,1,4.62,0,4.56,4.56,0,0,1,1.59,2,8.27,8.27,0,0,1,0,6.06,4.56,4.56,0,0,1-1.59,2,4.23,4.23,0,0,1-4.62,0Zm4-.91a3.52,3.52,0,0,0,1.16-1.58,7.79,7.79,0,0,0,0-5,3.52,3.52,0,0,0-1.16-1.58,3,3,0,0,0-3.44,0,3.52,3.52,0,0,0-1.16,1.58,7.79,7.79,0,0,0,0,5,3.52,3.52,0,0,0,1.16,1.58,3,3,0,0,0,3.44,0Z" style="fill: #878787"/>
    </g>
    <g>
      <path d="M447.19,42.55a2.91,2.91,0,0,1,.92,2.23,3,3,0,0,1-1.84,2.88,5.17,5.17,0,0,1-2.22.43,6.68,6.68,0,0,1-2.3-.39,4.66,4.66,0,0,1-1.74-1l.56-.91a4.11,4.11,0,0,0,1.49.94,5.44,5.44,0,0,0,2,.36,3.34,3.34,0,0,0,2.13-.6,2,2,0,0,0,.75-1.66,2,2,0,0,0-.75-1.63,3.64,3.64,0,0,0-2.27-.59h-.8v-.85l3.1-3.89h-5.73v-1h7.2v.82l-3.17,4A4.15,4.15,0,0,1,447.19,42.55Z" style="fill: #878787"/>
      <path d="M451.87,47.41a4.5,4.5,0,0,1-1.58-2,8.37,8.37,0,0,1,0-6.06,4.5,4.5,0,0,1,1.58-2,4.23,4.23,0,0,1,4.62,0,4.56,4.56,0,0,1,1.59,2,8.27,8.27,0,0,1,0,6.06,4.56,4.56,0,0,1-1.59,2,4.23,4.23,0,0,1-4.62,0Zm4-.91a3.52,3.52,0,0,0,1.16-1.58,7.79,7.79,0,0,0,0-5,3.52,3.52,0,0,0-1.16-1.58,3,3,0,0,0-3.44,0,3.52,3.52,0,0,0-1.16,1.58,7.79,7.79,0,0,0,0,5,3.52,3.52,0,0,0,1.16,1.58,3,3,0,0,0,3.44,0Z" style="fill: #878787"/>
    </g>
    <path d="M317,17.37a4.5,4.5,0,0,1-1.58-2,7.46,7.46,0,0,1-.57-3,7.46,7.46,0,0,1,.57-3,4.5,4.5,0,0,1,1.58-2,4.23,4.23,0,0,1,4.62,0,4.56,4.56,0,0,1,1.59,2,7.38,7.38,0,0,1,.58,3,7.38,7.38,0,0,1-.58,3,4.56,4.56,0,0,1-1.59,2,4.23,4.23,0,0,1-4.62,0Zm4-.91a3.52,3.52,0,0,0,1.16-1.58,6.77,6.77,0,0,0,.42-2.51,6.77,6.77,0,0,0-.42-2.51A3.52,3.52,0,0,0,321,8.26a3,3,0,0,0-3.44,0,3.52,3.52,0,0,0-1.16,1.58,6.77,6.77,0,0,0-.42,2.51,6.77,6.77,0,0,0,.42,2.51,3.52,3.52,0,0,0,1.16,1.58,3,3,0,0,0,3.44,0Z" style="fill: #878787"/>
    <g>
      <path d="M335.95,36.3a2.91,2.91,0,0,1,.92,2.23A3,3,0,0,1,335,41.41a5.17,5.17,0,0,1-2.22.43,6.68,6.68,0,0,1-2.3-.39,4.66,4.66,0,0,1-1.74-1l.56-.91a4.11,4.11,0,0,0,1.49.94,5.44,5.44,0,0,0,2,.36,3.34,3.34,0,0,0,2.13-.6,2,2,0,0,0,.75-1.66,2,2,0,0,0-.75-1.63,3.64,3.64,0,0,0-2.27-.59h-.8v-.85l3.1-3.89h-5.73v-1h7.2v.82l-3.17,4A4.15,4.15,0,0,1,335.95,36.3Z" style="fill: #878787"/>
      <path d="M340.63,41.16a4.5,4.5,0,0,1-1.58-2,8.37,8.37,0,0,1,0-6.06,4.5,4.5,0,0,1,1.58-2,4.23,4.23,0,0,1,4.62,0,4.56,4.56,0,0,1,1.59,2,8.27,8.27,0,0,1,0,6.06,4.56,4.56,0,0,1-1.59,2,4.23,4.23,0,0,1-4.62,0Zm4-.91a3.52,3.52,0,0,0,1.16-1.58,7.79,7.79,0,0,0,0-5,3.52,3.52,0,0,0-1.16-1.58,3,3,0,0,0-3.44,0,3.52,3.52,0,0,0-1.16,1.58,7.79,7.79,0,0,0,0,5,3.52,3.52,0,0,0,1.16,1.58,3,3,0,0,0,3.44,0Z" style="fill: #878787"/>
    </g>
    <g>
      <path d="M337.11,95v1h-7.86v-.82l4.66-4.56a6,6,0,0,0,1.19-1.5,2.85,2.85,0,0,0,.31-1.27,1.88,1.88,0,0,0-.68-1.54,3,3,0,0,0-1.94-.55A3.84,3.84,0,0,0,329.73,87l-.82-.7a4.29,4.29,0,0,1,1.67-1.18,6,6,0,0,1,2.3-.42,4.19,4.19,0,0,1,2.71.81,2.69,2.69,0,0,1,1,2.22,3.8,3.8,0,0,1-.38,1.66,7,7,0,0,1-1.46,1.84L330.95,95Z" style="fill: #878787"/>
      <path d="M346.19,95v1h-7.86v-.82L343,90.62a6,6,0,0,0,1.19-1.5,2.85,2.85,0,0,0,.31-1.27,1.88,1.88,0,0,0-.68-1.54,3,3,0,0,0-1.94-.55A3.84,3.84,0,0,0,338.82,87l-.82-.7a4.29,4.29,0,0,1,1.67-1.18,6,6,0,0,1,2.3-.42,4.19,4.19,0,0,1,2.71.81,2.69,2.69,0,0,1,1,2.22,3.8,3.8,0,0,1-.38,1.66,7,7,0,0,1-1.46,1.84L340,95Z" style="fill: #878787"/>
    </g>
    <g>
      <path d="M333.37,139.8V151h-1.15V140.82h-2.64v-1Z" style="fill: #878787"/>
      <path d="M342.53,145.26a2.92,2.92,0,0,1,1.11,2.44,3.34,3.34,0,0,1-.46,1.74,3.1,3.1,0,0,1-1.37,1.21,5.12,5.12,0,0,1-2.24.44,6.63,6.63,0,0,1-2.28-.39,4.66,4.66,0,0,1-1.74-1l.56-.91a4.14,4.14,0,0,0,1.47.94,5.32,5.32,0,0,0,2,.36,3.31,3.31,0,0,0,2.15-.62,2,2,0,0,0,.76-1.66,2,2,0,0,0-.86-1.74,5.28,5.28,0,0,0-2.89-.59h-2.38l.58-5.62h6.13v1h-5.12l-.38,3.57H339A5.76,5.76,0,0,1,342.53,145.26Z" style="fill: #878787"/>
    </g>
    <path d="M337.36,194.3v.82l-4.69,10.38h-1.25L336,195.32h-5.76v2.1h-1.14V194.3Z" style="fill: #878787"/>
    <path d="M331.61,259.57a4.5,4.5,0,0,1-1.58-2,8.37,8.37,0,0,1,0-6.06,4.5,4.5,0,0,1,1.58-2,4.23,4.23,0,0,1,4.62,0,4.56,4.56,0,0,1,1.59,2,8.27,8.27,0,0,1,0,6.06,4.56,4.56,0,0,1-1.59,2,4.23,4.23,0,0,1-4.62,0Zm4-.91a3.52,3.52,0,0,0,1.16-1.58,7.79,7.79,0,0,0,0-5,3.52,3.52,0,0,0-1.16-1.58,3,3,0,0,0-3.44,0,3.52,3.52,0,0,0-1.16,1.58,7.79,7.79,0,0,0,0,5,3.52,3.52,0,0,0,1.16,1.58,3,3,0,0,0,3.44,0Z" style="fill: #878787"/>
  </g>
</svg>
