<svg xmlns="http://www.w3.org/2000/svg" xmlns:xlink="http://www.w3.org/1999/xlink" width="225.07mm" height="228.25mm" viewBox="0 0 638 647">
  <defs>
    <linearGradient id="linear-gradient" x1="183.03" y1="197.93" x2="183.03" y2="154.58" gradientTransform="translate(481.25 41.78) rotate(90)" gradientUnits="userSpaceOnUse">
      <stop offset="0" stop-color="#2581c4"/>
      <stop offset="0.03" stop-color="#2581c4" stop-opacity="0.94"/>
      <stop offset="0.22" stop-color="#2581c4" stop-opacity="0.66"/>
      <stop offset="0.41" stop-color="#2581c4" stop-opacity="0.42"/>
      <stop offset="0.58" stop-color="#2581c4" stop-opacity="0.24"/>
      <stop offset="0.74" stop-color="#2581c4" stop-opacity="0.11"/>
      <stop offset="0.88" stop-color="#2581c4" stop-opacity="0.03"/>
      <stop offset="1" stop-color="#2581c4" stop-opacity="0"/>
    </linearGradient>
  </defs>
  <title>м1</title>
  <g id="Layer_1" data-name="Layer 1">
    <g>
      <path d="M88.92,266.76H319.27V497.11C192,497.11,88.92,394,88.92,266.76Z" style="fill: none;stroke: #c6c6c6;stroke-miterlimit: 10"/>
      <path d="M549.61,266.76H319.27V36.42C446.49,36.42,549.61,139.55,549.61,266.76Z" style="fill: none;stroke: #c6c6c6;stroke-miterlimit: 10"/>
      <circle cx="319.27" cy="266.76" r="230.35" style="fill: #f8f9fa;stroke: #c6c6c6;stroke-miterlimit: 10"/>
      <circle cx="319.27" cy="266.76" r="175.51" style="fill: none;stroke: #c6c6c6;stroke-miterlimit: 10"/>
      <circle cx="319.27" cy="266.76" r="122.85" style="fill: none;stroke: #c6c6c6;stroke-miterlimit: 10"/>
      <circle cx="319.27" cy="266.76" r="67.51" style="fill: none;stroke: #c6c6c6;stroke-miterlimit: 10"/>
      <line x1="561.43" y1="266.76" x2="77.1" y2="266.76" style="fill: none;stroke: #878787;stroke-miterlimit: 10"/>
      <line x1="439.34" y1="56.46" x2="199.2" y2="477.07" style="fill: none;stroke: #878787;stroke-miterlimit: 10"/>
      <line x1="528.78" y1="145.31" x2="109.76" y2="388.22" style="fill: none;stroke: #878787;stroke-miterlimit: 10"/>
      <line x1="528.48" y1="388.73" x2="110.06" y2="144.79" style="fill: none;stroke: #878787;stroke-miterlimit: 10"/>
      <line x1="440.99" y1="476.12" x2="197.55" y2="57.41" style="fill: none;stroke: #878787;stroke-miterlimit: 10"/>
      <line x1="319.27" y1="24.6" x2="319.27" y2="508.93" style="fill: none;stroke: #878787;stroke-miterlimit: 10"/>
      <line x1="319" y1="36.42" x2="324.58" y2="36.42" style="fill: none;stroke: #878787;stroke-miterlimit: 10"/>
      <line x1="319" y1="91.25" x2="324.58" y2="91.25" style="fill: none;stroke: #878787;stroke-miterlimit: 10"/>
      <line x1="319" y1="143.92" x2="324.58" y2="143.92" style="fill: none;stroke: #878787;stroke-miterlimit: 10"/>
      <line x1="319" y1="199.25" x2="324.58" y2="199.25" style="fill: none;stroke: #878787;stroke-miterlimit: 10"/>
      <line x1="319" y1="254.53" x2="324.58" y2="254.53" style="fill: none;stroke: #878787;stroke-miterlimit: 10"/>
    </g>
  </g>
  <g id="Layer_3" data-name="Layer 3">
    <g>
      <polygon points="328.69 248.13 282.42 239.3 282.42 210.8 328.69 201.5 328.69 248.13" style="fill: url(#linear-gradient)"/>
      <path d="M282.41,208.58a16.24,16.24,0,1,0,16.24,16.24,16.26,16.26,0,0,0-16.24-16.24Z" style="fill: #fff"/>
      <path d="M282.41,212.58a12.24,12.24,0,1,1-12.24,12.24,12.24,12.24,0,0,1,12.24-12.24" style="fill: #3d85c6"/>
    </g>
  </g>
  <g id="Layer_2" data-name="Layer 2">
    <g>
      <path d="M182.47,41a2.91,2.91,0,0,1,.92,2.23,3,3,0,0,1-1.84,2.88,5.17,5.17,0,0,1-2.22.43,6.68,6.68,0,0,1-2.3-.39,4.66,4.66,0,0,1-1.74-1l.56-.91a4.11,4.11,0,0,0,1.49.94,5.44,5.44,0,0,0,2,.36,3.34,3.34,0,0,0,2.13-.6,2,2,0,0,0,.75-1.66,2,2,0,0,0-.75-1.63,3.64,3.64,0,0,0-2.27-.59h-.8v-.85l3.1-3.89h-5.73v-1H183v.82l-3.17,4A4.15,4.15,0,0,1,182.47,41Z" style="fill: #878787"/>
      <path d="M191.41,41a2.91,2.91,0,0,1,.92,2.23,3,3,0,0,1-1.84,2.88,5.17,5.17,0,0,1-2.22.43,6.68,6.68,0,0,1-2.3-.39,4.66,4.66,0,0,1-1.74-1l.56-.91a4.11,4.11,0,0,0,1.49.94,5.44,5.44,0,0,0,2,.36,3.34,3.34,0,0,0,2.13-.6,2,2,0,0,0,.75-1.66,2,2,0,0,0-.75-1.63,3.64,3.64,0,0,0-2.27-.59h-.8v-.85l3.1-3.89H184.7v-1h7.2v.82l-3.17,4A4.15,4.15,0,0,1,191.41,41Z" style="fill: #878787"/>
      <path d="M196.1,45.85a4.5,4.5,0,0,1-1.58-2,8.37,8.37,0,0,1,0-6.06,4.5,4.5,0,0,1,1.58-2,4.23,4.23,0,0,1,4.62,0,4.56,4.56,0,0,1,1.59,2,8.27,8.27,0,0,1,0,6.06,4.56,4.56,0,0,1-1.59,2,4.23,4.23,0,0,1-4.62,0Zm4-.91a3.52,3.52,0,0,0,1.16-1.58,7.79,7.79,0,0,0,0-5,3.52,3.52,0,0,0-1.16-1.58,3,3,0,0,0-3.44,0,3.52,3.52,0,0,0-1.16,1.58,7.79,7.79,0,0,0,0,5,3.52,3.52,0,0,0,1.16,1.58,3,3,0,0,0,3.44,0Z" style="fill: #878787"/>
    </g>
    <g>
      <path d="M82.92,135.91a2.91,2.91,0,0,1,.92,2.23A3,3,0,0,1,82,141a5.17,5.17,0,0,1-2.22.43,6.68,6.68,0,0,1-2.3-.39,4.66,4.66,0,0,1-1.74-1l.56-.91a4.11,4.11,0,0,0,1.49.94,5.44,5.44,0,0,0,2,.36,3.34,3.34,0,0,0,2.13-.6,2,2,0,0,0,.75-1.66,2,2,0,0,0-.75-1.63,3.64,3.64,0,0,0-2.27-.59h-.8v-.85l3.1-3.89H76.21v-1h7.2V131l-3.17,4A4.15,4.15,0,0,1,82.92,135.91Z" style="fill: #878787"/>
      <path d="M87.61,140.76a4.5,4.5,0,0,1-1.58-2,8.37,8.37,0,0,1,0-6.06,4.5,4.5,0,0,1,1.58-2,4.23,4.23,0,0,1,4.62,0,4.56,4.56,0,0,1,1.59,2,8.27,8.27,0,0,1,0,6.06,4.56,4.56,0,0,1-1.59,2,4.23,4.23,0,0,1-4.62,0Zm4-.91a3.52,3.52,0,0,0,1.16-1.58,7.79,7.79,0,0,0,0-5,3.52,3.52,0,0,0-1.16-1.58,3,3,0,0,0-3.44,0A3.52,3.52,0,0,0,87,133.24a7.79,7.79,0,0,0,0,5,3.52,3.52,0,0,0,1.16,1.58,3,3,0,0,0,3.44,0Z" style="fill: #878787"/>
      <path d="M98.2,140.76a4.5,4.5,0,0,1-1.58-2,8.37,8.37,0,0,1,0-6.06,4.5,4.5,0,0,1,1.58-2,4.23,4.23,0,0,1,4.62,0,4.56,4.56,0,0,1,1.59,2,8.27,8.27,0,0,1,0,6.06,4.56,4.56,0,0,1-1.59,2,4.23,4.23,0,0,1-4.62,0Zm4-.91a3.52,3.52,0,0,0,1.16-1.58,7.79,7.79,0,0,0,0-5,3.52,3.52,0,0,0-1.16-1.58,3,3,0,0,0-3.44,0,3.52,3.52,0,0,0-1.16,1.58,7.79,7.79,0,0,0,0,5,3.52,3.52,0,0,0,1.16,1.58,3,3,0,0,0,3.44,0Z" style="fill: #878787"/>
    </g>
    <g>
      <path d="M54.58,271.21v1H46.73v-.82l4.66-4.56a6,6,0,0,0,1.19-1.5,2.85,2.85,0,0,0,.31-1.27,1.88,1.88,0,0,0-.68-1.54,3,3,0,0,0-1.94-.55,3.84,3.84,0,0,0-3.06,1.25l-.82-.7a4.29,4.29,0,0,1,1.67-1.18,6,6,0,0,1,2.3-.42,4.19,4.19,0,0,1,2.71.81,2.69,2.69,0,0,1,1,2.22,3.8,3.8,0,0,1-.38,1.66,7,7,0,0,1-1.46,1.84l-3.81,3.74Z" style="fill: #878787"/>
      <path d="M63.86,261v.82l-4.69,10.38H57.93l4.61-10.18H56.78v2.1H55.64V261Z" style="fill: #878787"/>
      <path d="M67.22,271.64a4.51,4.51,0,0,1-1.58-2,8.37,8.37,0,0,1,0-6.06,4.5,4.5,0,0,1,1.58-2,4.23,4.23,0,0,1,4.62,0,4.56,4.56,0,0,1,1.59,2,8.27,8.27,0,0,1,0,6.06,4.57,4.57,0,0,1-1.59,2,4.23,4.23,0,0,1-4.62,0Zm4-.91a3.52,3.52,0,0,0,1.16-1.58,7.79,7.79,0,0,0,0-5,3.52,3.52,0,0,0-1.16-1.58,3,3,0,0,0-3.44,0,3.52,3.52,0,0,0-1.16,1.58,7.79,7.79,0,0,0,0,5,3.52,3.52,0,0,0,1.16,1.58,3,3,0,0,0,3.44,0Z" style="fill: #878787"/>
    </g>
    <g>
      <path d="M85.23,403.5v1H77.38v-.82L82,399.14a6,6,0,0,0,1.19-1.5,2.85,2.85,0,0,0,.31-1.27,1.88,1.88,0,0,0-.68-1.54,3,3,0,0,0-1.94-.55,3.84,3.84,0,0,0-3.06,1.25l-.82-.7a4.29,4.29,0,0,1,1.67-1.18,6,6,0,0,1,2.3-.42,4.19,4.19,0,0,1,2.71.81,2.69,2.69,0,0,1,1,2.22,3.8,3.8,0,0,1-.38,1.66,7,7,0,0,1-1.46,1.84l-3.81,3.74Z" style="fill: #878787"/>
      <path d="M95.82,401.58H93.58v2.94H92.43v-2.94H86.11v-.83L92,393.32h1.28l-5.73,7.23h4.86V398h1.12v2.59h2.24Z" style="fill: #878787"/>
      <path d="M99,403.93a4.5,4.5,0,0,1-1.58-2,8.37,8.37,0,0,1,0-6.06,4.5,4.5,0,0,1,1.58-2,4.23,4.23,0,0,1,4.62,0,4.56,4.56,0,0,1,1.59,2,8.27,8.27,0,0,1,0,6.06,4.56,4.56,0,0,1-1.59,2,4.23,4.23,0,0,1-4.62,0Zm4-.91a3.51,3.51,0,0,0,1.16-1.58,7.79,7.79,0,0,0,0-5,3.51,3.51,0,0,0-1.16-1.58,3,3,0,0,0-3.44,0,3.51,3.51,0,0,0-1.16,1.58,7.79,7.79,0,0,0,0,5A3.51,3.51,0,0,0,99.63,403a3,3,0,0,0,3.44,0Z" style="fill: #878787"/>
    </g>
    <g>
      <path d="M185.73,497.81v1h-7.86V498l4.66-4.56a6,6,0,0,0,1.19-1.5,2.85,2.85,0,0,0,.31-1.27,1.88,1.88,0,0,0-.68-1.54,3,3,0,0,0-1.94-.55,3.84,3.84,0,0,0-3.06,1.25l-.82-.7a4.29,4.29,0,0,1,1.67-1.18,6,6,0,0,1,2.3-.42,4.19,4.19,0,0,1,2.71.81,2.69,2.69,0,0,1,1,2.22,3.8,3.8,0,0,1-.38,1.66,7,7,0,0,1-1.46,1.84l-3.81,3.74Z" style="fill: #878787"/>
      <path d="M190.28,487.63v11.2h-1.15V488.66h-2.64v-1Z" style="fill: #878787"/>
      <path d="M195.1,498.24a4.5,4.5,0,0,1-1.58-2,8.37,8.37,0,0,1,0-6.06,4.5,4.5,0,0,1,1.58-2,4.23,4.23,0,0,1,4.62,0,4.56,4.56,0,0,1,1.59,2,8.27,8.27,0,0,1,0,6.06,4.56,4.56,0,0,1-1.59,2,4.23,4.23,0,0,1-4.62,0Zm4-.91a3.51,3.51,0,0,0,1.16-1.58,7.79,7.79,0,0,0,0-5,3.51,3.51,0,0,0-1.16-1.58,3,3,0,0,0-3.44,0,3.51,3.51,0,0,0-1.16,1.58,7.79,7.79,0,0,0,0,5,3.51,3.51,0,0,0,1.16,1.58,3,3,0,0,0,3.44,0Z" style="fill: #878787"/>
    </g>
    <g>
      <path d="M311.9,516v11.2h-1.15V517H308.1v-1Z" style="fill: #878787"/>
      <path d="M322.61,522.35a2.61,2.61,0,0,1,.57,1.7,2.82,2.82,0,0,1-.53,1.7,3.32,3.32,0,0,1-1.51,1.12,6.24,6.24,0,0,1-2.31.39,5.17,5.17,0,0,1-3.17-.86A2.78,2.78,0,0,1,314.5,524a2.66,2.66,0,0,1,.55-1.71,3.33,3.33,0,0,1,1.61-1,2.79,2.79,0,0,1-1.31-1,2.52,2.52,0,0,1-.45-1.5,2.56,2.56,0,0,1,1.06-2.16,4.64,4.64,0,0,1,2.86-.8,5.48,5.48,0,0,1,2.07.36,3.14,3.14,0,0,1,1.38,1,2.57,2.57,0,0,1,.5,1.57,2.46,2.46,0,0,1-.46,1.5,2.89,2.89,0,0,1-1.33,1A3.4,3.4,0,0,1,322.61,522.35Zm-1.46,3.33a2,2,0,0,0,0-3.29,4.79,4.79,0,0,0-4.64,0,1.91,1.91,0,0,0-.84,1.64,1.93,1.93,0,0,0,.83,1.66,4.77,4.77,0,0,0,4.65,0Zm-4.36-5.34a3.35,3.35,0,0,0,2,.54,3.39,3.39,0,0,0,2-.54,1.71,1.71,0,0,0,.74-1.46,1.74,1.74,0,0,0-.76-1.49,3.41,3.41,0,0,0-2-.54,3.35,3.35,0,0,0-2,.54,1.83,1.83,0,0,0,0,2.94Z" style="fill: #878787"/>
      <path d="M326.93,526.57a4.49,4.49,0,0,1-1.58-2,8.37,8.37,0,0,1,0-6.06,4.49,4.49,0,0,1,1.58-2,4.23,4.23,0,0,1,4.62,0,4.55,4.55,0,0,1,1.59,2,8.26,8.26,0,0,1,0,6.06,4.55,4.55,0,0,1-1.59,2,4.22,4.22,0,0,1-4.62,0Zm4-.91a3.51,3.51,0,0,0,1.16-1.58,7.79,7.79,0,0,0,0-5,3.52,3.52,0,0,0-1.16-1.58,3,3,0,0,0-3.44,0,3.52,3.52,0,0,0-1.16,1.58,7.79,7.79,0,0,0,0,5,3.51,3.51,0,0,0,1.16,1.58,3,3,0,0,0,3.44,0Z" style="fill: #878787"/>
    </g>
    <g>
      <path d="M441.8,487.63v11.2h-1.15V488.66H438v-1Z" style="fill: #878787"/>
      <path d="M451,493.1a2.92,2.92,0,0,1,1.11,2.44,3.34,3.34,0,0,1-.46,1.74,3.1,3.1,0,0,1-1.37,1.21,5.11,5.11,0,0,1-2.24.44,6.62,6.62,0,0,1-2.28-.39,4.67,4.67,0,0,1-1.74-1l.56-.91a4.14,4.14,0,0,0,1.47.94,5.33,5.33,0,0,0,2,.36,3.31,3.31,0,0,0,2.15-.62,2,2,0,0,0,.76-1.66,2,2,0,0,0-.86-1.74,5.28,5.28,0,0,0-2.89-.59h-2.38l.58-5.62h6.13v1h-5.12l-.38,3.57h1.44A5.76,5.76,0,0,1,451,493.1Z" style="fill: #878787"/>
      <path d="M455.68,498.24a4.5,4.5,0,0,1-1.58-2,8.37,8.37,0,0,1,0-6.06,4.5,4.5,0,0,1,1.58-2,4.23,4.23,0,0,1,4.62,0,4.56,4.56,0,0,1,1.59,2,8.27,8.27,0,0,1,0,6.06,4.57,4.57,0,0,1-1.59,2,4.23,4.23,0,0,1-4.62,0Zm4-.91a3.51,3.51,0,0,0,1.16-1.58,7.79,7.79,0,0,0,0-5,3.52,3.52,0,0,0-1.16-1.58,3,3,0,0,0-3.44,0,3.52,3.52,0,0,0-1.16,1.58,7.79,7.79,0,0,0,0,5,3.51,3.51,0,0,0,1.16,1.58,3,3,0,0,0,3.44,0Z" style="fill: #878787"/>
    </g>
    <g>
      <path d="M538.76,393v11.2h-1.15V394H535v-1Z" style="fill: #878787"/>
      <path d="M549.08,403.18v1h-7.86v-.82l4.66-4.56a6,6,0,0,0,1.19-1.5,2.85,2.85,0,0,0,.31-1.27,1.88,1.88,0,0,0-.68-1.54,3,3,0,0,0-1.94-.55,3.84,3.84,0,0,0-3.06,1.25l-.82-.7a4.3,4.3,0,0,1,1.67-1.18,6,6,0,0,1,2.3-.42,4.19,4.19,0,0,1,2.71.81,2.69,2.69,0,0,1,1,2.21,3.8,3.8,0,0,1-.38,1.66,7,7,0,0,1-1.46,1.84l-3.81,3.74Z" style="fill: #878787"/>
      <path d="M552.61,403.62a4.5,4.5,0,0,1-1.58-2,8.37,8.37,0,0,1,0-6.06,4.5,4.5,0,0,1,1.58-2,4.23,4.23,0,0,1,4.62,0,4.56,4.56,0,0,1,1.59,2,8.27,8.27,0,0,1,0,6.06,4.57,4.57,0,0,1-1.59,2,4.23,4.23,0,0,1-4.62,0Zm4-.91a3.51,3.51,0,0,0,1.16-1.58,7.79,7.79,0,0,0,0-5,3.52,3.52,0,0,0-1.16-1.58,3,3,0,0,0-3.44,0A3.52,3.52,0,0,0,552,396.1a7.79,7.79,0,0,0,0,5,3.51,3.51,0,0,0,1.16,1.58,3,3,0,0,0,3.44,0Z" style="fill: #878787"/>
    </g>
    <g>
      <path d="M572.47,263a6.42,6.42,0,0,1,1.18,4.14,7.12,7.12,0,0,1-.64,3.17,4.48,4.48,0,0,1-1.79,2,5.29,5.29,0,0,1-2.69.66,5,5,0,0,1-2.66-.61l.46-.93a3.91,3.91,0,0,0,2.18.53,3.72,3.72,0,0,0,2.91-1.18,5,5,0,0,0,1.06-3.42c0-.28,0-.58,0-.91a3,3,0,0,1-1.33,1.42,4.26,4.26,0,0,1-2.1.5,4.43,4.43,0,0,1-2-.42,3.19,3.19,0,0,1-1.34-1.18,3.25,3.25,0,0,1-.48-1.77,3.31,3.31,0,0,1,.5-1.81,3.27,3.27,0,0,1,1.37-1.21,4.43,4.43,0,0,1,2-.42A4.13,4.13,0,0,1,572.47,263Zm-1.78,4a2.52,2.52,0,0,0,1-.88,2.23,2.23,0,0,0,.37-1.25,2.18,2.18,0,0,0-.34-1.18,2.48,2.48,0,0,0-1-.88,3.54,3.54,0,0,0-1.6-.34,2.9,2.9,0,0,0-2,.66,2.23,2.23,0,0,0-.76,1.77,2.21,2.21,0,0,0,.76,1.76,3,3,0,0,0,2.06.66A3.34,3.34,0,0,0,570.68,267Z" style="fill: #878787"/>
      <path d="M577.47,272.22a4.51,4.51,0,0,1-1.58-2,8.37,8.37,0,0,1,0-6.06,4.5,4.5,0,0,1,1.58-2,4.23,4.23,0,0,1,4.62,0,4.56,4.56,0,0,1,1.59,2,8.27,8.27,0,0,1,0,6.06,4.57,4.57,0,0,1-1.59,2,4.23,4.23,0,0,1-4.62,0Zm4-.91a3.52,3.52,0,0,0,1.16-1.58,7.79,7.79,0,0,0,0-5,3.52,3.52,0,0,0-1.16-1.58,3,3,0,0,0-3.44,0,3.52,3.52,0,0,0-1.16,1.58,7.79,7.79,0,0,0,0,5,3.52,3.52,0,0,0,1.16,1.58,3,3,0,0,0,3.44,0Z" style="fill: #878787"/>
    </g>
    <g>
      <path d="M541.42,136.84a3.18,3.18,0,0,1,1.34,1.18,3.24,3.24,0,0,1,.48,1.77,3.31,3.31,0,0,1-.5,1.81,3.27,3.27,0,0,1-1.37,1.21,4.42,4.42,0,0,1-2,.42,4.13,4.13,0,0,1-3.41-1.46,6.42,6.42,0,0,1-1.18-4.14,7.1,7.1,0,0,1,.64-3.17,4.48,4.48,0,0,1,1.79-2,5.29,5.29,0,0,1,2.69-.66,5.05,5.05,0,0,1,2.66.61l-.46.93a3.91,3.91,0,0,0-2.18-.53A3.71,3.71,0,0,0,537,134a5,5,0,0,0-1.06,3.42q0,.4,0,.91a3,3,0,0,1,1.33-1.42,4.26,4.26,0,0,1,2.1-.5A4.43,4.43,0,0,1,541.42,136.84Zm-.08,4.74a2.23,2.23,0,0,0,.76-1.77,2.21,2.21,0,0,0-.76-1.76,3,3,0,0,0-2.06-.66,3.35,3.35,0,0,0-1.5.32,2.52,2.52,0,0,0-1,.88,2.22,2.22,0,0,0-.37,1.25,2.17,2.17,0,0,0,.34,1.18,2.47,2.47,0,0,0,1,.88,3.54,3.54,0,0,0,1.6.34A2.89,2.89,0,0,0,541.34,141.58Z" style="fill: #878787"/>
      <path d="M546.72,142.53a4.5,4.5,0,0,1-1.58-2,8.37,8.37,0,0,1,0-6.06,4.5,4.5,0,0,1,1.58-2,4.23,4.23,0,0,1,4.62,0,4.56,4.56,0,0,1,1.59,2,8.27,8.27,0,0,1,0,6.06,4.56,4.56,0,0,1-1.59,2,4.23,4.23,0,0,1-4.62,0Zm4-.91a3.52,3.52,0,0,0,1.16-1.58,7.79,7.79,0,0,0,0-5,3.52,3.52,0,0,0-1.16-1.58,3,3,0,0,0-3.44,0,3.52,3.52,0,0,0-1.16,1.58,7.79,7.79,0,0,0,0,5,3.52,3.52,0,0,0,1.16,1.58,3,3,0,0,0,3.44,0Z" style="fill: #878787"/>
    </g>
    <g>
      <path d="M447.19,42.55a2.91,2.91,0,0,1,.92,2.23,3,3,0,0,1-1.84,2.88,5.17,5.17,0,0,1-2.22.43,6.68,6.68,0,0,1-2.3-.39,4.66,4.66,0,0,1-1.74-1l.56-.91a4.11,4.11,0,0,0,1.49.94,5.44,5.44,0,0,0,2,.36,3.34,3.34,0,0,0,2.13-.6,2,2,0,0,0,.75-1.66,2,2,0,0,0-.75-1.63,3.64,3.64,0,0,0-2.27-.59h-.8v-.85l3.1-3.89h-5.73v-1h7.2v.82l-3.17,4A4.15,4.15,0,0,1,447.19,42.55Z" style="fill: #878787"/>
      <path d="M451.87,47.41a4.5,4.5,0,0,1-1.58-2,8.37,8.37,0,0,1,0-6.06,4.5,4.5,0,0,1,1.58-2,4.23,4.23,0,0,1,4.62,0,4.56,4.56,0,0,1,1.59,2,8.27,8.27,0,0,1,0,6.06,4.56,4.56,0,0,1-1.59,2,4.23,4.23,0,0,1-4.62,0Zm4-.91a3.52,3.52,0,0,0,1.16-1.58,7.79,7.79,0,0,0,0-5,3.52,3.52,0,0,0-1.16-1.58,3,3,0,0,0-3.44,0,3.52,3.52,0,0,0-1.16,1.58,7.79,7.79,0,0,0,0,5,3.52,3.52,0,0,0,1.16,1.58,3,3,0,0,0,3.44,0Z" style="fill: #878787"/>
    </g>
    <path d="M317,17.37a4.5,4.5,0,0,1-1.58-2,7.46,7.46,0,0,1-.57-3,7.46,7.46,0,0,1,.57-3,4.5,4.5,0,0,1,1.58-2,4.23,4.23,0,0,1,4.62,0,4.56,4.56,0,0,1,1.59,2,7.38,7.38,0,0,1,.58,3,7.38,7.38,0,0,1-.58,3,4.56,4.56,0,0,1-1.59,2,4.23,4.23,0,0,1-4.62,0Zm4-.91a3.52,3.52,0,0,0,1.16-1.58,6.77,6.77,0,0,0,.42-2.51,6.77,6.77,0,0,0-.42-2.51A3.52,3.52,0,0,0,321,8.26a3,3,0,0,0-3.44,0,3.52,3.52,0,0,0-1.16,1.58,6.77,6.77,0,0,0-.42,2.51,6.77,6.77,0,0,0,.42,2.51,3.52,3.52,0,0,0,1.16,1.58,3,3,0,0,0,3.44,0Z" style="fill: #878787"/>
    <g>
      <path d="M335.95,36.3a2.91,2.91,0,0,1,.92,2.23A3,3,0,0,1,335,41.41a5.17,5.17,0,0,1-2.22.43,6.68,6.68,0,0,1-2.3-.39,4.66,4.66,0,0,1-1.74-1l.56-.91a4.11,4.11,0,0,0,1.49.94,5.44,5.44,0,0,0,2,.36,3.34,3.34,0,0,0,2.13-.6,2,2,0,0,0,.75-1.66,2,2,0,0,0-.75-1.63,3.64,3.64,0,0,0-2.27-.59h-.8v-.85l3.1-3.89h-5.73v-1h7.2v.82l-3.17,4A4.15,4.15,0,0,1,335.95,36.3Z" style="fill: #878787"/>
      <path d="M340.63,41.16a4.5,4.5,0,0,1-1.58-2,8.37,8.37,0,0,1,0-6.06,4.5,4.5,0,0,1,1.58-2,4.23,4.23,0,0,1,4.62,0,4.56,4.56,0,0,1,1.59,2,8.27,8.27,0,0,1,0,6.06,4.56,4.56,0,0,1-1.59,2,4.23,4.23,0,0,1-4.62,0Zm4-.91a3.52,3.52,0,0,0,1.16-1.58,7.79,7.79,0,0,0,0-5,3.52,3.52,0,0,0-1.16-1.58,3,3,0,0,0-3.44,0,3.52,3.52,0,0,0-1.16,1.58,7.79,7.79,0,0,0,0,5,3.52,3.52,0,0,0,1.16,1.58,3,3,0,0,0,3.44,0Z" style="fill: #878787"/>
    </g>
    <g>
      <path d="M337.11,95v1h-7.86v-.82l4.66-4.56a6,6,0,0,0,1.19-1.5,2.85,2.85,0,0,0,.31-1.27,1.88,1.88,0,0,0-.68-1.54,3,3,0,0,0-1.94-.55A3.84,3.84,0,0,0,329.73,87l-.82-.7a4.29,4.29,0,0,1,1.67-1.18,6,6,0,0,1,2.3-.42,4.19,4.19,0,0,1,2.71.81,2.69,2.69,0,0,1,1,2.22,3.8,3.8,0,0,1-.38,1.66,7,7,0,0,1-1.46,1.84L330.95,95Z" style="fill: #878787"/>
      <path d="M346.19,95v1h-7.86v-.82L343,90.62a6,6,0,0,0,1.19-1.5,2.85,2.85,0,0,0,.31-1.27,1.88,1.88,0,0,0-.68-1.54,3,3,0,0,0-1.94-.55A3.84,3.84,0,0,0,338.82,87l-.82-.7a4.29,4.29,0,0,1,1.67-1.18,6,6,0,0,1,2.3-.42,4.19,4.19,0,0,1,2.71.81,2.69,2.69,0,0,1,1,2.22,3.8,3.8,0,0,1-.38,1.66,7,7,0,0,1-1.46,1.84L340,95Z" style="fill: #878787"/>
    </g>
    <g>
      <path d="M333.37,139.8V151h-1.15V140.82h-2.64v-1Z" style="fill: #878787"/>
      <path d="M342.53,145.26a2.92,2.92,0,0,1,1.11,2.44,3.34,3.34,0,0,1-.46,1.74,3.1,3.1,0,0,1-1.37,1.21,5.12,5.12,0,0,1-2.24.44,6.63,6.63,0,0,1-2.28-.39,4.66,4.66,0,0,1-1.74-1l.56-.91a4.14,4.14,0,0,0,1.47.94,5.32,5.32,0,0,0,2,.36,3.31,3.31,0,0,0,2.15-.62,2,2,0,0,0,.76-1.66,2,2,0,0,0-.86-1.74,5.28,5.28,0,0,0-2.89-.59h-2.38l.58-5.62h6.13v1h-5.12l-.38,3.57H339A5.76,5.76,0,0,1,342.53,145.26Z" style="fill: #878787"/>
    </g>
    <path d="M337.36,194.3v.82l-4.69,10.38h-1.25L336,195.32h-5.76v2.1h-1.14V194.3Z" style="fill: #878787"/>
    <path d="M331.61,259.57a4.5,4.5,0,0,1-1.58-2,8.37,8.37,0,0,1,0-6.06,4.5,4.5,0,0,1,1.58-2,4.23,4.23,0,0,1,4.62,0,4.56,4.56,0,0,1,1.59,2,8.27,8.27,0,0,1,0,6.06,4.56,4.56,0,0,1-1.59,2,4.23,4.23,0,0,1-4.62,0Zm4-.91a3.52,3.52,0,0,0,1.16-1.58,7.79,7.79,0,0,0,0-5,3.52,3.52,0,0,0-1.16-1.58,3,3,0,0,0-3.44,0,3.52,3.52,0,0,0-1.16,1.58,7.79,7.79,0,0,0,0,5,3.52,3.52,0,0,0,1.16,1.58,3,3,0,0,0,3.44,0Z" style="fill: #878787"/>
    <path d="M215.54,159.07v11.2h-1.15V160.09h-2.64v-1Z" style="fill: #3d85c6"/>
    <path d="M432.59,169.25v1h-7.86v-.82l4.66-4.56a6,6,0,0,0,1.19-1.5,2.85,2.85,0,0,0,.31-1.27,1.88,1.88,0,0,0-.68-1.54,3,3,0,0,0-1.94-.55,3.84,3.84,0,0,0-3.06,1.25l-.82-.7a4.29,4.29,0,0,1,1.67-1.18,6,6,0,0,1,2.3-.42,4.19,4.19,0,0,1,2.71.81,2.69,2.69,0,0,1,1,2.22,3.8,3.8,0,0,1-.38,1.66,7,7,0,0,1-1.46,1.84l-3.81,3.74Z" style="fill: #3d85c6"/>
    <path d="M429.24,373.47a2.91,2.91,0,0,1,.92,2.23,3,3,0,0,1-1.84,2.88,5.17,5.17,0,0,1-2.22.43,6.67,6.67,0,0,1-2.3-.39,4.66,4.66,0,0,1-1.74-1l.56-.91a4.12,4.12,0,0,0,1.49.94,5.45,5.45,0,0,0,2,.36,3.34,3.34,0,0,0,2.13-.6,2,2,0,0,0,.75-1.66,2,2,0,0,0-.75-1.63,3.64,3.64,0,0,0-2.27-.59h-.8v-.85l3.1-3.89h-5.73v-1h7.2v.82l-3.17,4A4.15,4.15,0,0,1,429.24,373.47Z" style="fill: #3d85c6"/>
    <path d="M219.56,376h-2.24v2.94h-1.15V376h-6.32v-.83l5.94-7.42h1.28l-5.73,7.23h4.86v-2.59h1.12v2.59h2.24Z" style="fill: #3d85c6"/>
  </g>
  <g id="компас">
    <circle cx="319.27" cy="266.76" r="12.24" style="fill: #fff;stroke: #c6c6c6;stroke-miterlimit: 10"/>
    <g>
      <path d="M548.74,483.75v9.73h-.85l-6.26-7.9v7.9h-1v-9.73h.85l6.27,7.9v-7.9Z" style="fill: #1d1d1b"/>
      <path d="M613.48,567.69h-.89v-6.88h9.73v6.68h-.89v-5.65H618v5h-.88v-5h-3.62Z" style="fill: #1d1d1b"/>
      <path d="M467.54,556.12l9.73,3.28v1.08l-8.3,2.85,8.3,2.86v1.07l-9.73,3.28V569.5l8.37-2.81-8.37-2.91v-1L476,560l-8.41-2.85Z" style="fill: #1d1d1b"/>
      <path d="M546.45,633.08A3.82,3.82,0,0,1,548,634l-.4.79a3.86,3.86,0,0,0-1.4-.86,5.14,5.14,0,0,0-1.81-.33,3.3,3.3,0,0,0-2,.48,1.48,1.48,0,0,0-.65,1.24,1.25,1.25,0,0,0,.35.93,2.4,2.4,0,0,0,.87.54,14.16,14.16,0,0,0,1.43.41,15,15,0,0,1,1.75.54,2.88,2.88,0,0,1,1.12.79,2.09,2.09,0,0,1,.47,1.43,2.43,2.43,0,0,1-.39,1.34,2.67,2.67,0,0,1-1.2,1,4.89,4.89,0,0,1-2,.36,5.93,5.93,0,0,1-1.63-.23,4.71,4.71,0,0,1-1.38-.63l.35-.82a4.77,4.77,0,0,0,1.31.61,4.9,4.9,0,0,0,1.36.2,3.15,3.15,0,0,0,1.93-.49,1.53,1.53,0,0,0,.65-1.27,1.27,1.27,0,0,0-.35-.94,2.32,2.32,0,0,0-.89-.54q-.54-.19-1.44-.41a14.35,14.35,0,0,1-1.73-.52,2.84,2.84,0,0,1-1.12-.78,2.06,2.06,0,0,1-.46-1.41,2.4,2.4,0,0,1,.4-1.34,2.67,2.67,0,0,1,1.22-1,5.09,5.09,0,0,1,2-.35A6.23,6.23,0,0,1,546.45,633.08Z" style="fill: #1d1d1b"/>
      <g>
        <path d="M533.42,627h-.06a.33.33,0,0,1-.27-.39l1-5.51a.32.32,0,0,1,.39-.27.33.33,0,0,1,.27.39l-1,5.51A.33.33,0,0,1,533.42,627Z" style="fill: #1d1d1b"/>
        <polygon points="544.09 564.26 544.09 564.25 544.76 564.25 544.09 564.26" style="fill: #1d1d1b"/>
        <path d="M554.44,507.73h-.06a.33.33,0,0,1-.27-.39l1-5.5a.33.33,0,0,1,.39-.27.33.33,0,0,1,.27.39l-1,5.5A.33.33,0,0,1,554.44,507.73Z" style="fill: #1d1d1b"/>
        <path d="M522.76,624.09l-.11,0a.34.34,0,0,1-.2-.43l1.91-5.23a.33.33,0,0,1,.63.23l-1.91,5.23A.33.33,0,0,1,522.76,624.09Z" style="fill: #1d1d1b"/>
        <polygon points="544.08 564.26 544.08 564.25 544.75 564.25 544.08 564.26" style="fill: #1d1d1b"/>
        <path d="M564.17,510.32l-.11,0a.34.34,0,0,1-.2-.43l1.91-5.25a.34.34,0,0,1,.43-.2.34.34,0,0,1,.2.43l-1.91,5.25A.34.34,0,0,1,564.17,510.32Z" style="fill: #1d1d1b"/>
        <path d="M503.72,613.08a.33.33,0,0,1-.26-.55l3.59-4.27a.33.33,0,0,1,.51.43L504,613A.33.33,0,0,1,503.72,613.08Z" style="fill: #1d1d1b"/>
        <polygon points="544.08 564.26 544.08 564.25 544.75 564.25 544.08 564.26" style="fill: #1d1d1b"/>
        <path d="M581.52,520.37a.33.33,0,0,1-.26-.55l3.59-4.28a.33.33,0,1,1,.51.43l-3.59,4.28A.33.33,0,0,1,581.52,520.37Z" style="fill: #1d1d1b"/>
        <path d="M495.92,605.29a.33.33,0,0,1-.21-.59L500,601.1a.33.33,0,1,1,.43.51l-4.28,3.59A.33.33,0,0,1,495.92,605.29Z" style="fill: #1d1d1b"/>
        <polygon points="544.08 564.26 544.08 564.25 544.75 564.25 544.08 564.26" style="fill: #1d1d1b"/>
        <path d="M588.64,527.49a.33.33,0,0,1-.22-.59l4.28-3.6a.33.33,0,0,1,.43.51l-4.28,3.6A.34.34,0,0,1,588.64,527.49Z" style="fill: #1d1d1b"/>
        <path d="M484.9,586.25a.33.33,0,0,1-.11-.65l5.25-1.91a.33.33,0,1,1,.23.63L485,586.23Z" style="fill: #1d1d1b"/>
        <path d="M598.69,544.83a.33.33,0,0,1-.11-.65l5.25-1.91a.33.33,0,1,1,.23.63l-5.25,1.91Z" style="fill: #1d1d1b"/>
        <path d="M482.06,575.58a.33.33,0,0,1-.06-.66l5.5-1a.33.33,0,0,1,.39.27.33.33,0,0,1-.27.39l-5.5,1Z" style="fill: #1d1d1b"/>
        <polygon points="544.09 564.26 544.09 564.25 544.76 564.25 544.09 564.26" style="fill: #1d1d1b"/>
        <path d="M601.26,554.57a.33.33,0,0,1-.06-.66l5.51-1a.32.32,0,0,1,.39.27.33.33,0,0,1-.27.39l-5.51,1Z" style="fill: #1d1d1b"/>
        <path d="M487.56,554.57h-.06l-5.5-1a.33.33,0,0,1-.27-.39.33.33,0,0,1,.39-.27l5.5,1a.33.33,0,0,1-.06.66Z" style="fill: #1d1d1b"/>
        <polygon points="544.08 564.26 544.08 564.25 544.75 564.25 544.08 564.26" style="fill: #1d1d1b"/>
        <path d="M606.78,575.58h-.06l-5.51-1a.33.33,0,0,1-.27-.39.33.33,0,0,1,.39-.27l5.51,1a.33.33,0,0,1-.06.66Z" style="fill: #1d1d1b"/>
        <path d="M490.15,544.83l-.11,0-5.37-1.95a.34.34,0,0,1-.2-.43.34.34,0,0,1,.43-.2l5.37,1.95a.33.33,0,0,1-.11.65Z" style="fill: #1d1d1b"/>
        <path d="M604.05,586.29l-.11,0-5.37-1.95a.34.34,0,0,1-.2-.43.34.34,0,0,1,.43-.2l5.37,1.95a.33.33,0,0,1-.11.65Z" style="fill: #1d1d1b"/>
        <path d="M500.19,527.49a.34.34,0,0,1-.22-.08l-4.28-3.6a.33.33,0,0,1,.43-.51l4.28,3.6a.33.33,0,0,1-.22.59Z" style="fill: #1d1d1b"/>
        <polygon points="544.08 564.26 544.08 564.25 544.75 564.25 544.08 564.26" style="fill: #1d1d1b"/>
        <path d="M592.92,605.3a.34.34,0,0,1-.22-.08l-4.3-3.6a.33.33,0,0,1,.43-.51l4.3,3.6a.33.33,0,0,1,0,.47A.33.33,0,0,1,592.92,605.3Z" style="fill: #1d1d1b"/>
        <path d="M507.3,520.37a.33.33,0,0,1-.26-.12L503.46,516a.33.33,0,1,1,.51-.43l3.59,4.28a.33.33,0,0,1-.26.55Z" style="fill: #1d1d1b"/>
        <polygon points="544.08 564.26 544.08 564.25 544.75 564.25 544.08 564.26" style="fill: #1d1d1b"/>
        <path d="M585.11,613.09a.33.33,0,0,1-.26-.12l-3.6-4.28a.33.33,0,0,1,.51-.43l3.6,4.28a.33.33,0,0,1-.26.55Z" style="fill: #1d1d1b"/>
        <path d="M524.67,510.31a.33.33,0,0,1-.31-.22l-1.91-5.23a.33.33,0,0,1,.63-.23l1.91,5.23a.34.34,0,0,1-.2.43Z" style="fill: #1d1d1b"/>
        <polygon points="544.08 564.26 544.08 564.25 544.75 564.25 544.08 564.26" style="fill: #1d1d1b"/>
        <path d="M566.08,624.11a.33.33,0,0,1-.31-.22l-1.91-5.25a.33.33,0,0,1,.63-.23l1.91,5.25a.34.34,0,0,1-.2.43Z" style="fill: #1d1d1b"/>
        <path d="M534.39,507.73a.33.33,0,0,1-.33-.28l-1-5.51a.33.33,0,0,1,.27-.39.32.32,0,0,1,.39.27l1,5.51a.33.33,0,0,1-.27.39Z" style="fill: #1d1d1b"/>
        <polygon points="544.08 564.26 544.08 564.25 544.75 564.25 544.08 564.26" style="fill: #1d1d1b"/>
        <path d="M555.41,627a.33.33,0,0,1-.33-.28l-1-5.51a.33.33,0,0,1,.27-.39.33.33,0,0,1,.39.27l1,5.51a.33.33,0,0,1-.27.39Z" style="fill: #1d1d1b"/>
        <path d="M544.38,564.26h0Z" style="fill: none"/>
        <polygon points="544.45 564.26 544.38 564.26 544.4 564.25 544.42 564.25 544.45 564.26" style="fill: none"/>
        <path d="M544.41,628.25a.67.67,0,0,1-.67-.67V619.1a.67.67,0,1,1,1.33,0v8.48A.67.67,0,0,1,544.41,628.25Z" style="fill: #1d1d1b"/>
        <path d="M544.41,510.08a.67.67,0,0,1-.67-.67v-8.48a.67.67,0,0,1,1.33,0v8.48A.67.67,0,0,1,544.41,510.08Z" style="fill: #1d1d1b"/>
        <path d="M489.57,564.92H481.1a.67.67,0,1,1,0-1.33h8.48a.67.67,0,1,1,0,1.33Z" style="fill: #1d1d1b"/>
        <path d="M607.74,564.92h-8.48a.67.67,0,1,1,0-1.33h8.48a.67.67,0,1,1,0,1.33Z" style="fill: #1d1d1b"/>
        <path d="M489.57,596.58a.67.67,0,0,1-.33-1.25l7.34-4.23a.67.67,0,0,1,.67,1.16l-7.34,4.23A.67.67,0,0,1,489.57,596.58Z" style="fill: #1d1d1b"/>
        <path d="M591.92,537.5a.67.67,0,0,1-.33-1.24l7.34-4.24a.67.67,0,1,1,.67,1.15l-7.34,4.24A.66.66,0,0,1,591.92,537.5Z" style="fill: #1d1d1b"/>
        <path d="M571.84,517.42a.67.67,0,0,1-.58-1l4.23-7.34a.67.67,0,1,1,1.16.67l-4.23,7.34A.67.67,0,0,1,571.84,517.42Z" style="fill: #1d1d1b"/>
        <path d="M512.75,619.77a.66.66,0,0,1-.33-.09.67.67,0,0,1-.24-.91l4.24-7.34a.67.67,0,0,1,1.15.67l-4.24,7.34A.67.67,0,0,1,512.75,619.77Z" style="fill: #1d1d1b"/>
        <path d="M576.07,619.77a.67.67,0,0,1-.58-.33l-4.24-7.34a.67.67,0,0,1,1.15-.67l4.24,7.34a.67.67,0,0,1-.24.91A.66.66,0,0,1,576.07,619.77Z" style="fill: #1d1d1b"/>
        <path d="M517,517.42a.67.67,0,0,1-.58-.33l-4.23-7.34a.67.67,0,0,1,1.16-.67l4.23,7.34a.67.67,0,0,1-.58,1Z" style="fill: #1d1d1b"/>
        <path d="M599.26,596.58a.66.66,0,0,1-.33-.09l-7.34-4.25a.67.67,0,1,1,.67-1.15l7.34,4.25a.67.67,0,0,1-.33,1.24Z" style="fill: #1d1d1b"/>
        <path d="M496.92,537.49a.67.67,0,0,1-.33-.09l-7.34-4.23a.67.67,0,1,1,.67-1.16l7.34,4.23a.67.67,0,0,1-.33,1.25Z" style="fill: #1d1d1b"/>
        <polygon points="544.41 496.46 538.63 510.75 550.19 510.75 544.41 496.46" style="fill: #e30613"/>
        <path d="M550.64,523h-5.22a.5.5,0,0,1,0-1h5.22a.5.5,0,0,1,0,1Z" style="fill: #1d1d1b"/>
        <path d="M550.64,533.44h-5.22a.5.5,0,0,1,0-1h5.22a.5.5,0,0,1,0,1Z" style="fill: #1d1d1b"/>
        <path d="M550.64,543.88h-5.22a.5.5,0,0,1,0-1h5.22a.5.5,0,0,1,0,1Z" style="fill: #1d1d1b"/>
        <path d="M548,528.22h-2.61a.5.5,0,0,1,0-1H548a.5.5,0,0,1,0,1Z" style="fill: #1d1d1b"/>
        <path d="M548,538.66h-2.61a.5.5,0,0,1,0-1H548a.5.5,0,0,1,0,1Z" style="fill: #1d1d1b"/>
        <path d="M548,549.1h-2.61a.5.5,0,0,1,0-1H548a.5.5,0,0,1,0,1Z" style="fill: #1d1d1b"/>
        <path d="M550.64,554.32h-5.22a.5.5,0,1,1,0-1h5.22a.5.5,0,0,1,0,1Z" style="fill: #1d1d1b"/>
        <path d="M558.21,565.26H532.64a1,1,0,1,1,0-2h25.57a1,1,0,0,1,0,2Z" style="fill: #1d1d1b"/>
        <path d="M545.43,575.2h-5.22a.5.5,0,0,1,0-1h5.22a.5.5,0,0,1,0,1Z" style="fill: #1d1d1b"/>
        <path d="M545.43,585.64h-5.22a.5.5,0,0,1,0-1h5.22a.5.5,0,1,1,0,1Z" style="fill: #1d1d1b"/>
        <path d="M545.43,596.07h-5.22a.5.5,0,0,1,0-1h5.22a.5.5,0,0,1,0,1Z" style="fill: #1d1d1b"/>
        <path d="M545.43,606.51h-5.22a.5.5,0,0,1,0-1h5.22a.5.5,0,0,1,0,1Z" style="fill: #1d1d1b"/>
        <path d="M548,559.54h-2.61a.5.5,0,1,1,0-1H548a.5.5,0,1,1,0,1Z" style="fill: #1d1d1b"/>
        <path d="M545.43,570h-2.61a.5.5,0,1,1,0-1h2.61a.5.5,0,1,1,0,1Z" style="fill: #1d1d1b"/>
        <path d="M545.43,580.42h-2.61a.5.5,0,0,1,0-1h2.61a.5.5,0,0,1,0,1Z" style="fill: #1d1d1b"/>
        <path d="M545.43,590.85h-2.61a.5.5,0,1,1,0-1h2.61a.5.5,0,1,1,0,1Z" style="fill: #1d1d1b"/>
        <path d="M545.43,601.29h-2.61a.5.5,0,1,1,0-1h2.61a.5.5,0,1,1,0,1Z" style="fill: #1d1d1b"/>
        <path d="M545.43,606.51a.5.5,0,0,1-.5-.5V522.5a.5.5,0,1,1,1,0V606A.5.5,0,0,1,545.43,606.51Z" style="fill: #1d1d1b"/>
        <path d="M545.43,555.76l-6-5.83H522.21a1.33,1.33,0,0,1,0-2.67h18.32l4.9,4.77,4.9-4.77h18.32a1.33,1.33,0,0,1,0,2.67H551.41Z" style="fill: #3d85c6"/>
      </g>
    </g>
    <path d="M69.54,575A12.24,12.24,0,1,1,57.3,587.22,12.24,12.24,0,0,1,69.54,575" style="fill: #3d85c6"/>
    <path d="M69.54,607.48A12.24,12.24,0,1,1,57.3,619.72a12.24,12.24,0,0,1,12.24-12.24" style="fill: #7e5"/>
    <g>
      <path d="M100,583.11a2.9,2.9,0,0,1,0,4.22,3.82,3.82,0,0,1-2.52.76H95.26v2.65h-.89v-8.4h3.14A3.8,3.8,0,0,1,100,583.11Zm-.64,3.65a1.89,1.89,0,0,0,.66-1.54,1.92,1.92,0,0,0-.66-1.57,2.92,2.92,0,0,0-1.91-.55H95.26v4.2h2.23A2.93,2.93,0,0,0,99.4,586.76Z" style="fill: #1d1d1b"/>
      <path d="M108.14,587.85h-5.28a2.26,2.26,0,0,0,.76,1.59,2.51,2.51,0,0,0,1.73.61,2.71,2.71,0,0,0,1.08-.21,2.35,2.35,0,0,0,.85-.62l.48.55a2.7,2.7,0,0,1-1,.77,3.55,3.55,0,0,1-1.39.26,3.51,3.51,0,0,1-1.72-.41,3,3,0,0,1-1.17-1.15,3.27,3.27,0,0,1-.42-1.66,3.38,3.38,0,0,1,.4-1.66,2.91,2.91,0,0,1,1.1-1.14,3.09,3.09,0,0,1,1.58-.41,3.06,3.06,0,0,1,1.57.41,2.9,2.9,0,0,1,1.09,1.13,3.41,3.41,0,0,1,.4,1.66Zm-4.58-2.15a2.28,2.28,0,0,0-.7,1.52h4.48a2.29,2.29,0,0,0-.7-1.52,2.32,2.32,0,0,0-3.07,0Z" style="fill: #1d1d1b"/>
      <path d="M111.61,584.71a3,3,0,0,1,1.47-.32v.83h-.2a2,2,0,0,0-1.56.61,2.44,2.44,0,0,0-.56,1.72v3.22h-.85v-6.31h.82v1.24A2.07,2.07,0,0,1,111.61,584.71Z" style="fill: #1d1d1b"/>
      <path d="M114.88,590.58a3.16,3.16,0,0,1-1.1-.56l.38-.67a3.23,3.23,0,0,0,1,.51,4,4,0,0,0,1.25.2,2.38,2.38,0,0,0,1.28-.27.86.86,0,0,0,.41-.76.68.68,0,0,0-.23-.55,1.51,1.51,0,0,0-.58-.3,8,8,0,0,0-.92-.2,10.83,10.83,0,0,1-1.24-.29,1.82,1.82,0,0,1-.8-.51,1.41,1.41,0,0,1-.33-1,1.56,1.56,0,0,1,.66-1.3,3,3,0,0,1,1.84-.5,4.79,4.79,0,0,1,1.22.16,3.39,3.39,0,0,1,1,.43l-.37.68a3.18,3.18,0,0,0-1.86-.54,2.15,2.15,0,0,0-1.23.29.88.88,0,0,0-.41.76.75.75,0,0,0,.23.58,1.44,1.44,0,0,0,.58.32,9.09,9.09,0,0,0,1,.21,11.29,11.29,0,0,1,1.21.29,1.79,1.79,0,0,1,.78.49,1.35,1.35,0,0,1,.32,1,1.53,1.53,0,0,1-.69,1.31,3.28,3.28,0,0,1-1.91.49A4.83,4.83,0,0,1,114.88,590.58Z" style="fill: #1d1d1b"/>
      <path d="M121.46,590.39a3,3,0,0,1-1.15-1.15,3.47,3.47,0,0,1,0-3.31,3,3,0,0,1,1.15-1.14,3.51,3.51,0,0,1,3.29,0,2.94,2.94,0,0,1,1.15,1.14,3.52,3.52,0,0,1,0,3.31,3,3,0,0,1-1.15,1.15,3.48,3.48,0,0,1-3.29,0Zm2.85-.65a2.14,2.14,0,0,0,.83-.87,2.9,2.9,0,0,0,0-2.57,2.13,2.13,0,0,0-.83-.87,2.53,2.53,0,0,0-2.41,0,2.16,2.16,0,0,0-.84.87,2.85,2.85,0,0,0,0,2.57,2.17,2.17,0,0,0,.84.87,2.53,2.53,0,0,0,2.41,0Z" style="fill: #1d1d1b"/>
      <path d="M133.16,585.07a2.69,2.69,0,0,1,.7,2v3.66H133v-3.58a2.09,2.09,0,0,0-.49-1.5,1.85,1.85,0,0,0-1.4-.52,2.16,2.16,0,0,0-1.61.61,2.29,2.29,0,0,0-.59,1.67v3.31h-.85v-6.31h.82v1.16a2.37,2.37,0,0,1,1-.89,3.09,3.09,0,0,1,1.43-.32A2.58,2.58,0,0,1,133.16,585.07Z" style="fill: #1d1d1b"/>
    </g>
    <g>
      <path d="M98.8,621H94.12l-1,2.24h-.92l3.84-8.4h.88l3.84,8.4h-.94Zm-.32-.72-2-4.51-2,4.51Z" style="fill: #1d1d1b"/>
      <path d="M107.06,617.57a2.69,2.69,0,0,1,.7,2v3.66h-.85v-3.58a2.09,2.09,0,0,0-.49-1.5,1.85,1.85,0,0,0-1.4-.52,2.16,2.16,0,0,0-1.61.61,2.29,2.29,0,0,0-.59,1.67v3.31H102v-6.31h.82v1.16a2.37,2.37,0,0,1,1-.89,3.09,3.09,0,0,1,1.43-.32A2.58,2.58,0,0,1,107.06,617.57Z" style="fill: #1d1d1b"/>
      <path d="M110.07,615.37a.59.59,0,0,1-.18-.43.58.58,0,0,1,.18-.42.6.6,0,0,1,.44-.18.62.62,0,0,1,.44.17.56.56,0,0,1,.18.41.63.63,0,0,1-1.07.44Zm0,1.56h.85v6.31h-.85Z" style="fill: #1d1d1b"/>
      <path d="M123,617.56a2.75,2.75,0,0,1,.68,2v3.66h-.85v-3.58a2.14,2.14,0,0,0-.47-1.5,1.73,1.73,0,0,0-1.34-.52,2,2,0,0,0-1.55.61,2.36,2.36,0,0,0-.56,1.67v3.31h-.85v-3.58a2.14,2.14,0,0,0-.47-1.5,1.74,1.74,0,0,0-1.35-.52,2,2,0,0,0-1.54.61,2.35,2.35,0,0,0-.57,1.67v3.31h-.85v-6.31h.82v1.15a2.28,2.28,0,0,1,.94-.89,3,3,0,0,1,1.38-.31,2.7,2.7,0,0,1,1.37.34,2.07,2.07,0,0,1,.87,1,2.46,2.46,0,0,1,1-1,3.09,3.09,0,0,1,1.49-.35A2.51,2.51,0,0,1,123,617.56Z" style="fill: #1d1d1b"/>
      <path d="M130.15,617.5a2.39,2.39,0,0,1,.66,1.83v3.91H130v-1a2,2,0,0,1-.85.77,3,3,0,0,1-1.33.28,2.59,2.59,0,0,1-1.68-.5,1.73,1.73,0,0,1,0-2.63,2.85,2.85,0,0,1,1.85-.49h2v-.38a1.62,1.62,0,0,0-.46-1.24,1.89,1.89,0,0,0-1.33-.43,3.39,3.39,0,0,0-1.15.2,2.91,2.91,0,0,0-.95.55l-.38-.64a3.38,3.38,0,0,1,1.15-.63,4.47,4.47,0,0,1,1.42-.22A2.67,2.67,0,0,1,130.15,617.5Zm-1,4.8a2,2,0,0,0,.77-1v-1h-2q-1.62,0-1.62,1.13a1,1,0,0,0,.42.87,1.91,1.91,0,0,0,1.18.32A2.24,2.24,0,0,0,129.19,622.3Z" style="fill: #1d1d1b"/>
      <path d="M133.12,614.34H134v8.9h-.85Z" style="fill: #1d1d1b"/>
    </g>
  </g>
</svg>
