<svg id="Layer_1" data-name="Layer 1" xmlns="http://www.w3.org/2000/svg" width="50" height="50" viewBox="0 0 50 50">
  <title>Пин каска серый</title>
  <path d="M41.17,25.14A16.27,16.27,0,0,1,28.41,41a1.66,1.66,0,0,0-1,.58l-1.64,2.06a1.07,1.07,0,0,1-1.51.15h0l-.15-.15-1.64-2.06a1.66,1.66,0,0,0-1-.58A16.16,16.16,0,1,1,41.16,25.14Z" style="fill: #8c8c8c"/>
  <path d="M30.75,19.93a.78.78,0,0,1-.78.78H20a.78.78,0,0,1,0-1.56h0a5,5,0,0,1,2.64-4l.5,2.2a.4.4,0,0,0,.38.3h.09a.39.39,0,0,0,.3-.46h0l-.53-2.33h0a.78.78,0,0,1,.78-.78h1.61a.78.78,0,0,1,.78.78h0L26,17.24a.39.39,0,0,0,.29.47h.09a.39.39,0,0,0,.38-.3l.49-2.19a4.93,4.93,0,0,1,2.63,3.83h0a.78.78,0,0,1,.78.78h0Z" style="fill: #f8f9fa"/>
  <path d="M30.12,21.82a2.33,2.33,0,0,1-.78,1.91c-.6,2.33-2.71,4.1-4.36,4.1s-3.76-1.78-4.35-4.1a2.33,2.33,0,0,1-.78-1.91,1,1,0,0,1,0-.16H30.11A1,1,0,0,1,30.12,21.82Z" style="fill: #f8f9fa"/>
  <path d="M18.81,28.37v3.82a2,2,0,0,0-1.15,1.86v1.41h-.1a1.79,1.79,0,0,1-1.79-1.79h0v-.78A4.86,4.86,0,0,1,18.81,28.37Z" style="fill: #f8f9fa"/>
  <path d="M20,32.86a1,1,0,1,1-1,1h0a1,1,0,0,1,1-1h0" style="fill: #f8f9fa"/>
  <path d="M28.94,28.05v4H20.88v-4h.72A5.36,5.36,0,0,0,25,29.38a5.4,5.4,0,0,0,3.33-1.33Z" style="fill: #f8f9fa"/>
  <path d="M29.88,32.86a1,1,0,1,1-1,1h0a1,1,0,0,1,1-1" style="fill: #f8f9fa"/>
  <path d="M34.14,32.88v.78a1.79,1.79,0,0,1-1.79,1.79h-.19v-1.4A2,2,0,0,0,31,32.19V28.3A4.85,4.85,0,0,1,34.14,32.88Z" style="fill: #f8f9fa"/>
</svg>
