<svg id="Layer_7" data-name="Layer 7" xmlns="http://www.w3.org/2000/svg" width="50" height="50" viewBox="0 0 50 50" style="text-align: center">
  <title>Пин каска М</title>
  
  
    <circle cx="24.5" cy="24.5" style="text-align: center"  width="3" height="3" fill="none" stroke="#fcfc0058" stroke-width="30">
			
				<animate accumulate="none" additive="replace" attributeName="r" begin="0s" calcMode="linear" dur="1s" fill="remove" from="1" repeatCount="indefinite" restart="always" to="12">
				</animate>
			
				<animate accumulate="none" additive="replace" attributeName="opacity" begin="0s" calcMode="linear" dur="1s" fill="remove" from="2" repeatCount="indefinite" restart="always" to="0">
				</animate>
                </circle>
  
  
  
<path d="M41.17,24.28A16.27,16.27,0,0,1,28.41,40.12a1.66,1.66,0,0,0-.95.58l-1.64,2.06a1.07,1.07,0,0,1-1.51.15l-.15-.15L22.52,40.7a1.66,1.66,0,0,0-.95-.58A16.16,16.16,0,1,1,41.16,24.28Z" style="fill: #30c900"/>
  <path d="M32.39,17.9v.45a.35.35,0,0,1-.33.33H30.83v1.88h1a.35.35,0,0,1,.33.33v2a.35.35,0,0,1-.33.33H29.27a.3.3,0,0,1-.33-.33v-2a.35.35,0,0,1,.33-.33h1V18.68h-5.8V29.86h1.82a.35.35,0,0,1,.33.33v1.49a.35.35,0,0,1-.33.33H20.43a.35.35,0,0,1-.33-.33V30.17a.35.35,0,0,1,.33-.33H22V18.68H18.81a.35.35,0,0,1-.33-.33v-.58c0-.19.13-.26.26-.33L22.06,16v-.52a.35.35,0,0,1,.33-.33h1.69a.35.35,0,0,1,.33.33V16L32,17.51Q32.39,17.61,32.39,17.9Z" style="fill: #f8f9fa"/>
  <path d="M19.92,20.5h-1.1a.35.35,0,0,1-.33-.33V19.4a.35.35,0,0,1,.33-.33h1.1a.35.35,0,0,1,.33.33v.78C20.24,20.44,20.11,20.5,19.92,20.5Z" style="fill: #f8f9fa"/>
</svg>

