<svg id="Layer_2" data-name="Layer 2" xmlns="http://www.w3.org/2000/svg" width="50" height="50" viewBox="0 0 50 50">
  <title>Пин кран серый</title>
  <path d="M41.17,25.16A16.27,16.27,0,0,1,28.41,41a1.66,1.66,0,0,0-.95.58l-1.64,2.06a1.07,1.07,0,0,1-1.51.15l-.15-.15-1.64-2.06a1.66,1.66,0,0,0-.95-.58A16.16,16.16,0,1,1,41.16,25.16Z" style="fill: #8c8c8c"/>
  <path d="M32.39,18.78v.45a.35.35,0,0,1-.33.33H30.83v1.88h1a.35.35,0,0,1,.33.33v2a.35.35,0,0,1-.33.33H29.27a.3.3,0,0,1-.33-.33v-2a.35.35,0,0,1,.33-.33h1V19.56h-5.8V30.73h1.82a.35.35,0,0,1,.33.33v1.49a.35.35,0,0,1-.33.33H20.43a.35.35,0,0,1-.33-.33V31a.35.35,0,0,1,.33-.33H22V19.56H18.81a.35.35,0,0,1-.33-.33v-.58c0-.19.13-.26.26-.33l3.31-1.43v-.52a.35.35,0,0,1,.33-.33h1.69a.35.35,0,0,1,.33.33v.52L32,18.38Q32.39,18.48,32.39,18.78Z" style="fill: #f8f9fa"/>
  <path d="M19.92,21.38h-1.1a.35.35,0,0,1-.33-.33v-.78a.35.35,0,0,1,.33-.33h1.1a.35.35,0,0,1,.33.33v.78C20.24,21.31,20.11,21.38,19.92,21.38Z" style="fill: #f8f9fa"/>
</svg>
