
<svg id="Layer_7" data-name="Layer 7" xmlns="http://www.w3.org/2000/svg" width="50" height="50" viewBox="0 0 50 50" style="text-align: center">
  <title>Пин каска М</title>
  
 
  
  
  
  <path d="M41.17,24.09A16.27,16.27,0,0,1,28.41,39.93a1.66,1.66,0,0,0-.95.58l-1.64,2.06a1.07,1.07,0,0,1-1.51.15l-.15-.15-1.64-2.06a1.66,1.66,0,0,0-.95-.58A16.16,16.16,0,1,1,41.16,24.09Z" style="fill: #ffa000"/>
  <path d="M30.75,18.88a.78.78,0,0,1-.78.78H20a.78.78,0,1,1,0-1.56H20a5,5,0,0,1,2.64-4l.5,2.2a.4.4,0,0,0,.38.3h.09a.39.39,0,0,0,.3-.46h0l-.53-2.33h0a.78.78,0,0,1,.78-.78h1.61a.78.78,0,0,1,.78.78h0L26,16.19a.39.39,0,0,0,.29.47h.09a.39.39,0,0,0,.38-.3l.49-2.19A4.93,4.93,0,0,1,29.88,18h.05a.78.78,0,0,1,.78.78Z" style="fill: #fff"/>
  <path d="M30.12,20.77a2.33,2.33,0,0,1-.78,1.91c-.6,2.33-2.71,4.1-4.36,4.1S21.22,25,20.63,22.68a2.33,2.33,0,0,1-.78-1.91,1,1,0,0,1,0-.16H30.11A1,1,0,0,1,30.12,20.77Z" style="fill: #fff"/>
  <path d="M18.81,27.32v3.82A2,2,0,0,0,17.66,33v1.41h-.1a1.79,1.79,0,0,1-1.79-1.79v-.78A4.86,4.86,0,0,1,18.81,27.32Z" style="fill: #fff"/>
  <path d="M20,31.81a1,1,0,1,1-1,1,1,1,0,0,1,1-1h0" style="fill: #fff"/>
  <path d="M28.94,27v4H20.88V27h.72A5.36,5.36,0,0,0,25,28.33,5.4,5.4,0,0,0,28.33,27Z" style="fill: #fff"/>
  <path d="M29.88,31.81a1,1,0,1,1-1,1h0a1,1,0,0,1,1-1" style="fill: #fff"/>
  <path d="M34.14,31.83v.78a1.79,1.79,0,0,1-1.79,1.79h-.19V33A2,2,0,0,0,31,31.14V27.25A4.85,4.85,0,0,1,34.14,31.83Z" style="fill: #fff"/>
</svg>
