<svg id="svg10" xmlns="http://www.w3.org/2000/svg" xmlns:xlink="http://www.w3.org/1999/xlink" width="110.78" height="48.42" viewBox="0 0 110.78 48.42">
  <defs>
    <filter id="filter11243" name="filter11243">
      <feFlood result="flood" flood-color="rgb(56,56,56)" flood-opacity="0.05"/>
      <feComposite result="composite1" operator="in" in="flood" in2="SourceGraphic"/>
      <feGaussianBlur result="blur" stdDeviation="0.63" in="composite1"/>
      <feOffset result="offset"/>
      <feComposite result="composite2" in="SourceGraphic" in2="offset"/>
    </filter>
    <linearGradient id="linear-gradient" x1="-166.35" y1="254.38" x2="-159.46" y2="254.38" gradientTransform="matrix(9.27, 0, 0, -9.27, 1590.25, 2382.66)" gradientUnits="userSpaceOnUse">
      <stop offset="0" stop-opacity="0.68"/>
      <stop offset="1" stop-color="#ff1010" stop-opacity="0"/>
    </linearGradient>
    <linearGradient id="linear-gradient-6" x1="-166.35" y1="253.93" x2="-159.46" y2="253.93" xlink:href="#linear-gradient"/>
    <linearGradient id="linear-gradient-9" x1="-166.35" y1="254.49" x2="-159.46" y2="254.49" gradientTransform="matrix(9.27, 0, 0, -9.27, 1590.3, 2382.63)" xlink:href="#linear-gradient"/>
    <linearGradient id="linear-gradient-14" x1="-166.35" y1="254.04" x2="-159.46" y2="254.04" gradientTransform="matrix(9.27, 0, 0, -9.27, 1590.3, 2382.63)" xlink:href="#linear-gradient"/>
  </defs>
  <title>pinnewwhite</title>
  <path id="path2" d="M35.5,22.79A16.43,16.43,0,0,1,22.15,40.05a2.33,2.33,0,0,0-.8.44l-1.87,2.22a.7.7,0,0,1-1,0L16.63,40.5a1.2,1.2,0,0,0-.8-.44A16.5,16.5,0,1,1,35.5,22.79Z" style="fill: #fff;stroke: #6b6b69;stroke-width: 3.025520086288452px"/>
  <g id="g4808">
    <g style="filter: url(#filter11243)">
      <path id="path35439" d="M55.43,20.05v1.06H47.9v3.11H54V25.3H47.9v3.11h7.53v1.06H46.84V20.05Z" style="fill: #6b6b69;stroke-linecap: round;stroke-linejoin: round;stroke-width: 0.021577149629592896px;stroke: url(#linear-gradient)"/>
      <path id="path35441" d="M61.8,24.71l3.91-4.66h1.45v9.42H66.11V21.25l-4.3,5.11-4.3-5.11v8.21H56.44V20.05h1.45Z" style="fill: #6b6b69;stroke-linecap: round;stroke-linejoin: round;stroke-width: 0.021577149629592896px;stroke: url(#linear-gradient)"/>
      <path id="path35443" d="M68.59,29.47V20.05h1.06v9.42Z" style="fill: #6b6b69;stroke-linecap: round;stroke-linejoin: round;stroke-width: 0.021577149629592896px;stroke: url(#linear-gradient)"/>
      <path id="path35445" d="M71.48,29.47V20.05h1.06v9.42Z" style="fill: #6b6b69;stroke-linecap: round;stroke-linejoin: round;stroke-width: 0.021577149629592896px;stroke: url(#linear-gradient)"/>
      <path id="path35447" d="M75.95,20.05h6.28a1.56,1.56,0,0,1,1.57,1.57v7.85H82.73V26h-7.3v3.44H74.38V21.62a1.56,1.56,0,0,1,1.57-1.57ZM75.44,25h7.3V21.62a.54.54,0,0,0-.51-.51H75.95a.5.5,0,0,0-.37.16.48.48,0,0,0-.14.35Z" style="fill: #6b6b69;stroke-linecap: round;stroke-linejoin: round;stroke-width: 0.021577149629592896px;stroke: url(#linear-gradient)"/>
      <path id="path35449" d="M86.33,28.4v1.07H85.26V28.4Z" style="fill: #6b6b69;stroke-linecap: round;stroke-linejoin: round;stroke-width: 0.021577149629592896px;stroke: url(#linear-gradient-6)"/>
      <path id="path35451" d="M89.69,20.05H96a1.56,1.56,0,0,1,1.57,1.57v7.85H96.48V26h-7.3v3.44H88.12V21.62a1.56,1.56,0,0,1,1.57-1.57ZM89.18,25h7.3V21.62a.54.54,0,0,0-.51-.51H89.69a.5.5,0,0,0-.37.16.48.48,0,0,0-.14.35Z" style="fill: #6b6b69;stroke-linecap: round;stroke-linejoin: round;stroke-width: 0.021577149629592896px;stroke: url(#linear-gradient)"/>
      <path id="path35453" d="M99,29.47V20.05h1.06v9.42Z" style="fill: #6b6b69;stroke-linecap: round;stroke-linejoin: round;stroke-width: 0.021577149629592896px;stroke: url(#linear-gradient)"/>
    </g>
    <g id="text35409">
      <path id="path35456" d="M55.43,19.05v1.06H47.9v3.11H54V24.3H47.9v3.11h7.53v1.06H46.84V19.05Z" style="fill: #6b6b69;stroke-linecap: round;stroke-linejoin: round;stroke-width: 0.021577149629592896px;stroke: url(#linear-gradient-9)"/>
      <path id="path35458" d="M61.8,23.71l3.91-4.66h1.45v9.42H66.11V20.25l-4.3,5.11-4.3-5.11v8.21H56.44V19.05h1.45Z" style="fill: #6b6b69;stroke-linecap: round;stroke-linejoin: round;stroke-width: 0.021577149629592896px;stroke: url(#linear-gradient-9)"/>
      <path id="path35460" d="M68.59,28.47V19.05h1.06v9.42Z" style="fill: #6b6b69;stroke-linecap: round;stroke-linejoin: round;stroke-width: 0.021577149629592896px;stroke: url(#linear-gradient-9)"/>
      <path id="path35462" d="M71.48,28.47V19.05h1.06v9.42Z" style="fill: #6b6b69;stroke-linecap: round;stroke-linejoin: round;stroke-width: 0.021577149629592896px;stroke: url(#linear-gradient-9)"/>
      <path id="path35464" d="M75.95,19.05h6.28a1.56,1.56,0,0,1,1.57,1.57v7.85H82.73V25h-7.3v3.44H74.38V20.62a1.56,1.56,0,0,1,1.57-1.57ZM75.44,24h7.3V20.62a.54.54,0,0,0-.51-.51H75.95a.5.5,0,0,0-.37.16.48.48,0,0,0-.14.35Z" style="fill: #6b6b69;stroke-linecap: round;stroke-linejoin: round;stroke-width: 0.021577149629592896px;stroke: url(#linear-gradient-9)"/>
      <path id="path35466" d="M86.33,27.4v1.07H85.26V27.4Z" style="fill: #6b6b69;stroke-linecap: round;stroke-linejoin: round;stroke-width: 0.021577149629592896px;stroke: url(#linear-gradient-14)"/>
      <path id="path35468" d="M89.69,19.05H96a1.56,1.56,0,0,1,1.57,1.57v7.85H96.48V25h-7.3v3.44H88.12V20.62a1.56,1.56,0,0,1,1.57-1.57ZM89.18,24h7.3V20.62a.54.54,0,0,0-.51-.51H89.69a.5.5,0,0,0-.37.16.48.48,0,0,0-.14.35Z" style="fill: #6b6b69;stroke-linecap: round;stroke-linejoin: round;stroke-width: 0.021577149629592896px;stroke: url(#linear-gradient-9)"/>
      <path id="path35470" d="M99,28.47V19.05h1.06v9.42Z" style="fill: #6b6b69;stroke-linecap: round;stroke-linejoin: round;stroke-width: 0.021577149629592896px;stroke: url(#linear-gradient-9)"/>
    </g>
  </g>
  <path d="M13.91,29.25V18.19h10.2v2.23h-8V22.6h6.4v2.24h-6.4V27h8v2.23Z" style="fill: #6b6b69"/>
</svg>
