<svg id="svg10" xmlns="http://www.w3.org/2000/svg" width="110.78" height="48.42" viewBox="0 0 110.78 48.42">
  <title>pinnewwhite</title>
  <path id="path2" d="M35.5,22.79A16.43,16.43,0,0,1,22.15,40.05a2.33,2.33,0,0,0-.8.44l-1.87,2.22a.7.7,0,0,1-1,0L16.63,40.5a1.2,1.2,0,0,0-.8-.44A16.5,16.5,0,1,1,35.5,22.79Z" style="fill: #fff;stroke: #6b6b69;stroke-width: 3.025520086288452px"/>
  <path d="M13.91,29.25V18.19h10.2v2.23h-8V22.6h6.4v2.24h-6.4V27h8v2.23Z" style="fill: #6b6b69"/>
  <g>
    <path d="M47.06,28.44V19.05h8.56v1.06H48.12v3.1h6v1.07h-6v3.1h7.51v1.06Z" style="fill: #6b6b69"/>
    <path d="M56.64,28.44V19.05h1.45L62,23.69l3.9-4.64h1.45v9.39H66.28V20.25L62,25.35l-4.29-5.1v8.19Z" style="fill: #6b6b69"/>
    <path d="M68.87,28.44V19.05h1.07v9.39Z" style="fill: #6b6b69"/>
    <path d="M71.66,28.44V19.05h1.07v9.39Z" style="fill: #6b6b69"/>
    <path d="M74.34,20.62a1.55,1.55,0,0,1,1.56-1.56h6.26a1.55,1.55,0,0,1,1.56,1.56v7.82H82.67V25H75.4v3.43H74.34ZM82.67,24V20.62a.51.51,0,0,0-.51-.51H75.91a.51.51,0,0,0-.51.51V24Z" style="fill: #6b6b69"/>
    <path d="M85.19,28.44V27.37h1.07v1.07Z" style="fill: #6b6b69"/>
    <path d="M88,20.62a1.55,1.55,0,0,1,1.56-1.56h6.26a1.55,1.55,0,0,1,1.56,1.56v7.82H96.36V25H89.08v3.43H88ZM96.36,24V20.62a.51.51,0,0,0-.51-.51H89.59a.51.51,0,0,0-.51.51V24Z" style="fill: #6b6b69"/>
    <path d="M99,28.44V19.05h1.07v9.39Z" style="fill: #6b6b69"/>
  </g>
</svg>
