<?xml version="1.0" encoding="UTF-8" standalone="no"?>
<svg
   xmlns:dc="http://purl.org/dc/elements/1.1/"
   xmlns:cc="http://creativecommons.org/ns#"
   xmlns:rdf="http://www.w3.org/1999/02/22-rdf-syntax-ns#"
   xmlns:svg="http://www.w3.org/2000/svg"
   xmlns="http://www.w3.org/2000/svg"
   xmlns:sodipodi="http://sodipodi.sourceforge.net/DTD/sodipodi-0.dtd"
   xmlns:inkscape="http://www.inkscape.org/namespaces/inkscape"
   width="110.77911"
   height="48.417751"
   version="1.1"
   id="svg10"
   sodipodi:docname="emiia143-1.svg"
   inkscape:version="1.0 (4035a4fb49, 2020-05-01)">
  <metadata
     id="metadata16">
    <rdf:RDF>
      <cc:Work
         rdf:about="">
        <dc:format>image/svg+xml</dc:format>
        <dc:type
           rdf:resource="http://purl.org/dc/dcmitype/StillImage" />
        <dc:title></dc:title>
      </cc:Work>
    </rdf:RDF>
  </metadata>
  <defs
     id="defs14">
    <filter
       style="color-interpolation-filters:sRGB"
       inkscape:label="Drop Shadow"
       id="filter11243">
      <feFlood
         flood-opacity="0.054902"
         flood-color="rgb(56,56,56)"
         result="flood"
         id="feFlood11233" />
      <feComposite
         in="flood"
         in2="SourceGraphic"
         operator="in"
         result="composite1"
         id="feComposite11235" />
      <feGaussianBlur
         in="composite1"
         stdDeviation="0.625"
         result="blur"
         id="feGaussianBlur11237" />
      <feOffset
         dx="0"
         dy="-1.38778e-16"
         result="offset"
         id="feOffset11239" />
      <feComposite
         in="SourceGraphic"
         in2="offset"
         operator="over"
         result="composite2"
         id="feComposite11241" />
    </filter>
  </defs>
  <sodipodi:namedview
     inkscape:document-rotation="0"
     pagecolor="#ffffff"
     bordercolor="#666666"
     borderopacity="1"
     objecttolerance="10"
     gridtolerance="10"
     guidetolerance="10"
     inkscape:pageopacity="0"
     inkscape:pageshadow="2"
     inkscape:window-width="1920"
     inkscape:window-height="1046"
     id="namedview12"
     showgrid="false"
     inkscape:zoom="2.4636498"
     inkscape:cx="51.415684"
     inkscape:cy="-49.494117"
     inkscape:window-x="-11"
     inkscape:window-y="-11"
     inkscape:window-maximized="1"
     inkscape:current-layer="svg10" />
  <path
     class="st0"
     d="m 35.497546,17.78744 c 0.533915,8.542631 -5.339144,15.750476 -13.34786,17.263233 -0.266957,0.08899 -0.6229,0.266957 -0.800872,0.444929 l -1.8687,2.224643 c -0.266957,0.266958 -0.711886,0.266958 -0.978843,0 L 16.63257,35.495602 C 16.454599,35.228645 16.187642,35.139659 15.831699,35.050673 8.1789256,33.626901 2.4838385,26.863986 2.4838385,18.855269 2.4838385,9.3337955 10.492555,1.6810213 20.103014,2.3929072 28.289702,2.9268217 34.963632,9.5117665 35.497546,17.78744 Z"
     fill="#3d85c6"
     id="path2"
     style="fill:#ffffff;fill-opacity:1;stroke:#6b6b69;stroke-width:3.02552;stroke-miterlimit:4;stroke-dasharray:none;stroke-opacity:1">
    <animateTransform
       attributeName="transform"
       type="translate"
       values="0,0;0,6;0,0"
       dur="8s"
       repeatCount="indefinite" />
  </path>
  <path
     d="m 18.9462,14.850911 c 0.6229,0 1.156814,0.533915 1.156814,1.156815 v 5.517115 0 c 0,0.622901 -0.533914,1.156815 -1.156814,1.156815 v 0 c -0.622901,0 -1.156815,-0.533914 -1.156815,-1.156815 v -5.517115 0 c 0,-0.711886 0.533914,-1.156815 1.156815,-1.156815 v 0"
     fill="#ffffff"
     id="path4"
     style="fill:#6b6b69;fill-opacity:1;stroke:#6b6b69;stroke-width:0.444929;stroke-miterlimit:4;stroke-dasharray:none;stroke-opacity:1">
    <animate
       accumulate="none"
       additive="replace"
       attributeName="fill-opacity"
       begin="three.end+0.08s"
       calcMode="linear"
       dur="0.1ms"
       fill="remove"
       id="four"
       restart="always"
       values="0.5;1;0.5" />
    <animate
       accumulate="none"
       additive="replace"
       attributeName="fill-opacity"
       begin="two.end+0.05s"
       calcMode="linear"
       dur="500ms"
       fill="remove"
       id="three"
       restart="always"
       values="0.5;1;0.5" />
    <animateTransform
       attributeName="transform"
       type="translate"
       values="0,0;0,6;0,0"
       dur="8s"
       repeatCount="indefinite" />
  </path>
  <path
     d="m 13.962998,17.342512 c 0.622901,0 1.156815,0.533914 1.156815,1.156814 v 3.114501 0 c 0,0.6229 -0.533914,1.156815 -1.156815,1.156815 v 0 c -0.6229,0 -1.156814,-0.533915 -1.156814,-1.156815 v -3.203486 0 c 0,-0.622901 0.533914,-1.067829 1.156814,-1.067829 v 0"
     fill="#ffffff"
     id="path6"
     style="fill:#6b6b69;fill-opacity:1;stroke:#383838;stroke-width:0.444929;stroke-miterlimit:4;stroke-dasharray:none;stroke-opacity:1">
    <animate
       accumulate="none"
       additive="replace"
       attributeName="fill-opacity"
       begin="one.end+0.05s"
       calcMode="linear"
       dur="500ms"
       fill="remove"
       id="two"
       restart="always"
       values="0.5;1;0.5" />
    <animateTransform
       attributeName="transform"
       type="translate"
       values="0,0;0,6;0,0"
       dur="8s"
       repeatCount="indefinite" />
  </path>
  <path
     d="m 24.018387,12.893225 c 0.6229,0 1.156814,0.533914 1.156814,1.156815 v 7.652773 0 c 0,0.6229 -0.533914,1.156814 -1.156814,1.156814 v 0 c -0.622901,0 -1.156815,-0.533914 -1.156815,-1.156814 v -7.652773 0 c 0,-0.622901 0.533914,-1.156815 1.156815,-1.156815 v 0"
     fill="#ffffff"
     id="path8"
     style="fill:#6b6b69;fill-opacity:1;stroke:#6b6b69;stroke-width:0.444929;stroke-miterlimit:4;stroke-dasharray:none;stroke-opacity:1">
    <animate
       accumulate="none"
       additive="replace"
       attributeName="fill-opacity"
       begin="0s;four.end+0.05s"
       calcMode="linear"
       dur="500ms"
       fill="remove"
       id="one"
       restart="always"
       values="0.5;1;0.5" />
    <animateTransform
       attributeName="transform"
       type="translate"
       values="0,0;0,6;0,0"
       dur="8s"
       repeatCount="indefinite" />
  </path>
  <g
     id="g4808"
     transform="matrix(9.2690667,0,0,9.2690667,-417.65128,-1343.5995)"
     style="fill:#383838;fill-opacity:1;stroke:none;stroke-width:0.999993;stroke-miterlimit:4;stroke-dasharray:none;stroke-opacity:1">
    <g
       aria-label="EMIIA.AI"
       id="text35409-0"
       style="font-size:25.4px;line-height:1.25;font-family:Orbitron;-inkscape-font-specification:Orbitron;fill:#6b6b69;fill-opacity:1;stroke:none;stroke-width:0.999993;stroke-miterlimit:4;stroke-dasharray:none;stroke-opacity:1;filter:url(#filter11243)"
       transform="translate(0.73202062,-0.04902182)">
      <path
         d="m 50.306711,147.16747 v 0.1143 h -0.812799 v 0.33585 h 0.653344 v 0.11571 h -0.653344 v 0.33584 h 0.812799 v 0.1143 h -0.927099 v -1.016 z"
         style="font-size:1.41111px;fill:#6b6b69;fill-opacity:1;stroke:none;stroke-width:0.999993;stroke-miterlimit:4;stroke-dasharray:none;stroke-opacity:1"
         id="path35439" />
      <path
         d="m 50.994385,147.66983 0.421922,-0.50236 h 0.156633 v 1.016 h -0.1143 v -0.88618 l -0.464255,0.55175 -0.464255,-0.55175 v 0.88618 h -0.1143 v -1.016 h 0.156633 z"
         style="font-size:1.41111px;fill:#6b6b69;fill-opacity:1;stroke:none;stroke-width:0.999993;stroke-miterlimit:4;stroke-dasharray:none;stroke-opacity:1"
         id="path35441" />
      <path
         d="m 51.726376,148.18347 v -1.016 h 0.1143 v 1.016 z"
         style="font-size:1.41111px;fill:#6b6b69;fill-opacity:1;stroke:none;stroke-width:0.999993;stroke-miterlimit:4;stroke-dasharray:none;stroke-opacity:1"
         id="path35443" />
      <path
         d="m 52.037813,148.18347 v -1.016 h 0.1143 v 1.016 z"
         style="font-size:1.41111px;fill:#6b6b69;fill-opacity:1;stroke:none;stroke-width:0.999993;stroke-miterlimit:4;stroke-dasharray:none;stroke-opacity:1"
         id="path35445" />
      <path
         d="m 52.519993,147.16747 h 0.677333 q 0.07056,0 0.119945,0.0494 0.04939,0.0494 0.04939,0.11995 v 0.84666 h -0.1143 v -0.37112 H 52.46496 v 0.37112 h -0.1143 v -0.84666 q 0,-0.0706 0.04939,-0.11995 0.04939,-0.0494 0.119943,-0.0494 z m -0.05503,0.53058 h 0.787399 v -0.36124 q 0,-0.0226 -0.01693,-0.0381 -0.01552,-0.0169 -0.0381,-0.0169 h -0.677333 q -0.02258,0 -0.03951,0.0169 -0.01552,0.0155 -0.01552,0.0381 z"
         style="font-size:1.41111px;fill:#6b6b69;fill-opacity:1;stroke:none;stroke-width:0.999993;stroke-miterlimit:4;stroke-dasharray:none;stroke-opacity:1"
         id="path35447" />
      <path
         d="m 53.640326,148.06776 v 0.11571 h -0.115711 v -0.11571 z"
         style="font-size:1.41111px;fill:#6b6b69;fill-opacity:1;stroke:none;stroke-width:0.999993;stroke-miterlimit:4;stroke-dasharray:none;stroke-opacity:1"
         id="path35449" />
      <path
         d="m 54.002761,147.16747 h 0.677333 q 0.07056,0 0.119944,0.0494 0.04939,0.0494 0.04939,0.11995 v 0.84666 h -0.1143 v -0.37112 h -0.787399 v 0.37112 h -0.1143 v -0.84666 q 0,-0.0706 0.04939,-0.11995 0.04939,-0.0494 0.119944,-0.0494 z m -0.05503,0.53058 h 0.787399 v -0.36124 q 0,-0.0226 -0.01693,-0.0381 -0.01552,-0.0169 -0.0381,-0.0169 h -0.677333 q -0.02258,0 -0.03951,0.0169 -0.01552,0.0155 -0.01552,0.0381 z"
         style="font-size:1.41111px;fill:#6b6b69;fill-opacity:1;stroke:none;stroke-width:0.999993;stroke-miterlimit:4;stroke-dasharray:none;stroke-opacity:1"
         id="path35451" />
      <path
         d="m 55.011617,148.18347 v -1.016 h 0.1143 v 1.016 z"
         style="font-size:1.41111px;fill:#6b6b69;fill-opacity:1;stroke:none;stroke-width:0.999993;stroke-miterlimit:4;stroke-dasharray:none;stroke-opacity:1"
         id="path35453" />
    </g>
    <g
       aria-label="EMIIA.AI"
       id="text35409"
       style="font-size:25.4px;line-height:1.25;font-family:Orbitron;-inkscape-font-specification:Orbitron;fill:#6b6b69;fill-opacity:1;stroke:none;stroke-width:0.999993;stroke-miterlimit:4;stroke-dasharray:none;stroke-opacity:1"
       transform="translate(0.73803262,-0.05259181)">
      <path
         d="m 50.300699,147.17104 v 0.1143 H 49.4879 v 0.33585 h 0.653344 v 0.11571 H 49.4879 v 0.33584 h 0.812799 v 0.1143 H 49.3736 v -1.016 z"
         style="font-size:1.41111px;fill:#6b6b69;fill-opacity:1;stroke:none;stroke-width:0.999993;stroke-miterlimit:4;stroke-dasharray:none;stroke-opacity:1"
         id="path35456" />
      <path
         d="m 50.988373,147.6734 0.421922,-0.50236 h 0.156633 v 1.016 h -0.1143 v -0.88617 l -0.464255,0.55174 -0.464255,-0.55174 v 0.88617 h -0.1143 v -1.016 h 0.156633 z"
         style="font-size:1.41111px;fill:#6b6b69;fill-opacity:1;stroke:none;stroke-width:0.999993;stroke-miterlimit:4;stroke-dasharray:none;stroke-opacity:1"
         id="path35458" />
      <path
         d="m 51.720364,148.18704 v -1.016 h 0.1143 v 1.016 z"
         style="font-size:1.41111px;fill:#6b6b69;fill-opacity:1;stroke:none;stroke-width:0.999993;stroke-miterlimit:4;stroke-dasharray:none;stroke-opacity:1"
         id="path35460" />
      <path
         d="m 52.031801,148.18704 v -1.016 h 0.1143 v 1.016 z"
         style="font-size:1.41111px;fill:#6b6b69;fill-opacity:1;stroke:none;stroke-width:0.999993;stroke-miterlimit:4;stroke-dasharray:none;stroke-opacity:1"
         id="path35462" />
      <path
         d="m 52.513981,147.17104 h 0.677333 q 0.07056,0 0.119945,0.0494 0.04939,0.0494 0.04939,0.11995 v 0.84666 h -0.1143 v -0.37112 H 52.45895 v 0.37112 h -0.1143 v -0.84666 q 0,-0.0706 0.04939,-0.11995 0.04939,-0.0494 0.119944,-0.0494 z m -0.05503,0.53058 h 0.787399 v -0.36124 q 0,-0.0226 -0.01693,-0.0381 -0.01552,-0.0169 -0.0381,-0.0169 h -0.677333 q -0.02258,0 -0.03951,0.0169 -0.01552,0.0155 -0.01552,0.0381 z"
         style="font-size:1.41111px;fill:#6b6b69;fill-opacity:1;stroke:none;stroke-width:0.999993;stroke-miterlimit:4;stroke-dasharray:none;stroke-opacity:1"
         id="path35464" />
      <path
         d="m 53.634314,148.07133 v 0.11571 h -0.115711 v -0.11571 z"
         style="font-size:1.41111px;fill:#6b6b69;fill-opacity:1;stroke:none;stroke-width:0.999993;stroke-miterlimit:4;stroke-dasharray:none;stroke-opacity:1"
         id="path35466" />
      <path
         d="m 53.996749,147.17104 h 0.677333 q 0.07056,0 0.119944,0.0494 0.04939,0.0494 0.04939,0.11995 v 0.84666 h -0.1143 v -0.37112 h -0.787399 v 0.37112 h -0.1143 v -0.84666 q 0,-0.0706 0.04939,-0.11995 0.04939,-0.0494 0.119944,-0.0494 z m -0.05503,0.53058 h 0.787399 v -0.36124 q 0,-0.0226 -0.01693,-0.0381 -0.01552,-0.0169 -0.0381,-0.0169 h -0.677333 q -0.02258,0 -0.03951,0.0169 -0.01552,0.0155 -0.01552,0.0381 z"
         style="font-size:1.41111px;fill:#6b6b69;fill-opacity:1;stroke:none;stroke-width:0.999993;stroke-miterlimit:4;stroke-dasharray:none;stroke-opacity:1"
         id="path35468" />
      <path
         d="m 55.005605,148.18704 v -1.016 h 0.1143 v 1.016 z"
         style="font-size:1.41111px;fill:#6b6b69;fill-opacity:1;stroke:none;stroke-width:0.999993;stroke-miterlimit:4;stroke-dasharray:none;stroke-opacity:1"
         id="path35470" />
    </g>
  </g>
</svg>
