<svg id="svg10" xmlns="http://www.w3.org/2000/svg" width="110.78" height="48.42" viewBox="0 0 110.78 48.42">
  <title>pinnewwhite</title>
  <path id="path2" d="M35.5,22.79A16.43,16.43,0,0,1,22.15,40.05a2.33,2.33,0,0,0-.8.44l-1.87,2.22a.7.7,0,0,1-1,0L16.63,40.5a1.2,1.2,0,0,0-.8-.44A16.5,16.5,0,1,1,35.5,22.79Z" style="fill: #fff;stroke: #3D85C6;stroke-width: 3.025520086288452px"/>
  <path d="M13.91,29.25V18.19h10.2v2.23h-8V22.6h6.4v2.24h-6.4V27h8v2.23Z" style="fill: #3D85C6"/>
  <g>
    <path d="M46.9,28.41V19h8.58v1.4H48.32V23h5.76v1.43H48.32V27h7.16v1.4Z" style="fill: #3D85C6"/>
    <path d="M56.51,28.41V19h1.68l3.63,4.31L65.42,19h1.69v9.36H65.7V20.93l-3.89,4.63-3.9-4.63v7.47Z" style="fill: #3D85C6"/>
    <path d="M68.53,28.41V19h1.4v9.36Z" style="fill: #3D85C6"/>
    <path d="M71.31,28.41V19h1.4v9.36Z" style="fill: #3D85C6"/>
    <path d="M74.16,20.74a1.64,1.64,0,0,1,.23-.85,1.73,1.73,0,0,1,.61-.61,1.64,1.64,0,0,1,.85-.23h6a1.68,1.68,0,0,1,.86.23,1.71,1.71,0,0,1,.62.61,1.64,1.64,0,0,1,.23.85v7.67H82.1V25.13H75.56v3.28h-1.4Zm7.94,3v-3a.32.32,0,0,0-.09-.23.31.31,0,0,0-.23-.1H75.89a.33.33,0,0,0-.33.33v3Z" style="fill: #3D85C6"/>
    <path d="M85,28.41V27h1.4v1.4Z" style="fill: #3D85C6"/>
    <path d="M87.9,20.74a1.64,1.64,0,0,1,.23-.85,1.73,1.73,0,0,1,.61-.61,1.64,1.64,0,0,1,.85-.23h6a1.68,1.68,0,0,1,.86.23,1.71,1.71,0,0,1,.62.61,1.64,1.64,0,0,1,.23.85v7.67H95.84V25.13H89.3v3.28H87.9Zm7.94,3v-3a.32.32,0,0,0-.09-.23.31.31,0,0,0-.23-.1H89.63a.33.33,0,0,0-.33.33v3Z" style="fill: #3D85C6"/>
    <path d="M98.7,28.41V19h1.4v9.36Z" style="fill: #3D85C6"/>
  </g>
</svg>

