<svg xmlns="http://www.w3.org/2000/svg" version="1.1" width="256" height="256" viewBox="0 0 256 256">


    

    <path d="M57.552 217.745l-2.16 0.895c0.811 3.6 0.8 7.2 0 10.721l2.16 0.895c1.021 0.4 1.5 1.6 1.1 2.612l-1.53 3.7 c-0.423 1.021-1.593 1.506-2.613 1.082l-2.16-0.895c-1.924 3.061-4.519 5.655-7.58 7.58l0.895 2.2 c0.423 1.02-0.062 2.19-1.082 2.613l-3.695 1.531c-1.021 0.422-2.191-0.063-2.614-1.083l-0.895-2.16 c-3.508 0.801-7.12 0.821-10.719 0l-0.895 2.159c-0.423 1.021-1.593 1.506-2.613 1.083l-3.695-1.53 c-1.021-0.423-1.505-1.594-1.082-2.613l0.895-2.16c-3.062-1.924-5.656-4.519-7.581-7.58l-2.16 0.9 c-1.021 0.424-2.189-0.061-2.613-1.082l-1.53-3.695c-0.423-1.02 0.062-2.19 1.083-2.613l2.159-0.895 c-0.801-3.507-0.821-7.121 0-10.719l-2.159-0.895c-1.021-0.424-1.506-1.594-1.083-2.613l1.53-3.696 c0.423-1.021 1.594-1.505 2.613-1.083l2.161 0.896c1.924-3.062 4.519-5.655 7.58-7.579l-0.896-2.16 c-0.423-1.021 0.063-2.19 1.083-2.613l3.695-1.531c1.021-0.422 2.2 0.1 2.6 1.083l0.895 2.159c3.427-0.78 7.035-0.839 10.7 0 l0.895-2.16c0.422-1.02 1.593-1.504 2.612-1.082l3.695 1.531c1.021 0.4 1.5 1.6 1.1 2.613l-0.895 2.2 c3.061 1.9 5.7 4.5 7.6 7.579l2.161-0.896c1.021-0.422 2.2 0.1 2.6 1.083l1.531 3.7 C59.057 216.2 58.6 217.3 57.6 217.745z M46 224c0-7.721-6.28-14-14-14s-14 6.279-14 14c0 7.7 6.3 14 14 14 S46 231.7 46 224z">
        <animateTransform
            attributeName="transform"
            repeatCount="indefinite"
            type="rotate"
            from="00 32 224"
            to="+360 32 224"
            begin="0s" dur="10s"/>
    </path>
    
    
    
        <path d="M57.552 217.745l-2.16 0.895c0.811 3.6 0.8 7.2 0 10.721l2.16 0.895c1.021 0.4 1.5 1.6 1.1 2.612l-1.53 3.7 c-0.423 1.021-1.593 1.506-2.613 1.082l-2.16-0.895c-1.924 3.061-4.519 5.655-7.58 7.58l0.895 2.2 c0.423 1.02-0.062 2.19-1.082 2.613l-3.695 1.531c-1.021 0.422-2.191-0.063-2.614-1.083l-0.895-2.16 c-3.508 0.801-7.12 0.821-10.719 0l-0.895 2.159c-0.423 1.021-1.593 1.506-2.613 1.083l-3.695-1.53 c-1.021-0.423-1.505-1.594-1.082-2.613l0.895-2.16c-3.062-1.924-5.656-4.519-7.581-7.58l-2.16 0.9 c-1.021 0.424-2.189-0.061-2.613-1.082l-1.53-3.695c-0.423-1.02 0.062-2.19 1.083-2.613l2.159-0.895 c-0.801-3.507-0.821-7.121 0-10.719l-2.159-0.895c-1.021-0.424-1.506-1.594-1.083-2.613l1.53-3.696 c0.423-1.021 1.594-1.505 2.613-1.083l2.161 0.896c1.924-3.062 4.519-5.655 7.58-7.579l-0.896-2.16 c-0.423-1.021 0.063-2.19 1.083-2.613l3.695-1.531c1.021-0.422 2.2 0.1 2.6 1.083l0.895 2.159c3.427-0.78 7.035-0.839 10.7 0 l0.895-2.16c0.422-1.02 1.593-1.504 2.612-1.082l3.695 1.531c1.021 0.4 1.5 1.6 1.1 2.613l-0.895 2.2 c3.061 1.9 5.7 4.5 7.6 7.579l2.161-0.896c1.021-0.422 2.2 0.1 2.6 1.083l1.531 3.7 C59.057 216.2 58.6 217.3 57.6 217.745z M46 224c0-7.721-6.28-14-14-14s-14 6.279-14 14c0 7.7 6.3 14 14 14 S46 231.7 46 224z">
        <animateTransform
            attributeName="transform"
            repeatCount="indefinite"
            type="rotate"
            from="00 32 224"
            to="-360 32 224"
            begin="0s" dur="8s"/>
    </path>
    
    
    

       
       
       

         
         

         

    

</svg>
