<svg xmlns="https://www.w3.org/2000/svg" width="166.002" height="54.034" viewBox="0 0 43.921 14.296">

  
  <path class="secondb" d="M1.68.573h40.63c.575 0 1.038.463 1.038 1.038v11.005c0 .575-.463 1.038-1.038 1.038H1.68a1.036 1.036 0 0 1-1.038-1.038V1.611c0-.575.463-1.038 1.038-1.038z" fill="none" stroke="#8c8c8c" stroke-width=".120" stroke-linecap="round" stroke-linejoin="round"  paint-order="stroke fill markers"/>
  

  
  
<g aria-label="Отправить" style="line-height:1.25;-inkscape-font-specification:'Montserrat Medium';text-align:center" font-weight="400" font-size="4.939" font-family="Montserrat" letter-spacing="0" word-spacing="0" text-anchor="middle" fill="#3d85c6" stroke-width=".265">
 

  
<path d="M14.04 9.06c.885 0 1.29-.435 1.29-.943 0-1.26-2.129-.687-2.129-1.635 0-.346.282-.627.914-.627.306 0 .652.093.948.286l.124-.291c-.277-.193-.682-.307-1.072-.307-.88 0-1.274.44-1.274.949 0 1.279 2.128.696 2.128 1.644 0 .341-.281.613-.928.613-.455 0-.894-.178-1.141-.42l-.143.281c.256.267.765.45 1.284.45zM18.042 6.432v1.364c0 .592-.34.943-.884.943-.494 0-.78-.282-.78-.835V6.432h-.35V7.94c0 .746.434 1.116 1.096 1.116.415 0 .75-.183.933-.499v.474h.336V6.432zM20.718 6.413c-.414 0-.77.177-.987.513v-1.56h-.351V9.03h.336v-.513c.212.35.573.538 1.002.538.741 0 1.294-.538 1.294-1.324 0-.785-.553-1.318-1.294-1.318zm-.024 2.33c-.553 0-.968-.404-.968-1.012 0-.607.415-1.012.968-1.012.548 0 .968.405.968 1.012 0 .608-.42 1.013-.968 1.013zM25.967 6.413c-.469 0-.84.212-1.027.548-.158-.366-.494-.548-.924-.548-.434 0-.77.182-.953.494v-.475h-.336V9.03h.35V7.667c0-.593.342-.938.87-.938.474 0 .75.281.75.83V9.03h.352V7.667c0-.593.335-.938.869-.938.469 0 .746.281.746.83V9.03h.35V7.524c0-.746-.415-1.111-1.047-1.111zM28.143 5.864a.25.25 0 1 0 0-.499.253.253 0 0 0-.257.248c0 .138.114.251.257.251zm-.178 3.166h.35V6.432h-.35zM30.54 8.62a.58.58 0 0 1-.384.134c-.292 0-.45-.168-.45-.474V6.729h.79v-.297h-.79v-.568h-.35v.568h-.465v.297h.465v1.57c0 .48.271.756.76.756.203 0 .41-.06.548-.183z" style="-inkscape-font-specification:Montserrat"/>

</g> 

</svg>
