<?xml version="1.0" encoding="UTF-8" standalone="no"?>
<svg
   xmlns:dc="http://purl.org/dc/elements/1.1/"
   xmlns:cc="http://creativecommons.org/ns#"
   xmlns:rdf="http://www.w3.org/1999/02/22-rdf-syntax-ns#"
   xmlns:svg="http://www.w3.org/2000/svg"
   xmlns="http://www.w3.org/2000/svg"
   xmlns:sodipodi="http://sodipodi.sourceforge.net/DTD/sodipodi-0.dtd"
   xmlns:inkscape="http://www.inkscape.org/namespaces/inkscape"
   width="20"
   height="20"
   class="bi bi-chat-left"
   viewBox="0 0 20 20"
   version="1.1"
   id="svg4"
   sodipodi:docname="strelka15.1.svg"
   inkscape:version="1.0 (4035a4fb49, 2020-05-01)"
   style="fill:currentColor">
  <metadata
     id="metadata10">
    <rdf:RDF>
      <cc:Work
         rdf:about="">
        <dc:format>image/svg+xml</dc:format>
        <dc:type
           rdf:resource="http://purl.org/dc/dcmitype/StillImage" />
        <dc:title></dc:title>
      </cc:Work>
    </rdf:RDF>
  </metadata>
  <defs
     id="defs8" />
  <sodipodi:namedview
     pagecolor="#ffffff"
     bordercolor="#666666"
     borderopacity="1"
     objecttolerance="10"
     gridtolerance="10"
     guidetolerance="10"
     inkscape:pageopacity="0"
     inkscape:pageshadow="2"
     inkscape:window-width="1920"
     inkscape:window-height="1046"
     id="namedview6"
     showgrid="false"
     inkscape:zoom="20.85965"
     inkscape:cx="15.738594"
     inkscape:cy="12.52662"
     inkscape:window-x="-11"
     inkscape:window-y="-11"
     inkscape:window-maximized="1"
     inkscape:current-layer="svg4"
     inkscape:document-rotation="0" />
  <path
     d="m 16.622199,2.2153136 a 1.096608,1.1802405 0 0 1 1.096607,1.1802405 v 9.4419239 a 1.096608,1.1802405 0 0 1 -1.096607,1.180239 H 6.1101139 A 2.193216,2.3604809 0 0 0 4.5595105,14.709339 L 2.3662944,17.06982 V 3.3955541 A 1.096608,1.1802405 0 0 1 3.4629024,2.2153136 Z M 3.4629024,1.0350731 A 2.193216,2.3604809 0 0 0 1.2696863,3.3955541 V 18.49437 a 0.54830402,0.59012023 0 0 0 0.9365032,0.416626 L 5.3348119,15.54377 a 1.096608,1.1802405 0 0 1 0.775302,-0.345813 H 16.622199 a 2.193216,2.3604809 0 0 0 2.193215,-2.360479 V 3.3955541 a 2.193216,2.3604809 0 0 0 -2.193215,-2.360481 z"
     id="path2"
     style="fill:#383838;fill-opacity:1;stroke:#383838;stroke-width:0.4;stroke-miterlimit:4;stroke-dasharray:none;stroke-opacity:1"
     inkscape:connector-curvature="0" />
  <ellipse
     style="fill:#383838;fill-opacity:1;stroke:#383838;stroke-width:0.102;stroke-linecap:round;stroke-linejoin:round;stroke-miterlimit:10;stroke-dasharray:none;stroke-opacity:1;paint-order:markers fill stroke"
     id="path2265"
     cx="5.8524199"
     cy="8.3937273"
     rx="1.3337855"
     ry="1.3337853" />
  <ellipse
     cy="8.3197317"
     cx="10.079546"
     id="path2265-8"
     style="fill:#383838;fill-opacity:1;stroke:#383838;stroke-width:0.102;stroke-linecap:round;stroke-linejoin:round;stroke-miterlimit:10;stroke-dasharray:none;stroke-opacity:1;paint-order:markers fill stroke"
     rx="1.3336269"
     ry="1.3337965" />
  <ellipse
     style="fill:#383838;fill-opacity:1;stroke:#383838;stroke-width:0.102;stroke-linecap:round;stroke-linejoin:round;stroke-miterlimit:10;stroke-dasharray:none;stroke-opacity:1;paint-order:markers fill stroke"
     id="path2265-8-3"
     cx="14.302622"
     cy="8.3557386"
     rx="1.3336269"
     ry="1.3337965" />
</svg>
