<?xml version="1.0" encoding="UTF-8" standalone="no"?>
<svg
   xmlns:dc="http://purl.org/dc/elements/1.1/"
   xmlns:cc="http://creativecommons.org/ns#"
   xmlns:rdf="http://www.w3.org/1999/02/22-rdf-syntax-ns#"
   xmlns:svg="http://www.w3.org/2000/svg"
   xmlns="http://www.w3.org/2000/svg"
   xmlns:sodipodi="http://sodipodi.sourceforge.net/DTD/sodipodi-0.dtd"
   xmlns:inkscape="http://www.inkscape.org/namespaces/inkscape"
   width="18"
   height="18"
   class="bi bi-chat-left"
   viewBox="0 0 18 18"
   version="1.1"
   id="svg4"
   sodipodi:docname="strelka15.svg"
   inkscape:version="0.92.2 (5c3e80d, 2017-08-06)"
   style="fill:currentColor">
  <metadata
     id="metadata10">
    <rdf:RDF>
      <cc:Work
         rdf:about="">
        <dc:format>image/svg+xml</dc:format>
        <dc:type
           rdf:resource="http://purl.org/dc/dcmitype/StillImage" />
        <dc:title></dc:title>
      </cc:Work>
    </rdf:RDF>
  </metadata>
  <defs
     id="defs8" />
  <sodipodi:namedview
     pagecolor="#ffffff"
     bordercolor="#666666"
     borderopacity="1"
     objecttolerance="10"
     gridtolerance="10"
     guidetolerance="10"
     inkscape:pageopacity="0"
     inkscape:pageshadow="2"
     inkscape:window-width="3840"
     inkscape:window-height="2093"
     id="namedview6"
     showgrid="false"
     inkscape:zoom="14.75"
     inkscape:cx="-49.525424"
     inkscape:cy="5.2881356"
     inkscape:window-x="-18"
     inkscape:window-y="-18"
     inkscape:window-maximized="1"
     inkscape:current-layer="svg4" />
  <path
     d="m 14.670338,2.6178219 a 0.93521526,1.0065392 0 0 1 0.935216,1.0065392 v 8.0523139 a 0.93521526,1.0065392 0 0 1 -0.935216,1.006538 H 5.7053642 A 1.8704305,2.0130783 0 0 0 4.3829699,13.273045 L 2.5125393,15.286124 V 3.6243611 A 0.93521526,1.0065392 0 0 1 3.4477547,2.6178219 Z M 3.4477547,1.6112827 A 1.8704305,2.0130783 0 0 0 1.577324,3.6243611 V 16.501016 a 0.46760765,0.50326958 0 0 0 0.7986738,0.355309 l 2.6681691,-2.871656 a 0.93521526,1.0065392 0 0 1 0.6611973,-0.294918 h 8.9649738 a 1.8704305,2.0130783 0 0 0 1.87043,-2.013076 V 3.6243611 a 1.8704305,2.0130783 0 0 0 -1.87043,-2.0130784 z"
     id="path2"
     style="fill:#383838;fill-opacity:1;stroke:#383838;stroke-width:1.426;stroke-miterlimit:4;stroke-dasharray:none;stroke-opacity:1"
     inkscape:connector-curvature="0" />
  <ellipse
     style="fill:#383838;fill-opacity:1;stroke:#383838;stroke-width:0.3489852;stroke-linecap:round;stroke-linejoin:round;stroke-miterlimit:10;stroke-dasharray:none;stroke-opacity:1;paint-order:markers fill stroke"
     id="path2265"
     cx="5.4854517"
     cy="7.9316316"
     rx="1.1344496"
     ry="1.1792951" />
  <ellipse
     cy="7.868526"
     cx="9.0905972"
     id="path2265-8"
     style="fill:#383838;fill-opacity:1;stroke:#383838;stroke-width:0.3489852;stroke-linecap:round;stroke-linejoin:round;stroke-miterlimit:10;stroke-dasharray:none;stroke-opacity:1;paint-order:markers fill stroke"
     rx="1.1344496"
     ry="1.1792951" />
  <ellipse
     style="fill:#383838;fill-opacity:1;stroke:#383838;stroke-width:0.3489852;stroke-linecap:round;stroke-linejoin:round;stroke-miterlimit:10;stroke-dasharray:none;stroke-opacity:1;paint-order:markers fill stroke"
     id="path2265-8-3"
     cx="12.692144"
     cy="7.8992333"
     rx="1.1344496"
     ry="1.1792951" />
</svg>
