<?xml version="1.0" encoding="UTF-8" standalone="no"?>
<svg
   xmlns:dc="http://purl.org/dc/elements/1.1/"
   xmlns:cc="http://creativecommons.org/ns#"
   xmlns:rdf="http://www.w3.org/1999/02/22-rdf-syntax-ns#"
   xmlns:svg="http://www.w3.org/2000/svg"
   xmlns="http://www.w3.org/2000/svg"
   xmlns:sodipodi="http://sodipodi.sourceforge.net/DTD/sodipodi-0.dtd"
   xmlns:inkscape="http://www.inkscape.org/namespaces/inkscape"
   width="16"
   height="16"
   fill="currentColor"
   class="bi bi-chat-left"
   viewBox="0 0 16 16"
   version="1.1"
   id="svg4"
   sodipodi:docname="strelka15.svg"
   inkscape:version="0.92.2 (5c3e80d, 2017-08-06)">
  <metadata
     id="metadata10">
    <rdf:RDF>
      <cc:Work
         rdf:about="">
        <dc:format>image/svg+xml</dc:format>
        <dc:type
           rdf:resource="http://purl.org/dc/dcmitype/StillImage" />
      </cc:Work>
    </rdf:RDF>
  </metadata>
  <defs
     id="defs8" />
  <sodipodi:namedview
     pagecolor="#ffffff"
     bordercolor="#666666"
     borderopacity="1"
     objecttolerance="10"
     gridtolerance="10"
     guidetolerance="10"
     inkscape:pageopacity="0"
     inkscape:pageshadow="2"
     inkscape:window-width="3840"
     inkscape:window-height="2093"
     id="namedview6"
     showgrid="false"
     inkscape:zoom="14.75"
     inkscape:cx="-21.016949"
     inkscape:cy="5.2881356"
     inkscape:window-x="-18"
     inkscape:window-y="-18"
     inkscape:window-maximized="1"
     inkscape:current-layer="svg4" />
  <path
     d="m 13.447022,1.9293157 a 0.89517107,0.94687179 0 0 1 0.895171,0.9468718 v 7.5749745 a 0.89517107,0.94687179 0 0 1 -0.895171,0.946871 H 4.8659118 A 1.7903422,1.8937436 0 0 0 3.6001399,11.9529 L 1.8097978,13.846644 V 2.8761875 A 0.89517107,0.94687179 0 0 1 2.7049688,1.9293157 Z M 2.7049688,0.98244388 A 1.7903422,1.8937436 0 0 0 0.91462667,2.8761875 V 14.989518 a 0.44758554,0.47343589 0 0 0 0.76447613,0.334246 l 2.553923,-2.701425 a 0.89517107,0.94687179 0 0 1 0.632886,-0.277434 h 8.5811102 a 1.7903422,1.8937436 0 0 0 1.790342,-1.893743 V 2.8761875 A 1.7903422,1.8937436 0 0 0 13.447022,0.98244388 Z"
     id="path2"
     style="stroke:#000000;stroke-width:0.921;stroke-opacity:1;stroke-miterlimit:4;stroke-dasharray:none"
     inkscape:connector-curvature="0" />
</svg>
