<?xml version="1.0" encoding="UTF-8" standalone="no"?>
<svg
   xmlns:dc="http://purl.org/dc/elements/1.1/"
   xmlns:cc="http://creativecommons.org/ns#"
   xmlns:rdf="http://www.w3.org/1999/02/22-rdf-syntax-ns#"
   xmlns:svg="http://www.w3.org/2000/svg"
   xmlns="http://www.w3.org/2000/svg"
   xmlns:sodipodi="http://sodipodi.sourceforge.net/DTD/sodipodi-0.dtd"
   xmlns:inkscape="http://www.inkscape.org/namespaces/inkscape"
   width="16"
   height="16"
   fill="currentColor"
   class="bi bi-chat-left"
   viewBox="0 0 16 16"
   version="1.1"
   id="svg4"
   sodipodi:docname="strelka15.svg"
   inkscape:version="0.92.2 (5c3e80d, 2017-08-06)">
  <metadata
     id="metadata10">
    <rdf:RDF>
      <cc:Work
         rdf:about="">
        <dc:format>image/svg+xml</dc:format>
        <dc:type
           rdf:resource="http://purl.org/dc/dcmitype/StillImage" />
      </cc:Work>
    </rdf:RDF>
  </metadata>
  <defs
     id="defs8" />
  <sodipodi:namedview
     pagecolor="#ffffff"
     bordercolor="#666666"
     borderopacity="1"
     objecttolerance="10"
     gridtolerance="10"
     guidetolerance="10"
     inkscape:pageopacity="0"
     inkscape:pageshadow="2"
     inkscape:window-width="3840"
     inkscape:window-height="2093"
     id="namedview6"
     showgrid="false"
     inkscape:zoom="14.75"
     inkscape:cx="-49.694916"
     inkscape:cy="5.2881356"
     inkscape:window-x="-18"
     inkscape:window-y="-18"
     inkscape:window-maximized="1"
     inkscape:current-layer="svg4" />
  <path
     d="m 12.956504,2.6887821 a 0.80776823,0.83765505 0 0 1 0.807768,0.8376551 v 6.7012408 a 0.80776823,0.83765505 0 0 1 -0.807768,0.837654 H 5.2132367 A 1.6155365,1.6753101 0 0 0 4.0710525,11.556198 L 2.455516,13.231509 V 3.5264372 A 0.80776823,0.83765505 0 0 1 3.2632843,2.6887821 Z M 3.2632843,1.8511271 A 1.6155365,1.6753101 0 0 0 1.6477477,3.5264372 V 14.242558 a 0.40388413,0.41882752 0 0 0 0.6898341,0.295692 l 2.3045627,-2.38983 a 0.80776823,0.83765505 0 0 1 0.5710922,-0.245434 h 7.7432673 a 1.6155365,1.6753101 0 0 0 1.615535,-1.675308 V 3.5264372 A 1.6155365,1.6753101 0 0 0 12.956504,1.8511271 Z"
     id="path2"
     style="stroke:#383838;stroke-width:1.56;stroke-miterlimit:4;stroke-dasharray:none;stroke-opacity:1;fill:#383838;fill-opacity:1"
     inkscape:connector-curvature="0" />
  <ellipse
     style="fill:#383838;fill-opacity:1;stroke:#383838;stroke-width:0.29587746;stroke-linecap:round;stroke-linejoin:round;stroke-miterlimit:10;stroke-dasharray:none;stroke-opacity:1;paint-order:markers fill stroke"
     id="path2265"
     cx="5.0232925"
     cy="7.1110044"
     rx="0.97985184"
     ry="0.98142475" />
  <ellipse
     cy="7.0584874"
     cx="8.1371441"
     id="path2265-8"
     style="fill:#383838;fill-opacity:1;stroke:#383838;stroke-width:0.29587746;stroke-linecap:round;stroke-linejoin:round;stroke-miterlimit:10;stroke-dasharray:none;stroke-opacity:1;paint-order:markers fill stroke"
     rx="0.97985184"
     ry="0.98142475" />
  <ellipse
     style="fill:#383838;fill-opacity:1;stroke:#383838;stroke-width:0.29587746;stroke-linecap:round;stroke-linejoin:round;stroke-miterlimit:10;stroke-dasharray:none;stroke-opacity:1;paint-order:markers fill stroke"
     id="path2265-8-3"
     cx="11.247889"
     cy="7.0840421"
     rx="0.97985184"
     ry="0.98142475" />
</svg>
