<svg xmlns="http://www.w3.org/2000/svg" viewBox="0.9054399700000006 0.905439969999998 27.862337030000003 33.434842030000006">
  <path d="m 14.952283,9.4656868 c 2.927023,0 5.285156,2.3581322 5.285156,5.2851552 0,2.927024 -2.358133,5.283204 -5.285156,5.283204 -2.927024,0 -5.2832033,-2.35618 -5.2832033,-5.283204 0,-2.927023 2.3561793,-5.2851562 5.2832033,-5.2851552 z m 13.815486,5.3709692 c 0,3.894323 -1.601285,7.417146 -4.182554,9.947175 l -0.02242,0.02369 -9.726198,9.532761 -9.7338844,-9.541727 -0.00831,-0.0084 c -2.5876788,-2.529997 -4.18896263,-6.05282 -4.18896263,-9.953547 0,-7.6989715 6.23219653,-13.93116803 13.93116803,-13.93116803 7.692568,0 13.931169,6.23219653 13.931169,13.93116803 z" fill="#000000"/>
</svg>