<svg viewBox="0 0 800 600">
  <path id="myPath" fill="none" stroke="#999999" stroke-width=45 stroke-miterlimit="10" stroke-linecap="round" d="M 305 99 L 313 104 L 319 108 L 323 114 L 328 116 L 333 122 L 338 125 L 358 125 L 367 114 L 369 108 L 381 111 L 407 111 L 417 104 L 421 104 L 433 106 L 441 105 L 452 108 L 481 99 L 499 103 L 539 92 L 546 94 L 562 102 L 567 102 L 579 102 L 589 105 L 604 119 L 623 150 L 637 167 L 648 185 L 651 194 L 653 209 L 664 235 L 670 253 L 671 279 L 677 295 L 678 305 L 676 318 L 678 329 L 685 348 L 687 370 L 686 380 L 677 398 L 674 402 L 666 410 L 651 439 L 643 451 L 629 465 L 601 476 L 596 477 L 578 473 L 570 473 L 553 478 L 538 476 L 520 483 L 497 493 L 477 496 L 471 497 L 463 500 L 439 517 L 433 519 L 427 522 L 410 522 L 394 523 L 382 521 L 377 520 L 367 518 L 356 511 L 343 505 L 329 503 L 320 503 L 300 505 L 267 514 L 234 523 L 212 526 L 205 526 L 193 522 L 178 515 L 160 512 L 155 509 L 138 483 L 135 476 L 135 468 L 141 455 L 142 446 L 139 434 L 138 419 L 138 374 L 136 360 L 135 356 L 140 347 L 145 331 L 146 324 L 141 305 L 141 294 L 142 283 L 161 242 L 166 232 L 175 225 L 179 212 L 193 204 L 195 199 L 199 185 L 199 178 L 207 171 L 216 168 L 226 165 L 230 158 L 228 146 L 228 140 L 233 127 L 237 115 L 243 110 L 259 111 L 267 110 L 280 108 L 292 102 L 297 102 Z"/>
  <path             fill="none" stroke="#FFFF00" stroke-width= 3 stroke-miterlimit="10" stroke-linecap="round" d="M 305 99 L 313 104 L 319 108 L 323 114 L 328 116 L 333 122 L 338 125 L 358 125 L 367 114 L 369 108 L 381 111 L 407 111 L 417 104 L 421 104 L 433 106 L 441 105 L 452 108 L 481 99 L 499 103 L 539 92 L 546 94 L 562 102 L 567 102 L 579 102 L 589 105 L 604 119 L 623 150 L 637 167 L 648 185 L 651 194 L 653 209 L 664 235 L 670 253 L 671 279 L 677 295 L 678 305 L 676 318 L 678 329 L 685 348 L 687 370 L 686 380 L 677 398 L 674 402 L 666 410 L 651 439 L 643 451 L 629 465 L 601 476 L 596 477 L 578 473 L 570 473 L 553 478 L 538 476 L 520 483 L 497 493 L 477 496 L 471 497 L 463 500 L 439 517 L 433 519 L 427 522 L 410 522 L 394 523 L 382 521 L 377 520 L 367 518 L 356 511 L 343 505 L 329 503 L 320 503 L 300 505 L 267 514 L 234 523 L 212 526 L 205 526 L 193 522 L 178 515 L 160 512 L 155 509 L 138 483 L 135 476 L 135 468 L 141 455 L 142 446 L 139 434 L 138 419 L 138 374 L 136 360 L 135 356 L 140 347 L 145 331 L 146 324 L 141 305 L 141 294 L 142 283 L 161 242 L 166 232 L 175 225 L 179 212 L 193 204 L 195 199 L 199 185 L 199 178 L 207 171 L 216 168 L 226 165 L 230 158 L 228 146 L 228 140 L 233 127 L 237 115 L 243 110 L 259 111 L 267 110 L 280 108 L 292 102 L 297 102 Z"/>
  <text>
    <textpath xlink:href="#myPath">Autotopia 
    <animate attributeName="startOffset" from="0%" to="100%" begin="0s" dur="10s" repeatCount="indefinite"/>
    </textpath>
    </text> 
  </svg>
