<?xml version="1.0" encoding="UTF-8" standalone="no"?>
<svg
   xmlns:dc="http://purl.org/dc/elements/1.1/"
   xmlns:cc="http://creativecommons.org/ns#"
   xmlns:rdf="http://www.w3.org/1999/02/22-rdf-syntax-ns#"
   xmlns:svg="http://www.w3.org/2000/svg"
   xmlns="http://www.w3.org/2000/svg"
   xmlns:sodipodi="http://sodipodi.sourceforge.net/DTD/sodipodi-0.dtd"
   xmlns:inkscape="http://www.inkscape.org/namespaces/inkscape"
   inkscape:version="1.0 (4035a4fb49, 2020-05-01)"
   sodipodi:docname="text8.svg"
   id="svg5"
   version="1.1"
   viewBox="0 0 500 350"
   height="350"
   width="500">
  <metadata
     id="metadata11">
    <rdf:RDF>
      <cc:Work
         rdf:about="">
        <dc:format>image/svg+xml</dc:format>
        <dc:type
           rdf:resource="http://purl.org/dc/dcmitype/StillImage" />
      </cc:Work>
    </rdf:RDF>
  </metadata>
  <defs
     id="defs9" />
  <sodipodi:namedview
     inkscape:current-layer="svg5"
     inkscape:window-maximized="1"
     inkscape:window-y="-11"
     inkscape:window-x="-11"
     inkscape:cy="-5.8530959"
     inkscape:cx="183.37782"
     inkscape:zoom="1.7374624"
     showgrid="false"
     id="namedview7"
     inkscape:window-height="1046"
     inkscape:window-width="1920"
     inkscape:pageshadow="2"
     inkscape:pageopacity="0"
     guidetolerance="10"
     gridtolerance="10"
     objecttolerance="10"
     borderopacity="1"
     bordercolor="#666666"
     pagecolor="#ffffff" />
  <path
     d="M91.4,104.2c3.2-3.4,18.4-0.6,23.4-0.6c5.7,0.1,10.8,0.9,16.3,2.3  c13.5,3.5,26.1,9.6,38.5,16.2c12.3,6.5,21.3,16.8,31.9,25.4c10.8,8.7,21,18.3,31.7,26.9c9.3,7.4,20.9,11.5,31.4,16.7  c13.7,6.8,26.8,9.7,41.8,9c21.4-1,40.8-3.7,61.3-10.4c10.9-3.5,18.9-11.3,28.5-17.8c5.4-3.7,10.4-6.7,14.8-11.5  c1.9-2.1,3.7-5.5,6.5-6.5"
     stroke-miterlimit="10"
     stroke="#000000"
     fill="none"
     id="myPath" />
  <text
     id="text3"
     xml:space="preserve"
     style="font-size:20px;line-height:20;font-family:sans-serif;fill:#000000;fill-opacity:1;stroke-width:2.865;stroke-miterlimit:4;stroke-dasharray:none"><tspan
       id="tspan836"
       style="stroke:#000000;stroke-opacity:1;stroke-width:2.865;stroke-miterlimit:4;stroke-dasharray:none">      </tspan><textpath
       stroke="#000000"
       href="#myPath">
      Text laid out along a path.
      
      <animate
   keySplines="0.1 0.2 .22 1"
   calcMode="spline"
   keyTimes="0;1"
   repeatCount="indefinite"
   dur="5s"
   begin="0s"
   to="100%"
   from="0%"
   attributeName="startOffset" />
      
    
      
      
      
      
    </textpath></text>
  <text
     id="text844"
     y="87.48391"
     x="99.570503"
     style="font-size:5.33333px;line-height:1.25;font-family:sans-serif"
     xml:space="preserve"><tspan
       y="87.48391"
       x="99.570503"
       id="tspan842"
       sodipodi:role="line">1234567</tspan></text>
</svg>
