<svg 	xmlns="http://www.w3.org/2000/svg"
	xmlns:xlink="http://www.w3.org/1999/xlink"
width="50%" height="50%" viewBox="0 0 400 450">


<defs>

<path id="path1" d="M91.4,104.2c3.2-3.4,18.4-0.6,23.4-0.6c5.7,0.1,10.8,0.9,16.3,2.3
	c13.5,3.5,26.1,9.6,38.5,16.2c12.3,6.5,21.3,16.8,31.9,25.4c10.8,8.7,21,18.3,31.7,26.9c9.3,7.4,20.9,11.5,31.4,16.7
	c13.7,6.8,26.8,9.7,41.8,9c21.4-1,40.8-3.7,61.3-10.4c10.9-3.5,18.9-11.3,28.5-17.8c5.4-3.7,10.4-6.7,14.8-11.5
	c1.9-2.1,3.7-5.5,6.5-6.5" fill="none" stroke="none"/>
</defs>




        
        
        

<text id="txt1" lengthAdjust="spacingAndGlyphs" textLength="700" font-size="24">
<textPath id="result" method="align" spacing="auto" startOffset="1%" xlink:href="#path1">
<tspan dy="-10">__________________</tspan>
<animate  dur="4s" repeatCount="1" attributeName="startOffset" values="4%;54%" > 








 
</svg>
