<?xml version="1.0" encoding="UTF-8" standalone="no"?>
<svg
   xmlns:dc="http://purl.org/dc/elements/1.1/"
   xmlns:cc="http://creativecommons.org/ns#"
   xmlns:rdf="http://www.w3.org/1999/02/22-rdf-syntax-ns#"
   xmlns:svg="http://www.w3.org/2000/svg"
   xmlns="http://www.w3.org/2000/svg"
   xmlns:xlink="http://www.w3.org/1999/xlink"
   xmlns:sodipodi="http://sodipodi.sourceforge.net/DTD/sodipodi-0.dtd"
   xmlns:inkscape="http://www.inkscape.org/namespaces/inkscape"
   inkscape:version="1.0 (4035a4fb49, 2020-05-01)"
   sodipodi:docname="text13.svg"
   id="svg7"
   version="1.1"
   viewBox="0 0 400 450"
   height="50%"
   width="50%">

  
  <defs
     id="defs11" />

  <path
     stroke="none"
     fill="none"
     d="M91.4,104.2c3.2-3.4,18.4-0.6,23.4-0.6c5.7,0.1,10.8,0.9,16.3,2.3  c13.5,3.5,26.1,9.6,38.5,16.2c12.3,6.5,21.3,16.8,31.9,25.4c10.8,8.7,21,18.3,31.7,26.9c9.3,7.4,20.9,11.5,31.4,16.7  c13.7,6.8,26.8,9.7,41.8,9c21.4-1,40.8-3.7,61.3-10.4c10.9-3.5,18.9-11.3,28.5-17.8c5.4-3.7,10.4-6.7,14.8-11.5  c1.9-2.1,3.7-5.5,6.5-6.5"
     id="path1" />
  <text
     style="stroke-width:1;stroke-miterlimit:4;stroke-dasharray:none"
     font-size="24"
     textLength="700"
     lengthAdjust="spacingAndGlyphs"
     id="txt1"><textPath
       xlink:href="#path1"
       startOffset="1%"
       spacing="auto"
       method="align"
       id="result"><tspan
         style="stroke-width:1;stroke-miterlimit:4;stroke-dasharray:none"
         id="tspan3"
         dy="-10">__________________</tspan><animate
         keySplines="0.1 0.1 .22 1"
         calcMode="spline"
         keyTimes="0;1"
         repeatCount="indefinite"
         dur="5s"
         begin="0s"
         to="100%"
         from="0%"
         attributeName="startOffset" /></textPath></text>
</svg>
