<svg width="40px" height="40px" viewBox="0 0 60 60" version="1.1" xmlns="http://www.w3.org/2000/svg" xmlns:xlink="http://www.w3.org/1999/xlink" xmlns:sketch="http://www.bohemiancoding.com/sketch/ns">



    <!-- Generator: Sketch 3.1 (8751) - http://www.bohemiancoding.com/sketch -->
    <title>loader01 2</title>
    <desc>Created with Sketch.</desc>
    <defs></defs>
    <g id="Page-1" stroke="none" stroke-width="1" fill="none" fill-rule="evenodd" sketch:type="MSPage">
        <g id="Group-3" sketch:type="MSLayerGroup" fill="#4990E2">
            <rect id="Rectangle-1" sketch:type="MSShapeGroup" x="16.5873418" y="0" width="3" height="9.13705584"></rect>
            <rect id="Rectangle-2" fill-opacity="0.58" sketch:type="MSShapeGroup" x="16.678481" y="26.8629442" width="3" height="9.13705584"></rect>
            <rect id="Rectangle-4" fill-opacity="0.79" sketch:type="MSShapeGroup" transform="translate(31.530380, 17.954315) rotate(-270.000000) translate(-31.530380, -17.954315) " x="30.0303797" y="13.3857868" width="3" height="9.13705584"></rect>
            <rect id="Rectangle-3" fill-opacity="0.37" sketch:type="MSShapeGroup" transform="translate(4.735443, 18.045685) rotate(-270.000000) translate(-4.735443, -18.045685) " x="3.23544304" y="13.4771574" width="3" height="9.13705584"></rect>
            <rect id="Rectangle-4" fill-opacity="0.72" sketch:type="MSShapeGroup" transform="translate(29.758244, 24.676171) rotate(-240.000000) translate(-29.758244, -24.676171) " x="28.2582441" y="20.1076435" width="3" height="9.13705584"></rect>
            <rect id="Rectangle-3" fill-opacity="0.3" sketch:type="MSShapeGroup" transform="translate(6.507579, 11.323829) rotate(-240.000000) translate(-6.507579, -11.323829) " x="5.00757864" y="6.75530065" width="3" height="9.13705584"></rect>
            <rect id="Rectangle-4" fill-opacity="0.65" sketch:type="MSShapeGroup" transform="translate(24.871110, 29.609153) rotate(-210.000000) translate(-24.871110, -29.609153) " x="23.37111" y="25.0406255" width="3" height="9.13705584"></rect>
            <rect id="Rectangle-3" fill-opacity="0.23" sketch:type="MSShapeGroup" transform="translate(11.394713, 6.390847) rotate(-210.000000) translate(-11.394713, -6.390847) " x="9.89471277" y="1.82231869" width="3" height="9.13705584"></rect>
            <rect id="Rectangle-4" fill-opacity="0.51" sketch:type="MSShapeGroup" transform="translate(11.473642, 29.654839) rotate(-150.000000) translate(-11.473642, -29.654839) " x="9.97364166" y="25.0863108" width="3" height="9.13705584"></rect>
            <rect id="Rectangle-3" fill-opacity="0.93" sketch:type="MSShapeGroup" transform="translate(24.792181, 6.345161) rotate(-150.000000) translate(-24.792181, -6.345161) " x="23.2921811" y="1.77663341" width="3" height="9.13705584"></rect>
            <rect id="Rectangle-4" fill-opacity="0.44" sketch:type="MSShapeGroup" transform="translate(6.553148, 24.755301) rotate(-120.000000) translate(-6.553148, -24.755301) " x="5.05314826" y="20.1867727" width="3" height="9.13705584"></rect>
            <rect id="Rectangle-3" fill-opacity="0.86" sketch:type="MSShapeGroup" transform="translate(29.712675, 11.244699) rotate(-120.000000) translate(-29.712675, -11.244699) " x="28.2126745" y="6.67617143" width="3" height="9.13705584"></rect>
        </g>
    	<animateTransform attributeName="transform"
    		type="rotate"
    		from="0 18 18"
    		to="360 18 18"
    		begin="0s"
    		dur="0.85s"
    		repeatCount="indefinite"
    	/>
    </g>
    
    
    
    <path id="path5471-7" fill="none" stroke="#000" stroke-dasharray="none" stroke-dashoffset="0" stroke-linecap="round" stroke-linejoin="round" stroke-miterlimit="4" stroke-opacity="1" stroke-width="2.199" d="M29.863 16.06v11.36m-12.289-4.597v4.659m6.113-8.136v8.136"/><g id="g906" stroke="#000" stroke-dasharray="none" stroke-miterlimit="4" stroke-opacity="1" stroke-width="2.099" transform="matrix(.8875 0 0 .85675 80.916 -7.248)"><path id="path892" style="line-height:normal;font-variant-ligatures:normal;font-variant-position:normal;font-variant-caps:normal;font-variant-numeric:normal;font-variant-alternates:normal;font-variant-east-asian:normal;font-feature-settings:normal;font-variation-settings:normal;text-indent:0;text-align:start;text-decoration-line:none;text-decoration-style:solid;text-decoration-color:#000;text-transform:none;text-orientation:mixed;white-space:normal;shape-padding:0;shape-margin:0;inline-size:0;isolation:auto;mix-blend-mode:normal;solid-color:#000;solid-opacity:1" fill="none" fill-opacity="1" fill-rule="nonzero" stroke="#000" stroke-dasharray="none" stroke-dashoffset="0" stroke-linecap="round" stroke-linejoin="round" stroke-miterlimit="4" stroke-opacity="1" stroke-width="2.099" d="M-64.055 67.837c4.162-4.192 9.321-9.392 12.323-12.35 4.564-4.641 8.05-8.69 9.561-12.776a21.13 21.13 0 0 0 1.29-6.558c.006-.118.004-.236.012-.354.15-2.252-.037-4.243-.375-6.133-2.118-11.838-12.461-19.01-22.305-18.986-5.572.013-11.19 1.93-15.694 5.84-2.27 1.97-4.263 4.451-5.676 7.297-1.29 2.597-2.097 5.498-2.191 8.59-.114 3.699.104 8.489 2.24 12.778.424.853.924 1.685 1.513 2.486.437.595 1.457 1.84 1.939 2.434 1.971 2.432 3.713 4.197 6.009 6.545 3.27 3.343 6.492 6.816 11.354 11.187z" baseline-shift="baseline" clip-rule="nonzero" color="#000" color-interpolation="sRGB" color-interpolation-filters="linearRGB" color-rendering="auto" direction="ltr" display="inline" dominant-baseline="auto" font-family="sans-serif" font-size="medium" font-stretch="normal" font-style="normal" font-variant="normal" font-weight="400" image-rendering="auto" letter-spacing="normal" overflow="visible" paint-order="markers fill stroke" shape-rendering="auto" stop-color="#000" text-anchor="start" text-decoration="none" text-rendering="auto" vector-effect="none" visibility="visible" word-spacing="normal" writing-mode="lr-tb"/></g>
    
    
    
</svg>
