<svg xmlns="http://www.w3.org/2000/svg" width="45.616" height="51.639">



<path d="M33.535 35.115a.972.972 0 0 1-.257.659 13.915 13.915 0 0 1-10.237 4.508c-3.953 0-7.73-1.692-10.359-4.642a.977.977 0 0 1 1.458-1.3 11.933 11.933 0 0 0 8.901 3.99c3.336 0 6.543-1.413 8.797-3.875a.976.976 0 0 1 1.697.66zM33.532 17.7a.976.976 0 0 1-1.696.66 11.954 11.954 0 0 0-8.795-3.874 11.931 11.931 0 0 0-8.898 3.989.977.977 0 0 1-1.458-1.3 13.885 13.885 0 0 1 10.356-4.642 13.91 13.91 0 0 1 10.235 4.508.971.971 0 0 1 .256.66z">
<animate dur="2s" values="#ffffff; white; #d7d7d7; white" keyTimes="0; 0.5; 0.7; 1" attributeName="fill" repeatCount="indefinite"/></path>



<path d="M40.653 42.62c0 .25-.095.499-.285.69-4.685 4.696-10.92 7.282-17.553 7.282-6.7 0-12.978-2.63-17.676-7.405a.976.976 0 1 1 1.392-1.37c4.328 4.4 10.111 6.822 16.284 6.822a22.693 22.693 0 0 0 16.171-6.709.976.976 0 0 1 1.667.69zM40.653 9.454a.976.976 0 0 1-1.667.69 22.7 22.7 0 0 0-16.171-6.707c-6.173 0-11.956 2.423-16.284 6.822a.977.977 0 0 1-1.392-1.37c4.699-4.775 10.976-7.404 17.676-7.404 6.633 0 12.866 2.585 17.553 7.28.19.19.285.44.285.69z" fill="white">
<animate dur="3s" values="white; white; #d7d7d7; #ffffff" keyTimes="0; 0.5; 0.7; 1" attributeName="fill" repeatCount="indefinite"/>


</path>



<path d="M28.194 26.651a4.992 4.992 0 0 1-4.986 4.986 4.991 4.991 0 0 1-4.986-4.986 4.991 4.991 0 0 1 4.986-4.985 4.992 4.992 0 0 1 4.986 4.985zm-8.019 0a3.036 3.036 0 0 0 3.033 3.034 3.037 3.037 0 0 0 3.033-3.034 3.036 3.036 0 0 0-3.033-3.033 3.036 3.036 0 0 0-3.033 3.033z">
<animate dur="5s" values="#ffffff; white; #d7d7d7; white" keyTimes="0; 0.5; 0.7; 1" attributeName="fill" repeatCount="indefinite"/>




</path>



    <animateTransform
       dur="10s"
       begin="0s"

       type="rotate"
       
       
                   from="0 0 0"
            to="360 0 0"
            
            
       repeatCount="indefinite"
       attributeName="transform" />



</svg>

















<?xml version="1.0" encoding="UTF-8" standalone="no"?>
<svg
   xmlns:dc="http://purl.org/dc/elements/1.1/"
   xmlns:cc="http://creativecommons.org/ns#"
   xmlns:rdf="http://www.w3.org/1999/02/22-rdf-syntax-ns#"
   xmlns:svg="http://www.w3.org/2000/svg"
   xmlns="http://www.w3.org/2000/svg"
   xmlns:sodipodi="http://sodipodi.sourceforge.net/DTD/sodipodi-0.dtd"
   xmlns:inkscape="http://www.inkscape.org/namespaces/inkscape"
   viewBox="0 0 57.058 13.683"
   height="51.717"
   width="215.653"
   version="1.1"
   id="svg901"
   sodipodi:docname="sdk1.svg"
   inkscape:version="1.0 (4035a4fb49, 2020-05-01)">
  <metadata
     id="metadata907">
    <rdf:RDF>
      <cc:Work
         rdf:about="">
        <dc:format>image/svg+xml</dc:format>
        <dc:type
           rdf:resource="http://purl.org/dc/dcmitype/StillImage" />
        <dc:title />
      </cc:Work>
    </rdf:RDF>
  </metadata>
  <defs
     id="defs905" />
  <sodipodi:namedview
     inkscape:document-rotation="0"
     pagecolor="black"
     bordercolor="#666666"
     borderopacity="1"
     objecttolerance="10"
     gridtolerance="10"
     guidetolerance="10"
     inkscape:pageopacity="0"
     inkscape:pageshadow="2"
     inkscape:window-width="1920"
     inkscape:window-height="1046"
     id="namedview903"
     showgrid="false"
     inkscape:zoom="4.0855219"
     inkscape:cx="136.42371"
     inkscape:cy="8.7216142"
     inkscape:window-x="-11"
     inkscape:window-y="-11"
     inkscape:window-maximized="1"
     inkscape:current-layer="svg901" />
  <g
     style="fill:#ffffff;fill-opacity:1"
     stroke-width=".16"
     fill="#fff"
     id="g879">
    <path
       style="fill:#ffffff;fill-opacity:1"
       d="M49.779 7.354a.115.115 0 0 1-.115-.114 2.93 2.93 0 0 0-2.743-2.901.115.115 0 1 1 .014-.229 3.16 3.16 0 0 1 2.959 3.129.115.115 0 0 1-.114.116h-.001z"
       id="path873">
      <animate
         dur="5s"
         values="white; #4e86b1; #d7d7d7; white"
         keyTimes="0; 0.5; 0.7; 1"
         attributeName="fill"
         repeatCount="indefinite" />
         

         
    </path>
    
    
    

    
    
    
    <path
       style="fill:#ffffff;fill-opacity:1"
       d="M48.838 7.354a.115.115 0 0 1-.115-.114 1.975 1.975 0 0 0-1.806-1.958.115.115 0 1 1 .02-.229 2.204 2.204 0 0 1 2.015 2.185.115.115 0 0 1-.114.116z"
       id="path875">
      <animate
         dur="4s"
         values="white; #4e86b1; #d7d7d7; white"
         keyTimes="0; 0.5; 0.7; 1"
         attributeName="fill"
         repeatCount="indefinite" />
    </path>
    <path
       style="fill:#ffffff;fill-opacity:1"
       d="M47.948 7.354a.115.115 0 0 1-.115-.113 1.09 1.09 0 0 0-.923-1.064.115.115 0 0 1 .036-.227 1.32 1.32 0 0 1 1.117 1.287.115.115 0 0 1-.113.117z"
       id="path877">
      <animate
         dur="2s"
         values="white; #4e86b1; #d7d7d7; white"
         keyTimes="0; 0.5; 0.7; 1"
         attributeName="fill"
         repeatCount="indefinite" />
    </path>
  </g>
  
  <path
     style="fill:#ffffff;fill-opacity:1"
     d="M46.785 6.617a.568.568 0 0 0-.567.567.568.568 0 0 0 .567.567.568.568 0 0 0 .567-.567.568.568 0 0 0-.567-.567zm0 .214a.352.352 0 1 1-.353.353c0-.195.157-.352.352-.352z"
     font-family="sans-serif"
     fill="#fff"
     id="path881">
     
     
    <animate
       dur="3s"
       values="white; #4e86b1; #d7d7d7; white"
       keyTimes="0; 0.5; 0.7; 1"
       attributeName="fill"
       repeatCount="indefinite" />
  </path>
  <g
     style="fill:#ffffff;fill-opacity:1"
     stroke-width=".16"
     fill="#fff"
     id="g891">
    <path
       style="fill:#ffffff;fill-opacity:1"
       d="M43.635 7.088a.115.115 0 0 1 .114.115 2.93 2.93 0 0 0 2.731 2.912.115.115 0 1 1-.015.229 3.16 3.16 0 0 1-2.946-3.141.115.115 0 0 1 .115-.115z"
       id="path885">
      <animate
         dur="5s"
         values="white; #4e86b1; #d7d7d7; white"
         keyTimes="0; 0.5; 0.7; 1"
         attributeName="fill"
         repeatCount="indefinite" />
    </path>
    <path
       style="fill:#ffffff;fill-opacity:1"
       d="M44.575 7.092a.115.115 0 0 1 .114.114 1.975 1.975 0 0 0 1.798 1.965.115.115 0 1 1-.021.229 2.204 2.204 0 0 1-2.006-2.193.115.115 0 0 1 .114-.115z"
       id="path887">
      <animate
         dur="4s"
         values="white; #4e86b1; #d7d7d7; white"
         keyTimes="0; 0.5; 0.7; 1"
         attributeName="fill"
         repeatCount="indefinite" />
    </path>
    
    <path
       style="fill:#ffffff;fill-opacity:1"
       d="M45.465 7.096a.115.115 0 0 1 .114.114 1.09 1.09 0 0 0 .919 1.067.115.115 0 0 1-.036.227 1.32 1.32 0 0 1-1.112-1.291.115.115 0 0 1 .114-.116h.002z" >   
    </path>

    

    
    
  </g>
  <rect
     rx="2.328"
     ry="2.506"
     y="1.838"
     x="23.486"
     height="10.532"
     width="10.627"
     fill="none"
     stroke="black"
     stroke-width=".198"
     stroke-linejoin="round"
     stroke-dashoffset=".337"
     id="rect893"
     style="stroke-width:0.19799934;stroke-miterlimit:4;stroke-dasharray:none;stroke:#ffffff;stroke-opacity:1" />
  <rect
     style="stroke:#ffffff;stroke-width:0.197999;stroke-miterlimit:4;stroke-dasharray:none;stroke-opacity:1"
     id="rect893-6"
     stroke-dashoffset="0.337"
     stroke-linejoin="round"
     stroke-width=".198"
     stroke="black"
     fill="none"
     width="10.627"
     height="10.532"
     x="5.5495906"
     y="2.1064579"
     ry="2.506"
     rx="2.3280001" />
     
  
     
  <g
     style="font-size:17.6388px;line-height:1.25;font-family:sans-serif;stroke-width:0.264582;fill:#ffffff;fill-opacity:1"
     id="text944"
     aria-label="API">
    <path
       id="path848"
       style="font-style:normal;font-variant:normal;font-weight:normal;font-stretch:normal;font-size:2.82221px;font-family:Orbitron;-inkscape-font-specification:Orbitron;stroke-width:0.264582;fill:#ffffff;fill-opacity:1"
       d="m 8.8366677,4.7604167 h 1.3546613 q 0.14111,0 0.239887,0.098777 0.09878,0.098777 0.09878,0.2398878 V 6.792408 H 10.301395 V 6.0501667 H 8.7266015 V 6.792408 H 8.4980025 V 5.0990819 q 0,-0.1411105 0.098777,-0.2398878 0.098777,-0.098777 0.2398878,-0.098777 z M 8.7266015,5.8215677 H 10.301395 V 5.0990819 q 0,-0.045155 -0.03387,-0.0762 -0.03104,-0.033867 -0.0762,-0.033867 H 8.8366677 q -0.045155,0 -0.079022,0.033867 -0.031044,0.031044 -0.031044,0.0762 z" />
    <path
       id="path850"
       style="font-style:normal;font-variant:normal;font-weight:normal;font-stretch:normal;font-size:2.82221px;font-family:Orbitron;-inkscape-font-specification:Orbitron;stroke-width:0.264582;fill:#ffffff;fill-opacity:1"
       d="m 10.851549,4.7632389 h 1.693326 q 0.141111,0 0.239888,0.098777 0.09878,0.098777 0.09878,0.2398879 v 0.5954863 q 0,0.1411105 -0.09878,0.2398878 -0.09878,0.098777 -0.239888,0.098777 h -1.354661 q -0.0254,0 -0.110066,-0.011289 V 6.792408 h -0.228599 z m 1.803393,0.9341516 V 5.1019042 q 0,-0.045155 -0.03387,-0.0762 -0.03104,-0.033866 -0.0762,-0.033866 h -1.354661 q -0.04515,0 -0.07902,0.033866 -0.03105,0.031044 -0.03105,0.0762 v 0.5954863 q 0,0.045155 0.03105,0.0762 0.03387,0.031044 0.07902,0.031044 h 1.354661 q 0.04516,0 0.0762,-0.031044 0.03387,-0.031044 0.03387,-0.0762 z" />
    <path
       id="path852"
       style="font-style:normal;font-variant:normal;font-weight:normal;font-stretch:normal;font-size:2.82221px;font-family:Orbitron;-inkscape-font-specification:Orbitron;stroke-width:0.264582;fill:#ffffff;fill-opacity:1"
       d="M 13.086784,6.792408 V 4.7604167 h 0.228599 V 6.792408 Z" />
  </g>
  <g
     style="font-size:17.6388px;line-height:1.25;font-family:sans-serif;stroke-width:0.264582;fill:#ffffff;fill-opacity:1"
     id="text948"
     aria-label="SDK">
    <path
       id="path855"
       style="font-style:normal;font-variant:normal;font-weight:normal;font-stretch:normal;font-size:2.82221px;font-family:Orbitron;-inkscape-font-specification:Orbitron;stroke-width:0.264582;fill:#ffffff;fill-opacity:1"
       d="m 9.7775513,8.8591938 v 0.079022 h -0.228599 v -0.079022 q 0,-0.045155 -0.033867,-0.0762 -0.031044,-0.033867 -0.0762,-0.033867 H 8.0842253 q -0.045155,0 -0.079022,0.033867 -0.031044,0.031044 -0.031044,0.0762 v 0.4543758 q 0,0.045155 0.031044,0.0762 0.033867,0.031044 0.079022,0.031044 h 1.3546608 q 0.1411105,0 0.2398879,0.098777 0.098777,0.098777 0.098777,0.2398879 v 0.4543762 q 0,0.14111 -0.098777,0.239887 -0.098777,0.09878 -0.2398879,0.09878 H 8.0842253 q -0.1411105,0 -0.2398879,-0.09878 -0.098777,-0.09878 -0.098777,-0.239887 v -0.07902 h 0.228599 v 0.07902 q 0,0.04515 0.031044,0.07902 0.033867,0.03105 0.079022,0.03105 h 1.3546608 q 0.045155,0 0.0762,-0.03105 0.033867,-0.03387 0.033867,-0.07902 V 9.7594788 q 0,-0.045155 -0.033867,-0.0762 -0.031044,-0.031044 -0.0762,-0.031044 H 8.0842253 q -0.1411105,0 -0.2398879,-0.098777 -0.098777,-0.098777 -0.098777,-0.2398878 V 8.8591938 q 0,-0.1411105 0.098777,-0.2398879 0.098777,-0.098777 0.2398879,-0.098777 h 1.3546608 q 0.1411105,0 0.2398879,0.098777 0.098777,0.098777 0.098777,0.2398879 z" />
    <path
       id="path857"
       style="font-style:normal;font-variant:normal;font-weight:normal;font-stretch:normal;font-size:2.82221px;font-family:Orbitron;-inkscape-font-specification:Orbitron;stroke-width:0.264582;fill:#ffffff;fill-opacity:1"
       d="m 10.085922,8.5205285 h 1.693326 q 0.14111,0 0.239888,0.098777 0.09878,0.098777 0.09878,0.2398879 v 1.3546612 q 0,0.14111 -0.09878,0.239887 -0.09878,0.09878 -0.239888,0.09878 h -1.693326 z m 1.803392,1.6933265 V 8.8591938 q 0,-0.045155 -0.03387,-0.0762 -0.03104,-0.033867 -0.0762,-0.033867 h -1.354661 q -0.04516,0 -0.07902,0.033867 -0.03104,0.031044 -0.03104,0.0762 v 1.3546612 q 0,0.04515 0.03104,0.07902 0.03387,0.03105 0.07902,0.03105 h 1.354661 q 0.04515,0 0.0762,-0.03105 0.03387,-0.03387 0.03387,-0.07902 z" />
    <path
       id="path859"
       style="font-style:normal;font-variant:normal;font-weight:normal;font-stretch:normal;font-size:2.82221px;font-family:Orbitron;-inkscape-font-specification:Orbitron;stroke-width:0.264582;fill:#ffffff;fill-opacity:1"
       d="m 14.079305,8.5205285 h 0.29351 L 13.52333,9.5365242 14.375637,10.55252 H 14.079305 L 13.322953,9.6522348 H 12.6682 V 10.55252 H 12.436779 V 8.5205285 H 12.6682 v 0.9002851 h 0.654753 z" />
  </g>
  <rect
     style="stroke:black;stroke-width:0.197999;stroke-miterlimit:4;stroke-dasharray:none;stroke-opacity:1"
     id="rect893-1"
     stroke-dashoffset="0.337"
     stroke-linejoin="round"
     stroke-width=".198"
     stroke="#fff"
     fill="none"
     width="10.627"
     height="10.532"
     x="41.461472"
     y="1.8774756"
     ry="2.506"
     rx="2.3280001" />
  <g
     transform="translate(-1.8780688,16.060726)"
     style="font-size:24.2348px;line-height:1.25;font-family:sans-serif;stroke-width:0.363522;fill:#ffffff;fill-opacity:1"
     id="text864"
     aria-label="E">
    <path
       id="path866"
       style="font-style:normal;font-variant:normal;font-weight:normal;font-stretch:normal;font-size:7.27046px;font-family:Orbitron;-inkscape-font-specification:Orbitron;stroke-width:0.363522;fill:#ffffff;fill-opacity:1"
       d="m 33.125116,-11.32247 v 0.588907 h -4.187785 v 1.73037 h 3.366223 v 0.5961777 h -3.366223 v 1.7303695 h 4.187785 v 0.5889073 H 28.348424 V -11.32247 Z" />
       
       
      <path d="M57.552 217.745l-2.16 0.895c0.811 3.6 0.8 7.2 0 10.721l2.16 0.895c1.021 0.4 1.5 1.6 1.1 2.612l-1.53 3.7 c-0.423 1.021-1.593 1.506-2.613 1.082l-2.16-0.895c-1.924 3.061-4.519 5.655-7.58 7.58l0.895 2.2 c0.423 1.02-0.062 2.19-1.082 2.613l-3.695 1.531c-1.021 0.422-2.191-0.063-2.614-1.083l-0.895-2.16 c-3.508 0.801-7.12 0.821-10.719 0l-0.895 2.159c-0.423 1.021-1.593 1.506-2.613 1.083l-3.695-1.53 c-1.021-0.423-1.505-1.594-1.082-2.613l0.895-2.16c-3.062-1.924-5.656-4.519-7.581-7.58l-2.16 0.9 c-1.021 0.424-2.189-0.061-2.613-1.082l-1.53-3.695c-0.423-1.02 0.062-2.19 1.083-2.613l2.159-0.895 c-0.801-3.507-0.821-7.121 0-10.719l-2.159-0.895c-1.021-0.424-1.506-1.594-1.083-2.613l1.53-3.696 c0.423-1.021 1.594-1.505 2.613-1.083l2.161 0.896c1.924-3.062 4.519-5.655 7.58-7.579l-0.896-2.16 c-0.423-1.021 0.063-2.19 1.083-2.613l3.695-1.531c1.021-0.422 2.2 0.1 2.6 1.083l0.895 2.159c3.427-0.78 7.035-0.839 10.7 0 l0.895-2.16c0.422-1.02 1.593-1.504 2.612-1.082l3.695 1.531c1.021 0.4 1.5 1.6 1.1 2.613l-0.895 2.2 c3.061 1.9 5.7 4.5 7.6 7.579l2.161-0.896c1.021-0.422 2.2 0.1 2.6 1.083l1.531 3.7 C59.057 216.2 58.6 217.3 57.6 217.745z M46 224c0-7.721-6.28-14-14-14s-14 6.279-14 14c0 7.7 6.3 14 14 14 S46 231.7 46 224z">
        <animateTransform
            attributeName="transform"
            repeatCount="indefinite"
            type="rotate"
            from="00 32 224"
            to="-360 32 224"
            begin="0s" dur="20s"/>
    </path>     

       
       
  </g>
</svg>
