
<svg id="резерв" xmlns="http://www.w3.org/2000/svg" width="38" height="63" viewBox="0 0 43 63">
  <title>местоположение</title>

  
  

  
  
  
  
  
  
  
  
  
 
  <path
     style="fill:#ffffff;fill-opacity:1;stroke:#d2d2d2;stroke-width:3.02552;stroke-miterlimit:4;stroke-dasharray:none;stroke-opacity:1"
     id="path2"
     fill="#3d85c6"
     d="m 35.497546,17.78744 c 0.533915,8.542631 -5.339144,15.750476 -13.34786,17.263233 -0.266957,0.08899 -0.6229,0.266957 -0.800872,0.444929 l -1.8687,2.224643 c -0.266957,0.266958 -0.711886,0.266958 -0.978843,0 L 16.63257,35.495602 C 16.454599,35.228645 16.187642,35.139659 15.831699,35.050673 8.1789256,33.626901 2.4838385,26.863986 2.4838385,18.855269 2.4838385,9.3337955 10.492555,1.6810213 20.103014,2.3929072 28.289702,2.9268217 34.963632,9.5117665 35.497546,17.78744 Z"
     class="st0">
   
  </path>
  
  
  
  <circle cx="14.71" cy="14.52" r="3.5" style="fill: red">
  
  
 
       
              
  </circle>
  
  
  



  <circle cx="14.71" cy="14.52" r="1.9" style="fill: #3d85c6">
  
  
 
       
              
  </circle>
    








<path d="M21.58,13.64H19.65a.3.3,0,0,1-.29-.23,4.8,4.8,0,0,0-3.55-3.54.3.3,0,0,1-.23-.29V7.66a.31.31,0,0,1,.32-.3h0a7.26,7.26,0,0,1,6,5.94.31.31,0,0,1-.28.34Z" style="fill: #d2d2d2">


   
    
  </path>





  
  
  
  <path d="M21.94,15.67a7.3,7.3,0,0,1-6,6.05.31.31,0,0,1-.35-.3V19.48a.29.29,0,0,1,.23-.29,4.81,4.81,0,0,0,3.56-3.63.3.3,0,0,1,.29-.24h1.93A.31.31,0,0,1,21.94,15.67Z" style="fill: #d2d2d2"  >   

  </path>  
  
  
  <path d="M13.94,19.51v1.94a.31.31,0,0,1-.35.3,7.3,7.3,0,0,1-6.11-6.08.31.31,0,0,1,.3-.35H9.72a.29.29,0,0,1,.29.24,4.81,4.81,0,0,0,3.69,3.66A.29.29,0,0,1,13.94,19.51Z" style="fill:#d2d2d2" >   
    
    


  
  </path>  
  
  <path d="M13.94,7.59V9.53a.3.3,0,0,1-.24.29A4.8,4.8,0,0,0,10,13.41a.29.29,0,0,1-.29.23H7.8a.31.31,0,0,1-.3-.35,7.31,7.31,0,0,1,6.09-6A.31.31,0,0,1,13.94,7.59Z" style="fill: #d2d2d2" >   
  
  
  
 
    

  </path>  
  
  
  
  
  
  
  
  
  
  
  
  
  
  
  
  
  
  <path d="M25.28,13.64h-1.9a.29.29,0,0,1-.29-.26,8.46,8.46,0,0,0-7.25-7.24.29.29,0,0,1-.26-.29V4a.31.31,0,0,1,.32-.3h0a11,11,0,0,1,9.67,9.66.31.31,0,0,1-.29.33Z" style="fill: #3d85c6">
  
  
  
  <animateTransform
       dur="2s"
       begin="0s"
    		from="0 14.4 14.9"
    		to="360 14.8 14.4"
       type="rotate"
       repeatCount="indefinite"
       attributeName="transform" />
       
 
       
       
</path>   

  
  
  
  
  
  
  
  
   



 
<path d="M21.58,13.64H19.65a.3.3,0,0,1-.29-.23,4.8,4.8,0,0,0-3.55-3.54.3.3,0,0,1-.23-.29V7.66a.31.31,0,0,1,.32-.3h0a7.26,7.26,0,0,1,6,5.94.31.31,0,0,1-.28.34Z" style="fill: #3d85c6">


   <animateTransform
       dur="2s"
       begin="0s"
    		from="0 14.4 14.9"
    		to="360 14.8 14.4"
       type="rotate"
       repeatCount="indefinite"
       attributeName="transform" />
       
    
  </path>




  
 
  
  
  
 
       

       
  
</svg>




























