<?xml version="1.0" encoding="iso-8859-1"?>

<svg version="1.1" id="Layer_1" xmlns="http://www.w3.org/2000/svg" xmlns:xlink="http://www.w3.org/1999/xlink" x="0px" y="0px"
	 viewBox="0 0 50 60" style="enable-background:new 0 0 36 36;" xml:space="preserve">
     
     

  <path style="fill:none;stroke:#1D1D1B;stroke-width:5;stroke-linecap:round;stroke-linejoin:round;stroke-miterlimit:10;" d="
	M46.545,24.88c0,6.08-2.5,11.58-6.53,15.53l-0.035,0.037L24.795,55.33L9.598,40.433L9.585,40.42c-4.04-3.95-6.54-9.45-6.54-15.54
	c0-12.02,9.73-21.75,21.75-21.75C36.805,3.13,46.545,12.86,46.545,24.88z">  
    
  </path> 
  
  
  
  
    
<line style="fill:none;stroke:#1D1D1B;stroke-width:5;stroke-linecap:round;stroke-miterlimit:10;" x1="32.901" y1="17.545" x2="32.901" y2="32.41" >

     <animateTransform
       dur="5s"
       begin="0s"
    		from="0 18 18"
    		to="360 18 18"
       type="rotate"
       repeatCount="indefinite"
       attributeName="transform" />
       
       </line>     
  

<line style="fill:none;stroke:#1D1D1B;stroke-width:5;stroke-linecap:round;stroke-miterlimit:10;" x1="24.86" y1="21.845" x2="24.86" y2="32.41" >

    <animateTransform
       dur="5s"
       begin="0s"
    		from="0 18 18"
    		to="360 18 18"
       type="rotate"
       repeatCount="indefinite"
       attributeName="transform" />
       
       </line> 


<line style="fill:none;stroke:#1D1D1B;stroke-width:5;stroke-linecap:round;stroke-miterlimit:10;" x1="16.82" y1="26.125" x2="16.82" y2="32.41" >


    <animateTransform
       dur="5s"
       begin="0s"
    		from="0 18 18"
    		to="360 18 18"
       type="rotate"
       repeatCount="indefinite"
       attributeName="transform" />
       
       </line> 
       
       
       
       
       <path d="M33.535 35.115a.972.972 0 0 1-.257.659 13.915 13.915 0 0 1-10.237 4.508c-3.953 0-7.73-1.692-10.359-4.642a.977.977 0 0 1 1.458-1.3 11.933 11.933 0 0 0 8.901 3.99c3.336 0 6.543-1.413 8.797-3.875a.976.976 0 0 1 1.697.66zM33.532 17.7a.976.976 0 0 1-1.696.66 11.954 11.954 0 0 0-8.795-3.874 11.931 11.931 0 0 0-8.898 3.989.977.977 0 0 1-1.458-1.3 13.885 13.885 0 0 1 10.356-4.642 13.91 13.91 0 0 1 10.235 4.508.971.971 0 0 1 .256.66z">
<animate dur="2s" values="#ffffff; white; #d7d7d7; white" keyTimes="0; 0.5; 0.7; 1" attributeName="fill" repeatCount="indefinite"/>


    <animateTransform
       dur="5s"
       begin="0s"
    		from="0 18 18"
    		to="360 18 18"
       type="rotate"
       repeatCount="indefinite"
       attributeName="transform" />
       </path>



<path d="M40.653 42.62c0 .25-.095.499-.285.69-4.685 4.696-10.92 7.282-17.553 7.282-6.7 0-12.978-2.63-17.676-7.405a.976.976 0 1 1 1.392-1.37c4.328 4.4 10.111 6.822 16.284 6.822a22.693 22.693 0 0 0 16.171-6.709.976.976 0 0 1 1.667.69zM40.653 9.454a.976.976 0 0 1-1.667.69 22.7 22.7 0 0 0-16.171-6.707c-6.173 0-11.956 2.423-16.284 6.822a.977.977 0 0 1-1.392-1.37c4.699-4.775 10.976-7.404 17.676-7.404 6.633 0 12.866 2.585 17.553 7.28.19.19.285.44.285.69z" fill="white">
<animate dur="3s" values="white; white; #d7d7d7; #ffffff" keyTimes="0; 0.5; 0.7; 1" attributeName="fill" repeatCount="indefinite"/>

<animateTransform
       dur="5s"
       begin="0s"
    		from="0 18 18"
    		to="360 18 18"
       type="rotate"
       repeatCount="indefinite"
       attributeName="transform" />
       </path>



<path d="M28.194 26.651a4.992 4.992 0 0 1-4.986 4.986 4.991 4.991 0 0 1-4.986-4.986 4.991 4.991 0 0 1 4.986-4.985 4.992 4.992 0 0 1 4.986 4.985zm-8.019 0a3.036 3.036 0 0 0 3.033 3.034 3.037 3.037 0 0 0 3.033-3.034 3.036 3.036 0 0 0-3.033-3.033 3.036 3.036 0 0 0-3.033 3.033z">
<animate dur="5s" values="#ffffff; white; #d7d7d7; white" keyTimes="0; 0.5; 0.7; 1" attributeName="fill" repeatCount="indefinite"/>

    <animateTransform
       dur="5s"
       begin="0s"
    		from="0 18 18"
    		to="360 18 18"
       type="rotate"
       repeatCount="indefinite"
       attributeName="transform" />
       </path>


       
       
       
       
       
</svg>
