

<svg width="128px" height="128px" viewBox="0 0 128 128" version="1.1" >
     
     


    <path style="fill:none;stroke:#1D1D1B;stroke-width:5;stroke-linecap:round;stroke-linejoin:round;stroke-miterlimit:10;" d="
	M46.545,24.88c0,6.08-2.5,11.58-6.53,15.53l-0.035,0.037L24.795,55.33L9.598,40.433L9.585,40.42c-4.04-3.95-6.54-9.45-6.54-15.54
	c0-12.02,9.73-21.75,21.75-21.75C36.805,3.13,46.545,12.86,46.545,24.88z">  
    
  </path> 
  


  
  
  





<g><linearGradient id="linear-gradient"><stop offset="0%" stop-color="#000"/><stop offset="100%" stop-color="#fff"/>



</linearGradient><path fill="url(#linear-gradient)" fill-opacity="0.5" d="M65.128,64.894l0.025,60.968a61.781,61.781,0,0,1-32.011-8.315q-0.705-.406-1.4-0.83L62.531,63.4Z"/>



<animateTransform attributeName="transform" type="rotate" from="0 64 64" to="360 64 64" dur="3s" repeatCount="indefinite"></animateTransform><path fill="white" d="M62.531,63.4l2.6,1.5L34.257,118.374l-2.6-1.5Z"/>




</g><circle fill="#000" cx="55.641" cy="97.563" r="6.047">
<animate attributeName="opacity" dur="1s" begin="0s" repeatCount="indefinite" keyTimes="0;1" values="1;0"/>


</circle>




       
</svg>
