<svg width="46px" height="46px" viewBox="0 0 60 60
" version="1.1">

    
    

    
    
    
    <g id="Page-1" stroke="none" stroke-width="1" fill="none" fill-rule="evenodd" sketch:type="MSPage">
    
    
    
        <g id="Group-3" sketch:type="MSLayerGroup" fill="#4990E2">
            <rect id="Rectangle-1" sketch:type="MSShapeGroup" x="16.5873418" y="0" width="3" height="9.13705584"></rect>
            
            
            <rect id="Rectangle-2" fill-opacity="0.58" sketch:type="MSShapeGroup" x="16.678481" y="26.8629442" width="3" height="9.13705584"></rect>
            
            
            <rect id="Rectangle-4" fill-opacity="0.79" sketch:type="MSShapeGroup" transform="translate(31.530380, 17.954315) rotate(-270.000000) translate(-31.530380, -17.954315) " x="30.0303797" y="13.3857868" width="3" height="9.13705584"></rect>
            
           
            <rect id="Rectangle-3" fill-opacity="0.37" sketch:type="MSShapeGroup" transform="translate(4.735443, 18.045685) rotate(-270.000000) translate(-4.735443, -18.045685) " x="3.23544304" y="13.4771574" width="3" height="9.13705584"></rect>
            <rect id="Rectangle-4" fill-opacity="0.72" sketch:type="MSShapeGroup" transform="translate(29.758244, 24.676171) rotate(-240.000000) translate(-29.758244, -24.676171) " x="28.2582441" y="20.1076435" width="3" height="9.13705584"></rect>
            <rect id="Rectangle-3" fill-opacity="0.3" sketch:type="MSShapeGroup" transform="translate(6.507579, 11.323829) rotate(-240.000000) translate(-6.507579, -11.323829) " x="5.00757864" y="6.75530065" width="3" height="9.13705584"></rect>
            <rect id="Rectangle-4" fill-opacity="0.65" sketch:type="MSShapeGroup" transform="translate(24.871110, 29.609153) rotate(-210.000000) translate(-24.871110, -29.609153) " x="23.37111" y="25.0406255" width="3" height="9.13705584"></rect>
            <rect id="Rectangle-3" fill-opacity="0.23" sketch:type="MSShapeGroup" transform="translate(11.394713, 6.390847) rotate(-210.000000) translate(-11.394713, -6.390847) " x="9.89471277" y="1.82231869" width="3" height="9.13705584"></rect>
            <rect id="Rectangle-4" fill-opacity="0.51" sketch:type="MSShapeGroup" transform="translate(11.473642, 29.654839) rotate(-150.000000) translate(-11.473642, -29.654839) " x="9.97364166" y="25.0863108" width="3" height="9.13705584"></rect>
            <rect id="Rectangle-3" fill-opacity="0.93" sketch:type="MSShapeGroup" transform="translate(24.792181, 6.345161) rotate(-150.000000) translate(-24.792181, -6.345161) " x="23.2921811" y="1.77663341" width="3" height="9.13705584"></rect>
            <rect id="Rectangle-4" fill-opacity="0.44" sketch:type="MSShapeGroup" transform="translate(6.553148, 24.755301) rotate(-120.000000) translate(-6.553148, -24.755301) " x="5.05314826" y="20.1867727" width="3" height="9.13705584"></rect>
            <rect id="Rectangle-3" fill-opacity="0.86" sketch:type="MSShapeGroup" transform="translate(29.712675, 11.244699) rotate(-120.000000) translate(-29.712675, -11.244699) " x="28.2126745" y="6.67617143" width="3" height="9.13705584"></rect>
        </g>
    	<animateTransform attributeName="transform"
    		type="rotate"
    		from="0 18 18"
    		to="360 18 18"
    		begin="0s"
    		dur="0.85s"
    		repeatCount="indefinite"
    	/>
    </g>
    
    
    
    
      <g
     transform="matrix(0.88749905,0,0,0.85674568,80.916334,-7.2475878)"
     style="stroke:#000000;stroke-width:2.09938707;stroke-miterlimit:4;stroke-dasharray:none;stroke-opacity:1"
     id="g906">
    <path
       sodipodi:nodetypes="ccsssssssssssscc"
       id="path892"
       style="color:#000000;font-style:normal;font-variant:normal;font-weight:normal;font-stretch:normal;font-size:medium;line-height:normal;font-family:sans-serif;font-variant-ligatures:normal;font-variant-position:normal;font-variant-caps:normal;font-variant-numeric:normal;font-variant-alternates:normal;font-variant-east-asian:normal;font-feature-settings:normal;font-variation-settings:normal;text-indent:0;text-align:start;text-decoration:none;text-decoration-line:none;text-decoration-style:solid;text-decoration-color:#000000;letter-spacing:normal;word-spacing:normal;text-transform:none;writing-mode:lr-tb;direction:ltr;text-orientation:mixed;dominant-baseline:auto;baseline-shift:baseline;text-anchor:start;white-space:normal;shape-padding:0;shape-margin:0;inline-size:0;clip-rule:nonzero;display:inline;overflow:visible;visibility:visible;isolation:auto;mix-blend-mode:normal;color-interpolation:sRGB;color-interpolation-filters:linearRGB;solid-color:#000000;solid-opacity:1;vector-effect:none;fill:none;fill-opacity:1;fill-rule:nonzero;stroke:#000000;stroke-width:2.09938707;stroke-linecap:round;stroke-linejoin:round;stroke-miterlimit:4;stroke-dasharray:none;stroke-dashoffset:0;stroke-opacity:1;paint-order:markers fill stroke;color-rendering:auto;image-rendering:auto;shape-rendering:auto;text-rendering:auto;enable-background:accumulate;stop-color:#000000"
       d="m -64.055251,67.837213 c 4.162715,-4.191748 9.32138,-9.391833 12.323425,-12.349454 4.563925,-4.642106 8.049215,-8.691281 9.56125,-12.776677 0.82766,-2.236271 1.206655,-4.431572 1.290495,-6.557793 0.005,-0.11823 0.003,-0.236483 0.0112,-0.35404 0.14969,-2.252505 -0.0367,-4.242811 -0.374895,-6.133147 -2.118245,-11.838393 -12.461305,-19.009346 -22.30523,-18.986119 -5.57198,0.01314 -11.190295,1.930542 -15.69425,5.839115 -2.270275,1.970161 -4.26285,4.451871 -5.675875,7.297811 -1.289595,2.597344 -2.096499,5.498064 -2.191175,8.590174 -0.11325,3.698729 0.103998,8.488595 2.239744,12.777949 0.42451,0.852572 0.924816,1.68537 1.513386,2.485895 0.437594,0.595179 1.457415,1.840209 1.939066,2.434279 1.971216,2.431307 3.71307,4.196941 6.009159,6.544863 3.269187,3.342987 6.491565,6.816125 11.35362,11.187144 z" />
  </g>
    
    
    
</svg>
