<?xml version="1.0" encoding="UTF-8" standalone="no"?>
<svg
   xmlns:dc="http://purl.org/dc/elements/1.1/"
   xmlns:cc="http://creativecommons.org/ns#"
   xmlns:rdf="http://www.w3.org/1999/02/22-rdf-syntax-ns#"
   xmlns:svg="http://www.w3.org/2000/svg"
   xmlns="http://www.w3.org/2000/svg"
   xmlns:sodipodi="http://sodipodi.sourceforge.net/DTD/sodipodi-0.dtd"
   xmlns:inkscape="http://www.inkscape.org/namespaces/inkscape"
   inkscape:version="1.0 (4035a4fb49, 2020-05-01)"
   sodipodi:docname="wifi3.1.svg"
   id="svg8"
   version="1.1"
   height="46.625866"
   width="148.02524">
  <metadata
     id="metadata14">
    <rdf:RDF>
      <cc:Work
         rdf:about="">
        <dc:format>image/svg+xml</dc:format>
        <dc:type
           rdf:resource="http://purl.org/dc/dcmitype/StillImage" />
        <dc:title></dc:title>
      </cc:Work>
    </rdf:RDF>
  </metadata>
  <defs
     id="defs12" />
  <sodipodi:namedview
     inkscape:current-layer="svg8"
     inkscape:window-maximized="1"
     inkscape:window-y="-11"
     inkscape:window-x="-11"
     inkscape:cy="108.34913"
     inkscape:cx="193.77443"
     inkscape:zoom="2.9440531"
     fit-margin-bottom="0"
     fit-margin-right="0"
     fit-margin-left="0"
     fit-margin-top="0"
     showgrid="false"
     id="namedview10"
     inkscape:window-height="1046"
     inkscape:window-width="1920"
     inkscape:pageshadow="2"
     inkscape:pageopacity="0"
     guidetolerance="10"
     gridtolerance="10"
     objecttolerance="10"
     borderopacity="1"
     bordercolor="#666666"
     pagecolor="#ffffff" />
  <animateTransform
     attributeName="transform"
     repeatCount="indefinite"
     type="rotate"
     from="000 0 0"
     to="+360 0 0"
     begin="0s"
     dur="10s" />
  <rect
     rx="10.116035"
     ry="10.889511"
     y="0.43019"
     x="68.398125"
     height="45.765488"
     width="46.178303"
     fill="none"
     stroke="#fff"
     stroke-width=".198"
     stroke-linejoin="round"
     stroke-dashoffset="0.337"
     id="rect893"
     style="stroke:#000000;stroke-width:0.86038;stroke-miterlimit:4;stroke-dasharray:none;stroke-opacity:1" />
  <g
     transform="matrix(4.3453752,0,0,4.3453752,-33.657366,-7.556633)"
     style="font-size:17.6388px;line-height:1.25;font-family:sans-serif;fill:#000000;fill-opacity:1;stroke:none;stroke-width:0.264582;stroke-opacity:1"
     id="text944"
     aria-label="API">
    <path
       id="path848"
       style="font-style:normal;font-variant:normal;font-weight:normal;font-stretch:normal;font-size:2.82221px;font-family:Orbitron;-inkscape-font-specification:Orbitron;fill:#000000;fill-opacity:1;stroke:none;stroke-width:0.264582;stroke-opacity:1"
       d="m 8.8366677,4.7604167 h 1.3546613 q 0.14111,0 0.239887,0.098777 0.09878,0.098777 0.09878,0.2398878 V 6.792408 H 10.301395 V 6.0501667 H 8.7266015 V 6.792408 H 8.4980025 V 5.0990819 q 0,-0.1411105 0.098777,-0.2398878 0.098777,-0.098777 0.2398882,-0.098777 z M 8.7266015,5.8215677 H 10.301395 V 5.0990819 q 0,-0.045155 -0.03387,-0.0762 -0.03104,-0.033867 -0.0762,-0.033867 H 8.8366677 q -0.045155,0 -0.079022,0.033867 -0.031044,0.031044 -0.031044,0.0762 z" />
    <path
       id="path850"
       style="font-style:normal;font-variant:normal;font-weight:normal;font-stretch:normal;font-size:2.82221px;font-family:Orbitron;-inkscape-font-specification:Orbitron;fill:#000000;fill-opacity:1;stroke:none;stroke-width:0.264582;stroke-opacity:1"
       d="m 10.851549,4.7632389 h 1.693326 q 0.141111,0 0.239888,0.098777 0.09878,0.098777 0.09878,0.2398879 v 0.5954863 q 0,0.1411105 -0.09878,0.2398878 -0.09878,0.098777 -0.239888,0.098777 h -1.354661 q -0.0254,0 -0.110066,-0.011289 V 6.792408 h -0.228599 z m 1.803393,0.9341516 V 5.1019042 q 0,-0.045155 -0.03387,-0.0762 -0.03104,-0.033866 -0.0762,-0.033866 h -1.354661 q -0.04515,0 -0.07902,0.033866 -0.03105,0.031044 -0.03105,0.0762 v 0.5954863 q 0,0.045155 0.03105,0.0762 0.03387,0.031044 0.07902,0.031044 h 1.354661 q 0.04516,0 0.0762,-0.031044 0.03387,-0.031044 0.03387,-0.0762 z" />
    <path
       id="path852"
       style="font-style:normal;font-variant:normal;font-weight:normal;font-stretch:normal;font-size:2.82221px;font-family:Orbitron;-inkscape-font-specification:Orbitron;fill:#000000;fill-opacity:1;stroke:none;stroke-width:0.264582;stroke-opacity:1"
       d="M 13.086784,6.792408 V 4.7604167 h 0.228599 V 6.792408 Z" />
  </g>
  <g
     transform="matrix(4.3453752,0,0,4.3453752,-33.657366,-7.556633)"
     style="font-size:17.6388px;line-height:1.25;font-family:sans-serif;fill:#000000;fill-opacity:1;stroke:none;stroke-width:0.264582;stroke-opacity:1"
     id="text948"
     aria-label="SDK">
    <path
       id="path855"
       style="font-style:normal;font-variant:normal;font-weight:normal;font-stretch:normal;font-size:2.82221px;font-family:Orbitron;-inkscape-font-specification:Orbitron;fill:#000000;fill-opacity:1;stroke:none;stroke-width:0.264582;stroke-opacity:1"
       d="m 9.7775513,8.8591938 v 0.079022 h -0.228599 v -0.079022 q 0,-0.045155 -0.033867,-0.0762 -0.031044,-0.033867 -0.0762,-0.033867 h -1.35466 q -0.045155,0 -0.079022,0.033867 -0.031044,0.031044 -0.031044,0.0762 v 0.4543758 q 0,0.045155 0.031044,0.0762 0.033867,0.031044 0.079022,0.031044 h 1.3546608 q 0.1411105,0 0.2398879,0.098777 0.098777,0.098777 0.098777,0.2398879 v 0.4543765 q 0,0.14111 -0.098777,0.239887 -0.098777,0.09878 -0.2398879,0.09878 H 8.0842253 q -0.1411105,0 -0.2398879,-0.09878 -0.098777,-0.09878 -0.098777,-0.239887 v -0.07902 h 0.228599 v 0.07902 q 0,0.04515 0.031044,0.07902 0.033867,0.03105 0.079022,0.03105 h 1.3546608 q 0.045155,0 0.0762,-0.03105 0.033867,-0.03387 0.033867,-0.07902 V 9.7594788 q 0,-0.045155 -0.033867,-0.0762 -0.031044,-0.031044 -0.0762,-0.031044 H 8.0842253 q -0.1411105,0 -0.2398879,-0.098777 Q 7.7455604,9.4546808 7.7455604,9.31357 V 8.8591938 q 0,-0.1411105 0.098777,-0.2398879 0.098777,-0.098777 0.2398879,-0.098777 h 1.3546608 q 0.1411105,0 0.2398879,0.098777 0.098777,0.098777 0.098777,0.2398879 z" />
    <path
       id="path857"
       style="font-style:normal;font-variant:normal;font-weight:normal;font-stretch:normal;font-size:2.82221px;font-family:Orbitron;-inkscape-font-specification:Orbitron;fill:#000000;fill-opacity:1;stroke:none;stroke-width:0.264582;stroke-opacity:1"
       d="m 10.085922,8.5205285 h 1.693326 q 0.14111,0 0.239888,0.098777 0.09878,0.098777 0.09878,0.2398879 v 1.3546616 q 0,0.14111 -0.09878,0.239887 -0.09878,0.09878 -0.239888,0.09878 h -1.693326 z m 1.803392,1.6933265 V 8.8591938 q 0,-0.045155 -0.03387,-0.0762 -0.03104,-0.033867 -0.0762,-0.033867 h -1.354661 q -0.04516,0 -0.07902,0.033867 -0.03104,0.031044 -0.03104,0.0762 v 1.3546612 q 0,0.04515 0.03104,0.07902 0.03387,0.03105 0.07902,0.03105 h 1.354661 q 0.04515,0 0.0762,-0.03105 0.03387,-0.03387 0.03387,-0.07902 z" />
    <path
       id="path859"
       style="font-style:normal;font-variant:normal;font-weight:normal;font-stretch:normal;font-size:2.82221px;font-family:Orbitron;-inkscape-font-specification:Orbitron;fill:#000000;fill-opacity:1;stroke:none;stroke-width:0.264582;stroke-opacity:1"
       d="m 14.079305,8.5205285 h 0.29351 L 13.52333,9.5365242 14.375637,10.55252 H 14.079305 L 13.322953,9.6522348 H 12.6682 V 10.55252 H 12.436779 V 8.5205285 H 12.6682 v 0.9002851 h 0.654753 z" />
  </g>
  <g
     transform="matrix(4.3453752,0,0,4.3453752,-41.818286,62.233257)"
     style="font-size:24.2348px;line-height:1.25;font-family:sans-serif;fill:#000000;fill-opacity:1;stroke:none;stroke-width:0.363522;stroke-opacity:1"
     id="text864"
     aria-label="E">
    <path
       id="path866"
       style="font-style:normal;font-variant:normal;font-weight:normal;font-stretch:normal;font-size:7.27046px;font-family:Orbitron;-inkscape-font-specification:Orbitron;fill:#000000;fill-opacity:1;stroke:none;stroke-width:0.363522;stroke-opacity:1"
       d="m 33.125116,-11.32247 v 0.588907 h -4.187785 v 1.73037 h 3.366223 v 0.5961777 h -3.366223 v 1.7303695 h 4.187785 v 0.5889073 H 28.348424 V -11.32247 Z" />
  </g>
  <g
     style="font-style:normal;font-variant:normal;font-weight:normal;font-stretch:normal;font-size:6.13181px;line-height:1.25;font-family:Montserrat;-inkscape-font-specification:Montserrat;stroke-width:1.14971"
     id="text853"
     aria-label="010100110">
    <path
       id="path1099"
       style="font-style:normal;font-variant:normal;font-weight:normal;font-stretch:normal;font-family:Montserrat;-inkscape-font-specification:Montserrat;stroke-width:1.14971"
       d="m 36.755074,27.092789 q -0.496677,0 -0.889113,-0.263668 -0.386304,-0.263668 -0.607049,-0.754213 -0.214613,-0.496676 -0.214613,-1.165044 0,-0.668367 0.214613,-1.158912 0.220745,-0.496676 0.607049,-0.760344 0.392436,-0.263668 0.889113,-0.263668 0.496677,0 0.882981,0.263668 0.392435,0.263668 0.613181,0.760344 0.220745,0.490545 0.220745,1.158912 0,0.668368 -0.220745,1.165044 -0.220746,0.490545 -0.613181,0.754213 -0.386304,0.263668 -0.882981,0.263668 z m 0,-0.4047 q 0.37404,0 0.656104,-0.208481 0.288195,-0.208482 0.447622,-0.60705 0.159427,-0.398567 0.159427,-0.962694 0,-0.564126 -0.159427,-0.962694 -0.159427,-0.398568 -0.447622,-0.607049 -0.282064,-0.208482 -0.656104,-0.208482 -0.37404,0 -0.662236,0.208482 -0.282063,0.208481 -0.44149,0.607049 -0.159427,0.398568 -0.159427,0.962694 0,0.564127 0.159427,0.962694 0.159427,0.398568 0.44149,0.60705 0.288196,0.208481 0.662236,0.208481 z" />
    <path
       id="path1101"
       style="font-style:normal;font-variant:normal;font-weight:normal;font-stretch:normal;font-family:Montserrat;-inkscape-font-specification:Montserrat;stroke-width:1.14971"
       d="m 40.281823,22.763731 v 4.292267 h -0.441491 v -3.899831 h -1.011748 v -0.392436 z" />
    <path
       id="path1103"
       style="font-style:normal;font-variant:normal;font-weight:normal;font-stretch:normal;font-family:Montserrat;-inkscape-font-specification:Montserrat;stroke-width:1.14971"
       d="m 43.018622,27.092789 q -0.496677,0 -0.889113,-0.263668 -0.386304,-0.263668 -0.607049,-0.754213 -0.214613,-0.496676 -0.214613,-1.165044 0,-0.668367 0.214613,-1.158912 0.220745,-0.496676 0.607049,-0.760344 0.392436,-0.263668 0.889113,-0.263668 0.496676,0 0.882981,0.263668 0.392435,0.263668 0.613181,0.760344 0.220745,0.490545 0.220745,1.158912 0,0.668368 -0.220745,1.165044 -0.220746,0.490545 -0.613181,0.754213 -0.386305,0.263668 -0.882981,0.263668 z m 0,-0.4047 q 0.37404,0 0.656104,-0.208481 0.288195,-0.208482 0.447622,-0.60705 0.159427,-0.398567 0.159427,-0.962694 0,-0.564126 -0.159427,-0.962694 -0.159427,-0.398568 -0.447622,-0.607049 -0.282064,-0.208482 -0.656104,-0.208482 -0.374041,0 -0.662236,0.208482 -0.282063,0.208481 -0.44149,0.607049 -0.159427,0.398568 -0.159427,0.962694 0,0.564127 0.159427,0.962694 0.159427,0.398568 0.44149,0.60705 0.288195,0.208481 0.662236,0.208481 z" />
    <path
       id="path1105"
       style="font-style:normal;font-variant:normal;font-weight:normal;font-stretch:normal;font-family:Montserrat;-inkscape-font-specification:Montserrat;stroke-width:1.14971"
       d="m 46.545371,22.763731 v 4.292267 H 46.10388 v -3.899831 h -1.011748 v -0.392436 z" />
    <path
       id="path1107"
       style="font-style:normal;font-variant:normal;font-weight:normal;font-stretch:normal;font-family:Montserrat;-inkscape-font-specification:Montserrat;stroke-width:1.14971"
       d="m 49.28217,27.092789 q -0.496677,0 -0.889113,-0.263668 -0.386304,-0.263668 -0.607049,-0.754213 -0.214613,-0.496676 -0.214613,-1.165044 0,-0.668367 0.214613,-1.158912 0.220745,-0.496676 0.607049,-0.760344 0.392436,-0.263668 0.889113,-0.263668 0.496676,0 0.88298,0.263668 0.392436,0.263668 0.613181,0.760344 0.220746,0.490545 0.220746,1.158912 0,0.668368 -0.220746,1.165044 -0.220745,0.490545 -0.613181,0.754213 -0.386304,0.263668 -0.88298,0.263668 z m 0,-0.4047 q 0.37404,0 0.656103,-0.208481 0.288196,-0.208482 0.447623,-0.60705 0.159427,-0.398567 0.159427,-0.962694 0,-0.564126 -0.159427,-0.962694 -0.159427,-0.398568 -0.447623,-0.607049 -0.282063,-0.208482 -0.656103,-0.208482 -0.374041,0 -0.662236,0.208482 -0.282063,0.208481 -0.44149,0.607049 -0.159427,0.398568 -0.159427,0.962694 0,0.564127 0.159427,0.962694 0.159427,0.398568 0.44149,0.60705 0.288195,0.208481 0.662236,0.208481 z" />
    <path
       id="path1109"
       style="font-style:normal;font-variant:normal;font-weight:normal;font-stretch:normal;font-family:Montserrat;-inkscape-font-specification:Montserrat;stroke-width:1.14971"
       d="m 53.342099,27.092789 q -0.496677,0 -0.889113,-0.263668 -0.386304,-0.263668 -0.607049,-0.754213 -0.214613,-0.496676 -0.214613,-1.165044 0,-0.668367 0.214613,-1.158912 0.220745,-0.496676 0.607049,-0.760344 0.392436,-0.263668 0.889113,-0.263668 0.496676,0 0.88298,0.263668 0.392436,0.263668 0.613181,0.760344 0.220746,0.490545 0.220746,1.158912 0,0.668368 -0.220746,1.165044 -0.220745,0.490545 -0.613181,0.754213 -0.386304,0.263668 -0.88298,0.263668 z m 0,-0.4047 q 0.37404,0 0.656103,-0.208481 0.288195,-0.208482 0.447622,-0.60705 0.159428,-0.398567 0.159428,-0.962694 0,-0.564126 -0.159428,-0.962694 -0.159427,-0.398568 -0.447622,-0.607049 -0.282063,-0.208482 -0.656103,-0.208482 -0.374041,0 -0.662236,0.208482 -0.282063,0.208481 -0.44149,0.607049 -0.159427,0.398568 -0.159427,0.962694 0,0.564127 0.159427,0.962694 0.159427,0.398568 0.44149,0.60705 0.288195,0.208481 0.662236,0.208481 z" />
    <path
       id="path1111"
       style="font-style:normal;font-variant:normal;font-weight:normal;font-stretch:normal;font-family:Montserrat;-inkscape-font-specification:Montserrat;stroke-width:1.14971"
       d="m 56.868847,22.763731 v 4.292267 h -0.44149 v -3.899831 h -1.011749 v -0.392436 z" />
    <path
       id="path1113"
       style="font-style:normal;font-variant:normal;font-weight:normal;font-stretch:normal;font-family:Montserrat;-inkscape-font-specification:Montserrat;stroke-width:1.14971"
       d="m 59.084443,22.763731 v 4.292267 h -0.441491 v -3.899831 h -1.011748 v -0.392436 z" />
    <path
       id="path1115"
       style="font-style:normal;font-variant:normal;font-weight:normal;font-stretch:normal;font-family:Montserrat;-inkscape-font-specification:Montserrat;stroke-width:1.14971"
       d="m 61.821244,27.092789 q -0.496677,0 -0.889113,-0.263668 -0.386304,-0.263668 -0.607049,-0.754213 -0.214613,-0.496676 -0.214613,-1.165044 0,-0.668367 0.214613,-1.158912 0.220745,-0.496676 0.607049,-0.760344 0.392436,-0.263668 0.889113,-0.263668 0.496676,0 0.88298,0.263668 0.392436,0.263668 0.613181,0.760344 0.220746,0.490545 0.220746,1.158912 0,0.668368 -0.220746,1.165044 -0.220745,0.490545 -0.613181,0.754213 -0.386304,0.263668 -0.88298,0.263668 z m 0,-0.4047 q 0.37404,0 0.656103,-0.208481 0.288195,-0.208482 0.447623,-0.60705 0.159427,-0.398567 0.159427,-0.962694 0,-0.564126 -0.159427,-0.962694 -0.159428,-0.398568 -0.447623,-0.607049 -0.282063,-0.208482 -0.656103,-0.208482 -0.374041,0 -0.662236,0.208482 -0.282063,0.208481 -0.44149,0.607049 -0.159427,0.398568 -0.159427,0.962694 0,0.564127 0.159427,0.962694 0.159427,0.398568 0.44149,0.60705 0.288195,0.208481 0.662236,0.208481 z" />
  </g>
  <g
     style="font-style:normal;font-variant:normal;font-weight:normal;font-stretch:normal;font-size:6.13181px;line-height:1.25;font-family:Montserrat;-inkscape-font-specification:Montserrat;stroke-width:1.14971"
     id="text853-4"
     aria-label="010100110">
    <path
       id="path1118"
       style="font-style:normal;font-variant:normal;font-weight:normal;font-stretch:normal;font-family:Montserrat;-inkscape-font-specification:Montserrat;stroke-width:1.14971"
       d="m 121.24216,27.080231 q -0.49668,0 -0.88911,-0.263668 -0.38631,-0.263668 -0.60705,-0.754213 -0.21461,-0.496676 -0.21461,-1.165044 0,-0.668367 0.21461,-1.158912 0.22074,-0.496676 0.60705,-0.760344 0.39243,-0.263668 0.88911,-0.263668 0.49668,0 0.88298,0.263668 0.39244,0.263668 0.61318,0.760344 0.22075,0.490545 0.22075,1.158912 0,0.668368 -0.22075,1.165044 -0.22074,0.490545 -0.61318,0.754213 -0.3863,0.263668 -0.88298,0.263668 z m 0,-0.4047 q 0.37404,0 0.6561,-0.208481 0.2882,-0.208482 0.44763,-0.60705 0.15942,-0.398567 0.15942,-0.962694 0,-0.564126 -0.15942,-0.962694 -0.15943,-0.398568 -0.44763,-0.607049 -0.28206,-0.208482 -0.6561,-0.208482 -0.37404,0 -0.66223,0.208482 -0.28207,0.208481 -0.44149,0.607049 -0.15943,0.398568 -0.15943,0.962694 0,0.564127 0.15943,0.962694 0.15942,0.398568 0.44149,0.60705 0.28819,0.208481 0.66223,0.208481 z" />
    <path
       id="path1120"
       style="font-style:normal;font-variant:normal;font-weight:normal;font-stretch:normal;font-family:Montserrat;-inkscape-font-specification:Montserrat;stroke-width:1.14971"
       d="m 124.76891,22.751173 v 4.292267 h -0.44149 v -3.899831 h -1.01175 v -0.392436 z" />
    <path
       id="path1122"
       style="font-style:normal;font-variant:normal;font-weight:normal;font-stretch:normal;font-family:Montserrat;-inkscape-font-specification:Montserrat;stroke-width:1.14971"
       d="m 127.50571,27.080231 q -0.49668,0 -0.88911,-0.263668 -0.38631,-0.263668 -0.60705,-0.754213 -0.21462,-0.496676 -0.21462,-1.165044 0,-0.668367 0.21462,-1.158912 0.22074,-0.496676 0.60705,-0.760344 0.39243,-0.263668 0.88911,-0.263668 0.49668,0 0.88298,0.263668 0.39244,0.263668 0.61318,0.760344 0.22075,0.490545 0.22075,1.158912 0,0.668368 -0.22075,1.165044 -0.22074,0.490545 -0.61318,0.754213 -0.3863,0.263668 -0.88298,0.263668 z m 0,-0.4047 q 0.37404,0 0.6561,-0.208481 0.2882,-0.208482 0.44762,-0.60705 0.15943,-0.398567 0.15943,-0.962694 0,-0.564126 -0.15943,-0.962694 -0.15942,-0.398568 -0.44762,-0.607049 -0.28206,-0.208482 -0.6561,-0.208482 -0.37404,0 -0.66224,0.208482 -0.28206,0.208481 -0.44149,0.607049 -0.15942,0.398568 -0.15942,0.962694 0,0.564127 0.15942,0.962694 0.15943,0.398568 0.44149,0.60705 0.2882,0.208481 0.66224,0.208481 z" />
    <path
       id="path1124"
       style="font-style:normal;font-variant:normal;font-weight:normal;font-stretch:normal;font-family:Montserrat;-inkscape-font-specification:Montserrat;stroke-width:1.14971"
       d="m 131.03246,22.751173 v 4.292267 h -0.44149 v -3.899831 h -1.01175 v -0.392436 z" />
    <path
       id="path1126"
       style="font-style:normal;font-variant:normal;font-weight:normal;font-stretch:normal;font-family:Montserrat;-inkscape-font-specification:Montserrat;stroke-width:1.14971"
       d="m 133.76926,27.080231 q -0.49668,0 -0.88912,-0.263668 -0.3863,-0.263668 -0.60704,-0.754213 -0.21462,-0.496676 -0.21462,-1.165044 0,-0.668367 0.21462,-1.158912 0.22074,-0.496676 0.60704,-0.760344 0.39244,-0.263668 0.88912,-0.263668 0.49667,0 0.88298,0.263668 0.39243,0.263668 0.61318,0.760344 0.22074,0.490545 0.22074,1.158912 0,0.668368 -0.22074,1.165044 -0.22075,0.490545 -0.61318,0.754213 -0.38631,0.263668 -0.88298,0.263668 z m 0,-0.4047 q 0.37404,0 0.6561,-0.208481 0.2882,-0.208482 0.44762,-0.60705 0.15943,-0.398567 0.15943,-0.962694 0,-0.564126 -0.15943,-0.962694 -0.15942,-0.398568 -0.44762,-0.607049 -0.28206,-0.208482 -0.6561,-0.208482 -0.37404,0 -0.66224,0.208482 -0.28206,0.208481 -0.44149,0.607049 -0.15943,0.398568 -0.15943,0.962694 0,0.564127 0.15943,0.962694 0.15943,0.398568 0.44149,0.60705 0.2882,0.208481 0.66224,0.208481 z" />
    <path
       id="path1128"
       style="font-style:normal;font-variant:normal;font-weight:normal;font-stretch:normal;font-family:Montserrat;-inkscape-font-specification:Montserrat;stroke-width:1.14971"
       d="m 137.82919,27.080231 q -0.49668,0 -0.88912,-0.263668 -0.3863,-0.263668 -0.60705,-0.754213 -0.21461,-0.496676 -0.21461,-1.165044 0,-0.668367 0.21461,-1.158912 0.22075,-0.496676 0.60705,-0.760344 0.39244,-0.263668 0.88912,-0.263668 0.49667,0 0.88298,0.263668 0.39243,0.263668 0.61318,0.760344 0.22074,0.490545 0.22074,1.158912 0,0.668368 -0.22074,1.165044 -0.22075,0.490545 -0.61318,0.754213 -0.38631,0.263668 -0.88298,0.263668 z m 0,-0.4047 q 0.37404,0 0.6561,-0.208481 0.28819,-0.208482 0.44762,-0.60705 0.15943,-0.398567 0.15943,-0.962694 0,-0.564126 -0.15943,-0.962694 -0.15943,-0.398568 -0.44762,-0.607049 -0.28206,-0.208482 -0.6561,-0.208482 -0.37404,0 -0.66224,0.208482 -0.28206,0.208481 -0.44149,0.607049 -0.15943,0.398568 -0.15943,0.962694 0,0.564127 0.15943,0.962694 0.15943,0.398568 0.44149,0.60705 0.2882,0.208481 0.66224,0.208481 z" />
    <path
       id="path1130"
       style="font-style:normal;font-variant:normal;font-weight:normal;font-stretch:normal;font-family:Montserrat;-inkscape-font-specification:Montserrat;stroke-width:1.14971"
       d="m 141.35593,22.751173 v 4.292267 h -0.44149 v -3.899831 h -1.01174 v -0.392436 z" />
    <path
       id="path1132"
       style="font-style:normal;font-variant:normal;font-weight:normal;font-stretch:normal;font-family:Montserrat;-inkscape-font-specification:Montserrat;stroke-width:1.14971"
       d="m 143.57153,22.751173 v 4.292267 h -0.44149 v -3.899831 h -1.01175 v -0.392436 z" />
    <path
       id="path1134"
       style="font-style:normal;font-variant:normal;font-weight:normal;font-stretch:normal;font-family:Montserrat;-inkscape-font-specification:Montserrat;stroke-width:1.14971"
       d="m 146.30833,27.080231 q -0.49668,0 -0.88911,-0.263668 -0.38631,-0.263668 -0.60705,-0.754213 -0.21461,-0.496676 -0.21461,-1.165044 0,-0.668367 0.21461,-1.158912 0.22074,-0.496676 0.60705,-0.760344 0.39243,-0.263668 0.88911,-0.263668 0.49668,0 0.88298,0.263668 0.39244,0.263668 0.61318,0.760344 0.22075,0.490545 0.22075,1.158912 0,0.668368 -0.22075,1.165044 -0.22074,0.490545 -0.61318,0.754213 -0.3863,0.263668 -0.88298,0.263668 z m 0,-0.4047 q 0.37404,0 0.6561,-0.208481 0.2882,-0.208482 0.44763,-0.60705 0.15942,-0.398567 0.15942,-0.962694 0,-0.564126 -0.15942,-0.962694 -0.15943,-0.398568 -0.44763,-0.607049 -0.28206,-0.208482 -0.6561,-0.208482 -0.37404,0 -0.66223,0.208482 -0.28207,0.208481 -0.44149,0.607049 -0.15943,0.398568 -0.15943,0.962694 0,0.564127 0.15943,0.962694 0.15942,0.398568 0.44149,0.60705 0.28819,0.208481 0.66223,0.208481 z" />
  </g>
</svg>
