<svg xmlns="http://www.w3.org/2000/svg" version="1.1" width="250" height="250" viewBox="0 0 250 250" >


  <path
     id="path2"
     d="m 45.54407,45.202618 a 0.972,0.972 0 0 1 -0.257,0.659 13.915,13.915 0 0 1 -10.237,4.508 c -3.953,0 -7.73,-1.692 -10.359,-4.642 a 0.977,0.977 0 0 1 1.458,-1.3 11.933,11.933 0 0 0 8.901,3.99 c 3.336,0 6.543,-1.413 8.797,-3.875 a 0.976,0.976 0 0 1 1.697,0.66 z m -0.003,-17.415 a 0.976,0.976 0 0 1 -1.696,0.66 11.954,11.954 0 0 0 -8.795,-3.874 11.931,11.931 0 0 0 -8.898,3.989 0.977,0.977 0 0 1 -1.458,-1.3 13.885,13.885 0 0 1 10.356,-4.642 13.91,13.91 0 0 1 10.235,4.508 0.971,0.971 0 0 1 0.256,0.66 z">
    <animate
       repeatCount="indefinite"
       attributeName="fill"
       keyTimes="0; 0.5; 0.7; 1"
       values="#ffffff; white; #d7d7d7; white"
       dur="2s" />
  </path>
  
  
  
  
  <path
     id="path4"
     fill="#ffffff"
     d="m 52.66207,52.707618 c 0,0.25 -0.095,0.499 -0.285,0.69 -4.685,4.696 -10.92,7.282 -17.553,7.282 -6.7,0 -12.978,-2.63 -17.676,-7.405 a 0.97654548,0.97654548 0 1 1 1.392,-1.37 c 4.328,4.4 10.111,6.822 16.284,6.822 a 22.693,22.693 0 0 0 16.171,-6.709 0.976,0.976 0 0 1 1.667,0.69 z m 0,-33.166 a 0.976,0.976 0 0 1 -1.667,0.69 22.7,22.7 0 0 0 -16.171,-6.707 c -6.173,0 -11.956,2.423 -16.284,6.822 a 0.977,0.977 0 0 1 -1.392,-1.37 c 4.699,-4.775 10.976,-7.404 17.676,-7.404 6.633,0 12.866,2.585 17.553,7.28 0.19,0.19 0.285,0.44 0.285,0.69 z">
    <animate
       repeatCount="indefinite"
       attributeName="fill"
       keyTimes="0; 0.5; 0.7; 1"
       values="white; white; #d7d7d7; #ffffff"
       dur="3s" />
  </path>
  
  
  
  
  
  
  <path
     id="path6"
     d="m 40.20307,36.738618 a 4.992,4.992 0 0 1 -4.986,4.986 4.991,4.991 0 0 1 -4.986,-4.986 4.991,4.991 0 0 1 4.986,-4.985 4.992,4.992 0 0 1 4.986,4.985 z m -8.019,0 a 3.036,3.036 0 0 0 3.033,3.034 3.037,3.037 0 0 0 3.033,-3.034 3.036,3.036 0 0 0 -3.033,-3.033 3.036,3.036 0 0 0 -3.033,3.033 z">
    <animate
       repeatCount="indefinite"
       attributeName="fill"
       keyTimes="0; 0.5; 0.7; 1"
       values="#ffffff; white; #d7d7d7; white"
       dur="5s" />
  </path>
  
  
 
    <animateTransform
     repeatCount="indefinite"
     type="rotate"
     from="00 0 0"
     to="360 0 0"
     begin="0s"
     dur="10s" />
  

</svg>
