<?xml version="1.0" encoding="UTF-8" standalone="no"?>
<svg
   xmlns:dc="http://purl.org/dc/elements/1.1/"
   xmlns:cc="http://creativecommons.org/ns#"
   xmlns:rdf="http://www.w3.org/1999/02/22-rdf-syntax-ns#"
   xmlns:svg="http://www.w3.org/2000/svg"
   xmlns="http://www.w3.org/2000/svg"
   xmlns:sodipodi="http://sodipodi.sourceforge.net/DTD/sodipodi-0.dtd"
   xmlns:inkscape="http://www.inkscape.org/namespaces/inkscape"
   inkscape:version="1.0 (4035a4fb49, 2020-05-01)"
   sodipodi:docname="any.svg"
   id="svg6"
   version="1.1"
   viewBox="0 0 17.009444 21.228473"
   class="bi bi-app-indicator"
   fill="currentColor"
   height="21.228474"
   width="17.009443">
  <metadata
     id="metadata12">
    <rdf:RDF>
      <cc:Work
         rdf:about="">
        <dc:format>image/svg+xml</dc:format>
        <dc:type
           rdf:resource="http://purl.org/dc/dcmitype/StillImage" />
        <dc:title></dc:title>
      </cc:Work>
    </rdf:RDF>
  </metadata>
  <defs
     id="defs10" />
  <sodipodi:namedview
     inkscape:current-layer="svg6"
     inkscape:window-maximized="1"
     inkscape:window-y="-11"
     inkscape:window-x="-11"
     inkscape:cy="12.467537"
     inkscape:cx="-1.3872063"
     inkscape:zoom="16"
     fit-margin-bottom="0"
     fit-margin-right="0"
     fit-margin-left="0"
     fit-margin-top="0"
     showgrid="false"
     id="namedview8"
     inkscape:window-height="1046"
     inkscape:window-width="1920"
     inkscape:pageshadow="2"
     inkscape:pageopacity="0"
     guidetolerance="10"
     gridtolerance="10"
     objecttolerance="10"
     borderopacity="1"
     bordercolor="#666666"
     pagecolor="#ffffff" />
  <path
     d="m 5.2252702,0.68983483 c -2.4390705,0 -4.41632787,1.97725737 -4.41632787,4.41632827 v 6.6244909 c 0,2.439071 1.97725737,4.416328 4.41632787,4.416328 h 6.6244908 c 2.439071,0 4.416328,-1.977257 4.416328,-4.416328 V 5.1061631 c 0,-2.4390709 -1.977257,-4.41632827 -4.416328,-4.41632827 z"
     id="path2-7"
     style="fill:none;stroke:#000000;stroke-width:0.331224;stroke-miterlimit:4;stroke-dasharray:none;stroke-opacity:1"
     sodipodi:nodetypes="sssssssss" />
  <path
     id="path3091"
     d="M 8.5331903,4.7810979 C 8.4850703,13.132063 8.4850703,13.0858 8.4850703,13.0858"
     style="fill:none;fill-opacity:1;stroke:#000000;stroke-width:0.35;stroke-linecap:round;stroke-linejoin:round;stroke-miterlimit:4;stroke-dasharray:none;stroke-opacity:1" />
  <path
     id="path3089"
     d="m 9.9398033,6.9091817 h 2.2988907 c 0.01731,0 0.03125,0.012227 0.03125,0.027414 0,0.015187 -0.01394,0.027414 -0.03125,0.027414 H 9.9398033 c -0.01731,0 -0.03125,-0.012226 -0.03125,-0.027414 0,-0.015187 0.01394,-0.027414 0.03125,-0.027414 z"
     style="fill:none;fill-opacity:1;stroke:#ff7878;stroke-width:0.35;stroke-linecap:round;stroke-linejoin:round;stroke-miterlimit:4;stroke-dasharray:none;stroke-opacity:1" />
  <path
     id="path3087"
     d="m 9.9582033,5.5110384 h 1.8887417 c 0.01731,0 0.03125,0.013816 0.03125,0.030978 0,0.017162 -0.01394,0.030978 -0.03125,0.030978 H 9.9582033 c -0.01731,0 -0.03125,-0.013816 -0.03125,-0.030978 0,-0.017162 0.01394,-0.030978 0.03125,-0.030978 z"
     style="fill:none;fill-opacity:1;stroke:#ebcd00;stroke-width:0.35;stroke-linecap:round;stroke-linejoin:round;stroke-miterlimit:4;stroke-dasharray:none;stroke-opacity:1" />
  <path
     id="path3085"
     d="m 10.891583,8.4429518 h 1.888742 c 0.01731,0 0.03125,0.013816 0.03125,0.030978 0,0.017162 -0.01394,0.030978 -0.03125,0.030978 h -1.888742 c -0.01731,0 -0.03125,-0.013816 -0.03125,-0.030978 0,-0.017162 0.01394,-0.030978 0.03125,-0.030978 z"
     style="fill:none;fill-opacity:1;stroke:#15e2b3;stroke-width:0.35;stroke-linecap:round;stroke-linejoin:round;stroke-miterlimit:4;stroke-dasharray:none;stroke-opacity:1" />
  <path
     id="path3083"
     d="m 10.089474,10.068132 h 4.228185 c 0.01731,0 0.03125,0.01382 0.03125,0.03098 0,0.01716 -0.01394,0.03098 -0.03125,0.03098 h -4.228185 c -0.01731,0 -0.03125,-0.01382 -0.03125,-0.03098 0,-0.01716 0.01394,-0.03098 0.03125,-0.03098 z"
     style="fill:none;fill-opacity:1;stroke:#e576d8;stroke-width:0.35;stroke-linecap:round;stroke-linejoin:round;stroke-miterlimit:4;stroke-dasharray:none;stroke-opacity:1" />
  <path
     id="rect2927-2-8-8-4"
     d="m 10.199684,11.70598 h 3.510797 c 0.01731,0 0.03125,0.01394 0.03125,0.03125 v 0.0068 c 0,0.01731 -0.01394,0.03125 -0.03125,0.03125 h -3.510797 c -0.01731,0 -0.03125,-0.01394 -0.03125,-0.03125 v -0.0068 c 0,-0.01731 0.01394,-0.03125 0.03125,-0.03125 z"
     style="fill:none;fill-opacity:1;stroke:#73fdf6;stroke-width:0.35;stroke-linecap:round;stroke-linejoin:round;stroke-miterlimit:4;stroke-dasharray:none;stroke-opacity:1" />
  <path
     id="path3028"
     d="M 6.6813624,7.3787837 A 2.2132246,2.2130518 0 0 1 5.1888072,9.471226 2.2132246,2.2130518 0 0 1 2.724241,8.7414645 2.2132246,2.2130518 0 0 1 2.611774,6.1737727 2.2132246,2.2130518 0 0 1 5.0030971,5.2313524 L 4.4681378,7.3787837 Z"
     style="fill:none;stroke:#ff7878;stroke-width:0.35;stroke-linecap:round;stroke-linejoin:round;stroke-miterlimit:4;stroke-dasharray:none;stroke-opacity:1" />
  <path
     id="path3003"
     d="m 5.8544745,4.7468196 a 1.9083869,2.0399997 11.792796 0 1 1.3960586,1.9679882 l -1.9135009,0.00491 z"
     style="fill:none;stroke:#73fdf6;stroke-width:0.35;stroke-linecap:round;stroke-linejoin:round;stroke-miterlimit:4;stroke-dasharray:none;stroke-opacity:1" />
  <g
     style="font-style:normal;font-variant:normal;font-weight:normal;font-stretch:normal;font-size:2.8833px;line-height:1.25;font-family:Montserrat;-inkscape-font-specification:Montserrat;stroke-width:0.540621"
     id="text3032"
     aria-label="Аналитика">
    <path
       id="path3034"
       style="font-style:normal;font-variant:normal;font-weight:normal;font-stretch:normal;font-family:Montserrat;-inkscape-font-specification:Montserrat;stroke-width:0.540621"
       d="M 2.1146959,19.944597 H 0.99020884 l -0.2421972,0.539177 H 0.52599753 l 0.92265607,-2.01831 h 0.2104809 l 0.922656,2.01831 H 2.3568931 Z M 2.0368468,19.771599 1.5524524,18.687478 1.0680579,19.771599 Z" />
    <path
       id="path3036"
       style="font-style:normal;font-variant:normal;font-weight:normal;font-stretch:normal;font-family:Montserrat;-inkscape-font-specification:Montserrat;stroke-width:0.540621"
       d="m 2.9195421,18.967158 h 0.2047143 v 0.671809 H 4.0786287 V 18.967158 H 4.283343 v 1.516616 H 4.0786287 V 19.814849 H 3.1242564 v 0.668925 H 2.9195421 Z" />
    <path
       id="path3038"
       style="font-style:normal;font-variant:normal;font-weight:normal;font-stretch:normal;font-family:Montserrat;-inkscape-font-specification:Montserrat;stroke-width:0.540621"
       d="m 5.3898995,18.955625 q 0.29698,0 0.4555615,0.149932 0.1585815,0.147048 0.1585815,0.438261 v 0.939956 H 5.8079781 v -0.23643 q -0.069199,0.118215 -0.2047143,0.184531 -0.1326319,0.06632 -0.3171631,0.06632 -0.2537304,0 -0.403662,-0.121099 -0.1499316,-0.121099 -0.1499316,-0.320046 0,-0.193181 0.1383984,-0.311397 0.1412817,-0.118215 0.4469115,-0.118215 h 0.4815112 v -0.09227 q 0,-0.196064 -0.1095654,-0.296979 -0.1095654,-0.103799 -0.3200464,-0.103799 -0.144165,0 -0.2767968,0.04902 -0.1326318,0.04613 -0.2277807,0.129748 l -0.092266,-0.152815 q 0.115332,-0.09803 0.2767968,-0.149931 0.1614648,-0.05478 0.3402294,-0.05478 z m -0.072083,1.381101 q 0.1729981,0 0.29698,-0.07785 0.1239819,-0.08073 0.1845312,-0.230664 V 19.780249 H 5.3235836 q -0.3892455,0 -0.3892455,0.27103 0,0.132632 0.1009155,0.210481 0.1009155,0.07497 0.2825634,0.07497 z" />
    <path
       id="path3040"
       style="font-style:normal;font-variant:normal;font-weight:normal;font-stretch:normal;font-family:Montserrat;-inkscape-font-specification:Montserrat;stroke-width:0.540621"
       d="m 7.7916434,18.967158 v 1.516616 H 7.5869291 V 19.148806 H 6.8603375 l -0.020183,0.374829 q -0.023066,0.472861 -0.1095654,0.726592 -0.086499,0.25373 -0.3085131,0.25373 -0.060549,0 -0.1470483,-0.02307 l 0.014417,-0.175881 q 0.051899,0.01153 0.072083,0.01153 0.1182153,0 0.1787646,-0.109566 0.060549,-0.109565 0.080732,-0.27103 0.020183,-0.161465 0.0346,-0.426728 l 0.02595,-0.542061 z" />
    <path
       id="path3042"
       style="font-style:normal;font-variant:normal;font-weight:normal;font-stretch:normal;font-family:Montserrat;-inkscape-font-specification:Montserrat;stroke-width:0.540621"
       d="M 8.3764127,18.967158 H 8.581127 v 1.20522 l 1.0120383,-1.20522 h 0.1816479 v 1.516616 H 9.5700989 v -1.205219 l -1.009155,1.205219 H 8.3764127 Z" />
    <path
       id="path3044"
       style="font-style:normal;font-variant:normal;font-weight:normal;font-stretch:normal;font-family:Montserrat;-inkscape-font-specification:Montserrat;stroke-width:0.540621"
       d="m 11.425503,19.148806 h -0.573777 v 1.334968 h -0.204714 v -1.334968 h -0.573777 v -0.181648 h 1.352268 z" />
    <path
       id="path3046"
       style="font-style:normal;font-variant:normal;font-weight:normal;font-stretch:normal;font-family:Montserrat;-inkscape-font-specification:Montserrat;stroke-width:0.540621"
       d="m 11.721491,18.967158 h 0.204714 v 1.20522 l 1.012039,-1.20522 h 0.181648 v 1.516616 h -0.204715 v -1.205219 l -1.009155,1.205219 h -0.184531 z" />
    <path
       id="path3048"
       style="font-style:normal;font-variant:normal;font-weight:normal;font-stretch:normal;font-family:Montserrat;-inkscape-font-specification:Montserrat;stroke-width:0.540621"
       d="m 14.254471,19.809082 h -0.345996 v 0.674692 H 13.70376 v -1.516616 h 0.204715 v 0.666043 h 0.348879 l 0.533411,-0.666043 h 0.222014 l -0.596843,0.735242 0.640092,0.781374 h -0.242197 z" />
    <path
       id="path3050"
       style="font-style:normal;font-variant:normal;font-weight:normal;font-stretch:normal;font-family:Montserrat;-inkscape-font-specification:Montserrat;stroke-width:0.540621"
       d="m 15.870019,18.955625 q 0.29698,0 0.455562,0.149932 0.158581,0.147048 0.158581,0.438261 v 0.939956 h -0.196064 v -0.23643 q -0.0692,0.118215 -0.204715,0.184531 -0.132631,0.06632 -0.317163,0.06632 -0.25373,0 -0.403662,-0.121099 -0.149931,-0.121099 -0.149931,-0.320046 0,-0.193181 0.138398,-0.311397 0.141282,-0.118215 0.446912,-0.118215 h 0.481511 v -0.09227 q 0,-0.196064 -0.109566,-0.296979 -0.109565,-0.103799 -0.320046,-0.103799 -0.144165,0 -0.276797,0.04902 -0.132631,0.04613 -0.22778,0.129748 l -0.09227,-0.152815 q 0.115332,-0.09803 0.276797,-0.149931 0.161465,-0.05478 0.340229,-0.05478 z m -0.07208,1.381101 q 0.172998,0 0.29698,-0.07785 0.123982,-0.08073 0.184531,-0.230664 v -0.247964 h -0.475745 q -0.389245,0 -0.389245,0.27103 0,0.132632 0.100915,0.210481 0.100916,0.07497 0.282564,0.07497 z" />
  </g>
  <path
     style="fill:none;fill-opacity:1;stroke:#e576d8;stroke-width:0.35;stroke-linecap:round;stroke-linejoin:round;stroke-miterlimit:4;stroke-dasharray:none;stroke-opacity:1"
     d="m 3.0291448,12.635779 3.5326633,-2.323325 c 0.014462,-0.0095 0.033703,-0.0056 0.043132,0.0087 0.00943,0.01434 0.00538,0.03354 -0.00909,0.04306 l -3.5326633,2.323325 c -0.014463,0.0095 -0.033703,0.0056 -0.043133,-0.0087 -0.00943,-0.01434 -0.00538,-0.03354 0.00909,-0.04306 z"
     id="path3083-9" />
</svg>
