<?xml version="1.0" encoding="UTF-8" standalone="no"?>
<svg
   xmlns:dc="http://purl.org/dc/elements/1.1/"
   xmlns:cc="http://creativecommons.org/ns#"
   xmlns:rdf="http://www.w3.org/1999/02/22-rdf-syntax-ns#"
   xmlns:svg="http://www.w3.org/2000/svg"
   xmlns="http://www.w3.org/2000/svg"
   xmlns:sodipodi="http://sodipodi.sourceforge.net/DTD/sodipodi-0.dtd"
   xmlns:inkscape="http://www.inkscape.org/namespaces/inkscape"
   inkscape:version="1.0 (4035a4fb49, 2020-05-01)"
   sodipodi:docname="app-indicator.svg"
   id="svg6"
   version="1.1"
   viewBox="0 0 15.196048 19.513494"
   class="bi bi-app-indicator"
   fill="currentColor"
   height="19.513494"
   width="15.196048">
  <metadata
     id="metadata12">
    <rdf:RDF>
      <cc:Work
         rdf:about="">
        <dc:format>image/svg+xml</dc:format>
        <dc:type
           rdf:resource="http://purl.org/dc/dcmitype/StillImage" />
        <dc:title></dc:title>
      </cc:Work>
    </rdf:RDF>
  </metadata>
  <defs
     id="defs10" />
  <sodipodi:namedview
     inkscape:current-layer="svg6"
     inkscape:window-maximized="1"
     inkscape:window-y="-11"
     inkscape:window-x="-11"
     inkscape:cy="15.19401"
     inkscape:cx="5.0982469"
     inkscape:zoom="9.5017474"
     fit-margin-bottom="0"
     fit-margin-right="0"
     fit-margin-left="0"
     fit-margin-top="0"
     showgrid="false"
     id="namedview8"
     inkscape:window-height="1046"
     inkscape:window-width="1920"
     inkscape:pageshadow="2"
     inkscape:pageopacity="0"
     guidetolerance="10"
     gridtolerance="10"
     objecttolerance="10"
     borderopacity="1"
     bordercolor="#666666"
     pagecolor="#ffffff" />
  <path
     style="fill:#c82323;fill-opacity:1"
     id="path2"
     d="m 4.6960474,2 a 3.5,3.5 0 0 0 -3.5,3.5 v 5 a 3.5,3.5 0 0 0 3.5,3.5 h 5 A 3.5,3.5 0 0 0 13.196047,10.5 V 8 a 0.5,0.5 0 0 1 1,0 v 2.5 A 4.5,4.5 0 0 1 9.6960474,15 h -5 A 4.5,4.5 0 0 1 0.19604738,10.5 v -5 A 4.5,4.5 0 0 1 4.6960474,1 h 2.5 a 0.5,0.5 0 0 1 0,1 z" />
  <path
     style="fill:#c82323;fill-opacity:1"
     id="path4"
     d="M 15.196047,3 A 3,3 0 1 1 9.1960474,3 3,3 0 0 1 15.196047,3 Z" />
  <g
     style="font-style:normal;font-variant:normal;font-weight:normal;font-stretch:normal;font-size:3.07012px;line-height:1.25;font-family:Montserrat;-inkscape-font-specification:Montserrat;fill:#c82323;fill-opacity:1;stroke-width:0.575648"
     id="text839"
     aria-label="- 7,56">
    <path
       id="path871"
       style="font-style:normal;font-variant:normal;font-weight:500;font-stretch:normal;font-family:Montserrat;-inkscape-font-specification:'Montserrat Medium';fill:#c82323;fill-opacity:1;stroke-width:0.575648"
       d="m 3.1072848,8.3564364 h 0.8258623 v 0.25482 H 3.1072848 Z" />
    <path
       id="path873"
       style="font-style:normal;font-variant:normal;font-weight:500;font-stretch:normal;font-family:Montserrat;-inkscape-font-specification:'Montserrat Medium';fill:#c82323;fill-opacity:1;stroke-width:0.575648"
       d="M 6.6481887,7.1775103 V 7.3862785 L 5.7793447,9.3265944 H 5.453912 L 6.3043353,7.4446107 H 5.3218968 v 0.383765 H 5.0271653 V 7.1775103 Z" />
    <path
       id="path875"
       style="font-style:normal;font-variant:normal;font-weight:500;font-stretch:normal;font-family:Montserrat;-inkscape-font-specification:'Montserrat Medium';fill:#c82323;fill-opacity:1;stroke-width:0.575648"
       d="m 6.961101,8.9244086 q 0.085963,0 0.1412256,0.061402 0.058332,0.058332 0.058332,0.1473658 0,0.046052 -0.01228,0.089034 -0.00921,0.042982 -0.039912,0.1320151 L 6.9641712,9.7809721 H 6.7707536 L 6.884348,9.3235242 Q 6.8260158,9.3020334 6.7891743,9.2529115 6.755403,9.2007194 6.755403,9.1331768 q 0,-0.092104 0.058332,-0.1504359 0.058332,-0.058332 0.1473657,-0.058332 z" />
    <path
       id="path877"
       style="font-style:normal;font-variant:normal;font-weight:500;font-stretch:normal;font-family:Montserrat;-inkscape-font-specification:'Montserrat Medium';fill:#c82323;fill-opacity:1;stroke-width:0.575648"
       d="m 8.0650008,8.0340738 q 0.460518,0 0.6754264,0.1749968 0.2179786,0.1719268 0.2179786,0.4727985 0,0.1903475 -0.092104,0.3438535 -0.089033,0.1504359 -0.2732407,0.2394694 -0.1811371,0.085963 -0.4482376,0.085963 -0.2271888,0 -0.4390271,-0.067543 Q 7.4939585,9.2129999 7.3558031,9.0901951 L 7.4970286,8.8476556 q 0.1105243,0.1043841 0.2824511,0.1688566 0.1719267,0.061402 0.3622741,0.061402 0.2425395,0 0.3745547,-0.1013139 0.1350853,-0.1043841 0.1350853,-0.2824511 0,-0.1934176 -0.1473658,-0.2916614 Q 8.3566622,8.3011742 8.0005283,8.3011742 H 7.5123792 L 7.6259737,7.1775103 H 8.8386711 V 7.4446107 H 7.8838637 l -0.058332,0.5894631 z" />
    <path
       id="path879"
       style="font-style:normal;font-variant:normal;font-weight:500;font-stretch:normal;font-family:Montserrat;-inkscape-font-specification:'Montserrat Medium';fill:#c82323;fill-opacity:1;stroke-width:0.575648"
       d="m 10.141074,8.0217933 q 0.211838,0 0.377625,0.079823 0.168856,0.079823 0.26403,0.230259 0.09517,0.1473658 0.09517,0.3407834 0,0.2026279 -0.101314,0.3561339 -0.09824,0.153506 -0.273241,0.2394694 -0.171927,0.082893 -0.386835,0.082893 -0.432887,0 -0.6692862,-0.2793809 -0.2333291,-0.2793809 -0.2333291,-0.792091 0,-0.3592041 0.1258749,-0.6109539 0.128945,-0.25482 0.3561339,-0.383765 0.230259,-0.1320152 0.5342005,-0.1320152 0.156577,0 0.294732,0.033771 0.138155,0.030701 0.239469,0.092104 l -0.116664,0.2394694 q -0.153506,-0.1013139 -0.411396,-0.1013139 -0.3346434,0 -0.5249909,0.2087681 -0.1903474,0.2056981 -0.1903474,0.6017436 0,0.049122 0.00307,0.076753 Q 9.6160834,8.166089 9.7757296,8.0954762 9.938446,8.0217933 10.141074,8.0217933 Z m -0.03684,1.0806823 q 0.211839,0 0.343854,-0.1135945 0.132015,-0.1135944 0.132015,-0.3039418 0,-0.1903475 -0.135085,-0.3008718 -0.132015,-0.1135945 -0.356134,-0.1135945 -0.1442958,0 -0.2578902,0.055262 -0.1105243,0.055262 -0.1749968,0.1504359 -0.061402,0.095174 -0.061402,0.2118383 0,0.1135944 0.058332,0.2087681 0.061402,0.092104 0.1749969,0.1504359 0.1166645,0.055262 0.2763103,0.055262 z" />
  </g>
  <g
     transform="translate(0.03946643,-0.28942045)"
     style="font-size:3.01054px;line-height:1.25;font-family:sans-serif;stroke-width:0.564477"
     id="text843"
     aria-label="Склад №1">
    <path
       id="path882"
       style="font-style:normal;font-variant:normal;font-weight:normal;font-stretch:normal;font-family:Montserrat;-inkscape-font-specification:Montserrat;stroke-width:0.564477"
       d="m 1.3649671,19.228152 q -0.3130961,0 -0.56598148,-0.138485 Q 0.5491108,18.951182 0.40460488,18.707329 0.2631095,18.460464 0.2631095,18.1564 q 0,-0.304065 0.14149538,-0.547919 0.14450592,-0.246864 0.39739128,-0.385349 0.25288534,-0.138485 0.56598154,-0.138485 0.2348221,0 0.4335177,0.07827 0.1986957,0.07827 0.3371805,0.228801 l -0.1414954,0.141495 q -0.2468642,-0.249875 -0.6231817,-0.249875 -0.2498749,0 -0.45459158,0.114401 -0.20471672,0.1144 -0.32212778,0.313096 -0.11440052,0.198695 -0.11440052,0.44556 0,0.246864 0.11440052,0.44556 0.11741106,0.198695 0.32212778,0.313096 0.20471668,0.1144 0.45459158,0.1144 0.379328,0 0.6231817,-0.252885 l 0.1414954,0.141495 q -0.1384848,0.150527 -0.340191,0.231812 -0.1986956,0.07827 -0.4335178,0.07827 z" />
    <path
       id="path884"
       style="font-style:normal;font-variant:normal;font-weight:normal;font-stretch:normal;font-family:Montserrat;-inkscape-font-specification:Montserrat;stroke-width:0.564477"
       d="M 3.1255215,18.505622 H 2.7642567 v 0.704467 H 2.5505084 v -1.583544 h 0.2137483 v 0.695434 H 3.128532 l 0.5569499,-0.695434 h 0.2318116 l -0.6231818,0.767687 0.6683399,0.815857 H 3.7095663 Z" />
    <path
       id="path886"
       style="font-style:normal;font-variant:normal;font-weight:normal;font-stretch:normal;font-family:Montserrat;-inkscape-font-specification:Montserrat;stroke-width:0.564477"
       d="m 5.5913889,17.626545 v 1.583544 H 5.3776406 v -1.39388 H 4.6189845 l -0.021074,0.39137 q -0.024084,0.493728 -0.1144005,0.758656 -0.090316,0.264928 -0.3221278,0.264928 -0.063221,0 -0.1535375,-0.02408 l 0.015053,-0.183643 q 0.05419,0.01204 0.075263,0.01204 0.1234321,0 0.1866535,-0.1144 0.063221,-0.114401 0.084295,-0.282991 0.021074,-0.16859 0.036126,-0.44556 l 0.027095,-0.565981 z" />
    <path
       id="path888"
       style="font-style:normal;font-variant:normal;font-weight:normal;font-stretch:normal;font-family:Montserrat;-inkscape-font-specification:Montserrat;stroke-width:0.564477"
       d="m 6.746872,17.614503 q 0.3100856,0 0.4756653,0.156548 0.1655797,0.153537 0.1655797,0.457602 v 0.981436 H 7.1834003 v -0.246865 q -0.072253,0.123433 -0.2137484,0.192675 -0.1384848,0.06924 -0.3311594,0.06924 -0.2649275,0 -0.4214756,-0.126442 -0.156548,-0.126443 -0.156548,-0.33417 0,-0.201706 0.1445059,-0.325139 0.1475164,-0.123432 0.4666337,-0.123432 h 0.5027602 v -0.09634 q 0,-0.204717 -0.1144006,-0.310086 -0.1144005,-0.108379 -0.3341699,-0.108379 -0.150527,0 -0.2890118,0.05118 -0.1384849,0.04817 -0.2378327,0.135474 l -0.096337,-0.159558 q 0.1204216,-0.102358 0.2890119,-0.156548 0.1685902,-0.0572 0.3552437,-0.0572 z m -0.075264,1.442048 q 0.1806324,0 0.3100856,-0.08128 0.1294532,-0.0843 0.1926746,-0.240844 v -0.25891 H 6.6776296 q -0.4064229,0 -0.4064229,0.282991 0,0.138485 0.1053689,0.219769 0.1053689,0.07827 0.2950329,0.07827 z" />
    <path
       id="path890"
       style="font-style:normal;font-variant:normal;font-weight:normal;font-stretch:normal;font-family:Montserrat;-inkscape-font-specification:Montserrat;stroke-width:0.564477"
       d="m 9.5044794,19.023435 v 0.568992 H 9.3027732 V 19.210089 H 7.8848089 v 0.382338 H 7.6831027 v -0.568992 h 0.090316 q 0.1595586,-0.009 0.2167589,-0.234822 0.0572,-0.22579 0.078274,-0.632213 l 0.021074,-0.529855 h 1.1680895 v 1.39689 z M 8.2641369,18.168442 q -0.015053,0.33718 -0.0572,0.55695 -0.042148,0.216759 -0.150527,0.298043 H 9.0438668 V 17.816209 H 8.2822002 Z" />
    <path
       id="path892"
       style="font-style:normal;font-variant:normal;font-weight:normal;font-stretch:normal;font-family:Montserrat;-inkscape-font-specification:Montserrat;stroke-width:0.564477"
       d="m 13.325184,18.04802 q -0.147516,0 -0.267938,-0.06021 -0.117411,-0.06322 -0.186653,-0.1716 -0.06623,-0.11139 -0.06623,-0.249875 0,-0.138485 0.06623,-0.246864 0.06924,-0.10838 0.186653,-0.168591 0.120422,-0.06322 0.267938,-0.06322 0.147517,0 0.264928,0.06322 0.120421,0.06021 0.186653,0.168591 0.06924,0.108379 0.06924,0.246864 0,0.138485 -0.06924,0.249875 -0.06623,0.108379 -0.186653,0.1716 -0.117411,0.06021 -0.264928,0.06021 z m -1.038636,-0.945309 h 0.219769 v 2.107378 h -0.183643 l -1.354743,-1.709987 v 1.709987 h -0.222779 v -2.107378 h 0.183642 l 1.357754,1.709986 z m 1.038636,0.117411 q -0.159558,0 -0.261917,0.09634 -0.102358,0.09634 -0.102358,0.249875 0,0.153537 0.09935,0.249875 0.102358,0.09634 0.264927,0.09634 0.162569,0 0.261917,-0.09634 0.102359,-0.09634 0.102359,-0.249875 0,-0.153538 -0.102359,-0.249875 -0.102358,-0.09634 -0.261917,-0.09634 z m -0.460612,1.086805 h 0.921225 v 0.150527 h -0.921225 z" />
    <path
       id="path894"
       style="font-style:normal;font-variant:normal;font-weight:normal;font-stretch:normal;font-family:Montserrat;-inkscape-font-specification:Montserrat;stroke-width:0.564477"
       d="m 14.835158,17.102711 v 2.107378 H 14.618399 V 17.295385 H 14.12166 v -0.192674 z" />
  </g>
</svg>
