<?xml version="1.0" encoding="UTF-8" standalone="no"?>
<svg
   xmlns:dc="http://purl.org/dc/elements/1.1/"
   xmlns:cc="http://creativecommons.org/ns#"
   xmlns:rdf="http://www.w3.org/1999/02/22-rdf-syntax-ns#"
   xmlns:svg="http://www.w3.org/2000/svg"
   xmlns="http://www.w3.org/2000/svg"
   xmlns:sodipodi="http://sodipodi.sourceforge.net/DTD/sodipodi-0.dtd"
   xmlns:inkscape="http://www.inkscape.org/namespaces/inkscape"
   inkscape:version="1.0 (4035a4fb49, 2020-05-01)"
   sodipodi:docname="button1.svg"
   id="svg2375"
   version="1.1"
   viewBox="0 0 42.682086 17.218298"
   height="17.218298mm"
   width="42.682087mm">
  <defs
     id="defs2369" />
  <sodipodi:namedview
     fit-margin-bottom="0"
     fit-margin-right="0"
     fit-margin-left="0"
     fit-margin-top="0"
     inkscape:window-maximized="0"
     inkscape:window-y="0"
     inkscape:window-x="0"
     inkscape:window-height="1024"
     inkscape:window-width="1898"
     showgrid="false"
     inkscape:document-rotation="0"
     inkscape:current-layer="layer1"
     inkscape:document-units="mm"
     inkscape:cy="80.013677"
     inkscape:cx="167.85054"
     inkscape:zoom="3.959798"
     inkscape:pageshadow="2"
     inkscape:pageopacity="0.0"
     borderopacity="1.0"
     bordercolor="#666666"
     pagecolor="#ffffff"
     id="base" />
  <metadata
     id="metadata2372">
    <rdf:RDF>
      <cc:Work
         rdf:about="">
        <dc:format>image/svg+xml</dc:format>
        <dc:type
           rdf:resource="http://purl.org/dc/dcmitype/StillImage" />
        <dc:title></dc:title>
      </cc:Work>
    </rdf:RDF>
  </metadata>
  <g
     transform="translate(-286.69549,-99.891514)"
     id="layer1"
     inkscape:groupmode="layer"
     inkscape:label="Слой 1">
    <path
       d="m 288.93705,103.771 h 34.61716 c 1.11349,0 2.00991,0.84517 2.00991,1.89501 v 9.31714 c 0,1.04983 -0.89642,1.89502 -2.00991,1.89502 h -34.61716 c -1.11349,0 -2.00992,-0.84519 -2.00992,-1.89502 v -9.31714 c 0,-1.04984 0.89643,-1.89501 2.00992,-1.89501 z"
       style="fill:#ffffff;fill-opacity:1;stroke:#f8f9fa;stroke-width:0.463284;stroke-linecap:round;stroke-linejoin:round;stroke-miterlimit:6;stroke-dasharray:none;stroke-opacity:1"
       id="rect2377" />
    <path
       d="m 328.89483,103.7132 a 3.3389301,3.3389318 0 0 1 -3.33894,3.33893 3.3389301,3.3389318 0 0 1 -3.33892,-3.33893 3.3389301,3.3389318 0 0 1 3.33892,-3.33894 3.3389301,3.3389318 0 0 1 3.33894,3.33894"
       style="fill:#0f9cff;fill-opacity:1;stroke:#0f9cff;stroke-width:0.965492;stroke-linecap:round;stroke-linejoin:round;stroke-miterlimit:6;stroke-opacity:1"
       id="path2940" />
    <g
       transform="matrix(1.2276622,0,0,1.2276622,-72.106556,-25.791677)"
       style="font-style:normal;font-variant:normal;font-weight:normal;font-stretch:normal;font-size:4.49837px;line-height:1.25;font-family:sans-serif;-inkscape-font-specification:sans-serif;fill:#ffffff;fill-opacity:1;stroke-width:0.0674755"
       id="text2944"
       aria-label="3">
      <path
         id="path3038"
         style="font-style:normal;font-variant:normal;font-weight:normal;font-stretch:normal;font-family:sans-serif;-inkscape-font-specification:sans-serif;fill:#ffffff;fill-opacity:1;stroke-width:0.0674755"
         d="m 324.37992,105.40764 q 0.31849,0.0681 0.49641,0.28334 0.18011,0.21526 0.18011,0.53155 0,0.48542 -0.33387,0.75119 -0.33386,0.26577 -0.94887,0.26577 -0.20647,0 -0.42612,-0.0417 -0.21745,-0.0395 -0.45027,-0.1208 v -0.42832 q 0.1845,0.10763 0.40415,0.16254 0.21964,0.0549 0.45906,0.0549 0.41733,0 0.63478,-0.16473 0.21965,-0.16474 0.21965,-0.47883 0,-0.28994 -0.20428,-0.45247 -0.20207,-0.16474 -0.56449,-0.16474 H 323.464 v -0.36461 h 0.39975 q 0.32728,0 0.5008,-0.1296 0.17352,-0.13178 0.17352,-0.37779 0,-0.25259 -0.18011,-0.38658 -0.17792,-0.13618 -0.51178,-0.13618 -0.18231,0 -0.39097,0.0395 -0.20867,0.0395 -0.45906,0.123 v -0.39536 q 0.25259,-0.0703 0.47224,-0.10543 0.22184,-0.0352 0.41733,-0.0352 0.50519,0 0.79951,0.23063 0.29433,0.22843 0.29433,0.61941 0,0.27236 -0.15595,0.46125 -0.15595,0.1867 -0.44369,0.25919 z" />
    </g>
    <g
       transform="matrix(0.92970681,0,0,0.92970681,21.386767,6.540341)"
       style="font-size:4.93889px;line-height:1.25;font-family:Montserrat;-inkscape-font-specification:Montserrat;stroke-width:0.264583"
       id="text2948"
       aria-label="Склад №1">
      <path
         id="path3041"
         style="font-style:normal;font-variant:normal;font-weight:300;font-stretch:normal;font-size:4.93889px;font-family:Montserrat;-inkscape-font-specification:'Montserrat Light';stroke-width:0.264583"
         d="m 296.68221,112.84486 q -0.5087,0 -0.91863,-0.22719 -0.40499,-0.22719 -0.64206,-0.62724 -0.23212,-0.40005 -0.23212,-0.89887 0,-0.49883 0.23212,-0.89888 0.23707,-0.40005 0.64206,-0.62724 0.40993,-0.22719 0.91863,-0.22719 0.37536,0 0.69145,0.12347 0.31609,0.11854 0.53834,0.3556 l -0.15805,0.16299 q -0.41486,-0.40993 -1.06186,-0.40993 -0.43462,0 -0.79022,0.19755 -0.3556,0.19756 -0.55809,0.54822 -0.2025,0.34572 -0.2025,0.77541 0,0.42968 0.2025,0.78034 0.20249,0.34572 0.55809,0.54328 0.3556,0.19755 0.79022,0.19755 0.64206,0 1.06186,-0.41486 l 0.15805,0.16298 q -0.22225,0.23707 -0.54328,0.36054 -0.31609,0.12347 -0.68651,0.12347 z" />
      <path
         id="path3043"
         style="font-style:normal;font-variant:normal;font-weight:300;font-stretch:normal;font-size:4.93889px;font-family:Montserrat;-inkscape-font-specification:'Montserrat Light';stroke-width:0.264583"
         d="m 299.51637,111.62496 h -0.62724 v 1.19521 h -0.24695 v -2.5781 h 0.24695 v 1.17051 h 0.62724 l 0.97296,-1.17051 h 0.27164 l -1.04705,1.24954 1.12607,1.32856 h -0.29634 z" />
      <path
         id="path3045"
         style="font-style:normal;font-variant:normal;font-weight:300;font-stretch:normal;font-size:4.93889px;font-family:Montserrat;-inkscape-font-specification:'Montserrat Light';stroke-width:0.264583"
         d="m 303.46431,110.24207 v 2.5781 h -0.24694 v -2.35585 h -1.34338 l -0.0346,0.6865 q -0.0296,0.5334 -0.0889,0.89394 -0.0593,0.36054 -0.2025,0.58279 -0.14322,0.22225 -0.39511,0.22225 -0.0741,0 -0.21237,-0.0346 l 0.0247,-0.21237 q 0.079,0.0197 0.11853,0.0197 0.20743,0 0.31609,-0.20249 0.10865,-0.2025 0.14816,-0.50377 0.0395,-0.30127 0.0642,-0.78528 l 0.0444,-0.889 z" />
      <path
         id="path3047"
         style="font-style:normal;font-variant:normal;font-weight:300;font-stretch:normal;font-size:4.93889px;font-family:Montserrat;-inkscape-font-specification:'Montserrat Light';stroke-width:0.264583"
         d="m 305.38083,110.22231 q 0.47908,0 0.7359,0.24695 0.25682,0.242 0.25682,0.71613 v 1.63478 h -0.23707 v -0.45932 q -0.12347,0.22719 -0.36053,0.3556 -0.23707,0.12347 -0.56798,0.12347 -0.42968,0 -0.68156,-0.20249 -0.24695,-0.2025 -0.24695,-0.5334 0,-0.32103 0.22719,-0.51858 0.23213,-0.2025 0.73589,-0.2025 h 0.88407 v -0.20743 q 0,-0.36054 -0.19756,-0.54822 -0.19262,-0.18768 -0.56797,-0.18768 -0.25682,0 -0.49389,0.0889 -0.23213,0.0889 -0.39511,0.23707 l -0.12347,-0.1778 q 0.19261,-0.17286 0.46425,-0.2667 0.27164,-0.0988 0.56797,-0.0988 z m -0.13829,2.41512 q 0.32103,0 0.54328,-0.14817 0.22719,-0.14816 0.34079,-0.42968 v -0.48401 h -0.87913 q -0.38029,0 -0.55315,0.13829 -0.16792,0.13829 -0.16792,0.38029 0,0.25188 0.18767,0.40005 0.18768,0.14323 0.52846,0.14323 z" />
      <path
         id="path3049"
         style="font-style:normal;font-variant:normal;font-weight:300;font-stretch:normal;font-size:4.93889px;font-family:Montserrat;-inkscape-font-specification:'Montserrat Light';stroke-width:0.264583"
         d="m 309.79705,112.60286 v 0.85936 h -0.23213 v -0.64205 h -2.43981 v 0.64205 h -0.23707 v -0.85936 h 0.15311 q 0.26176,-0.0148 0.3556,-0.40499 0.0988,-0.39511 0.13829,-1.10631 l 0.0346,-0.84949 h 1.81257 v 2.36079 z m -2.03482,-1.49649 q -0.0247,0.58773 -0.0988,0.9779 -0.0741,0.39018 -0.2667,0.51859 h 1.73849 v -2.13854 h -1.34338 z" />
      <path
         id="path3051"
         style="font-style:normal;font-variant:normal;font-weight:300;font-stretch:normal;font-size:4.93889px;font-family:Montserrat;-inkscape-font-specification:'Montserrat Light';stroke-width:0.264583"
         d="m 316.0422,110.90388 q -0.23707,0 -0.42968,-0.0988 -0.18768,-0.10372 -0.29634,-0.28152 -0.10371,-0.1778 -0.10371,-0.40005 0,-0.22225 0.10371,-0.40005 0.10866,-0.1778 0.29634,-0.27657 0.19261,-0.10372 0.42968,-0.10372 0.23707,0 0.42474,0.10372 0.19262,0.0988 0.30128,0.27657 0.10865,0.1778 0.10865,0.40005 0,0.22225 -0.10865,0.40005 -0.10866,0.1778 -0.30128,0.28152 -0.18767,0.0988 -0.42474,0.0988 z m -1.61008,-1.54094 h 0.25188 v 3.45723 h -0.20743 l -2.35585,-3.00285 v 3.00285 h -0.25188 v -3.45723 h 0.21237 l 2.35091,3.00285 z m 1.61008,0.14323 q -0.28152,0 -0.46426,0.17286 -0.1778,0.17286 -0.1778,0.4445 0,0.27164 0.1778,0.4445 0.18274,0.16793 0.46426,0.16793 0.28152,0 0.46425,-0.16793 0.18274,-0.17286 0.18274,-0.4445 0,-0.27164 -0.18274,-0.4445 -0.18273,-0.17286 -0.46425,-0.17286 z m -0.73096,1.85209 h 1.46685 v 0.18274 h -1.46685 z" />
      <path
         id="path3053"
         style="font-style:normal;font-variant:normal;font-weight:300;font-stretch:normal;font-size:4.93889px;font-family:Montserrat;-inkscape-font-specification:'Montserrat Light';stroke-width:0.264583"
         d="m 318.45539,109.36294 v 3.45723 h -0.25189 v -3.23004 h -0.84455 v -0.22719 z" />
    </g>
  </g>
</svg>
