<?xml version="1.0" encoding="UTF-8" standalone="no"?>
<svg
   xmlns:dc="http://purl.org/dc/elements/1.1/"
   xmlns:cc="http://creativecommons.org/ns#"
   xmlns:rdf="http://www.w3.org/1999/02/22-rdf-syntax-ns#"
   xmlns:svg="http://www.w3.org/2000/svg"
   xmlns="http://www.w3.org/2000/svg"
   xmlns:sodipodi="http://sodipodi.sourceforge.net/DTD/sodipodi-0.dtd"
   xmlns:inkscape="http://www.inkscape.org/namespaces/inkscape"
   inkscape:version="1.0 (4035a4fb49, 2020-05-01)"
   sodipodi:docname="button.svg"
   id="svg2375"
   version="1.1"
   viewBox="0 0 39.391235 12.220465"
   height="12.220465mm"
   width="39.391235mm">
  <defs
     id="defs2369" />
  <sodipodi:namedview
     fit-margin-bottom="0"
     fit-margin-right="0"
     fit-margin-left="0"
     fit-margin-top="0"
     inkscape:window-maximized="0"
     inkscape:window-y="0"
     inkscape:window-x="0"
     inkscape:window-height="1024"
     inkscape:window-width="1898"
     showgrid="false"
     inkscape:document-rotation="0"
     inkscape:current-layer="layer1"
     inkscape:document-units="mm"
     inkscape:cy="50.695309"
     inkscape:cx="137.91433"
     inkscape:zoom="5.6"
     inkscape:pageshadow="2"
     inkscape:pageopacity="0.0"
     borderopacity="1.0"
     bordercolor="#666666"
     pagecolor="#ffffff"
     id="base" />
  <metadata
     id="metadata2372">
    <rdf:RDF>
      <cc:Work
         rdf:about="">
        <dc:format>image/svg+xml</dc:format>
        <dc:type
           rdf:resource="http://purl.org/dc/dcmitype/StillImage" />
        <dc:title></dc:title>
      </cc:Work>
    </rdf:RDF>
  </metadata>
  <g
     transform="translate(-360.43008,-103.50998)"
     id="layer1"
     inkscape:groupmode="layer"
     inkscape:label="Слой 1">
    <path
       d="m 362.50486,105.6357 h 32.38096 c 1.04156,0 1.88007,0.63837 1.88007,1.43133 v 7.03737 c 0,0.79296 -0.83851,1.43133 -1.88007,1.43133 h -32.38096 c -1.04156,0 -1.88007,-0.63837 -1.88007,-1.43133 v -7.03737 c 0,-0.79296 0.83851,-1.43133 1.88007,-1.43133 z"
       style="fill:#ffffff;fill-opacity:1;stroke:#f8f9fa;stroke-width:0.389412;stroke-linecap:round;stroke-linejoin:round;stroke-miterlimit:6;stroke-dasharray:none;stroke-opacity:1"
       id="rect2377" />
    <path
       d="m 399.42809,106.62295 a 2.7197466,2.719748 0 0 1 -2.71975,2.71975 2.7197466,2.719748 0 0 1 -2.71974,-2.71975 2.7197466,2.719748 0 0 1 2.71974,-2.71975 2.7197466,2.719748 0 0 1 2.71975,2.71975"
       style="fill:#ff0f0f;fill-opacity:1;stroke:#ff0f0f;stroke-width:0.786448;stroke-linecap:round;stroke-linejoin:round;stroke-miterlimit:6;stroke-opacity:1"
       id="path2940" />
    <g
       style="font-style:normal;font-variant:normal;font-weight:normal;font-stretch:normal;font-size:4.49837px;line-height:1.25;font-family:sans-serif;-inkscape-font-specification:sans-serif;fill:#ffffff;fill-opacity:1;stroke-width:0.0674755"
       id="text2944"
       aria-label="1">
      <path
         id="path2994"
         style="font-style:normal;font-variant:normal;font-weight:normal;font-stretch:normal;font-family:sans-serif;-inkscape-font-specification:sans-serif;fill:#ffffff;fill-opacity:1;stroke-width:0.0674755"
         d="m 395.99693,107.74734 h 0.72483 v -2.50178 l -0.78853,0.15815 v -0.40415 l 0.78414,-0.15815 h 0.44369 v 2.90593 h 0.72483 v 0.3734 h -1.88896 z" />
    </g>
    <g
       style="font-size:4.93889px;line-height:1.25;font-family:Montserrat;-inkscape-font-specification:Montserrat;stroke-width:0.264583"
       id="text2948"
       aria-label="Объект №1">
      <path
         id="path2997"
         style="font-size:4.93889px;stroke-width:0.264583"
         d="m 367.24652,112.7553 q -0.51364,0 -0.93345,-0.22719 -0.41487,-0.23212 -0.65193,-0.63217 -0.23213,-0.40005 -0.23213,-0.89888 0,-0.49883 0.23213,-0.89888 0.23706,-0.40005 0.65193,-0.62724 0.41981,-0.23213 0.93345,-0.23213 0.51364,0 0.92357,0.22719 0.41487,0.22719 0.65194,0.63218 0.23706,0.40005 0.23706,0.89888 0,0.49883 -0.23706,0.90382 -0.23707,0.40005 -0.65194,0.62723 -0.40993,0.22719 -0.92357,0.22719 z m 0,-0.32596 q 0.40993,0 0.74083,-0.18274 0.33091,-0.18768 0.51859,-0.51365 0.18767,-0.3309 0.18767,-0.73589 0,-0.40499 -0.18767,-0.73096 -0.18768,-0.3309 -0.51859,-0.51364 -0.3309,-0.18768 -0.74083,-0.18768 -0.40993,0 -0.74577,0.18768 -0.33091,0.18274 -0.52353,0.51364 -0.18767,0.32597 -0.18767,0.73096 0,0.40499 0.18767,0.73589 0.19262,0.32597 0.52353,0.51365 0.33584,0.18274 0.74577,0.18274 z" />
      <path
         id="path2999"
         style="font-size:4.93889px;stroke-width:0.264583"
         d="m 371.11151,110.19202 q 0.36054,0 0.64206,0.16298 0.28645,0.15805 0.4445,0.44944 0.15804,0.28646 0.15804,0.65687 0,0.3803 -0.16792,0.67663 -0.16299,0.2914 -0.45932,0.45438 -0.29633,0.16298 -0.68157,0.16298 -0.64699,0 -1.00259,-0.45437 -0.3556,-0.45438 -0.3556,-1.25448 0,-0.83468 0.31609,-1.27918 0.32103,-0.4445 0.99765,-0.60254 l 1.16558,-0.2667 0.0593,0.32103 -1.09643,0.25188 q -0.5581,0.12347 -0.81986,0.43956 -0.26176,0.31115 -0.28646,0.92357 0.15805,-0.30127 0.43957,-0.46919 0.28151,-0.17286 0.64699,-0.17286 z m -0.0543,2.27189 q 0.27164,0 0.48401,-0.12347 0.21731,-0.12841 0.33585,-0.3556 0.12347,-0.22719 0.12347,-0.51365 0,-0.28645 -0.11853,-0.50376 -0.11854,-0.21732 -0.33585,-0.33585 -0.21237,-0.12347 -0.48895,-0.12347 -0.27658,0 -0.49389,0.12347 -0.21237,0.11853 -0.33584,0.33585 -0.11854,0.21731 -0.11854,0.50376 0,0.28646 0.11854,0.51365 0.12347,0.22719 0.34078,0.3556 0.21731,0.12347 0.48895,0.12347 z" />
      <path
         id="path3001"
         style="font-size:4.93889px;stroke-width:0.264583"
         d="m 374.42388,111.03657 q 0.47908,0 0.73096,0.21731 0.25188,0.21731 0.25188,0.61242 0,0.41981 -0.27164,0.64206 -0.27163,0.21731 -0.78034,0.21731 h -1.02729 v -2.28671 h -0.80998 v -0.31115 h 1.16064 v 0.90876 z m -0.0741,1.41746 q 0.34572,0 0.52352,-0.14817 0.1778,-0.14816 0.1778,-0.43956 0,-0.56303 -0.70132,-0.56303 h -0.67169 v 1.15076 z" />
      <path
         id="path3003"
         style="font-size:4.93889px;stroke-width:0.264583"
         d="m 378.34583,111.5354 h -2.17312 q 0.0296,0.40499 0.31115,0.65687 0.28152,0.24694 0.7112,0.24694 0.24201,0 0.4445,-0.084 0.2025,-0.0889 0.35067,-0.25682 l 0.19755,0.22719 q -0.17286,0.20743 -0.43462,0.31609 -0.25682,0.10865 -0.56797,0.10865 -0.40005,0 -0.7112,-0.16792 -0.30621,-0.17286 -0.47908,-0.47413 -0.17286,-0.30127 -0.17286,-0.68157 0,-0.38029 0.16299,-0.68157 0.16792,-0.30127 0.45437,-0.46919 0.2914,-0.16792 0.65194,-0.16792 0.36054,0 0.64699,0.16792 0.28646,0.16792 0.44944,0.46919 0.16298,0.29634 0.16298,0.68157 z m -1.25448,-1.12607 q -0.37536,0 -0.63218,0.24201 -0.25188,0.23706 -0.28646,0.6223 h 1.84221 q -0.0346,-0.38524 -0.29139,-0.6223 -0.25189,-0.24201 -0.63218,-0.24201 z" />
      <path
         id="path3005"
         style="font-size:4.93889px;stroke-width:0.264583"
         d="m 380.06549,111.56997 h -0.59267 v 1.1557 h -0.35066 v -2.59786 h 0.35066 v 1.14089 h 0.5976 l 0.9137,-1.14089 h 0.38029 l -1.02235,1.25942 1.09644,1.33844 h -0.41487 z" />
      <path
         id="path3007"
         style="font-size:4.93889px;stroke-width:0.264583"
         d="m 383.75661,110.43896 h -0.98284 v 2.28671 h -0.35066 v -2.28671 h -0.98284 v -0.31115 h 2.31634 z" />
      <path
         id="path3009"
         style="font-size:4.93889px;stroke-width:0.264583"
         d="m 389.85305,110.81926 q -0.242,0 -0.43956,-0.0988 -0.19261,-0.10372 -0.30621,-0.28152 -0.10865,-0.18274 -0.10865,-0.40992 0,-0.22719 0.10865,-0.40499 0.1136,-0.1778 0.30621,-0.27658 0.19756,-0.10372 0.43956,-0.10372 0.24201,0 0.43463,0.10372 0.19755,0.0988 0.30621,0.27658 0.11359,0.1778 0.11359,0.40499 0,0.22718 -0.11359,0.40992 -0.10866,0.1778 -0.30621,0.28152 -0.19262,0.0988 -0.43463,0.0988 z m -1.70391,-1.55081 h 0.36054 v 3.45722 h -0.30128 l -2.2225,-2.80529 v 2.80529 h -0.36547 v -3.45722 h 0.30127 l 2.22744,2.80529 z m 1.70391,0.19261 q -0.26176,0 -0.42968,0.15805 -0.16792,0.15804 -0.16792,0.40993 0,0.25188 0.16298,0.40992 0.16792,0.15805 0.43462,0.15805 0.2667,0 0.42969,-0.15805 0.16792,-0.15804 0.16792,-0.40992 0,-0.25189 -0.16792,-0.40993 -0.16792,-0.15805 -0.42969,-0.15805 z m -0.75565,1.78294 h 1.5113 v 0.24695 h -1.5113 z" />
      <path
         id="path3011"
         style="font-size:4.93889px;stroke-width:0.264583"
         d="m 392.33022,109.26845 v 3.45722 h -0.3556 v -3.14113 h -0.81492 v -0.31609 z" />
    </g>
  </g>
</svg>
