<?xml version="1.0" encoding="UTF-8" standalone="no"?>
<svg
   xmlns:dc="http://purl.org/dc/elements/1.1/"
   xmlns:cc="http://creativecommons.org/ns#"
   xmlns:rdf="http://www.w3.org/1999/02/22-rdf-syntax-ns#"
   xmlns:svg="http://www.w3.org/2000/svg"
   xmlns="http://www.w3.org/2000/svg"
   xmlns:sodipodi="http://sodipodi.sourceforge.net/DTD/sodipodi-0.dtd"
   xmlns:inkscape="http://www.inkscape.org/namespaces/inkscape"
   width="42.669415mm"
   height="17.297276mm"
   viewBox="0 0 42.669414 17.297276"
   version="1.1"
   id="svg2375"
   sodipodi:docname="button.svg"
   inkscape:version="1.0 (4035a4fb49, 2020-05-01)">
  <defs
     id="defs2369" />
  <sodipodi:namedview
     id="base"
     pagecolor="#ffffff"
     bordercolor="#666666"
     borderopacity="1.0"
     inkscape:pageopacity="0.0"
     inkscape:pageshadow="2"
     inkscape:zoom="3.959798"
     inkscape:cx="190.46648"
     inkscape:cy="82.057296"
     inkscape:document-units="mm"
     inkscape:current-layer="layer1"
     inkscape:document-rotation="0"
     showgrid="false"
     inkscape:window-width="1898"
     inkscape:window-height="1024"
     inkscape:window-x="0"
     inkscape:window-y="0"
     inkscape:window-maximized="0"
     fit-margin-top="0"
     fit-margin-left="0"
     fit-margin-right="0"
     fit-margin-bottom="0" />
  <metadata
     id="metadata2372">
    <rdf:RDF>
      <cc:Work
         rdf:about="">
        <dc:format>image/svg+xml</dc:format>
        <dc:type
           rdf:resource="http://purl.org/dc/dcmitype/StillImage" />
        <dc:title></dc:title>
      </cc:Work>
    </rdf:RDF>
  </metadata>
  <g
     inkscape:label="Слой 1"
     inkscape:groupmode="layer"
     id="layer1"
     transform="translate(-242.25176,-87.295737)">
    <path
       id="rect2377-2"
       style="fill:#ffffff;fill-opacity:1;stroke:#f8f9fa;stroke-width:0.463283;stroke-linecap:round;stroke-linejoin:round;stroke-miterlimit:6;stroke-dasharray:none;stroke-opacity:1"
       d="m 244.49332,91.254199 h 34.61716 c 1.11349,0 2.00991,0.84517 2.00991,1.89501 v 9.317141 c 0,1.04983 -0.89642,1.89502 -2.00991,1.89502 h -34.61716 c -1.11349,0 -2.00992,-0.84519 -2.00992,-1.89502 v -9.317141 c 0,-1.04984 0.89643,-1.89501 2.00992,-1.89501 z" />
    <path
       d="m 284.43246,91.164661 a 3.380209,3.3802111 0 0 1 -3.38021,3.38022 3.380209,3.3802111 0 0 1 -3.3802,-3.38022 3.380209,3.3802111 0 0 1 3.3802,-3.38021 3.380209,3.3802111 0 0 1 3.38021,3.38021"
       style="fill:#ff0f0f;fill-opacity:1;stroke:#ff0f0f;stroke-width:0.977429;stroke-linecap:round;stroke-linejoin:round;stroke-miterlimit:6;stroke-opacity:1"
       id="path2940-5" />
    <g
       transform="matrix(1.2428397,0,0,1.2428397,-121.40918,-40.176164)"
       style="font-style:normal;font-variant:normal;font-weight:normal;font-stretch:normal;font-size:4.49837px;line-height:1.25;font-family:sans-serif;-inkscape-font-specification:sans-serif;fill:#ffffff;fill-opacity:1;stroke-width:0.0674755"
       id="text2944-9"
       aria-label="1">
      <path
         id="path3016-7"
         style="font-style:normal;font-variant:normal;font-weight:normal;font-stretch:normal;font-family:sans-serif;-inkscape-font-specification:sans-serif;fill:#ffffff;fill-opacity:1;stroke-width:0.0674755"
         d="m 323.11256,106.8024 h 0.72484 v -2.50178 l -0.78854,0.15814 v -0.40415 l 0.78414,-0.15814 h 0.44369 v 2.90593 h 0.72483 v 0.3734 h -1.88896 z" />
    </g>
    <g
       style="font-style:normal;font-variant:normal;font-weight:300;font-stretch:normal;font-size:4.58279px;line-height:1.25;font-family:Montserrat;-inkscape-font-specification:'Montserrat Light';stroke-width:0.343708"
       id="text3319"
       transform="scale(0.98145877,1.0188915)"
       aria-label="Объект №1">
      <path
         id="path3321"
         style="font-style:normal;font-variant:normal;font-weight:300;font-stretch:normal;font-size:4.58279px;font-family:Montserrat;-inkscape-font-specification:'Montserrat Light';stroke-width:0.343708"
         d="m 255.74696,97.55852 q -0.47203,0 -0.8524,-0.210808 -0.38037,-0.215391 -0.60034,-0.586597 -0.21539,-0.371206 -0.21539,-0.829485 0,-0.458279 0.21539,-0.829485 0.21997,-0.371206 0.60034,-0.582014 0.38037,-0.215391 0.8524,-0.215391 0.47203,0 0.8524,0.210808 0.38037,0.210808 0.59576,0.582014 0.21998,0.371206 0.21998,0.834068 0,0.462862 -0.21998,0.834068 -0.21539,0.371206 -0.59576,0.582014 -0.38037,0.210808 -0.8524,0.210808 z m 0,-0.215391 q 0.40329,0 0.72867,-0.183311 0.32537,-0.183312 0.51327,-0.504107 0.18789,-0.325378 0.18789,-0.724081 0,-0.398703 -0.18789,-0.719498 -0.1879,-0.325378 -0.51327,-0.50869 -0.32538,-0.183311 -0.72867,-0.183311 -0.40328,0 -0.73324,0.183311 -0.32538,0.183312 -0.51328,0.50869 -0.18789,0.320795 -0.18789,0.719498 0,0.398703 0.18789,0.724081 0.1879,0.320795 0.51328,0.504107 0.32996,0.183311 0.73324,0.183311 z" />
      <path
         id="path3323"
         style="font-style:normal;font-variant:normal;font-weight:300;font-stretch:normal;font-size:4.58279px;font-family:Montserrat;-inkscape-font-specification:'Montserrat Light';stroke-width:0.343708"
         d="m 259.31015,95.180052 q 0.33455,0 0.59118,0.151232 0.26122,0.14665 0.40787,0.412452 0.14665,0.265801 0.14665,0.614093 0,0.348292 -0.15123,0.62326 -0.14665,0.270384 -0.41704,0.426199 -0.2658,0.151232 -0.60951,0.151232 -0.39412,0 -0.67367,-0.192477 -0.27496,-0.192477 -0.42161,-0.545352 -0.14207,-0.352875 -0.14207,-0.824902 0,-0.536186 0.12832,-0.889061 0.1329,-0.352875 0.39412,-0.554518 0.2658,-0.206225 0.67825,-0.307047 l 1.05862,-0.256636 0.0367,0.215391 -1.00822,0.238305 q -0.3712,0.08707 -0.60492,0.256636 -0.22914,0.164981 -0.34371,0.453697 -0.11457,0.288715 -0.11916,0.737829 0.11916,-0.329961 0.39871,-0.517855 0.27955,-0.192478 0.65075,-0.192478 z m -0.0275,2.181408 q 0.27038,0 0.48577,-0.128318 0.21539,-0.128318 0.33454,-0.352875 0.11916,-0.229139 0.11916,-0.517855 0,-0.288716 -0.11916,-0.50869 -0.11915,-0.224556 -0.33454,-0.343709 -0.21081,-0.123735 -0.48577,-0.123735 -0.27497,0 -0.49036,0.123735 -0.21539,0.119153 -0.33455,0.343709 -0.11915,0.219974 -0.11915,0.50869 0,0.288716 0.11915,0.517855 0.11916,0.224557 0.33455,0.352875 0.21539,0.128318 0.49036,0.128318 z" />
      <path
         id="path3325"
         style="font-style:normal;font-variant:normal;font-weight:300;font-stretch:normal;font-size:4.58279px;font-family:Montserrat;-inkscape-font-specification:'Montserrat Light';stroke-width:0.343708"
         d="m 262.3335,96.004955 q 0.43537,0 0.66451,0.19706 0.22914,0.192477 0.22914,0.554517 0,0.380372 -0.24289,0.582014 -0.24289,0.19706 -0.70575,0.19706 h -0.89364 v -2.18599 h -0.76533 V 95.14339 h 0.99447 v 0.861565 z m -0.0504,1.34734 q 0.71034,0 0.71034,-0.595763 0,-0.572849 -0.71034,-0.572849 h -0.66908 v 1.168612 z" />
      <path
         id="path3327"
         style="font-style:normal;font-variant:normal;font-weight:300;font-stretch:normal;font-size:4.58279px;font-family:Montserrat;-inkscape-font-specification:'Montserrat Light';stroke-width:0.343708"
         d="m 265.93314,96.394492 h -2.05767 q 0.009,0.27955 0.14207,0.499524 0.1329,0.215391 0.35745,0.334543 0.22914,0.119153 0.51328,0.119153 0.23372,0 0.43078,-0.08249 0.20164,-0.08707 0.33454,-0.252054 l 0.1329,0.151232 q -0.15581,0.187895 -0.39412,0.288716 -0.23372,0.100822 -0.50869,0.100822 -0.35745,0 -0.637,-0.155815 -0.27955,-0.155815 -0.43995,-0.430783 -0.15582,-0.274967 -0.15582,-0.627842 0,-0.348292 0.14665,-0.623259 0.15123,-0.27955 0.41245,-0.435365 0.26122,-0.155815 0.5866,-0.155815 0.32538,0 0.58202,0.155815 0.26121,0.151232 0.40786,0.426199 0.15124,0.274968 0.15124,0.62326 z m -1.13653,-1.06779 q -0.25205,0 -0.4537,0.114569 -0.20164,0.109987 -0.32537,0.316213 -0.11916,0.201643 -0.13749,0.458279 h 1.83312 q -0.0138,-0.256636 -0.13748,-0.458279 -0.12374,-0.201643 -0.32538,-0.316213 -0.20165,-0.114569 -0.4537,-0.114569 z" />
      <path
         id="path3329"
         style="font-style:normal;font-variant:normal;font-weight:300;font-stretch:normal;font-size:4.58279px;font-family:Montserrat;-inkscape-font-specification:'Montserrat Light';stroke-width:0.343708"
         d="m 267.49759,96.426571 h -0.58201 v 1.109035 h -0.22914 V 95.14339 h 0.22914 v 1.086121 h 0.58201 l 0.90281,-1.086121 h 0.25206 l -0.97156,1.159446 1.04488,1.23277 h -0.27497 z" />
      <path
         id="path3331"
         style="font-style:normal;font-variant:normal;font-weight:300;font-stretch:normal;font-size:4.58279px;font-family:Montserrat;-inkscape-font-specification:'Montserrat Light';stroke-width:0.343708"
         d="m 270.82785,95.349616 h -0.93489 v 2.18599 h -0.22914 v -2.18599 h -0.93489 V 95.14339 h 2.09892 z" />
      <path
         id="path3333"
         style="font-style:normal;font-variant:normal;font-weight:300;font-stretch:normal;font-size:4.58279px;font-family:Montserrat;-inkscape-font-specification:'Montserrat Light';stroke-width:0.343708"
         d="m 276.4321,95.757484 q -0.21997,0 -0.3987,-0.09166 -0.17415,-0.09624 -0.27497,-0.261219 -0.0962,-0.16498 -0.0962,-0.371206 0,-0.206225 0.0962,-0.371206 0.10082,-0.16498 0.27497,-0.256636 0.17873,-0.09624 0.3987,-0.09624 0.21997,0 0.39412,0.09624 0.17873,0.09166 0.27955,0.256636 0.10082,0.164981 0.10082,0.371206 0,0.206226 -0.10082,0.371206 -0.10082,0.164981 -0.27955,0.261219 -0.17415,0.09166 -0.39412,0.09166 z m -1.49399,-1.429831 h 0.23372 v 3.207953 h -0.19247 l -2.186,-2.786336 v 2.786336 h -0.23372 v -3.207953 h 0.19706 l 2.18141,2.786337 z m 1.49399,0.132901 q -0.26122,0 -0.43078,0.160398 -0.16498,0.160398 -0.16498,0.412451 0,0.252054 0.16498,0.412451 0.16956,0.155815 0.43078,0.155815 0.26122,0 0.43078,-0.155815 0.16956,-0.160397 0.16956,-0.412451 0,-0.252053 -0.16956,-0.412451 -0.16956,-0.160398 -0.43078,-0.160398 z m -0.67825,1.718547 h 1.36109 v 0.169563 h -1.36109 z" />
      <path
         id="path3335"
         style="font-style:normal;font-variant:normal;font-weight:300;font-stretch:normal;font-size:4.58279px;font-family:Montserrat;-inkscape-font-specification:'Montserrat Light';stroke-width:0.343708"
         d="m 278.67129,94.327653 v 3.207953 h -0.23372 v -2.997144 h -0.78366 v -0.210809 z" />
    </g>
  </g>
</svg>
