<?xml version="1.0" encoding="UTF-8" standalone="no"?>
<svg
   xmlns:dc="http://purl.org/dc/elements/1.1/"
   xmlns:cc="http://creativecommons.org/ns#"
   xmlns:rdf="http://www.w3.org/1999/02/22-rdf-syntax-ns#"
   xmlns:svg="http://www.w3.org/2000/svg"
   xmlns="http://www.w3.org/2000/svg"
   xmlns:sodipodi="http://sodipodi.sourceforge.net/DTD/sodipodi-0.dtd"
   xmlns:inkscape="http://www.inkscape.org/namespaces/inkscape"
   inkscape:version="1.0 (4035a4fb49, 2020-05-01)"
   sodipodi:docname="button.svg"
   id="svg2375"
   version="1.1"
   viewBox="0 0 38.436855 14.346576"
   height="14.346576mm"
   width="38.436855mm">
  <defs
     id="defs2369" />
  <sodipodi:namedview
     fit-margin-bottom="0"
     fit-margin-right="0"
     fit-margin-left="0"
     fit-margin-top="0"
     inkscape:window-maximized="0"
     inkscape:window-y="0"
     inkscape:window-x="0"
     inkscape:window-height="1024"
     inkscape:window-width="1898"
     showgrid="false"
     inkscape:document-rotation="0"
     inkscape:current-layer="layer1"
     inkscape:document-units="mm"
     inkscape:cy="-48.124242"
     inkscape:cx="287.2069"
     inkscape:zoom="0.98994949"
     inkscape:pageshadow="2"
     inkscape:pageopacity="0.0"
     borderopacity="1.0"
     bordercolor="#666666"
     pagecolor="#ffffff"
     id="base" />
  <metadata
     id="metadata2372">
    <rdf:RDF>
      <cc:Work
         rdf:about="">
        <dc:format>image/svg+xml</dc:format>
        <dc:type
           rdf:resource="http://purl.org/dc/dcmitype/StillImage" />
        <dc:title></dc:title>
      </cc:Work>
    </rdf:RDF>
  </metadata>
  <g
     transform="translate(-288.50009,-102.56504)"
     id="layer1"
     inkscape:groupmode="layer"
     inkscape:label="Слой 1">
    <path
       d="m 290.54353,105.6446 h 31.68769 c 1.01926,0 1.83982,0.71339 1.83982,1.59953 v 7.86434 c 0,0.88614 -0.82056,1.59953 -1.83982,1.59953 h -31.68769 c -1.01926,0 -1.83983,-0.71339 -1.83983,-1.59953 v -7.86434 c 0,-0.88614 0.82057,-1.59953 1.83983,-1.59953 z"
       style="fill:#ffffff;fill-opacity:1;stroke:#f8f9fa;stroke-width:0.407227;stroke-linecap:round;stroke-linejoin:round;stroke-miterlimit:6;stroke-dasharray:none;stroke-opacity:1"
       id="rect2377" />
    <path
       d="m 326.54372,105.67801 a 2.7197466,2.719748 0 0 1 -2.71975,2.71975 2.7197466,2.719748 0 0 1 -2.71974,-2.71975 2.7197466,2.719748 0 0 1 2.71974,-2.71975 2.7197466,2.719748 0 0 1 2.71975,2.71975"
       style="fill:#ff0f0f;fill-opacity:1;stroke:#ff0f0f;stroke-width:0.786448;stroke-linecap:round;stroke-linejoin:round;stroke-miterlimit:6;stroke-opacity:1"
       id="path2940" />
    <g
       style="font-style:normal;font-variant:normal;font-weight:normal;font-stretch:normal;font-size:4.49837px;line-height:1.25;font-family:sans-serif;-inkscape-font-specification:sans-serif;fill:#ffffff;fill-opacity:1;stroke-width:0.0674755"
       id="text2944"
       aria-label="1">
      <path
         id="path3016"
         style="font-style:normal;font-variant:normal;font-weight:normal;font-stretch:normal;font-family:sans-serif;-inkscape-font-specification:sans-serif;fill:#ffffff;fill-opacity:1;stroke-width:0.0674755"
         d="m 323.11256,106.8024 h 0.72484 v -2.50178 l -0.78854,0.15814 v -0.40415 l 0.78414,-0.15814 h 0.44369 v 2.90593 h 0.72483 v 0.3734 h -1.88896 z" />
    </g>
    <g
       style="font-size:4.93889px;line-height:1.25;font-family:Montserrat;-inkscape-font-specification:Montserrat;stroke-width:0.264583"
       id="text2948"
       aria-label="Объект №1">
      <path
         id="path3019"
         style="font-style:normal;font-variant:normal;font-weight:300;font-stretch:normal;font-size:4.93889px;font-family:Montserrat;-inkscape-font-specification:'Montserrat Light';stroke-width:0.264583"
         d="m 294.56551,112.84486 q -0.5087,0 -0.91863,-0.22719 -0.40993,-0.23212 -0.64699,-0.63217 -0.23213,-0.40005 -0.23213,-0.89394 0,-0.49389 0.23213,-0.89394 0.23706,-0.40005 0.64699,-0.62724 0.40993,-0.23213 0.91863,-0.23213 0.50871,0 0.91864,0.22719 0.40993,0.22719 0.64205,0.62724 0.23707,0.40005 0.23707,0.89888 0,0.49882 -0.23707,0.89887 -0.23212,0.40005 -0.64205,0.62724 -0.40993,0.22719 -0.91864,0.22719 z m 0,-0.23213 q 0.43463,0 0.78529,-0.19755 0.35066,-0.19756 0.55315,-0.54328 0.2025,-0.35066 0.2025,-0.78034 0,-0.42969 -0.2025,-0.77541 -0.20249,-0.35066 -0.55315,-0.54822 -0.35066,-0.19755 -0.78529,-0.19755 -0.43462,0 -0.79022,0.19755 -0.35066,0.19756 -0.55315,0.54822 -0.2025,0.34572 -0.2025,0.77541 0,0.42968 0.2025,0.78034 0.20249,0.34572 0.55315,0.54328 0.3556,0.19755 0.79022,0.19755 z" />
      <path
         id="path3021"
         style="font-style:normal;font-variant:normal;font-weight:300;font-stretch:normal;font-size:4.93889px;font-family:Montserrat;-inkscape-font-specification:'Montserrat Light';stroke-width:0.264583"
         d="m 298.40558,110.28158 q 0.36054,0 0.63712,0.16298 0.28151,0.15805 0.43956,0.4445 0.15804,0.28646 0.15804,0.66181 0,0.37536 -0.16298,0.67169 -0.15805,0.2914 -0.44944,0.45932 -0.28646,0.16298 -0.65687,0.16298 -0.42475,0 -0.72602,-0.20743 -0.29633,-0.20743 -0.45438,-0.58773 -0.1531,-0.38029 -0.1531,-0.889 0,-0.57785 0.13829,-0.95814 0.14322,-0.3803 0.42474,-0.59761 0.28646,-0.22225 0.73096,-0.33091 l 1.14088,-0.27657 0.0395,0.23212 -1.08656,0.25683 q -0.40005,0.0938 -0.65193,0.27657 -0.24694,0.1778 -0.37042,0.48895 -0.12347,0.31115 -0.12841,0.79517 0.12841,-0.3556 0.42969,-0.5581 0.30127,-0.20743 0.70132,-0.20743 z m -0.0296,2.35091 q 0.29139,0 0.52352,-0.13829 0.23213,-0.13829 0.36054,-0.38029 0.12841,-0.24695 0.12841,-0.5581 0,-0.31115 -0.12841,-0.54822 -0.12841,-0.242 -0.36054,-0.37041 -0.22719,-0.13335 -0.52352,-0.13335 -0.29634,0 -0.52847,0.13335 -0.23212,0.12841 -0.36053,0.37041 -0.12842,0.23707 -0.12842,0.54822 0,0.31115 0.12842,0.5581 0.12841,0.242 0.36053,0.38029 0.23213,0.13829 0.52847,0.13829 z" />
      <path
         id="path3023"
         style="font-style:normal;font-variant:normal;font-weight:300;font-stretch:normal;font-size:4.93889px;font-family:Montserrat;-inkscape-font-specification:'Montserrat Light';stroke-width:0.264583"
         d="m 301.66386,111.17058 q 0.46919,0 0.71614,0.21237 0.24694,0.20743 0.24694,0.59761 0,0.40992 -0.26176,0.62724 -0.26176,0.21237 -0.76059,0.21237 h -0.96308 v -2.35585 h -0.8248 v -0.22225 h 1.07174 v 0.92851 z m -0.0543,1.45203 q 0.76553,0 0.76553,-0.64205 0,-0.61737 -0.76553,-0.61737 h -0.72108 v 1.25942 z" />
      <path
         id="path3025"
         style="font-style:normal;font-variant:normal;font-weight:300;font-stretch:normal;font-size:4.93889px;font-family:Montserrat;-inkscape-font-specification:'Montserrat Light';stroke-width:0.264583"
         d="m 305.5432,111.59038 h -2.21756 q 0.01,0.30128 0.1531,0.53834 0.14323,0.23213 0.38524,0.36054 0.24694,0.12841 0.55315,0.12841 0.25189,0 0.46426,-0.0889 0.21731,-0.0938 0.36054,-0.27164 l 0.14323,0.16299 q -0.16793,0.20249 -0.42475,0.31115 -0.25188,0.10865 -0.54822,0.10865 -0.38523,0 -0.6865,-0.16792 -0.30127,-0.16792 -0.47413,-0.46425 -0.16793,-0.29634 -0.16793,-0.67663 0,-0.37536 0.15805,-0.67169 0.16298,-0.30127 0.4445,-0.4692 0.28151,-0.16792 0.63218,-0.16792 0.35066,0 0.62724,0.16792 0.28151,0.16299 0.43956,0.45932 0.16298,0.29633 0.16298,0.67169 z m -1.22484,-1.15076 q -0.27164,0 -0.48895,0.12347 -0.21732,0.11854 -0.35067,0.34079 -0.12841,0.21731 -0.14816,0.49389 h 1.97555 q -0.0148,-0.27658 -0.14816,-0.49389 -0.13335,-0.21731 -0.35066,-0.34079 -0.21732,-0.12347 -0.48895,-0.12347 z" />
      <path
         id="path3027"
         style="font-style:normal;font-variant:normal;font-weight:300;font-stretch:normal;font-size:4.93889px;font-family:Montserrat;-inkscape-font-specification:'Montserrat Light';stroke-width:0.264583"
         d="m 307.22922,111.62496 h -0.62724 v 1.19521 h -0.24695 v -2.5781 h 0.24695 v 1.17051 h 0.62724 l 0.97296,-1.17051 h 0.27164 l -1.04705,1.24954 1.12607,1.32856 h -0.29634 z" />
      <path
         id="path3029"
         style="font-style:normal;font-variant:normal;font-weight:300;font-stretch:normal;font-size:4.93889px;font-family:Montserrat;-inkscape-font-specification:'Montserrat Light';stroke-width:0.264583"
         d="m 310.81825,110.46432 h -1.00754 v 2.35585 h -0.24694 v -2.35585 h -1.00754 v -0.22225 h 2.26202 z" />
      <path
         id="path3031"
         style="font-style:normal;font-variant:normal;font-weight:300;font-stretch:normal;font-size:4.93889px;font-family:Montserrat;-inkscape-font-specification:'Montserrat Light';stroke-width:0.264583"
         d="m 316.85797,110.90388 q -0.23707,0 -0.42969,-0.0988 -0.18767,-0.10372 -0.29633,-0.28152 -0.10372,-0.1778 -0.10372,-0.40005 0,-0.22225 0.10372,-0.40005 0.10866,-0.1778 0.29633,-0.27657 0.19262,-0.10372 0.42969,-0.10372 0.23706,0 0.42474,0.10372 0.19262,0.0988 0.30127,0.27657 0.10866,0.1778 0.10866,0.40005 0,0.22225 -0.10866,0.40005 -0.10865,0.1778 -0.30127,0.28152 -0.18768,0.0988 -0.42474,0.0988 z m -1.61008,-1.54094 h 0.25188 v 3.45723 h -0.20743 l -2.35585,-3.00285 v 3.00285 h -0.25189 v -3.45723 h 0.21238 l 2.35091,3.00285 z m 1.61008,0.14323 q -0.28152,0 -0.46426,0.17286 -0.1778,0.17286 -0.1778,0.4445 0,0.27164 0.1778,0.4445 0.18274,0.16793 0.46426,0.16793 0.28151,0 0.46425,-0.16793 0.18274,-0.17286 0.18274,-0.4445 0,-0.27164 -0.18274,-0.4445 -0.18274,-0.17286 -0.46425,-0.17286 z m -0.73096,1.85209 h 1.46685 v 0.18274 h -1.46685 z" />
      <path
         id="path3033"
         style="font-style:normal;font-variant:normal;font-weight:300;font-stretch:normal;font-size:4.93889px;font-family:Montserrat;-inkscape-font-specification:'Montserrat Light';stroke-width:0.264583"
         d="m 319.27116,109.36294 v 3.45723 h -0.25189 v -3.23004 h -0.84455 v -0.22719 z" />
    </g>
  </g>
</svg>
