<?xml version="1.0" encoding="UTF-8" standalone="no"?>
<svg
   xmlns:dc="http://purl.org/dc/elements/1.1/"
   xmlns:cc="http://creativecommons.org/ns#"
   xmlns:rdf="http://www.w3.org/1999/02/22-rdf-syntax-ns#"
   xmlns:svg="http://www.w3.org/2000/svg"
   xmlns="http://www.w3.org/2000/svg"
   xmlns:sodipodi="http://sodipodi.sourceforge.net/DTD/sodipodi-0.dtd"
   xmlns:inkscape="http://www.inkscape.org/namespaces/inkscape"
   inkscape:export-ydpi="879.80194"
   inkscape:export-xdpi="879.80194"
   inkscape:export-filename="C:\Users\vstar\Desktop\E24\Photo\emiia_analytics_logo.png"
   viewBox="0 0 250.27566 60.816361"
   inkscape:version="1.0 (4035a4fb49, 2020-05-01)"
   sodipodi:docname="emiia_ai_bim.svg"
   id="svg877"
   version="1.1"
   height="60.81636"
   width="237.74747">
  <metadata
     id="metadata883">
    <rdf:RDF>
      <cc:Work
         rdf:about="">
        <dc:format>image/svg+xml</dc:format>
        <dc:type
           rdf:resource="http://purl.org/dc/dcmitype/StillImage" />
        <dc:title></dc:title>
      </cc:Work>
    </rdf:RDF>
  </metadata>
  <defs
     id="defs881" />
  <sodipodi:namedview
     viewbox-width="311.63528"
     inkscape:current-layer="svg877"
     inkscape:window-maximized="1"
     inkscape:window-y="-11"
     inkscape:window-x="-11"
     inkscape:cy="118.77472"
     inkscape:cx="320.03876"
     inkscape:zoom="2.1830866"
     fit-margin-bottom="0"
     fit-margin-right="0"
     fit-margin-left="0"
     fit-margin-top="0"
     lock-margins="true"
     showgrid="false"
     id="namedview879"
     inkscape:window-height="1046"
     inkscape:window-width="1920"
     inkscape:pageshadow="2"
     inkscape:pageopacity="0"
     guidetolerance="10"
     gridtolerance="10"
     objecttolerance="10"
     borderopacity="1"
     bordercolor="#666666"
     pagecolor="#ffffff"
     inkscape:document-rotation="0" />
  <style
     id="style863"
     type="text/css" />
  <text
     id="text3693"
     y="109.34176"
     x="202.87767"
     style="font-style:normal;font-variant:normal;font-weight:normal;font-stretch:normal;font-size:22.4575px;line-height:1.25;font-family:Orbitron;-inkscape-font-specification:Orbitron;stroke-width:1.0527"
     xml:space="preserve"><tspan
       style="font-style:normal;font-variant:normal;font-weight:normal;font-stretch:normal;font-family:Orbitron;-inkscape-font-specification:Orbitron;stroke-width:1.0527"
       y="109.34176"
       x="202.87767"
       id="tspan3691"
       sodipodi:role="line" /></text>
  <g
     aria-label="EMIIA.AI"
     id="text835"
     style="font-size:60.6103px;line-height:1.25;font-family:sans-serif;fill:#383838;fill-opacity:1;stroke:none;stroke-width:0.631618;stroke-miterlimit:4;stroke-dasharray:none;stroke-opacity:1"
     transform="translate(-48.448659,-2.0228551)">
    <path
       d="M 90.521735,2.4454509 V 7.354885 H 55.610203 V 21.780136 H 83.672771 V 26.75018 H 55.610203 v 14.425251 h 34.911532 v 4.909435 H 50.700769 V 2.4454509 Z"
       style="font-style:normal;font-variant:normal;font-weight:normal;font-stretch:normal;font-size:60.6103px;font-family:Orbitron;-inkscape-font-specification:Orbitron;fill:#383838;fill-opacity:1;stroke:none;stroke-width:0.631618;stroke-miterlimit:4;stroke-dasharray:none;stroke-opacity:1"
       id="path1470" />
    <path
       d="M 120.05884,24.022717 138.18132,2.4454509 h 6.72774 V 46.084866 h -4.90944 V 8.0215983 L 120.05884,31.720225 100.11805,8.0215983 V 46.084866 H 95.208615 V 2.4454509 h 6.727745 z"
       style="font-style:normal;font-variant:normal;font-weight:normal;font-stretch:normal;font-size:60.6103px;font-family:Orbitron;-inkscape-font-specification:Orbitron;fill:#383838;fill-opacity:1;stroke:none;stroke-width:0.631618;stroke-miterlimit:4;stroke-dasharray:none;stroke-opacity:1"
       id="path1472" />
    <path
       d="M 151.49949,46.084866 V 2.4454509 h 4.90943 V 46.084866 Z"
       style="font-style:normal;font-variant:normal;font-weight:normal;font-stretch:normal;font-size:60.6103px;font-family:Orbitron;-inkscape-font-specification:Orbitron;fill:#383838;fill-opacity:1;stroke:none;stroke-width:0.631618;stroke-miterlimit:4;stroke-dasharray:none;stroke-opacity:1"
       id="path1474" />
    <path
       d="M 164.87636,46.084866 V 2.4454509 h 4.90944 V 46.084866 Z"
       style="font-style:normal;font-variant:normal;font-weight:normal;font-stretch:normal;font-size:60.6103px;font-family:Orbitron;-inkscape-font-specification:Orbitron;fill:#383838;fill-opacity:1;stroke:none;stroke-width:0.631618;stroke-miterlimit:4;stroke-dasharray:none;stroke-opacity:1"
       id="path1476" />
    <path
       d="m 185.58709,2.4454509 h 29.09295 q 3.03051,0 5.15187,2.1213604 2.12136,2.1213605 2.12136,5.1518754 V 46.084866 h -4.90943 V 30.144357 h -33.82055 v 15.940509 h -4.90943 V 9.7186867 q 0,-3.0305149 2.12136,-5.1518754 2.12136,-2.1213604 5.15187,-2.1213604 z m -2.3638,22.7894721 h 33.82055 V 9.7186867 q 0,-0.9697648 -0.72732,-1.6364781 Q 215.6498,7.354885 214.68004,7.354885 h -29.09295 q -0.96976,0 -1.69708,0.7273236 -0.66672,0.6667133 -0.66672,1.6364781 z"
       style="font-style:normal;font-variant:normal;font-weight:normal;font-stretch:normal;font-size:60.6103px;font-family:Orbitron;-inkscape-font-specification:Orbitron;fill:#383838;fill-opacity:1;stroke:none;stroke-width:0.631618;stroke-miterlimit:4;stroke-dasharray:none;stroke-opacity:1"
       id="path1478" />
    <path
       d="m 233.70788,41.114821 v 4.970045 h -4.97004 v -4.970045 z"
       style="font-style:normal;font-variant:normal;font-weight:normal;font-stretch:normal;font-size:60.6103px;font-family:Orbitron;-inkscape-font-specification:Orbitron;fill:#383838;fill-opacity:1;stroke:none;stroke-width:0.631618;stroke-miterlimit:4;stroke-dasharray:none;stroke-opacity:1"
       id="path1480" />
    <path
       d="m 249.27526,2.4454509 h 29.09294 q 3.03052,0 5.15188,2.1213604 2.12136,2.1213605 2.12136,5.1518754 V 46.084866 H 280.732 V 30.144357 h -33.82054 v 15.940509 h -4.90944 V 9.7186867 q 0,-3.0305149 2.12136,-5.1518754 2.12136,-2.1213604 5.15188,-2.1213604 z m -2.3638,22.7894721 H 280.732 V 9.7186867 q 0,-0.9697648 -0.72732,-1.6364781 Q 279.33797,7.354885 278.3682,7.354885 h -29.09294 q -0.96977,0 -1.69709,0.7273236 -0.66671,0.6667133 -0.66671,1.6364781 z"
       style="font-style:normal;font-variant:normal;font-weight:normal;font-stretch:normal;font-size:60.6103px;font-family:Orbitron;-inkscape-font-specification:Orbitron;fill:#383838;fill-opacity:1;stroke:none;stroke-width:0.631618;stroke-miterlimit:4;stroke-dasharray:none;stroke-opacity:1"
       id="path1482" />
    <path
       d="M 292.60784,46.084866 V 2.4454509 h 4.90943 V 46.084866 Z"
       style="font-style:normal;font-variant:normal;font-weight:normal;font-stretch:normal;font-size:60.6103px;font-family:Orbitron;-inkscape-font-specification:Orbitron;fill:#383838;fill-opacity:1;stroke:none;stroke-width:0.631618;stroke-miterlimit:4;stroke-dasharray:none;stroke-opacity:1"
       id="path1484" />
  </g>
  <g
     aria-label="ANALYTICS &amp; BIM"
     id="text3697-0-9-2"
     style="font-size:15.8821px;line-height:1.25;font-family:Orbitron;-inkscape-font-specification:Orbitron;fill:#383838;fill-opacity:1;stroke-width:0.916282"
     transform="translate(-79.106151,-71.714616)">
    <path
       d="m 172.98844,121.42629 h 7.6234 q 0.79411,0 1.34998,0.55588 0.55588,0.55587 0.55588,1.34997 v 9.52926 h -1.28645 v -4.17699 h -8.86222 v 4.17699 h -1.28645 v -9.52926 q 0,-0.7941 0.55588,-1.34997 0.55587,-0.55588 1.34998,-0.55588 z m -0.61941,5.97167 h 8.86222 v -4.06582 q 0,-0.25411 -0.19059,-0.42881 -0.1747,-0.19059 -0.42882,-0.19059 h -7.6234 q -0.25412,0 -0.4447,0.19059 -0.17471,0.1747 -0.17471,0.42881 z"
       style="font-size:15.8821px;fill:#383838;fill-opacity:1;stroke-width:0.916282"
       id="path4533-3" />
    <path
       d="m 194.47593,131.40025 v -9.97396 h 1.28645 v 11.43511 h -1.76292 l -8.38575,-9.97395 v 9.97395 h -1.28645 v -11.43511 h 1.76292 z"
       style="font-size:15.8821px;fill:#383838;fill-opacity:1;stroke-width:0.916282"
       id="path4535-0" />
    <path
       d="m 199.47928,121.42629 h 7.62341 q 0.79411,0 1.34998,0.55588 0.55587,0.55587 0.55587,1.34997 v 9.52926 h -1.28645 v -4.17699 h -8.86221 v 4.17699 h -1.28645 v -9.52926 q 0,-0.7941 0.55587,-1.34997 0.55588,-0.55588 1.34998,-0.55588 z m -0.6194,5.97167 h 8.86221 v -4.06582 q 0,-0.25411 -0.19058,-0.42881 -0.17471,-0.19059 -0.42882,-0.19059 h -7.62341 q -0.25411,0 -0.4447,0.19059 -0.1747,0.1747 -0.1747,0.42881 z"
       style="font-size:15.8821px;fill:#383838;fill-opacity:1;stroke-width:0.916282"
       id="path4537-4" />
    <path
       d="m 210.83399,132.8614 v -11.45099 h 1.28645 v 10.16454 h 10.14866 v 1.28645 z"
       style="font-size:15.8821px;fill:#383838;fill-opacity:1;stroke-width:0.916282"
       id="path4539-3" />
    <path
       d="m 230.01336,121.42629 h 1.5088 l -5.25697,7.13107 v 4.30404 h -1.28645 v -4.30404 l -5.25698,-7.13107 h 1.47704 l 4.4311,5.5905 z"
       style="font-size:15.8821px;fill:#383838;fill-opacity:1;stroke-width:0.916282"
       id="path4541-6" />
    <path
       d="m 232.58056,121.42629 h 11.43511 v 1.28645 h -5.06639 v 10.14866 h -1.28645 v -10.14866 h -5.08227 z"
       style="font-size:15.8821px;fill:#383838;fill-opacity:1;stroke-width:0.916282"
       id="path4543-7" />
    <path
       d="m 245.23487,132.8614 v -11.43511 h 1.28645 v 11.43511 z"
       style="font-size:15.8821px;fill:#383838;fill-opacity:1;stroke-width:0.916282"
       id="path4545-7" />
    <path
       d="m 260.12756,122.71274 h -9.49749 q -0.25412,0 -0.4447,0.19059 -0.17471,0.1747 -0.17471,0.42881 v 7.62341 q 0,0.25412 0.17471,0.4447 0.19058,0.1747 0.4447,0.1747 h 9.49749 v 1.28645 h -9.49749 q -0.79411,0 -1.34998,-0.55587 -0.55588,-0.55587 -0.55588,-1.34998 v -7.62341 q 0,-0.7941 0.55588,-1.34997 0.55587,-0.55588 1.34998,-0.55588 h 9.49749 z"
       style="font-size:15.8821px;fill:#383838;fill-opacity:1;stroke-width:0.916282"
       id="path4547-4" />
    <path
       d="m 273.13923,123.33214 v 0.4447 h -1.28645 v -0.4447 q 0,-0.25411 -0.19059,-0.42881 -0.1747,-0.19059 -0.42882,-0.19059 h -7.6234 q -0.25412,0 -0.4447,0.19059 -0.17471,0.1747 -0.17471,0.42881 v 2.55702 q 0,0.25412 0.17471,0.42882 0.19058,0.1747 0.4447,0.1747 h 7.6234 q 0.79411,0 1.34998,0.55588 0.55588,0.55587 0.55588,1.34997 v 2.55702 q 0,0.79411 -0.55588,1.34998 -0.55587,0.55587 -1.34998,0.55587 h -7.6234 q -0.79411,0 -1.34998,-0.55587 -0.55588,-0.55587 -0.55588,-1.34998 v -0.4447 h 1.28645 v 0.4447 q 0,0.25412 0.17471,0.4447 0.19058,0.1747 0.4447,0.1747 h 7.6234 q 0.25412,0 0.42882,-0.1747 0.19059,-0.19058 0.19059,-0.4447 v -2.55702 q 0,-0.25411 -0.19059,-0.42881 -0.1747,-0.17471 -0.42882,-0.17471 h -7.6234 q -0.79411,0 -1.34998,-0.55587 -0.55588,-0.55587 -0.55588,-1.34998 v -2.55702 q 0,-0.7941 0.55588,-1.34997 0.55587,-0.55588 1.34998,-0.55588 h 7.6234 q 0.79411,0 1.34998,0.55588 0.55588,0.55587 0.55588,1.34997 z"
       style="font-size:15.8821px;fill:#383838;fill-opacity:1;stroke-width:0.916282"
       id="path4549-3" />
    <path
       d="m 290.65321,130.20909 2.1282,1.25469 v 1.14351 l -2.17585,-1.22292 q -0.27,0.66705 -0.77822,1.07998 -0.49235,0.39705 -1.09587,0.39705 h -7.70282 q -0.7941,0 -1.36586,-0.55587 -0.55587,-0.57175 -0.55587,-1.36586 v -3.41465 q 0,-0.34941 0.42882,-0.68293 0.42881,-0.34941 1.14351,-0.34941 -0.90528,-0.68293 -0.90528,-1.52468 v -1.58821 q 0,-0.80999 0.55587,-1.36586 0.57176,-0.57176 1.36586,-0.57176 h 6.52754 q 0.65117,0 1.19116,0.49235 0.55588,0.47646 0.74646,1.12763 v 0.87351 h -1.31821 v -0.53999 q 0,-0.25411 -0.19059,-0.42881 -0.1747,-0.19059 -0.42882,-0.19059 h -6.52754 q -0.25411,0 -0.4447,0.19059 -0.1747,0.1747 -0.1747,0.42881 v 2.20761 l 8.27457,4.177 v -2.20761 h 1.30234 z m -9.62456,1.34998 h 7.70282 q 0.1747,0 0.34941,-0.15882 0.1747,-0.15882 0.28588,-0.41293 l -8.09988,-4.0817 h -0.23823 q -0.25411,0 -0.4447,0.19058 -0.1747,0.17471 -0.1747,0.42882 v 3.41465 q 0,0.25411 0.1747,0.4447 0.19059,0.1747 0.4447,0.1747 z"
       style="font-size:15.8821px;fill:#383838;fill-opacity:1;stroke-width:0.916282"
       id="path4551-5-7" />
    <path
       d="m 309.13973,126.60386 0.0635,0.26999 q 0.63528,0.58764 0.63528,1.41351 v 2.66819 q 0,0.79411 -0.55587,1.34998 -0.55588,0.55587 -1.34998,0.55587 h -9.52926 v -11.43511 h 9.03691 q 0.79411,0 1.34998,0.55588 0.55588,0.55587 0.55588,1.34997 v 2.42997 q 0,0.42881 -0.20647,0.84175 z m -1.69939,-3.89112 h -7.13106 q -0.25411,0 -0.4447,0.19059 -0.1747,0.1747 -0.1747,0.42881 v 2.42997 q 0,0.25411 0.1747,0.44469 0.19059,0.17471 0.4447,0.17471 h 7.13106 q 0.25412,0 0.42882,-0.17471 0.1747,-0.19058 0.1747,-0.44469 v -2.42997 q 0,-0.25411 -0.1747,-0.42881 -0.1747,-0.19059 -0.42882,-0.19059 z m 1.11175,8.24281 v -2.66819 q 0,-0.25411 -0.19058,-0.42882 -0.17471,-0.19058 -0.42882,-0.19058 h -7.62341 q -0.25411,0 -0.4447,0.19058 -0.1747,0.17471 -0.1747,0.42882 v 2.66819 q 0,0.25412 0.1747,0.4447 0.19059,0.1747 0.4447,0.1747 h 7.62341 q 0.25411,0 0.42882,-0.1747 0.19058,-0.19058 0.19058,-0.4447 z"
       style="font-size:15.8821px;fill:#383838;fill-opacity:1;stroke-width:0.916282"
       id="path4553-3" />
    <path
       d="m 311.58607,132.8614 v -11.43511 h 1.28645 v 11.43511 z"
       style="font-size:15.8821px;fill:#383838;fill-opacity:1;stroke-width:0.916282"
       id="path4555-3" />
    <path
       d="m 321.58708,127.08032 4.74875,-5.65403 h 1.76291 v 11.43511 h -1.28645 v -9.97395 l -5.22521,6.2099 -5.22521,-6.2099 v 9.97395 h -1.28645 v -11.43511 h 1.76291 z"
       style="font-size:15.8821px;fill:#383838;fill-opacity:1;stroke-width:0.916282"
       id="path4557-9" />
  </g>
</svg>
