<?xml version="1.0" encoding="UTF-8" standalone="no"?>
<svg
   xmlns:dc="http://purl.org/dc/elements/1.1/"
   xmlns:cc="http://creativecommons.org/ns#"
   xmlns:rdf="http://www.w3.org/1999/02/22-rdf-syntax-ns#"
   xmlns:svg="http://www.w3.org/2000/svg"
   xmlns="http://www.w3.org/2000/svg"
   xmlns:sodipodi="http://sodipodi.sourceforge.net/DTD/sodipodi-0.dtd"
   xmlns:inkscape="http://www.inkscape.org/namespaces/inkscape"
   width="237.74747"
   height="60.81636"
   version="1.1"
   id="svg877"
   sodipodi:docname="emiia_ai_bim.svg"
   inkscape:version="1.0 (4035a4fb49, 2020-05-01)"
   viewBox="0 0 250.27566 60.816361"
   inkscape:export-filename="C:\Users\vstar\Desktop\E24\Photo\emiia_analytics_logo.png"
   inkscape:export-xdpi="879.80194"
   inkscape:export-ydpi="879.80194">
  <metadata
     id="metadata883">
    <rdf:RDF>
      <cc:Work
         rdf:about="">
        <dc:format>image/svg+xml</dc:format>
        <dc:type
           rdf:resource="http://purl.org/dc/dcmitype/StillImage" />
        <dc:title />
      </cc:Work>
    </rdf:RDF>
  </metadata>
  <defs
     id="defs881" />
  <sodipodi:namedview
     inkscape:document-rotation="0"
     pagecolor="#ffffff"
     bordercolor="#666666"
     borderopacity="1"
     objecttolerance="10"
     gridtolerance="10"
     guidetolerance="10"
     inkscape:pageopacity="0"
     inkscape:pageshadow="2"
     inkscape:window-width="1920"
     inkscape:window-height="1046"
     id="namedview879"
     showgrid="false"
     lock-margins="true"
     fit-margin-top="0"
     fit-margin-left="0"
     fit-margin-right="0"
     fit-margin-bottom="0"
     inkscape:zoom="2.1830866"
     inkscape:cx="69.292948"
     inkscape:cy="-80.941961"
     inkscape:window-x="-11"
     inkscape:window-y="-11"
     inkscape:window-maximized="1"
     inkscape:current-layer="svg877"
     viewbox-width="311.63528" />
  <style
     type="text/css"
     id="style863" />
  <text
     xml:space="preserve"
     style="font-style:normal;font-variant:normal;font-weight:normal;font-stretch:normal;font-size:22.4575px;line-height:1.25;font-family:Orbitron;-inkscape-font-specification:Orbitron;stroke-width:1.0527"
     x="202.87767"
     y="109.34176"
     id="text3693"><tspan
       sodipodi:role="line"
       id="tspan3691"
       x="202.87767"
       y="109.34176"
       style="font-style:normal;font-variant:normal;font-weight:normal;font-stretch:normal;font-family:Orbitron;-inkscape-font-specification:Orbitron;stroke-width:1.0527" /></text>
  <g
     transform="translate(-48.448659,-2.0228551)"
     style="font-size:60.6103px;line-height:1.25;font-family:sans-serif;fill:#383838;fill-opacity:1;stroke:none;stroke-width:0.631618;stroke-miterlimit:4;stroke-dasharray:none;stroke-opacity:1"
     id="text835"
     aria-label="EMIIA.AI">
    <path
       id="path1470"
       style="font-style:normal;font-variant:normal;font-weight:normal;font-stretch:normal;font-size:60.6103px;font-family:Orbitron;-inkscape-font-specification:Orbitron;fill:#383838;fill-opacity:1;stroke:none;stroke-width:0.631618;stroke-miterlimit:4;stroke-dasharray:none;stroke-opacity:1"
       d="M 90.521735,2.4454509 V 7.354885 H 55.610203 V 21.780136 H 83.672771 V 26.75018 H 55.610203 v 14.425251 h 34.911532 v 4.909435 H 50.700769 V 2.4454509 Z" />
    <path
       id="path1472"
       style="font-style:normal;font-variant:normal;font-weight:normal;font-stretch:normal;font-size:60.6103px;font-family:Orbitron;-inkscape-font-specification:Orbitron;fill:#383838;fill-opacity:1;stroke:none;stroke-width:0.631618;stroke-miterlimit:4;stroke-dasharray:none;stroke-opacity:1"
       d="M 120.05884,24.022717 138.18132,2.4454509 h 6.72774 V 46.084866 h -4.90944 V 8.0215983 L 120.05884,31.720225 100.11805,8.0215983 V 46.084866 H 95.208615 V 2.4454509 h 6.727745 z" />
    <path
       id="path1474"
       style="font-style:normal;font-variant:normal;font-weight:normal;font-stretch:normal;font-size:60.6103px;font-family:Orbitron;-inkscape-font-specification:Orbitron;fill:#383838;fill-opacity:1;stroke:none;stroke-width:0.631618;stroke-miterlimit:4;stroke-dasharray:none;stroke-opacity:1"
       d="M 151.49949,46.084866 V 2.4454509 h 4.90943 V 46.084866 Z" />
    <path
       id="path1476"
       style="font-style:normal;font-variant:normal;font-weight:normal;font-stretch:normal;font-size:60.6103px;font-family:Orbitron;-inkscape-font-specification:Orbitron;fill:#383838;fill-opacity:1;stroke:none;stroke-width:0.631618;stroke-miterlimit:4;stroke-dasharray:none;stroke-opacity:1"
       d="M 164.87636,46.084866 V 2.4454509 h 4.90944 V 46.084866 Z" />
    <path
       id="path1478"
       style="font-style:normal;font-variant:normal;font-weight:normal;font-stretch:normal;font-size:60.6103px;font-family:Orbitron;-inkscape-font-specification:Orbitron;fill:#383838;fill-opacity:1;stroke:none;stroke-width:0.631618;stroke-miterlimit:4;stroke-dasharray:none;stroke-opacity:1"
       d="m 185.58709,2.4454509 h 29.09295 q 3.03051,0 5.15187,2.1213604 2.12136,2.1213605 2.12136,5.1518754 V 46.084866 h -4.90943 V 30.144357 h -33.82055 v 15.940509 h -4.90943 V 9.7186867 q 0,-3.0305149 2.12136,-5.1518754 2.12136,-2.1213604 5.15187,-2.1213604 z m -2.3638,22.7894721 h 33.82055 V 9.7186867 q 0,-0.9697648 -0.72732,-1.6364781 Q 215.6498,7.354885 214.68004,7.354885 h -29.09295 q -0.96976,0 -1.69708,0.7273236 -0.66672,0.6667133 -0.66672,1.6364781 z" />
    <path
       id="path1480"
       style="font-style:normal;font-variant:normal;font-weight:normal;font-stretch:normal;font-size:60.6103px;font-family:Orbitron;-inkscape-font-specification:Orbitron;fill:#383838;fill-opacity:1;stroke:none;stroke-width:0.631618;stroke-miterlimit:4;stroke-dasharray:none;stroke-opacity:1"
       d="m 233.70788,41.114821 v 4.970045 h -4.97004 v -4.970045 z" />
    <path
       id="path1482"
       style="font-style:normal;font-variant:normal;font-weight:normal;font-stretch:normal;font-size:60.6103px;font-family:Orbitron;-inkscape-font-specification:Orbitron;fill:#383838;fill-opacity:1;stroke:none;stroke-width:0.631618;stroke-miterlimit:4;stroke-dasharray:none;stroke-opacity:1"
       d="m 249.27526,2.4454509 h 29.09294 q 3.03052,0 5.15188,2.1213604 2.12136,2.1213605 2.12136,5.1518754 V 46.084866 H 280.732 V 30.144357 h -33.82054 v 15.940509 h -4.90944 V 9.7186867 q 0,-3.0305149 2.12136,-5.1518754 2.12136,-2.1213604 5.15188,-2.1213604 z m -2.3638,22.7894721 H 280.732 V 9.7186867 q 0,-0.9697648 -0.72732,-1.6364781 Q 279.33797,7.354885 278.3682,7.354885 h -29.09294 q -0.96977,0 -1.69709,0.7273236 -0.66671,0.6667133 -0.66671,1.6364781 z" />
    <path
       id="path1484"
       style="font-style:normal;font-variant:normal;font-weight:normal;font-stretch:normal;font-size:60.6103px;font-family:Orbitron;-inkscape-font-specification:Orbitron;fill:#383838;fill-opacity:1;stroke:none;stroke-width:0.631618;stroke-miterlimit:4;stroke-dasharray:none;stroke-opacity:1"
       d="M 292.60784,46.084866 V 2.4454509 h 4.90943 V 46.084866 Z" />
  </g>
  <g
     transform="matrix(0.99999898,0,0,0.99999898,-73.958279,-10.120479)"
     aria-label="FRAMEWORK &amp; LIBRARY"
     id="text32890"
     style="font-size:22.1528px;line-height:1.25;font-family:Orbitron;-inkscape-font-specification:Orbitron;fill:#383838;fill-opacity:1;stroke-width:1.27805">
    <path
       d="m 121.13046,59.607419 h 9.29787 v 1.146312 h -8.15156 v 3.368177 h 6.55238 v 1.160464 h -6.55238 v 4.514488 h -1.14631 z"
       style="font-size:14.152px;fill:#383838;fill-opacity:1;stroke-width:1.27805"
       id="path33870" />
    <path
       d="m 141.5874,61.319811 v 2.986073 q 0,0.7076 -0.49532,1.20292 -0.49532,0.49532 -1.20292,0.49532 h -1.55672 l 3.19835,3.792736 h -1.51426 l -3.1842,-3.792736 h -3.73613 q -0.12737,0 -0.55193,-0.05661 v 3.849344 h -1.14631 V 59.621571 h 8.4912 q 0.7076,0 1.20292,0.49532 0.49532,0.49532 0.49532,1.20292 z m -8.4912,3.523849 h 6.79296 q 0.22643,0 0.3821,-0.155672 0.15568,-0.155672 0.15568,-0.382104 v -2.986073 q 0,-0.226432 -0.15568,-0.382104 -0.15567,-0.169824 -0.3821,-0.169824 h -6.79296 q -0.22643,0 -0.39626,0.169824 -0.15567,0.155672 -0.15567,0.382104 v 2.986073 q 0,0.226432 0.15567,0.382104 0.16983,0.155672 0.39626,0.155672 z"
       style="font-size:14.152px;fill:#383838;fill-opacity:1;stroke-width:1.27805"
       id="path33872" />
    <path
       d="m 144.803,59.607419 h 6.79296 q 0.7076,0 1.20292,0.49532 0.49532,0.49532 0.49532,1.20292 v 8.491201 h -1.14631 v -3.721976 h -7.89682 v 3.721976 h -1.14631 v -8.491201 q 0,-0.7076 0.49532,-1.20292 0.49532,-0.49532 1.20292,-0.49532 z m -0.55193,5.321153 h 7.89682 v -3.622913 q 0,-0.226432 -0.16983,-0.382104 -0.15567,-0.169824 -0.3821,-0.169824 H 144.803 q -0.22643,0 -0.39626,0.169824 -0.15567,0.155672 -0.15567,0.382104 z"
       style="font-size:14.152px;fill:#383838;fill-opacity:1;stroke-width:1.27805"
       id="path33874" />
    <path
       d="m 160.70896,64.645532 4.23145,-5.038113 h 1.57087 V 69.79686 h -1.14631 v -8.887457 l -4.65601,5.533433 -4.656,-5.533433 v 8.887457 h -1.14632 V 59.607419 h 1.57088 z"
       style="font-size:14.152px;fill:#383838;fill-opacity:1;stroke-width:1.27805"
       id="path33876" />
    <path
       d="m 177.36211,59.607419 v 1.146312 h -8.15155 v 3.368177 h 6.55238 v 1.160464 h -6.55238 v 3.368176 h 8.15155 v 1.146312 h -9.29786 V 59.607419 Z"
       style="font-size:14.152px;fill:#383838;fill-opacity:1;stroke-width:1.27805"
       id="path33878" />
    <path
       d="m 193.07967,59.607419 h 1.24538 l -3.70783,10.189441 h -1.00479 l -3.17005,-8.703481 -3.17004,8.703481 h -0.99064 l -3.70783,-10.189441 h 1.21707 l 2.98608,8.179857 2.97192,-8.179857 h 1.38689 l 2.98607,8.179857 z"
       style="font-size:14.152px;fill:#383838;fill-opacity:1;stroke-width:1.27805"
       id="path33880" />
    <path
       d="m 196.90425,59.607419 h 6.79296 q 0.7076,0 1.20292,0.49532 0.49532,0.49532 0.49532,1.20292 v 6.792961 q 0,0.7076 -0.49532,1.20292 -0.49532,0.49532 -1.20292,0.49532 h -6.79296 q -0.7076,0 -1.20292,-0.49532 -0.49532,-0.49532 -0.49532,-1.20292 v -6.792961 q 0,-0.7076 0.49532,-1.20292 0.49532,-0.49532 1.20292,-0.49532 z m 0,9.043129 h 6.79296 q 0.22643,0 0.38211,-0.155672 0.16982,-0.169824 0.16982,-0.396256 v -6.792961 q 0,-0.226432 -0.16982,-0.382104 -0.15568,-0.169824 -0.38211,-0.169824 h -6.79296 q -0.22643,0 -0.39625,0.169824 -0.15568,0.155672 -0.15568,0.382104 v 6.792961 q 0,0.226432 0.15568,0.396256 0.16982,0.155672 0.39625,0.155672 z"
       style="font-size:14.152px;fill:#383838;fill-opacity:1;stroke-width:1.27805"
       id="path33882" />
    <path
       d="m 217.12923,61.319811 v 2.986073 q 0,0.7076 -0.49532,1.20292 -0.49532,0.49532 -1.20292,0.49532 h -1.55672 l 3.19835,3.792736 h -1.51426 l -3.1842,-3.792736 h -3.73613 q -0.12737,0 -0.55193,-0.05661 v 3.849344 h -1.14631 V 59.621571 h 8.4912 q 0.7076,0 1.20292,0.49532 0.49532,0.49532 0.49532,1.20292 z m -8.4912,3.523849 h 6.79296 q 0.22643,0 0.3821,-0.155672 0.15568,-0.155672 0.15568,-0.382104 v -2.986073 q 0,-0.226432 -0.15568,-0.382104 -0.15567,-0.169824 -0.3821,-0.169824 h -6.79296 q -0.22643,0 -0.39626,0.169824 -0.15567,0.155672 -0.15567,0.382104 v 2.986073 q 0,0.226432 0.15567,0.382104 0.16983,0.155672 0.39626,0.155672 z"
       style="font-size:14.152px;fill:#383838;fill-opacity:1;stroke-width:1.27805"
       id="path33884" />
    <path
       d="m 226.8689,59.607419 h 1.47181 l -4.25975,5.094721 4.2739,5.09472 h -1.48596 l -3.79273,-4.514488 h -3.28327 v 4.514488 h -1.16046 V 59.607419 h 1.16046 v 4.514489 h 3.28327 z"
       style="font-size:14.152px;fill:#383838;fill-opacity:1;stroke-width:1.27805"
       id="path33886" />
    <path
       d="m 243.98376,67.433476 1.89637,1.118008 v 1.018944 l -1.93883,-1.089704 q -0.24058,0.594384 -0.69345,0.962336 -0.43871,0.3538 -0.97648,0.3538 h -6.86372 q -0.7076,0 -1.21708,-0.49532 -0.49532,-0.509472 -0.49532,-1.217072 v -3.04268 q 0,-0.311344 0.38211,-0.608536 0.3821,-0.311344 1.01894,-0.311344 -0.80666,-0.608536 -0.80666,-1.358592 v -1.415201 q 0,-0.721752 0.49532,-1.217072 0.50947,-0.509472 1.21707,-0.509472 h 5.81647 q 0.58023,0 1.0614,0.438712 0.49532,0.42456 0.66515,1.004792 v 0.778361 h -1.17462 v -0.481169 q 0,-0.226432 -0.16982,-0.382104 -0.15568,-0.169824 -0.38211,-0.169824 h -5.81647 q -0.22643,0 -0.39626,0.169824 -0.15567,0.155672 -0.15567,0.382104 v 1.967129 l 7.37319,3.721976 v -1.967128 h 1.16047 z m -8.57611,1.20292 h 6.86372 q 0.15567,0 0.31134,-0.14152 0.15567,-0.14152 0.25474,-0.367952 l -7.21752,-3.637064 h -0.21228 q -0.22644,0 -0.39626,0.169824 -0.15567,0.155672 -0.15567,0.382104 v 3.04268 q 0,0.226432 0.15567,0.396256 0.16982,0.155672 0.39626,0.155672 z"
       style="font-size:14.152px;fill:#383838;fill-opacity:1;stroke-width:1.27805"
       id="path33888" />
    <path
       d="M 250.86141,69.79686 V 59.593267 h 1.14631 v 9.057281 h 9.04313 v 1.146312 z"
       style="font-size:14.152px;fill:#383838;fill-opacity:1;stroke-width:1.27805"
       id="path33890" />
    <path
       d="M 261.89002,69.79686 V 59.607419 h 1.14631 V 69.79686 Z"
       style="font-size:14.152px;fill:#383838;fill-opacity:1;stroke-width:1.27805"
       id="path33892" />
    <path
       d="m 274.60846,64.220972 0.0566,0.240584 q 0.56608,0.523624 0.56608,1.259528 v 2.377536 q 0,0.7076 -0.49532,1.20292 -0.49532,0.49532 -1.20292,0.49532 h -8.4912 V 59.607419 h 8.05249 q 0.7076,0 1.20292,0.49532 0.49532,0.49532 0.49532,1.20292 v 2.165257 q 0,0.382104 -0.18398,0.750056 z m -1.51426,-3.467241 h -6.35425 q -0.22643,0 -0.39626,0.169824 -0.15567,0.155672 -0.15567,0.382104 v 2.165257 q 0,0.226432 0.15567,0.396256 0.16983,0.155672 0.39626,0.155672 h 6.35425 q 0.22643,0 0.3821,-0.155672 0.15567,-0.169824 0.15567,-0.396256 v -2.165257 q 0,-0.226432 -0.15567,-0.382104 -0.15567,-0.169824 -0.3821,-0.169824 z m 0.99064,7.344889 v -2.377536 q 0,-0.226432 -0.16983,-0.382104 -0.15567,-0.169824 -0.3821,-0.169824 h -6.79296 q -0.22643,0 -0.39626,0.169824 -0.15567,0.155672 -0.15567,0.382104 v 2.377536 q 0,0.226432 0.15567,0.396256 0.16983,0.155672 0.39626,0.155672 h 6.79296 q 0.22643,0 0.3821,-0.155672 0.16983,-0.169824 0.16983,-0.396256 z"
       style="font-size:14.152px;fill:#383838;fill-opacity:1;stroke-width:1.27805"
       id="path33894" />
    <path
       d="m 286.94944,61.319811 v 2.986073 q 0,0.7076 -0.49532,1.20292 -0.49532,0.49532 -1.20292,0.49532 h -1.55672 l 3.19836,3.792736 h -1.51427 l -3.1842,-3.792736 h -3.73613 q -0.12736,0 -0.55192,-0.05661 V 69.79686 H 276.76 V 59.621571 h 8.4912 q 0.7076,0 1.20292,0.49532 0.49532,0.49532 0.49532,1.20292 z m -8.4912,3.523849 h 6.79296 q 0.22644,0 0.38211,-0.155672 0.15567,-0.155672 0.15567,-0.382104 v -2.986073 q 0,-0.226432 -0.15567,-0.382104 -0.15567,-0.169824 -0.38211,-0.169824 h -6.79296 q -0.22643,0 -0.39625,0.169824 -0.15567,0.155672 -0.15567,0.382104 v 2.986073 q 0,0.226432 0.15567,0.382104 0.16982,0.155672 0.39625,0.155672 z"
       style="font-size:14.152px;fill:#383838;fill-opacity:1;stroke-width:1.27805"
       id="path33896" />
    <path
       d="m 290.16505,59.607419 h 6.79296 q 0.7076,0 1.20292,0.49532 0.49532,0.49532 0.49532,1.20292 v 8.491201 h -1.14631 v -3.721976 h -7.89682 v 3.721976 h -1.14631 v -8.491201 q 0,-0.7076 0.49532,-1.20292 0.49532,-0.49532 1.20292,-0.49532 z m -0.55193,5.321153 h 7.89682 v -3.622913 q 0,-0.226432 -0.16982,-0.382104 -0.15568,-0.169824 -0.38211,-0.169824 h -6.79296 q -0.22643,0 -0.39625,0.169824 -0.15568,0.155672 -0.15568,0.382104 z"
       style="font-size:14.152px;fill:#383838;fill-opacity:1;stroke-width:1.27805"
       id="path33898" />
    <path
       d="m 310.44398,61.319811 v 2.986073 q 0,0.7076 -0.49532,1.20292 -0.49532,0.49532 -1.20292,0.49532 h -1.55672 l 3.19835,3.792736 h -1.51426 l -3.1842,-3.792736 h -3.73613 q -0.12737,0 -0.55193,-0.05661 v 3.849344 h -1.14631 V 59.621571 h 8.4912 q 0.7076,0 1.20292,0.49532 0.49532,0.49532 0.49532,1.20292 z m -8.4912,3.523849 h 6.79296 q 0.22643,0 0.38211,-0.155672 0.15567,-0.155672 0.15567,-0.382104 v -2.986073 q 0,-0.226432 -0.15567,-0.382104 -0.15568,-0.169824 -0.38211,-0.169824 h -6.79296 q -0.22643,0 -0.39625,0.169824 -0.15568,0.155672 -0.15568,0.382104 v 2.986073 q 0,0.226432 0.15568,0.382104 0.16982,0.155672 0.39625,0.155672 z"
       style="font-size:14.152px;fill:#383838;fill-opacity:1;stroke-width:1.27805"
       id="path33900" />
    <path
       d="m 320.5516,59.607419 h 1.34444 l -4.68431,6.354249 v 3.835192 h -1.14632 v -3.835192 l -4.68431,-6.354249 h 1.31614 l 3.94841,4.981505 z"
       style="font-size:14.152px;fill:#383838;fill-opacity:1;stroke-width:1.27805"
       id="path33902" />
  </g>
</svg>
