<?xml version="1.0" encoding="UTF-8" standalone="no"?>
<svg
   xmlns:dc="http://purl.org/dc/elements/1.1/"
   xmlns:cc="http://creativecommons.org/ns#"
   xmlns:rdf="http://www.w3.org/1999/02/22-rdf-syntax-ns#"
   xmlns:svg="http://www.w3.org/2000/svg"
   xmlns="http://www.w3.org/2000/svg"
   xmlns:sodipodi="http://sodipodi.sourceforge.net/DTD/sodipodi-0.dtd"
   xmlns:inkscape="http://www.inkscape.org/namespaces/inkscape"
   inkscape:export-ydpi="879.80194"
   inkscape:export-xdpi="879.80194"
   inkscape:export-filename="C:\Users\vstar\Desktop\E24\Photo\emiia_analytics_logo_new.png"
   viewBox="0 0 334.49166 70.816361"
   inkscape:version="1.0 (4035a4fb49, 2020-05-01)"
   sodipodi:docname="emiia_ai_framework.svg"
   id="svg877"
   version="1.1"
   height="70.81636"
   width="317.74747">
  <path
     id="path1384-0-5"
     d="m 63.580209,32.070267 c 0.941478,15.273345 -9.624287,28.140567 -23.85147,30.965111 -0.523098,0.104489 -1.046156,0.418432 -1.464588,0.836863 l -3.347565,3.975271 c -0.523068,0.523057 -1.35996,0.523057 -1.77839,0 L 29.79063,63.872241 C 29.476698,63.453843 28.953719,63.139946 28.326033,63.035378 14.726534,60.420072 4.3699358,48.389703 4.3699358,33.9533 4.3699358,17.006182 18.701746,3.3020709 35.858065,4.4527751 50.712945,5.2896725 62.638719,17.319989 63.580209,32.070267 Z"
     class="st18"
     style="fill:#ffffff;fill-opacity:1;stroke:#383838;stroke-width:4.83754;stroke-miterlimit:4;stroke-dasharray:none;stroke-opacity:1" />
  <g
     transform="matrix(3.9457923,0,0,3.9457923,-79.044483,-228.41689)"
     id="g6433">
    <path
       id="path1148-5"
       d="m 28.473365,64.465887 a 0.6035959,0.6035959 0 0 0 -0.603636,0.603647 v 2.974435 a 0.6035959,0.6035959 0 0 0 0.603636,0.603661 0.6035959,0.6035959 0 0 0 0.603661,-0.603661 v -2.974435 a 0.6035959,0.6035959 0 0 0 -0.603661,-0.603647 z"
       style="color:#000000;font-style:normal;font-variant:normal;font-weight:normal;font-stretch:normal;font-size:medium;line-height:normal;font-family:sans-serif;font-variant-ligatures:normal;font-variant-position:normal;font-variant-caps:normal;font-variant-numeric:normal;font-variant-alternates:normal;font-variant-east-asian:normal;font-feature-settings:normal;font-variation-settings:normal;text-indent:0;text-align:start;text-decoration:none;text-decoration-line:none;text-decoration-style:solid;text-decoration-color:#000000;letter-spacing:normal;word-spacing:normal;text-transform:none;writing-mode:lr-tb;direction:ltr;text-orientation:mixed;dominant-baseline:auto;baseline-shift:baseline;text-anchor:start;white-space:normal;shape-padding:0;shape-margin:0;inline-size:0;clip-rule:nonzero;display:inline;overflow:visible;visibility:visible;isolation:auto;mix-blend-mode:normal;color-interpolation:sRGB;color-interpolation-filters:linearRGB;solid-color:#000000;solid-opacity:1;vector-effect:none;fill:#383838;fill-opacity:1;fill-rule:nonzero;stroke:#383838;stroke-width:0;stroke-linecap:round;stroke-linejoin:round;stroke-miterlimit:4;stroke-dasharray:none;stroke-dashoffset:0;stroke-opacity:1;color-rendering:auto;image-rendering:auto;shape-rendering:auto;text-rendering:auto;enable-background:accumulate;stop-color:#000000" />
    <path
       id="path1144-8"
       d="m 25.777073,65.806002 a 0.6035959,0.6035959 0 0 0 -0.603647,0.603648 v 1.702737 a 0.6035959,0.6035959 0 0 0 0.603647,0.603648 0.6035959,0.6035959 0 0 0 0.603661,-0.603648 V 66.40965 a 0.6035959,0.6035959 0 0 0 -0.603661,-0.603648 z"
       style="color:#000000;font-style:normal;font-variant:normal;font-weight:normal;font-stretch:normal;font-size:medium;line-height:normal;font-family:sans-serif;font-variant-ligatures:normal;font-variant-position:normal;font-variant-caps:normal;font-variant-numeric:normal;font-variant-alternates:normal;font-variant-east-asian:normal;font-feature-settings:normal;font-variation-settings:normal;text-indent:0;text-align:start;text-decoration:none;text-decoration-line:none;text-decoration-style:solid;text-decoration-color:#000000;letter-spacing:normal;word-spacing:normal;text-transform:none;writing-mode:lr-tb;direction:ltr;text-orientation:mixed;dominant-baseline:auto;baseline-shift:baseline;text-anchor:start;white-space:normal;shape-padding:0;shape-margin:0;inline-size:0;clip-rule:nonzero;display:inline;overflow:visible;visibility:visible;isolation:auto;mix-blend-mode:normal;color-interpolation:sRGB;color-interpolation-filters:linearRGB;solid-color:#000000;solid-opacity:1;vector-effect:none;fill:#383838;fill-opacity:1;fill-rule:nonzero;stroke:#383838;stroke-width:0;stroke-linecap:round;stroke-linejoin:round;stroke-miterlimit:4;stroke-dasharray:none;stroke-dashoffset:0;stroke-opacity:1;color-rendering:auto;image-rendering:auto;shape-rendering:auto;text-rendering:auto;enable-background:accumulate;stop-color:#000000" />
    <path
       id="path1152-3"
       d="m 31.210832,63.402123 a 0.6035959,0.6035959 0 0 0 -0.603661,0.603647 v 4.152682 a 0.6035959,0.6035959 0 0 0 0.603661,0.603653 0.6035959,0.6035959 0 0 0 0.603634,-0.603653 V 64.00577 a 0.6035959,0.6035959 0 0 0 -0.603634,-0.603647 z"
       style="color:#000000;font-style:normal;font-variant:normal;font-weight:normal;font-stretch:normal;font-size:medium;line-height:normal;font-family:sans-serif;font-variant-ligatures:normal;font-variant-position:normal;font-variant-caps:normal;font-variant-numeric:normal;font-variant-alternates:normal;font-variant-east-asian:normal;font-feature-settings:normal;font-variation-settings:normal;text-indent:0;text-align:start;text-decoration:none;text-decoration-line:none;text-decoration-style:solid;text-decoration-color:#000000;letter-spacing:normal;word-spacing:normal;text-transform:none;writing-mode:lr-tb;direction:ltr;text-orientation:mixed;dominant-baseline:auto;baseline-shift:baseline;text-anchor:start;white-space:normal;shape-padding:0;shape-margin:0;inline-size:0;clip-rule:nonzero;display:inline;overflow:visible;visibility:visible;isolation:auto;mix-blend-mode:normal;color-interpolation:sRGB;color-interpolation-filters:linearRGB;solid-color:#000000;solid-opacity:1;vector-effect:none;fill:#383838;fill-opacity:1;fill-rule:nonzero;stroke:#383838;stroke-width:0;stroke-linecap:round;stroke-linejoin:round;stroke-miterlimit:4;stroke-dasharray:none;stroke-dashoffset:0;stroke-opacity:1;color-rendering:auto;image-rendering:auto;shape-rendering:auto;text-rendering:auto;enable-background:accumulate;stop-color:#000000" />
  </g>
  <metadata
     id="metadata883">
    <rdf:RDF>
      <cc:Work
         rdf:about="">
        <dc:format>image/svg+xml</dc:format>
        <dc:type
           rdf:resource="http://purl.org/dc/dcmitype/StillImage" />
        <dc:title />
      </cc:Work>
    </rdf:RDF>
  </metadata>
  <defs
     id="defs881" />
  <sodipodi:namedview
     viewbox-width="311.63528"
     inkscape:current-layer="svg877"
     inkscape:window-maximized="1"
     inkscape:window-y="-11"
     inkscape:window-x="-11"
     inkscape:cy="116.00541"
     inkscape:cx="232.50145"
     inkscape:zoom="4.3661732"
     fit-margin-bottom="0"
     fit-margin-right="0"
     fit-margin-left="0"
     fit-margin-top="0"
     lock-margins="true"
     showgrid="false"
     id="namedview879"
     inkscape:window-height="1046"
     inkscape:window-width="1920"
     inkscape:pageshadow="2"
     inkscape:pageopacity="0"
     guidetolerance="10"
     gridtolerance="10"
     objecttolerance="10"
     borderopacity="1"
     bordercolor="#666666"
     pagecolor="#ffffff"
     inkscape:document-rotation="0" />
  <style
     id="style863"
     type="text/css" />
  <text
     id="text3693"
     y="109.34176"
     x="202.87767"
     style="font-style:normal;font-variant:normal;font-weight:normal;font-stretch:normal;font-size:22.4575px;line-height:1.25;font-family:Orbitron;-inkscape-font-specification:Orbitron;stroke-width:1.0527"
     xml:space="preserve"><tspan
       style="font-style:normal;font-variant:normal;font-weight:normal;font-stretch:normal;font-family:Orbitron;-inkscape-font-specification:Orbitron;stroke-width:1.0527"
       y="109.34176"
       x="202.87767"
       id="tspan3691"
       sodipodi:role="line" /></text>
  <g
     transform="matrix(1.0017384,0,0,1.0017384,34.638241,7.6972764)"
     style="font-size:60.6103px;line-height:1.25;font-family:sans-serif;fill:#383838;fill-opacity:1;stroke:none;stroke-width:0.631618;stroke-miterlimit:4;stroke-dasharray:none;stroke-opacity:1"
     id="text835-3"
     aria-label="EMIIA.AI">
    <path
       id="path1470-2"
       style="font-style:normal;font-variant:normal;font-weight:normal;font-stretch:normal;font-size:60.6103px;font-family:Orbitron;-inkscape-font-specification:Orbitron;fill:#383838;fill-opacity:1;stroke:none;stroke-width:0.631618;stroke-miterlimit:4;stroke-dasharray:none;stroke-opacity:1"
       d="M 90.521735,2.4454509 V 7.354885 H 55.610203 V 21.780136 H 83.672771 V 26.75018 H 55.610203 v 14.425251 h 34.911532 v 4.909435 H 50.700769 V 2.4454509 Z" />
    <path
       id="path1472-7"
       style="font-style:normal;font-variant:normal;font-weight:normal;font-stretch:normal;font-size:60.6103px;font-family:Orbitron;-inkscape-font-specification:Orbitron;fill:#383838;fill-opacity:1;stroke:none;stroke-width:0.631618;stroke-miterlimit:4;stroke-dasharray:none;stroke-opacity:1"
       d="M 120.05884,24.022717 138.18132,2.4454509 h 6.72774 V 46.084866 h -4.90944 V 8.0215983 L 120.05884,31.720225 100.11805,8.0215983 V 46.084866 H 95.208615 V 2.4454509 h 6.727745 z" />
    <path
       id="path1474-1"
       style="font-style:normal;font-variant:normal;font-weight:normal;font-stretch:normal;font-size:60.6103px;font-family:Orbitron;-inkscape-font-specification:Orbitron;fill:#383838;fill-opacity:1;stroke:none;stroke-width:0.631618;stroke-miterlimit:4;stroke-dasharray:none;stroke-opacity:1"
       d="M 151.49949,46.084866 V 2.4454509 h 4.90943 V 46.084866 Z" />
    <path
       id="path1476-0"
       style="font-style:normal;font-variant:normal;font-weight:normal;font-stretch:normal;font-size:60.6103px;font-family:Orbitron;-inkscape-font-specification:Orbitron;fill:#383838;fill-opacity:1;stroke:none;stroke-width:0.631618;stroke-miterlimit:4;stroke-dasharray:none;stroke-opacity:1"
       d="M 164.87636,46.084866 V 2.4454509 h 4.90944 V 46.084866 Z" />
    <path
       id="path1478-5"
       style="font-style:normal;font-variant:normal;font-weight:normal;font-stretch:normal;font-size:60.6103px;font-family:Orbitron;-inkscape-font-specification:Orbitron;fill:#383838;fill-opacity:1;stroke:none;stroke-width:0.631618;stroke-miterlimit:4;stroke-dasharray:none;stroke-opacity:1"
       d="m 185.58709,2.4454509 h 29.09295 q 3.03051,0 5.15187,2.1213604 2.12136,2.1213605 2.12136,5.1518754 V 46.084866 h -4.90943 V 30.144357 h -33.82055 v 15.940509 h -4.90943 V 9.7186867 q 0,-3.0305149 2.12136,-5.1518754 2.12136,-2.1213604 5.15187,-2.1213604 z m -2.3638,22.7894721 h 33.82055 V 9.7186867 q 0,-0.9697648 -0.72732,-1.6364781 Q 215.6498,7.354885 214.68004,7.354885 h -29.09295 q -0.96976,0 -1.69708,0.7273236 -0.66672,0.6667133 -0.66672,1.6364781 z" />
    <path
       id="path1480-9"
       style="font-style:normal;font-variant:normal;font-weight:normal;font-stretch:normal;font-size:60.6103px;font-family:Orbitron;-inkscape-font-specification:Orbitron;fill:#383838;fill-opacity:1;stroke:none;stroke-width:0.631618;stroke-miterlimit:4;stroke-dasharray:none;stroke-opacity:1"
       d="m 233.70788,41.114821 v 4.970045 h -4.97004 v -4.970045 z" />
    <path
       id="path1482-4"
       style="font-style:normal;font-variant:normal;font-weight:normal;font-stretch:normal;font-size:60.6103px;font-family:Orbitron;-inkscape-font-specification:Orbitron;fill:#383838;fill-opacity:1;stroke:none;stroke-width:0.631618;stroke-miterlimit:4;stroke-dasharray:none;stroke-opacity:1"
       d="m 249.27526,2.4454509 h 29.09294 q 3.03052,0 5.15188,2.1213604 2.12136,2.1213605 2.12136,5.1518754 V 46.084866 H 280.732 V 30.144357 h -33.82054 v 15.940509 h -4.90944 V 9.7186867 q 0,-3.0305149 2.12136,-5.1518754 2.12136,-2.1213604 5.15188,-2.1213604 z m -2.3638,22.7894721 H 280.732 V 9.7186867 q 0,-0.9697648 -0.72732,-1.6364781 Q 279.33797,7.354885 278.3682,7.354885 h -29.09294 q -0.96977,0 -1.69709,0.7273236 -0.66671,0.6667133 -0.66671,1.6364781 z" />
    <path
       id="path1484-3"
       style="font-style:normal;font-variant:normal;font-weight:normal;font-stretch:normal;font-size:60.6103px;font-family:Orbitron;-inkscape-font-specification:Orbitron;fill:#383838;fill-opacity:1;stroke:none;stroke-width:0.631618;stroke-miterlimit:4;stroke-dasharray:none;stroke-opacity:1"
       d="M 292.60784,46.084866 V 2.4454509 h 4.90943 V 46.084866 Z" />
  </g>
  <g
     transform="matrix(1.010848,0,0,1.010848,-1.4123189,-17.782788)"
     style="font-size:84.6323px;line-height:1.25;font-family:Orbitron;-inkscape-font-specification:Orbitron;fill:#383838;fill-opacity:1;stroke-width:0.881588"
     id="text866"
     aria-label="LIBRARY &amp; FRAMEWORK">
    <path
       id="path868"
       style="font-size:14.1053px;fill:#383838;fill-opacity:1;stroke-width:0.881588"
       d="M 130.19116,86.618828 V 76.448907 h 1.14253 v 9.027392 h 9.01329 v 1.142529 z" />
    <path
       id="path870"
       style="font-size:14.1053px;fill:#383838;fill-opacity:1;stroke-width:0.881588"
       d="M 141.18338,86.618828 V 76.463012 h 1.14253 v 10.155816 z" />
    <path
       id="path872"
       style="font-size:14.1053px;fill:#383838;fill-opacity:1;stroke-width:0.881588"
       d="m 153.85986,81.06134 0.0564,0.23979 q 0.56421,0.521896 0.56421,1.255371 v 2.369691 q 0,0.705265 -0.49369,1.19895 -0.49368,0.493686 -1.19895,0.493686 h -8.46318 V 76.463012 h 8.02592 q 0.70526,0 1.19895,0.493685 0.49369,0.493686 0.49369,1.198951 v 2.158111 q 0,0.380843 -0.18337,0.747581 z m -1.50927,-3.455799 h -6.33328 q -0.22568,0 -0.39495,0.169264 -0.15516,0.155158 -0.15516,0.380843 v 2.158111 q 0,0.225685 0.15516,0.394948 0.16927,0.155158 0.39495,0.155158 h 6.33328 q 0.22568,0 0.38084,-0.155158 0.15516,-0.169263 0.15516,-0.394948 v -2.158111 q 0,-0.225685 -0.15516,-0.380843 -0.15516,-0.169264 -0.38084,-0.169264 z m 0.98737,7.320651 v -2.369691 q 0,-0.225684 -0.16926,-0.380843 -0.15516,-0.169263 -0.38085,-0.169263 h -6.77054 q -0.22568,0 -0.39495,0.169263 -0.15516,0.155159 -0.15516,0.380843 v 2.369691 q 0,0.225685 0.15516,0.394948 0.16927,0.155159 0.39495,0.155159 h 6.77054 q 0.22569,0 0.38085,-0.155159 0.16926,-0.169263 0.16926,-0.394948 z" />
    <path
       id="path874"
       style="font-size:14.1053px;fill:#383838;fill-opacity:1;stroke-width:0.881588"
       d="m 166.16012,78.169753 v 2.976218 q 0,0.705265 -0.49369,1.198951 -0.49368,0.493685 -1.19895,0.493685 h -1.55158 l 3.1878,3.780221 h -1.50927 l -3.17369,-3.780221 h -3.7238 q -0.12695,0 -0.55011,-0.05642 v 3.836642 H 156.0043 V 76.477117 h 8.46318 q 0.70527,0 1.19895,0.493686 0.49369,0.493685 0.49369,1.19895 z m -8.46318,3.51222 h 6.77054 q 0.22569,0 0.38085,-0.155158 0.15515,-0.155159 0.15515,-0.380844 v -2.976218 q 0,-0.225685 -0.15515,-0.380843 -0.15516,-0.169264 -0.38085,-0.169264 h -6.77054 q -0.22569,0 -0.39495,0.169264 -0.15516,0.155158 -0.15516,0.380843 v 2.976218 q 0,0.225685 0.15516,0.380844 0.16926,0.155158 0.39495,0.155158 z" />
    <path
       id="path876"
       style="font-size:14.1053px;fill:#383838;fill-opacity:1;stroke-width:0.881588"
       d="m 169.36511,76.463012 h 6.77054 q 0.70526,0 1.19895,0.493685 0.49369,0.493686 0.49369,1.198951 v 8.46318 h -1.14253 V 82.909134 H 168.815 v 3.709694 h -1.14253 v -8.46318 q 0,-0.705265 0.49369,-1.198951 0.49368,-0.493685 1.19895,-0.493685 z m -0.55011,5.303593 h 7.87076 v -3.610957 q 0,-0.225685 -0.16927,-0.380843 -0.15516,-0.169264 -0.38084,-0.169264 h -6.77054 q -0.22569,0 -0.39495,0.169264 -0.15516,0.155158 -0.15516,0.380843 z" />
    <path
       id="path878"
       style="font-size:14.1053px;fill:#383838;fill-opacity:1;stroke-width:0.881588"
       d="m 189.57712,78.169753 v 2.976218 q 0,0.705265 -0.49368,1.198951 -0.49369,0.493685 -1.19895,0.493685 h -1.55159 l 3.1878,3.780221 h -1.50927 l -3.17369,-3.780221 h -3.7238 q -0.12694,0 -0.5501,-0.05642 v 3.836642 h -1.14253 V 76.477117 h 8.46318 q 0.70526,0 1.19895,0.493686 0.49368,0.493685 0.49368,1.19895 z m -8.46318,3.51222 h 6.77055 q 0.22568,0 0.38084,-0.155158 0.15516,-0.155159 0.15516,-0.380844 v -2.976218 q 0,-0.225685 -0.15516,-0.380843 -0.15516,-0.169264 -0.38084,-0.169264 h -6.77055 q -0.22568,0 -0.39495,0.169264 -0.15515,0.155158 -0.15515,0.380843 v 2.976218 q 0,0.225685 0.15515,0.380844 0.16927,0.155158 0.39495,0.155158 z" />
    <path
       id="path880"
       style="font-size:14.1053px;fill:#383838;fill-opacity:1;stroke-width:0.881588"
       d="m 199.65139,76.463012 h 1.34 l -4.66885,6.33328 v 3.822536 h -1.14253 v -3.822536 l -4.66885,-6.33328 h 1.31179 l 3.93538,4.965065 z" />
    <path
       id="path882"
       style="font-size:14.1053px;fill:#383838;fill-opacity:1;stroke-width:0.881588"
       d="m 216.48078,84.263243 1.89011,1.114318 v 1.015582 l -1.93243,-1.086108 q -0.23979,0.592423 -0.69116,0.95916 -0.43726,0.352633 -0.97326,0.352633 h -6.84107 q -0.70527,0 -1.21306,-0.493686 -0.49368,-0.50779 -0.49368,-1.213055 v -3.03264 q 0,-0.310317 0.38084,-0.606528 0.38084,-0.310316 1.01558,-0.310316 -0.804,-0.606528 -0.804,-1.354109 v -1.41053 q 0,-0.719371 0.49368,-1.213056 0.5078,-0.507791 1.21306,-0.507791 h 5.79728 q 0.57832,0 1.0579,0.437264 0.49368,0.423159 0.66294,1.001477 v 0.775791 h -1.17073 v -0.47958 q 0,-0.225685 -0.16927,-0.380843 -0.15516,-0.169264 -0.38084,-0.169264 h -5.79728 q -0.22568,0 -0.39495,0.169264 -0.15516,0.155158 -0.15516,0.380843 v 1.960637 l 7.34886,3.709694 v -1.960637 h 1.15664 z m -8.54781,1.19895 h 6.84107 q 0.15516,0 0.31031,-0.141053 0.15516,-0.141053 0.2539,-0.366738 l -7.1937,-3.625062 h -0.21158 q -0.22569,0 -0.39495,0.169264 -0.15516,0.155158 -0.15516,0.380843 v 3.03264 q 0,0.225684 0.15516,0.394948 0.16926,0.155158 0.39495,0.155158 z" />
    <path
       id="path884"
       style="font-size:14.1053px;fill:#383838;fill-opacity:1;stroke-width:0.881588"
       d="m 223.34984,76.463012 h 9.26718 v 1.142529 h -8.12465 v 3.357062 h 6.53075 v 1.156634 h -6.53075 v 4.499591 h -1.14253 z" />
    <path
       id="path886"
       style="font-size:14.1053px;fill:#383838;fill-opacity:1;stroke-width:0.881588"
       d="m 243.73927,78.169753 v 2.976218 q 0,0.705265 -0.49369,1.198951 -0.49368,0.493685 -1.19895,0.493685 h -1.55158 l 3.1878,3.780221 h -1.50927 l -3.17369,-3.780221 h -3.7238 q -0.12695,0 -0.55011,-0.05642 v 3.836642 h -1.14253 V 76.477117 h 8.46318 q 0.70527,0 1.19895,0.493686 0.49369,0.493685 0.49369,1.19895 z m -8.46318,3.51222 h 6.77054 q 0.22569,0 0.38085,-0.155158 0.15516,-0.155159 0.15516,-0.380844 v -2.976218 q 0,-0.225685 -0.15516,-0.380843 -0.15516,-0.169264 -0.38085,-0.169264 h -6.77054 q -0.22568,0 -0.39495,0.169264 -0.15516,0.155158 -0.15516,0.380843 v 2.976218 q 0,0.225685 0.15516,0.380844 0.16927,0.155158 0.39495,0.155158 z" />
    <path
       id="path888"
       style="font-size:14.1053px;fill:#383838;fill-opacity:1;stroke-width:0.881588"
       d="m 246.94426,76.463012 h 6.77054 q 0.70527,0 1.19896,0.493685 0.49368,0.493686 0.49368,1.198951 v 8.46318 h -1.14253 v -3.709694 h -7.87076 v 3.709694 h -1.14253 v -8.46318 q 0,-0.705265 0.49369,-1.198951 0.49369,-0.493685 1.19895,-0.493685 z m -0.55011,5.303593 h 7.87076 v -3.610957 q 0,-0.225685 -0.16926,-0.380843 -0.15516,-0.169264 -0.38085,-0.169264 h -6.77054 q -0.22568,0 -0.39495,0.169264 -0.15516,0.155158 -0.15516,0.380843 z" />
    <path
       id="path890"
       style="font-size:14.1053px;fill:#383838;fill-opacity:1;stroke-width:0.881588"
       d="m 262.79773,81.484499 4.21749,-5.021487 h 1.56569 v 10.155816 h -1.14253 v -8.858129 l -4.64065,5.515173 -4.64064,-5.515173 v 8.858129 h -1.14253 V 76.463012 h 1.56569 z" />
    <path
       id="path892"
       style="font-size:14.1053px;fill:#383838;fill-opacity:1;stroke-width:0.881588"
       d="m 279.39593,76.463012 v 1.142529 h -8.12465 v 3.357062 h 6.53075 v 1.156634 h -6.53075 v 3.357062 h 8.12465 v 1.142529 h -9.26718 V 76.463012 Z" />
    <path
       id="path894"
       style="font-size:14.1053px;fill:#383838;fill-opacity:1;stroke-width:0.881588"
       d="m 295.06162,76.463012 h 1.24126 l -3.69558,10.155816 h -1.00148 l -3.15959,-8.67476 -3.15958,8.67476 h -0.98738 l -3.69558,-10.155816 h 1.21305 l 2.97622,8.152863 2.96211,-8.152863 h 1.38232 l 2.97622,8.152863 z" />
    <path
       id="path896"
       style="font-size:14.1053px;fill:#383838;fill-opacity:1;stroke-width:0.881588"
       d="m 298.87359,76.463012 h 6.77054 q 0.70527,0 1.19895,0.493685 0.49369,0.493686 0.49369,1.198951 v 6.770544 q 0,0.705265 -0.49369,1.19895 -0.49368,0.493686 -1.19895,0.493686 h -6.77054 q -0.70527,0 -1.19895,-0.493686 -0.49369,-0.493685 -0.49369,-1.19895 v -6.770544 q 0,-0.705265 0.49369,-1.198951 0.49368,-0.493685 1.19895,-0.493685 z m 0,9.013287 h 6.77054 q 0.22569,0 0.38085,-0.155159 0.16926,-0.169263 0.16926,-0.394948 v -6.770544 q 0,-0.225685 -0.16926,-0.380843 -0.15516,-0.169264 -0.38085,-0.169264 h -6.77054 q -0.22569,0 -0.39495,0.169264 -0.15516,0.155158 -0.15516,0.380843 v 6.770544 q 0,0.225685 0.15516,0.394948 0.16926,0.155159 0.39495,0.155159 z" />
    <path
       id="path898"
       style="font-size:14.1053px;fill:#383838;fill-opacity:1;stroke-width:0.881588"
       d="m 319.03181,78.169753 v 2.976218 q 0,0.705265 -0.49368,1.198951 -0.49369,0.493685 -1.19895,0.493685 h -1.55159 l 3.1878,3.780221 h -1.50927 l -3.17369,-3.780221 h -3.7238 q -0.12695,0 -0.5501,-0.05642 v 3.836642 H 308.876 V 76.477117 h 8.46318 q 0.70526,0 1.19895,0.493686 0.49368,0.493685 0.49368,1.19895 z m -8.46318,3.51222 h 6.77055 q 0.22568,0 0.38084,-0.155158 0.15516,-0.155159 0.15516,-0.380844 v -2.976218 q 0,-0.225685 -0.15516,-0.380843 -0.15516,-0.169264 -0.38084,-0.169264 h -6.77055 q -0.22568,0 -0.39495,0.169264 -0.15515,0.155158 -0.15515,0.380843 v 2.976218 q 0,0.225685 0.15515,0.380844 0.16927,0.155158 0.39495,0.155158 z" />
    <path
       id="path900"
       style="font-size:14.1053px;fill:#383838;fill-opacity:1;stroke-width:0.881588"
       d="m 328.73935,76.463012 h 1.46695 l -4.2457,5.077908 4.2598,5.077908 h -1.48105 l -3.78022,-4.499591 h -3.27243 v 4.499591 h -1.15664 V 76.463012 h 1.15664 v 4.499591 h 3.27243 z" />
  </g>
</svg>
