<?xml version="1.0" encoding="UTF-8" standalone="no"?>
<svg
   xmlns:dc="http://purl.org/dc/elements/1.1/"
   xmlns:cc="http://creativecommons.org/ns#"
   xmlns:rdf="http://www.w3.org/1999/02/22-rdf-syntax-ns#"
   xmlns:svg="http://www.w3.org/2000/svg"
   xmlns="http://www.w3.org/2000/svg"
   xmlns:sodipodi="http://sodipodi.sourceforge.net/DTD/sodipodi-0.dtd"
   xmlns:inkscape="http://www.inkscape.org/namespaces/inkscape"
   width="317.74747"
   height="70.81636"
   version="1.1"
   id="svg877"
   sodipodi:docname="emiia_ai_framework.svg"
   inkscape:version="1.0 (4035a4fb49, 2020-05-01)"
   viewBox="0 0 334.49166 70.816361"
   inkscape:export-filename="C:\Users\vstar\Desktop\E24\Photo\emiia_analytics_logo_new.png"
   inkscape:export-xdpi="879.80194"
   inkscape:export-ydpi="879.80194">
  <path
     style="fill:#ffffff;fill-opacity:1;stroke:#383838;stroke-width:4.83754;stroke-miterlimit:4;stroke-dasharray:none;stroke-opacity:1"
     class="st18"
     d="m 63.580209,32.070267 c 0.941478,15.273345 -9.624287,28.140567 -23.85147,30.965111 -0.523098,0.104489 -1.046156,0.418432 -1.464588,0.836863 l -3.347565,3.975271 c -0.523068,0.523057 -1.35996,0.523057 -1.77839,0 L 29.79063,63.872241 C 29.476698,63.453843 28.953719,63.139946 28.326033,63.035378 14.726534,60.420072 4.3699358,48.389703 4.3699358,33.9533 4.3699358,17.006182 18.701746,3.3020709 35.858065,4.4527751 50.712945,5.2896725 62.638719,17.319989 63.580209,32.070267 Z"
     id="path1384-0-5" />
  <g
     id="g6433"
     transform="matrix(3.9457923,0,0,3.9457923,-79.044483,-228.41689)">
    <path
       style="color:#000000;font-style:normal;font-variant:normal;font-weight:normal;font-stretch:normal;font-size:medium;line-height:normal;font-family:sans-serif;font-variant-ligatures:normal;font-variant-position:normal;font-variant-caps:normal;font-variant-numeric:normal;font-variant-alternates:normal;font-variant-east-asian:normal;font-feature-settings:normal;font-variation-settings:normal;text-indent:0;text-align:start;text-decoration:none;text-decoration-line:none;text-decoration-style:solid;text-decoration-color:#000000;letter-spacing:normal;word-spacing:normal;text-transform:none;writing-mode:lr-tb;direction:ltr;text-orientation:mixed;dominant-baseline:auto;baseline-shift:baseline;text-anchor:start;white-space:normal;shape-padding:0;shape-margin:0;inline-size:0;clip-rule:nonzero;display:inline;overflow:visible;visibility:visible;isolation:auto;mix-blend-mode:normal;color-interpolation:sRGB;color-interpolation-filters:linearRGB;solid-color:#000000;solid-opacity:1;vector-effect:none;fill:#383838;fill-opacity:1;fill-rule:nonzero;stroke:#383838;stroke-width:0;stroke-linecap:round;stroke-linejoin:round;stroke-miterlimit:4;stroke-dasharray:none;stroke-dashoffset:0;stroke-opacity:1;color-rendering:auto;image-rendering:auto;shape-rendering:auto;text-rendering:auto;enable-background:accumulate;stop-color:#000000"
       d="m 28.473365,64.465887 a 0.6035959,0.6035959 0 0 0 -0.603636,0.603647 v 2.974435 a 0.6035959,0.6035959 0 0 0 0.603636,0.603661 0.6035959,0.6035959 0 0 0 0.603661,-0.603661 v -2.974435 a 0.6035959,0.6035959 0 0 0 -0.603661,-0.603647 z"
       id="path1148-5" />
    <path
       style="color:#000000;font-style:normal;font-variant:normal;font-weight:normal;font-stretch:normal;font-size:medium;line-height:normal;font-family:sans-serif;font-variant-ligatures:normal;font-variant-position:normal;font-variant-caps:normal;font-variant-numeric:normal;font-variant-alternates:normal;font-variant-east-asian:normal;font-feature-settings:normal;font-variation-settings:normal;text-indent:0;text-align:start;text-decoration:none;text-decoration-line:none;text-decoration-style:solid;text-decoration-color:#000000;letter-spacing:normal;word-spacing:normal;text-transform:none;writing-mode:lr-tb;direction:ltr;text-orientation:mixed;dominant-baseline:auto;baseline-shift:baseline;text-anchor:start;white-space:normal;shape-padding:0;shape-margin:0;inline-size:0;clip-rule:nonzero;display:inline;overflow:visible;visibility:visible;isolation:auto;mix-blend-mode:normal;color-interpolation:sRGB;color-interpolation-filters:linearRGB;solid-color:#000000;solid-opacity:1;vector-effect:none;fill:#383838;fill-opacity:1;fill-rule:nonzero;stroke:#383838;stroke-width:0;stroke-linecap:round;stroke-linejoin:round;stroke-miterlimit:4;stroke-dasharray:none;stroke-dashoffset:0;stroke-opacity:1;color-rendering:auto;image-rendering:auto;shape-rendering:auto;text-rendering:auto;enable-background:accumulate;stop-color:#000000"
       d="m 25.777073,65.806002 a 0.6035959,0.6035959 0 0 0 -0.603647,0.603648 v 1.702737 a 0.6035959,0.6035959 0 0 0 0.603647,0.603648 0.6035959,0.6035959 0 0 0 0.603661,-0.603648 V 66.40965 a 0.6035959,0.6035959 0 0 0 -0.603661,-0.603648 z"
       id="path1144-8" />
    <path
       style="color:#000000;font-style:normal;font-variant:normal;font-weight:normal;font-stretch:normal;font-size:medium;line-height:normal;font-family:sans-serif;font-variant-ligatures:normal;font-variant-position:normal;font-variant-caps:normal;font-variant-numeric:normal;font-variant-alternates:normal;font-variant-east-asian:normal;font-feature-settings:normal;font-variation-settings:normal;text-indent:0;text-align:start;text-decoration:none;text-decoration-line:none;text-decoration-style:solid;text-decoration-color:#000000;letter-spacing:normal;word-spacing:normal;text-transform:none;writing-mode:lr-tb;direction:ltr;text-orientation:mixed;dominant-baseline:auto;baseline-shift:baseline;text-anchor:start;white-space:normal;shape-padding:0;shape-margin:0;inline-size:0;clip-rule:nonzero;display:inline;overflow:visible;visibility:visible;isolation:auto;mix-blend-mode:normal;color-interpolation:sRGB;color-interpolation-filters:linearRGB;solid-color:#000000;solid-opacity:1;vector-effect:none;fill:#383838;fill-opacity:1;fill-rule:nonzero;stroke:#383838;stroke-width:0;stroke-linecap:round;stroke-linejoin:round;stroke-miterlimit:4;stroke-dasharray:none;stroke-dashoffset:0;stroke-opacity:1;color-rendering:auto;image-rendering:auto;shape-rendering:auto;text-rendering:auto;enable-background:accumulate;stop-color:#000000"
       d="m 31.210832,63.402123 a 0.6035959,0.6035959 0 0 0 -0.603661,0.603647 v 4.152682 a 0.6035959,0.6035959 0 0 0 0.603661,0.603653 0.6035959,0.6035959 0 0 0 0.603634,-0.603653 V 64.00577 a 0.6035959,0.6035959 0 0 0 -0.603634,-0.603647 z"
       id="path1152-3" />
  </g>
  <metadata
     id="metadata883">
    <rdf:RDF>
      <cc:Work
         rdf:about="">
        <dc:format>image/svg+xml</dc:format>
        <dc:type
           rdf:resource="http://purl.org/dc/dcmitype/StillImage" />
        <dc:title />
      </cc:Work>
    </rdf:RDF>
  </metadata>
  <defs
     id="defs881" />
  <sodipodi:namedview
     inkscape:document-rotation="0"
     pagecolor="#ffffff"
     bordercolor="#666666"
     borderopacity="1"
     objecttolerance="10"
     gridtolerance="10"
     guidetolerance="10"
     inkscape:pageopacity="0"
     inkscape:pageshadow="2"
     inkscape:window-width="1920"
     inkscape:window-height="1046"
     id="namedview879"
     showgrid="false"
     lock-margins="true"
     fit-margin-top="0"
     fit-margin-left="0"
     fit-margin-right="0"
     fit-margin-bottom="0"
     inkscape:zoom="2.1830866"
     inkscape:cx="243.02855"
     inkscape:cy="93.174397"
     inkscape:window-x="-11"
     inkscape:window-y="-11"
     inkscape:window-maximized="1"
     inkscape:current-layer="svg877"
     viewbox-width="311.63528" />
  <style
     type="text/css"
     id="style863" />
  <text
     xml:space="preserve"
     style="font-style:normal;font-variant:normal;font-weight:normal;font-stretch:normal;font-size:22.4575px;line-height:1.25;font-family:Orbitron;-inkscape-font-specification:Orbitron;stroke-width:1.0527"
     x="202.87767"
     y="109.34176"
     id="text3693"><tspan
       sodipodi:role="line"
       id="tspan3691"
       x="202.87767"
       y="109.34176"
       style="font-style:normal;font-variant:normal;font-weight:normal;font-stretch:normal;font-family:Orbitron;-inkscape-font-specification:Orbitron;stroke-width:1.0527" /></text>
  <g
     aria-label="EMIIA.AI"
     id="text835-3"
     style="font-size:60.6103px;line-height:1.25;font-family:sans-serif;fill:#383838;fill-opacity:1;stroke:none;stroke-width:0.631618;stroke-miterlimit:4;stroke-dasharray:none;stroke-opacity:1"
     transform="matrix(1.0017384,0,0,1.0017384,34.638241,7.6972764)">
    <path
       d="M 90.521735,2.4454509 V 7.354885 H 55.610203 V 21.780136 H 83.672771 V 26.75018 H 55.610203 v 14.425251 h 34.911532 v 4.909435 H 50.700769 V 2.4454509 Z"
       style="font-style:normal;font-variant:normal;font-weight:normal;font-stretch:normal;font-size:60.6103px;font-family:Orbitron;-inkscape-font-specification:Orbitron;fill:#383838;fill-opacity:1;stroke:none;stroke-width:0.631618;stroke-miterlimit:4;stroke-dasharray:none;stroke-opacity:1"
       id="path1470-2" />
    <path
       d="M 120.05884,24.022717 138.18132,2.4454509 h 6.72774 V 46.084866 h -4.90944 V 8.0215983 L 120.05884,31.720225 100.11805,8.0215983 V 46.084866 H 95.208615 V 2.4454509 h 6.727745 z"
       style="font-style:normal;font-variant:normal;font-weight:normal;font-stretch:normal;font-size:60.6103px;font-family:Orbitron;-inkscape-font-specification:Orbitron;fill:#383838;fill-opacity:1;stroke:none;stroke-width:0.631618;stroke-miterlimit:4;stroke-dasharray:none;stroke-opacity:1"
       id="path1472-7" />
    <path
       d="M 151.49949,46.084866 V 2.4454509 h 4.90943 V 46.084866 Z"
       style="font-style:normal;font-variant:normal;font-weight:normal;font-stretch:normal;font-size:60.6103px;font-family:Orbitron;-inkscape-font-specification:Orbitron;fill:#383838;fill-opacity:1;stroke:none;stroke-width:0.631618;stroke-miterlimit:4;stroke-dasharray:none;stroke-opacity:1"
       id="path1474-1" />
    <path
       d="M 164.87636,46.084866 V 2.4454509 h 4.90944 V 46.084866 Z"
       style="font-style:normal;font-variant:normal;font-weight:normal;font-stretch:normal;font-size:60.6103px;font-family:Orbitron;-inkscape-font-specification:Orbitron;fill:#383838;fill-opacity:1;stroke:none;stroke-width:0.631618;stroke-miterlimit:4;stroke-dasharray:none;stroke-opacity:1"
       id="path1476-0" />
    <path
       d="m 185.58709,2.4454509 h 29.09295 q 3.03051,0 5.15187,2.1213604 2.12136,2.1213605 2.12136,5.1518754 V 46.084866 h -4.90943 V 30.144357 h -33.82055 v 15.940509 h -4.90943 V 9.7186867 q 0,-3.0305149 2.12136,-5.1518754 2.12136,-2.1213604 5.15187,-2.1213604 z m -2.3638,22.7894721 h 33.82055 V 9.7186867 q 0,-0.9697648 -0.72732,-1.6364781 Q 215.6498,7.354885 214.68004,7.354885 h -29.09295 q -0.96976,0 -1.69708,0.7273236 -0.66672,0.6667133 -0.66672,1.6364781 z"
       style="font-style:normal;font-variant:normal;font-weight:normal;font-stretch:normal;font-size:60.6103px;font-family:Orbitron;-inkscape-font-specification:Orbitron;fill:#383838;fill-opacity:1;stroke:none;stroke-width:0.631618;stroke-miterlimit:4;stroke-dasharray:none;stroke-opacity:1"
       id="path1478-5" />
    <path
       d="m 233.70788,41.114821 v 4.970045 h -4.97004 v -4.970045 z"
       style="font-style:normal;font-variant:normal;font-weight:normal;font-stretch:normal;font-size:60.6103px;font-family:Orbitron;-inkscape-font-specification:Orbitron;fill:#383838;fill-opacity:1;stroke:none;stroke-width:0.631618;stroke-miterlimit:4;stroke-dasharray:none;stroke-opacity:1"
       id="path1480-9" />
    <path
       d="m 249.27526,2.4454509 h 29.09294 q 3.03052,0 5.15188,2.1213604 2.12136,2.1213605 2.12136,5.1518754 V 46.084866 H 280.732 V 30.144357 h -33.82054 v 15.940509 h -4.90944 V 9.7186867 q 0,-3.0305149 2.12136,-5.1518754 2.12136,-2.1213604 5.15188,-2.1213604 z m -2.3638,22.7894721 H 280.732 V 9.7186867 q 0,-0.9697648 -0.72732,-1.6364781 Q 279.33797,7.354885 278.3682,7.354885 h -29.09294 q -0.96977,0 -1.69709,0.7273236 -0.66671,0.6667133 -0.66671,1.6364781 z"
       style="font-style:normal;font-variant:normal;font-weight:normal;font-stretch:normal;font-size:60.6103px;font-family:Orbitron;-inkscape-font-specification:Orbitron;fill:#383838;fill-opacity:1;stroke:none;stroke-width:0.631618;stroke-miterlimit:4;stroke-dasharray:none;stroke-opacity:1"
       id="path1482-4" />
    <path
       d="M 292.60784,46.084866 V 2.4454509 h 4.90943 V 46.084866 Z"
       style="font-style:normal;font-variant:normal;font-weight:normal;font-stretch:normal;font-size:60.6103px;font-family:Orbitron;-inkscape-font-specification:Orbitron;fill:#383838;fill-opacity:1;stroke:none;stroke-width:0.631618;stroke-miterlimit:4;stroke-dasharray:none;stroke-opacity:1"
       id="path1484-3" />
  </g>
  <g
     style="font-size:22.1528px;line-height:1.25;font-family:Orbitron;-inkscape-font-specification:Orbitron;fill:#383838;fill-opacity:1;stroke-width:1.27805"
     id="text32890"
     aria-label="FRAMEWORK &amp; LIBRARY"
     transform="translate(9.2094126)">
    <path
       id="path33870"
       style="font-size:14.152px;fill:#383838;fill-opacity:1;stroke-width:1.27805"
       d="m 121.13046,59.607419 h 9.29787 v 1.146312 h -8.15156 v 3.368177 h 6.55238 v 1.160464 h -6.55238 v 4.514488 h -1.14631 z" />
    <path
       id="path33872"
       style="font-size:14.152px;fill:#383838;fill-opacity:1;stroke-width:1.27805"
       d="m 141.5874,61.319811 v 2.986073 q 0,0.7076 -0.49532,1.20292 -0.49532,0.49532 -1.20292,0.49532 h -1.55672 l 3.19835,3.792736 h -1.51426 l -3.1842,-3.792736 h -3.73613 q -0.12737,0 -0.55193,-0.05661 v 3.849344 h -1.14631 V 59.621571 h 8.4912 q 0.7076,0 1.20292,0.49532 0.49532,0.49532 0.49532,1.20292 z m -8.4912,3.523849 h 6.79296 q 0.22643,0 0.3821,-0.155672 0.15568,-0.155672 0.15568,-0.382104 v -2.986073 q 0,-0.226432 -0.15568,-0.382104 -0.15567,-0.169824 -0.3821,-0.169824 h -6.79296 q -0.22643,0 -0.39626,0.169824 -0.15567,0.155672 -0.15567,0.382104 v 2.986073 q 0,0.226432 0.15567,0.382104 0.16983,0.155672 0.39626,0.155672 z" />
    <path
       id="path33874"
       style="font-size:14.152px;fill:#383838;fill-opacity:1;stroke-width:1.27805"
       d="m 144.803,59.607419 h 6.79296 q 0.7076,0 1.20292,0.49532 0.49532,0.49532 0.49532,1.20292 v 8.491201 h -1.14631 v -3.721976 h -7.89682 v 3.721976 h -1.14631 v -8.491201 q 0,-0.7076 0.49532,-1.20292 0.49532,-0.49532 1.20292,-0.49532 z m -0.55193,5.321153 h 7.89682 v -3.622913 q 0,-0.226432 -0.16983,-0.382104 -0.15567,-0.169824 -0.3821,-0.169824 H 144.803 q -0.22643,0 -0.39626,0.169824 -0.15567,0.155672 -0.15567,0.382104 z" />
    <path
       id="path33876"
       style="font-size:14.152px;fill:#383838;fill-opacity:1;stroke-width:1.27805"
       d="m 160.70896,64.645532 4.23145,-5.038113 h 1.57087 V 69.79686 h -1.14631 v -8.887457 l -4.65601,5.533433 -4.656,-5.533433 v 8.887457 h -1.14632 V 59.607419 h 1.57088 z" />
    <path
       id="path33878"
       style="font-size:14.152px;fill:#383838;fill-opacity:1;stroke-width:1.27805"
       d="m 177.36211,59.607419 v 1.146312 h -8.15155 v 3.368177 h 6.55238 v 1.160464 h -6.55238 v 3.368176 h 8.15155 v 1.146312 h -9.29786 V 59.607419 Z" />
    <path
       id="path33880"
       style="font-size:14.152px;fill:#383838;fill-opacity:1;stroke-width:1.27805"
       d="m 193.07967,59.607419 h 1.24538 l -3.70783,10.189441 h -1.00479 l -3.17005,-8.703481 -3.17004,8.703481 h -0.99064 l -3.70783,-10.189441 h 1.21707 l 2.98608,8.179857 2.97192,-8.179857 h 1.38689 l 2.98607,8.179857 z" />
    <path
       id="path33882"
       style="font-size:14.152px;fill:#383838;fill-opacity:1;stroke-width:1.27805"
       d="m 196.90425,59.607419 h 6.79296 q 0.7076,0 1.20292,0.49532 0.49532,0.49532 0.49532,1.20292 v 6.792961 q 0,0.7076 -0.49532,1.20292 -0.49532,0.49532 -1.20292,0.49532 h -6.79296 q -0.7076,0 -1.20292,-0.49532 -0.49532,-0.49532 -0.49532,-1.20292 v -6.792961 q 0,-0.7076 0.49532,-1.20292 0.49532,-0.49532 1.20292,-0.49532 z m 0,9.043129 h 6.79296 q 0.22643,0 0.38211,-0.155672 0.16982,-0.169824 0.16982,-0.396256 v -6.792961 q 0,-0.226432 -0.16982,-0.382104 -0.15568,-0.169824 -0.38211,-0.169824 h -6.79296 q -0.22643,0 -0.39625,0.169824 -0.15568,0.155672 -0.15568,0.382104 v 6.792961 q 0,0.226432 0.15568,0.396256 0.16982,0.155672 0.39625,0.155672 z" />
    <path
       id="path33884"
       style="font-size:14.152px;fill:#383838;fill-opacity:1;stroke-width:1.27805"
       d="m 217.12923,61.319811 v 2.986073 q 0,0.7076 -0.49532,1.20292 -0.49532,0.49532 -1.20292,0.49532 h -1.55672 l 3.19835,3.792736 h -1.51426 l -3.1842,-3.792736 h -3.73613 q -0.12737,0 -0.55193,-0.05661 v 3.849344 h -1.14631 V 59.621571 h 8.4912 q 0.7076,0 1.20292,0.49532 0.49532,0.49532 0.49532,1.20292 z m -8.4912,3.523849 h 6.79296 q 0.22643,0 0.3821,-0.155672 0.15568,-0.155672 0.15568,-0.382104 v -2.986073 q 0,-0.226432 -0.15568,-0.382104 -0.15567,-0.169824 -0.3821,-0.169824 h -6.79296 q -0.22643,0 -0.39626,0.169824 -0.15567,0.155672 -0.15567,0.382104 v 2.986073 q 0,0.226432 0.15567,0.382104 0.16983,0.155672 0.39626,0.155672 z" />
    <path
       id="path33886"
       style="font-size:14.152px;fill:#383838;fill-opacity:1;stroke-width:1.27805"
       d="m 226.8689,59.607419 h 1.47181 l -4.25975,5.094721 4.2739,5.09472 h -1.48596 l -3.79273,-4.514488 h -3.28327 v 4.514488 h -1.16046 V 59.607419 h 1.16046 v 4.514489 h 3.28327 z" />
    <path
       id="path33888"
       style="font-size:14.152px;fill:#383838;fill-opacity:1;stroke-width:1.27805"
       d="m 243.98376,67.433476 1.89637,1.118008 v 1.018944 l -1.93883,-1.089704 q -0.24058,0.594384 -0.69345,0.962336 -0.43871,0.3538 -0.97648,0.3538 h -6.86372 q -0.7076,0 -1.21708,-0.49532 -0.49532,-0.509472 -0.49532,-1.217072 v -3.04268 q 0,-0.311344 0.38211,-0.608536 0.3821,-0.311344 1.01894,-0.311344 -0.80666,-0.608536 -0.80666,-1.358592 v -1.415201 q 0,-0.721752 0.49532,-1.217072 0.50947,-0.509472 1.21707,-0.509472 h 5.81647 q 0.58023,0 1.0614,0.438712 0.49532,0.42456 0.66515,1.004792 v 0.778361 h -1.17462 v -0.481169 q 0,-0.226432 -0.16982,-0.382104 -0.15568,-0.169824 -0.38211,-0.169824 h -5.81647 q -0.22643,0 -0.39626,0.169824 -0.15567,0.155672 -0.15567,0.382104 v 1.967129 l 7.37319,3.721976 v -1.967128 h 1.16047 z m -8.57611,1.20292 h 6.86372 q 0.15567,0 0.31134,-0.14152 0.15567,-0.14152 0.25474,-0.367952 l -7.21752,-3.637064 h -0.21228 q -0.22644,0 -0.39626,0.169824 -0.15567,0.155672 -0.15567,0.382104 v 3.04268 q 0,0.226432 0.15567,0.396256 0.16982,0.155672 0.39626,0.155672 z" />
    <path
       id="path33890"
       style="font-size:14.152px;fill:#383838;fill-opacity:1;stroke-width:1.27805"
       d="M 250.86141,69.79686 V 59.593267 h 1.14631 v 9.057281 h 9.04313 v 1.146312 z" />
    <path
       id="path33892"
       style="font-size:14.152px;fill:#383838;fill-opacity:1;stroke-width:1.27805"
       d="M 261.89002,69.79686 V 59.607419 h 1.14631 V 69.79686 Z" />
    <path
       id="path33894"
       style="font-size:14.152px;fill:#383838;fill-opacity:1;stroke-width:1.27805"
       d="m 274.60846,64.220972 0.0566,0.240584 q 0.56608,0.523624 0.56608,1.259528 v 2.377536 q 0,0.7076 -0.49532,1.20292 -0.49532,0.49532 -1.20292,0.49532 h -8.4912 V 59.607419 h 8.05249 q 0.7076,0 1.20292,0.49532 0.49532,0.49532 0.49532,1.20292 v 2.165257 q 0,0.382104 -0.18398,0.750056 z m -1.51426,-3.467241 h -6.35425 q -0.22643,0 -0.39626,0.169824 -0.15567,0.155672 -0.15567,0.382104 v 2.165257 q 0,0.226432 0.15567,0.396256 0.16983,0.155672 0.39626,0.155672 h 6.35425 q 0.22643,0 0.3821,-0.155672 0.15567,-0.169824 0.15567,-0.396256 v -2.165257 q 0,-0.226432 -0.15567,-0.382104 -0.15567,-0.169824 -0.3821,-0.169824 z m 0.99064,7.344889 v -2.377536 q 0,-0.226432 -0.16983,-0.382104 -0.15567,-0.169824 -0.3821,-0.169824 h -6.79296 q -0.22643,0 -0.39626,0.169824 -0.15567,0.155672 -0.15567,0.382104 v 2.377536 q 0,0.226432 0.15567,0.396256 0.16983,0.155672 0.39626,0.155672 h 6.79296 q 0.22643,0 0.3821,-0.155672 0.16983,-0.169824 0.16983,-0.396256 z" />
    <path
       id="path33896"
       style="font-size:14.152px;fill:#383838;fill-opacity:1;stroke-width:1.27805"
       d="m 286.94944,61.319811 v 2.986073 q 0,0.7076 -0.49532,1.20292 -0.49532,0.49532 -1.20292,0.49532 h -1.55672 l 3.19836,3.792736 h -1.51427 l -3.1842,-3.792736 h -3.73613 q -0.12736,0 -0.55192,-0.05661 V 69.79686 H 276.76 V 59.621571 h 8.4912 q 0.7076,0 1.20292,0.49532 0.49532,0.49532 0.49532,1.20292 z m -8.4912,3.523849 h 6.79296 q 0.22644,0 0.38211,-0.155672 0.15567,-0.155672 0.15567,-0.382104 v -2.986073 q 0,-0.226432 -0.15567,-0.382104 -0.15567,-0.169824 -0.38211,-0.169824 h -6.79296 q -0.22643,0 -0.39625,0.169824 -0.15567,0.155672 -0.15567,0.382104 v 2.986073 q 0,0.226432 0.15567,0.382104 0.16982,0.155672 0.39625,0.155672 z" />
    <path
       id="path33898"
       style="font-size:14.152px;fill:#383838;fill-opacity:1;stroke-width:1.27805"
       d="m 290.16505,59.607419 h 6.79296 q 0.7076,0 1.20292,0.49532 0.49532,0.49532 0.49532,1.20292 v 8.491201 h -1.14631 v -3.721976 h -7.89682 v 3.721976 h -1.14631 v -8.491201 q 0,-0.7076 0.49532,-1.20292 0.49532,-0.49532 1.20292,-0.49532 z m -0.55193,5.321153 h 7.89682 v -3.622913 q 0,-0.226432 -0.16982,-0.382104 -0.15568,-0.169824 -0.38211,-0.169824 h -6.79296 q -0.22643,0 -0.39625,0.169824 -0.15568,0.155672 -0.15568,0.382104 z" />
    <path
       id="path33900"
       style="font-size:14.152px;fill:#383838;fill-opacity:1;stroke-width:1.27805"
       d="m 310.44398,61.319811 v 2.986073 q 0,0.7076 -0.49532,1.20292 -0.49532,0.49532 -1.20292,0.49532 h -1.55672 l 3.19835,3.792736 h -1.51426 l -3.1842,-3.792736 h -3.73613 q -0.12737,0 -0.55193,-0.05661 v 3.849344 h -1.14631 V 59.621571 h 8.4912 q 0.7076,0 1.20292,0.49532 0.49532,0.49532 0.49532,1.20292 z m -8.4912,3.523849 h 6.79296 q 0.22643,0 0.38211,-0.155672 0.15567,-0.155672 0.15567,-0.382104 v -2.986073 q 0,-0.226432 -0.15567,-0.382104 -0.15568,-0.169824 -0.38211,-0.169824 h -6.79296 q -0.22643,0 -0.39625,0.169824 -0.15568,0.155672 -0.15568,0.382104 v 2.986073 q 0,0.226432 0.15568,0.382104 0.16982,0.155672 0.39625,0.155672 z" />
    <path
       id="path33902"
       style="font-size:14.152px;fill:#383838;fill-opacity:1;stroke-width:1.27805"
       d="m 320.5516,59.607419 h 1.34444 l -4.68431,6.354249 v 3.835192 h -1.14632 v -3.835192 l -4.68431,-6.354249 h 1.31614 l 3.94841,4.981505 z" />
  </g>
</svg>
