<?xml version="1.0" encoding="UTF-8" standalone="no"?>
<svg
   xmlns:dc="http://purl.org/dc/elements/1.1/"
   xmlns:cc="http://creativecommons.org/ns#"
   xmlns:rdf="http://www.w3.org/1999/02/22-rdf-syntax-ns#"
   xmlns:svg="http://www.w3.org/2000/svg"
   xmlns="http://www.w3.org/2000/svg"
   xmlns:sodipodi="http://sodipodi.sourceforge.net/DTD/sodipodi-0.dtd"
   xmlns:inkscape="http://www.inkscape.org/namespaces/inkscape"
   inkscape:version="1.0 (4035a4fb49, 2020-05-01)"
   sodipodi:docname="logo_analytics.svg"
   id="svg6"
   version="1.1"
   viewBox="0 0 66.181685 16.471315"
   height="62.252007"
   width="250.13545">
  <metadata
     id="metadata12">
    <rdf:RDF>
      <cc:Work
         rdf:about="">
        <dc:format>image/svg+xml</dc:format>
        <dc:type
           rdf:resource="http://purl.org/dc/dcmitype/StillImage" />
        <dc:title></dc:title>
      </cc:Work>
    </rdf:RDF>
  </metadata>
  <defs
     id="defs10" />
  <sodipodi:namedview
     inkscape:current-layer="svg6"
     inkscape:window-maximized="1"
     inkscape:window-y="-11"
     inkscape:window-x="-11"
     inkscape:cy="-47.565902"
     inkscape:cx="5.9694859"
     inkscape:zoom="2.4367662"
     fit-margin-bottom="0"
     fit-margin-right="0"
     fit-margin-left="0"
     fit-margin-top="0"
     showgrid="false"
     id="namedview8"
     inkscape:window-height="1046"
     inkscape:window-width="1920"
     inkscape:pageshadow="2"
     inkscape:pageopacity="0"
     guidetolerance="10"
     gridtolerance="10"
     objecttolerance="10"
     borderopacity="1"
     bordercolor="#666666"
     pagecolor="#ffffff" />
  <g
     transform="translate(-9.3904183e-4)"
     id="g4"
     stroke-width="1.75"
     fill="#000000"
     word-spacing="0"
     letter-spacing="0"
     font-family="Orbitron"
     font-size="107.126px"
     font-weight="400"
     style="line-height:1.25;-inkscape-font-specification:Montserrat"
     aria-label="EMIIA.AI">
    <path
       id="path2"
       style="-inkscape-font-specification:Orbitron"
       d="M 10.66,0 V 1.31 H 1.313 V 5.158 H 8.825 V 6.484 H 1.314 v 3.848 h 9.345 v 1.31 H 0 V 0 Z M 18.566,5.756 23.416,0 h 1.801 V 11.642 H 23.903 V 1.488 L 18.566,7.81 13.228,1.488 V 11.642 H 11.914 V 0 h 1.8 z m 8.415,5.886 V 0 h 1.315 v 11.642 z m 3.581,0 V 0 h 1.314 V 11.642 Z M 36.106,0 h 7.787 q 0.812,0 1.38,0.566 0.567,0.566 0.567,1.374 v 9.702 H 44.526 V 7.389 h -9.053 v 4.253 H 34.16 V 1.94 q 0,-0.808 0.568,-1.374 Q 35.295,0 36.106,0 Z m -0.633,6.08 h 9.053 V 1.94 q 0,-0.258 -0.194,-0.436 Q 44.153,1.31 43.893,1.31 h -7.787 q -0.26,0 -0.454,0.194 -0.179,0.178 -0.179,0.436 z m 13.514,4.236 v 1.326 h -1.33 V 10.316 Z M 53.154,0 h 7.787 q 0.812,0 1.38,0.566 0.567,0.566 0.567,1.374 v 9.702 H 61.574 V 7.389 h -9.053 v 4.253 H 51.207 V 1.94 q 0,-0.808 0.568,-1.374 Q 52.343,0 53.154,0 Z m -0.633,6.08 h 9.053 V 1.94 q 0,-0.258 -0.195,-0.436 Q 61.201,1.31 60.941,1.31 h -7.787 q -0.26,0 -0.454,0.194 -0.179,0.178 -0.179,0.436 z m 12.232,5.562 V 0 h 1.314 v 11.642 z" />
  </g>
  <text
     id="text16"
     y="16.417025"
     x="33.914856"
     style="font-size:30.9992px;line-height:1.25;font-family:sans-serif;stroke-width:0.464988"
     xml:space="preserve"><tspan
       style="font-style:normal;font-variant:normal;font-weight:normal;font-stretch:normal;font-size:4.95986px;font-family:Orbitron;-inkscape-font-specification:Orbitron;stroke-width:0.464988"
       y="16.417025"
       x="33.914856"
       id="tspan14"
       sodipodi:role="line">ANALYTICS</tspan></text>
</svg>
