<?xml version="1.0" encoding="UTF-8" standalone="no"?>
<svg
   xmlns:dc="http://purl.org/dc/elements/1.1/"
   xmlns:cc="http://creativecommons.org/ns#"
   xmlns:rdf="http://www.w3.org/1999/02/22-rdf-syntax-ns#"
   xmlns:svg="http://www.w3.org/2000/svg"
   xmlns="http://www.w3.org/2000/svg"
   xmlns:sodipodi="http://sodipodi.sourceforge.net/DTD/sodipodi-0.dtd"
   xmlns:inkscape="http://www.inkscape.org/namespaces/inkscape"
   inkscape:export-ydpi="512.79999"
   inkscape:export-xdpi="512.79999"
   inkscape:export-filename="C:\Users\vstar\Desktop\ЭМИИА\Photo\emiia143.33.png"
   viewBox="0 0 311.63528 64.67939"
   inkscape:version="1.0 (4035a4fb49, 2020-05-01)"
   sodipodi:docname="logo_animate_analitics.svg"
   id="svg877"
   version="1.1"
   height="64.67939"
   width="296.03528">
  <metadata
     id="metadata883">
    <rdf:RDF>
      <cc:Work
         rdf:about="">
        <dc:format>image/svg+xml</dc:format>
        <dc:type
           rdf:resource="http://purl.org/dc/dcmitype/StillImage" />
        <dc:title />
      </cc:Work>
    </rdf:RDF>
  </metadata>
  <defs
     id="defs881" />
  <sodipodi:namedview
     viewbox-width="311.63528"
     inkscape:current-layer="svg877"
     inkscape:window-maximized="1"
     inkscape:window-y="-11"
     inkscape:window-x="-11"
     inkscape:cy="-33.897829"
     inkscape:cx="141.74569"
     inkscape:zoom="2.1830865"
     fit-margin-bottom="0"
     fit-margin-right="0"
     fit-margin-left="0"
     fit-margin-top="0"
     lock-margins="true"
     showgrid="false"
     id="namedview879"
     inkscape:window-height="1046"
     inkscape:window-width="1920"
     inkscape:pageshadow="2"
     inkscape:pageopacity="0"
     guidetolerance="10"
     gridtolerance="10"
     objecttolerance="10"
     borderopacity="1"
     bordercolor="#666666"
     pagecolor="#ffffff"
     inkscape:document-rotation="0" />
  <style
     id="style863"
     type="text/css" />
  <g
     transform="translate(4.7119849,-0.86762202)"
     style="font-size:60.6103px;line-height:1.25;font-family:sans-serif;stroke-width:0.631357"
     id="text835"
     aria-label="EMIIA.AI">
    <path
       id="path1470"
       style="font-style:normal;font-variant:normal;font-weight:normal;font-stretch:normal;font-size:60.6103px;font-family:Orbitron;-inkscape-font-specification:Orbitron;stroke-width:0.631357"
       d="M 90.521735,2.4454509 V 7.354885 H 55.610203 V 21.780136 H 83.672771 V 26.75018 H 55.610203 v 14.425251 h 34.911532 v 4.909435 H 50.700769 V 2.4454509 Z" />
    <path
       id="path1472"
       style="font-style:normal;font-variant:normal;font-weight:normal;font-stretch:normal;font-size:60.6103px;font-family:Orbitron;-inkscape-font-specification:Orbitron;stroke-width:0.631357"
       d="M 120.05884,24.022717 138.18132,2.4454509 h 6.72774 V 46.084866 h -4.90944 V 8.0215983 L 120.05884,31.720225 100.11805,8.0215983 V 46.084866 H 95.208615 V 2.4454509 h 6.727745 z" />
    <path
       id="path1474"
       style="font-style:normal;font-variant:normal;font-weight:normal;font-stretch:normal;font-size:60.6103px;font-family:Orbitron;-inkscape-font-specification:Orbitron;stroke-width:0.631357"
       d="M 151.49949,46.084866 V 2.4454509 h 4.90943 V 46.084866 Z" />
    <path
       id="path1476"
       style="font-style:normal;font-variant:normal;font-weight:normal;font-stretch:normal;font-size:60.6103px;font-family:Orbitron;-inkscape-font-specification:Orbitron;stroke-width:0.631357"
       d="M 164.87636,46.084866 V 2.4454509 h 4.90944 V 46.084866 Z" />
    <path
       id="path1478"
       style="font-style:normal;font-variant:normal;font-weight:normal;font-stretch:normal;font-size:60.6103px;font-family:Orbitron;-inkscape-font-specification:Orbitron;stroke-width:0.631357"
       d="m 185.58709,2.4454509 h 29.09295 q 3.03051,0 5.15187,2.1213604 2.12136,2.1213605 2.12136,5.1518754 V 46.084866 h -4.90943 V 30.144357 h -33.82055 v 15.940509 h -4.90943 V 9.7186867 q 0,-3.0305149 2.12136,-5.1518754 2.12136,-2.1213604 5.15187,-2.1213604 z m -2.3638,22.7894721 h 33.82055 V 9.7186867 q 0,-0.9697648 -0.72732,-1.6364781 Q 215.6498,7.354885 214.68004,7.354885 h -29.09295 q -0.96976,0 -1.69708,0.7273236 -0.66672,0.6667133 -0.66672,1.6364781 z" />
    <path
       id="path1480"
       style="font-style:normal;font-variant:normal;font-weight:normal;font-stretch:normal;font-size:60.6103px;font-family:Orbitron;-inkscape-font-specification:Orbitron;stroke-width:0.631357"
       d="m 233.70788,41.114821 v 4.970045 h -4.97004 v -4.970045 z" />
    <path
       id="path1482"
       style="font-style:normal;font-variant:normal;font-weight:normal;font-stretch:normal;font-size:60.6103px;font-family:Orbitron;-inkscape-font-specification:Orbitron;stroke-width:0.631357"
       d="m 249.27526,2.4454509 h 29.09294 q 3.03052,0 5.15188,2.1213604 2.12136,2.1213605 2.12136,5.1518754 V 46.084866 H 280.732 V 30.144357 h -33.82054 v 15.940509 h -4.90944 V 9.7186867 q 0,-3.0305149 2.12136,-5.1518754 2.12136,-2.1213604 5.15188,-2.1213604 z m -2.3638,22.7894721 H 280.732 V 9.7186867 q 0,-0.9697648 -0.72732,-1.6364781 Q 279.33797,7.354885 278.3682,7.354885 h -29.09294 q -0.96977,0 -1.69709,0.7273236 -0.66671,0.6667133 -0.66671,1.6364781 z" />
    <path
       id="path1484"
       style="font-style:normal;font-variant:normal;font-weight:normal;font-stretch:normal;font-size:60.6103px;font-family:Orbitron;-inkscape-font-specification:Orbitron;stroke-width:0.631357"
       d="M 292.60784,46.084866 V 2.4454509 h 4.90943 V 46.084866 Z" />
  </g>
  <g
     aria-label="ANALYTICS"
     id="text188"
     style="font-style:normal;font-variant:normal;font-weight:normal;font-stretch:normal;font-size:14.036px;line-height:1.25;font-family:Orbitron;-inkscape-font-specification:Orbitron;stroke-width:1.05269643;stroke-miterlimit:4;stroke-dasharray:none;fill:#5f5d5d;fill-opacity:1">
    <path
       d="m 214.2308,52.356478 h 6.73728 q 0.7018,0 1.19306,0.49126 0.49126,0.49126 0.49126,1.19306 v 8.421601 h -1.13692 V 58.77093 h -7.83208 v 3.691469 h -1.13692 v -8.421601 q 0,-0.7018 0.49126,-1.19306 0.49126,-0.49126 1.19306,-0.49126 z m -0.5474,5.277536 h 7.83208 v -3.593216 q 0,-0.224576 -0.16843,-0.378972 -0.15439,-0.168432 -0.37897,-0.168432 h -6.73728 q -0.22458,0 -0.39301,0.168432 -0.15439,0.154396 -0.15439,0.378972 z"
       style="font-style:normal;font-variant:normal;font-weight:normal;font-stretch:normal;font-size:14.036px;font-family:Orbitron;-inkscape-font-specification:Orbitron;stroke-width:1.05269643;stroke-miterlimit:4;stroke-dasharray:none;fill:#5f5d5d;fill-opacity:1"
       id="path1678" />
    <path
       d="m 233.22063,61.171087 v -8.814609 h 1.13692 v 10.105921 h -1.558 l -7.41101,-8.814609 v 8.814609 h -1.13691 V 52.356478 h 1.55799 z"
       style="font-style:normal;font-variant:normal;font-weight:normal;font-stretch:normal;font-size:14.036px;font-family:Orbitron;-inkscape-font-specification:Orbitron;stroke-width:1.05269643;stroke-miterlimit:4;stroke-dasharray:none;fill:#5f5d5d;fill-opacity:1"
       id="path1680" />
    <path
       d="m 237.64241,52.356478 h 6.73728 q 0.7018,0 1.19306,0.49126 0.49126,0.49126 0.49126,1.19306 v 8.421601 h -1.13692 V 58.77093 h -7.83208 v 3.691469 h -1.13692 v -8.421601 q 0,-0.7018 0.49126,-1.19306 0.49126,-0.49126 1.19306,-0.49126 z m -0.5474,5.277536 h 7.83208 v -3.593216 q 0,-0.224576 -0.16843,-0.378972 -0.15439,-0.168432 -0.37897,-0.168432 h -6.73728 q -0.22458,0 -0.39301,0.168432 -0.15439,0.154396 -0.15439,0.378972 z"
       style="font-style:normal;font-variant:normal;font-weight:normal;font-stretch:normal;font-size:14.036px;font-family:Orbitron;-inkscape-font-specification:Orbitron;stroke-width:1.05269643;stroke-miterlimit:4;stroke-dasharray:none;fill:#5f5d5d;fill-opacity:1"
       id="path1682" />
    <path
       d="M 247.67727,62.462399 V 52.342442 h 1.13692 v 8.983041 h 8.969 v 1.136916 z"
       style="font-style:normal;font-variant:normal;font-weight:normal;font-stretch:normal;font-size:14.036px;font-family:Orbitron;-inkscape-font-specification:Orbitron;stroke-width:1.05269643;stroke-miterlimit:4;stroke-dasharray:none;fill:#5f5d5d;fill-opacity:1"
       id="path1684" />
    <path
       d="m 264.62728,52.356478 h 1.33342 l -4.64592,6.302164 v 3.803757 h -1.13691 v -3.803757 l -4.64592,-6.302164 h 1.30535 l 3.91604,4.940672 z"
       style="font-style:normal;font-variant:normal;font-weight:normal;font-stretch:normal;font-size:14.036px;font-family:Orbitron;-inkscape-font-specification:Orbitron;stroke-width:1.05269643;stroke-miterlimit:4;stroke-dasharray:none;fill:#5f5d5d;fill-opacity:1"
       id="path1686" />
    <path
       d="m 266.89607,52.356478 h 10.10592 v 1.136916 h -4.47749 v 8.969005 h -1.13691 v -8.969005 h -4.49152 z"
       style="font-style:normal;font-variant:normal;font-weight:normal;font-stretch:normal;font-size:14.036px;font-family:Orbitron;-inkscape-font-specification:Orbitron;stroke-width:1.05269643;stroke-miterlimit:4;stroke-dasharray:none;fill:#5f5d5d;fill-opacity:1"
       id="path1688" />
    <path
       d="M 278.07947,62.462399 V 52.356478 h 1.13692 v 10.105921 z"
       style="font-style:normal;font-variant:normal;font-weight:normal;font-stretch:normal;font-size:14.036px;font-family:Orbitron;-inkscape-font-specification:Orbitron;stroke-width:1.05269643;stroke-miterlimit:4;stroke-dasharray:none;fill:#5f5d5d;fill-opacity:1"
       id="path1690" />
    <path
       d="m 291.24107,53.493394 h -8.39353 q -0.22458,0 -0.39301,0.168432 -0.15439,0.154396 -0.15439,0.378972 v 6.73728 q 0,0.224577 0.15439,0.393009 0.16843,0.154396 0.39301,0.154396 h 8.39353 v 1.136916 h -8.39353 q -0.7018,0 -1.19306,-0.49126 -0.49126,-0.49126 -0.49126,-1.193061 v -6.73728 q 0,-0.7018 0.49126,-1.19306 0.49126,-0.49126 1.19306,-0.49126 h 8.39353 z"
       style="font-style:normal;font-variant:normal;font-weight:normal;font-stretch:normal;font-size:14.036px;font-family:Orbitron;-inkscape-font-specification:Orbitron;stroke-width:1.05269643;stroke-miterlimit:4;stroke-dasharray:none;fill:#5f5d5d;fill-opacity:1"
       id="path1692" />
    <path
       d="m 302.74028,54.040798 v 0.393008 h -1.13691 v -0.393008 q 0,-0.224576 -0.16844,-0.378972 -0.15439,-0.168432 -0.37897,-0.168432 h -6.73728 q -0.22457,0 -0.39301,0.168432 -0.15439,0.154396 -0.15439,0.378972 v 2.259796 q 0,0.224576 0.15439,0.378972 0.16844,0.154396 0.39301,0.154396 h 6.73728 q 0.7018,0 1.19306,0.49126 0.49126,0.49126 0.49126,1.19306 v 2.259796 q 0,0.701801 -0.49126,1.193061 -0.49126,0.49126 -1.19306,0.49126 h -6.73728 q -0.7018,0 -1.19306,-0.49126 -0.49126,-0.49126 -0.49126,-1.193061 V 60.38507 h 1.13692 v 0.393008 q 0,0.224577 0.15439,0.393009 0.16844,0.154396 0.39301,0.154396 h 6.73728 q 0.22458,0 0.37897,-0.154396 0.16844,-0.168432 0.16844,-0.393009 v -2.259796 q 0,-0.224576 -0.16844,-0.378972 -0.15439,-0.154396 -0.37897,-0.154396 h -6.73728 q -0.7018,0 -1.19306,-0.49126 -0.49126,-0.49126 -0.49126,-1.19306 v -2.259796 q 0,-0.7018 0.49126,-1.19306 0.49126,-0.49126 1.19306,-0.49126 h 6.73728 q 0.7018,0 1.19306,0.49126 0.49126,0.49126 0.49126,1.19306 z"
       style="font-style:normal;font-variant:normal;font-weight:normal;font-stretch:normal;font-size:14.036px;font-family:Orbitron;-inkscape-font-specification:Orbitron;stroke-width:1.05269643;stroke-miterlimit:4;stroke-dasharray:none;fill:#5f5d5d;fill-opacity:1"
       id="path1694" />
  </g>
  <path
     id="path266"
     d="m 30.942119,27.521551 c -0.251563,-0.485544 -0.243754,-15.141092 0.0085,-15.350187 0.243644,-0.202197 3.045458,-0.206219 3.288237,-0.0045 0.155805,0.1293 0.178112,1.079135 0.178112,7.58153 0,7.433904 -0.02883,8.013269 -0.400313,8.041306 -0.07037,0.0052 -0.75385,0.01853 -1.518943,0.02938 l -1.391059,0.01968 -0.164216,-0.316964 z"
     style="fill:#0d66b7;fill-opacity:1;stroke:#3d85c6;stroke-width:0.117379;stroke-opacity:1" />
  <path
     id="path264"
     d="m 24.556764,27.800869 c -0.590559,-0.07576 -0.586887,-0.03913 -0.586887,-5.856673 v -5.438622 l 0.322784,-0.123214 c 0.468244,-0.178727 2.994594,-0.08978 3.239662,0.11405 0.17478,0.145359 0.193696,0.679388 0.193696,5.467034 v 5.305943 l -0.288106,0.270672 c -0.257744,0.242134 -0.409319,0.272129 -1.437904,0.284561 -0.632393,0.0077 -1.281844,-0.0029 -1.443245,-0.02375 z"
     style="fill:#2690f0;fill-opacity:1;stroke:#3d85c6;stroke-width:0.117379;stroke-opacity:1" />
  <path
     id="path262"
     d="m 17.504728,27.565327 c -0.209356,-0.266147 -0.2255,-0.506428 -0.2255,-3.355292 0,-2.58736 0.02865,-3.109524 0.182724,-3.329491 0.172848,-0.246776 0.265011,-0.260878 1.704924,-0.260878 h 1.522174 l 0.114479,0.301091 c 0.17807,0.468361 0.149217,6.417649 -0.03222,6.649624 -0.11626,0.148623 -0.447098,0.19732 -1.593886,0.234584 -1.420547,0.04619 -1.451309,0.04177 -1.672662,-0.239638 z"
     style="fill:#68abe7;fill-opacity:1;stroke:#3d85c6;stroke-width:0.117379;stroke-opacity:1" />
  <path
     id="path258"
     d="M 18.974605,38.081274 C 15.355673,34.449081 12.16038,31.160365 11.873969,30.773008 11.587558,30.385653 11.2342,29.91027 11.088756,29.716592 10.943287,29.522914 10.690113,29.100349 10.526109,28.777555 10.362114,28.454759 10.152486,28.058603 10.060263,27.897208 9.3854181,26.71615 8.553123,24.231366 8.3683889,22.846223 8.1158931,20.952714 8.0899058,19.203404 8.2891131,17.50911 c 0.1062466,-0.903824 0.2425841,-1.828192 0.3029186,-2.054147 0.3036224,-1.136813 0.953634,-2.796432 1.4941513,-3.814839 0.102788,-0.193672 0.311228,-0.589829 0.463201,-0.880346 0.151963,-0.290517 0.460172,-0.7658998 0.684908,-1.0564166 0.22472,-0.2905168 0.500948,-0.6602595 0.613833,-0.8216593 0.372894,-0.5331682 1.95307,-2.1235786 2.898158,-2.916954 1.008822,-0.8468582 1.483494,-1.1683385 2.298179,-1.5564808 0.290514,-0.1384106 0.595959,-0.3056514 0.678788,-0.3716471 0.312008,-0.2486585 1.994564,-0.9348274 2.814718,-1.1478853 0.468847,-0.1218018 0.946461,-0.2717561 1.061322,-0.333242 1.051927,-0.5629674 7.470418,-0.5290949 8.591684,0.045327 0.161409,0.082684 0.610382,0.2145901 0.997731,0.2931216 0.38735,0.078538 0.889153,0.236633 1.115102,0.3513321 0.225966,0.1146991 0.927283,0.460024 1.558514,0.7673796 0.631222,0.3073675 1.176369,0.6052795 1.211445,0.6620266 0.03502,0.05674 0.310941,0.2311652 0.61302,0.3875913 0.787333,0.4076824 2.581214,1.9952819 3.613811,3.1982338 0.877385,1.0221592 1.839395,2.3702461 2.000287,2.8030871 0.04587,0.123408 0.200436,0.409255 0.343464,0.63521 0.143036,0.225955 0.325286,0.622113 0.40501,0.880346 0.0797,0.258234 0.195417,0.533231 0.257126,0.611103 0.101109,0.127596 0.639141,1.804398 0.914971,2.851596 0.05952,0.225955 0.167369,1.202313 0.239702,2.169677 0.131428,1.758489 0.01442,4.316504 -0.24423,5.342621 -0.234063,0.928298 -0.80585,2.71961 -0.910215,2.851594 -0.06156,0.07787 -0.202208,0.418274 -0.312516,0.756451 -0.110325,0.338177 -0.252182,0.646748 -0.315238,0.685727 -0.06308,0.03896 -0.244102,0.343311 -0.402315,0.676312 -0.327091,0.688407 -0.646424,1.158569 -1.647031,2.424837 -0.229578,0.290511 -3.355261,3.476318 -6.945993,7.07956 -4.47785,4.493464 -6.62292,6.567892 -6.828868,6.603991 -0.264857,0.04641 -1.076032,-0.725963 -6.880163,-6.551357 z"
     style="fill:none;fill-opacity:1;stroke:#3d85c6;stroke-width:4.10573;stroke-linecap:round;stroke-miterlimit:6;stroke-dasharray:none;stroke-opacity:1" />
</svg>
