<?xml version="1.0" encoding="UTF-8" standalone="no"?>
<svg
   xmlns:dc="http://purl.org/dc/elements/1.1/"
   xmlns:cc="http://creativecommons.org/ns#"
   xmlns:rdf="http://www.w3.org/1999/02/22-rdf-syntax-ns#"
   xmlns:svg="http://www.w3.org/2000/svg"
   xmlns="http://www.w3.org/2000/svg"
   xmlns:sodipodi="http://sodipodi.sourceforge.net/DTD/sodipodi-0.dtd"
   xmlns:inkscape="http://www.inkscape.org/namespaces/inkscape"
   width="321.74747"
   height="81.81636"
   version="1.1"
   id="svg877"
   sodipodi:docname="emiia_analytics_logo.svg"
   inkscape:version="1.0 (4035a4fb49, 2020-05-01)"
   viewBox="0 0 338.70246 81.816361"
   inkscape:export-filename="C:\Users\vstar\Desktop\E24\Photo\emiia_analytics_logo.png"
   inkscape:export-xdpi="879.80194"
   inkscape:export-ydpi="879.80194">
  <path
     id="path1148"
     d="M 36.167969 25.703125 A 2.6364801 2.6364801 0 0 0 33.53125 28.339844 L 33.53125 41.332031 A 2.6364801 2.6364801 0 0 0 36.167969 43.96875 A 2.6364801 2.6364801 0 0 0 38.804688 41.332031 L 38.804688 28.339844 A 2.6364801 2.6364801 0 0 0 36.167969 25.703125 z "
     style="color:#000000;font-style:normal;font-variant:normal;font-weight:normal;font-stretch:normal;font-size:medium;line-height:normal;font-family:sans-serif;font-variant-ligatures:normal;font-variant-position:normal;font-variant-caps:normal;font-variant-numeric:normal;font-variant-alternates:normal;font-variant-east-asian:normal;font-feature-settings:normal;font-variation-settings:normal;text-indent:0;text-align:start;text-decoration:none;text-decoration-line:none;text-decoration-style:solid;text-decoration-color:#000000;letter-spacing:normal;word-spacing:normal;text-transform:none;writing-mode:lr-tb;direction:ltr;text-orientation:mixed;dominant-baseline:auto;baseline-shift:baseline;text-anchor:start;white-space:normal;shape-padding:0;shape-margin:0;inline-size:0;clip-rule:nonzero;display:inline;overflow:visible;visibility:visible;isolation:auto;mix-blend-mode:normal;color-interpolation:sRGB;color-interpolation-filters:linearRGB;solid-color:#000000;solid-opacity:1;vector-effect:none;fill:#383838;fill-opacity:1;fill-rule:nonzero;stroke:none;stroke-width:5.27296;stroke-linecap:round;stroke-linejoin:round;stroke-miterlimit:4;stroke-dasharray:none;stroke-dashoffset:0;stroke-opacity:1;color-rendering:auto;image-rendering:auto;shape-rendering:auto;text-rendering:auto;enable-background:accumulate;stop-color:#000000;stop-opacity:1;opacity:1" />
  <path
     id="path1144"
     d="M 24.390625 31.556641 A 2.6364801 2.6364801 0 0 0 21.753906 34.193359 L 21.753906 41.630859 A 2.6364801 2.6364801 0 0 0 24.390625 44.267578 A 2.6364801 2.6364801 0 0 0 27.027344 41.630859 L 27.027344 34.193359 A 2.6364801 2.6364801 0 0 0 24.390625 31.556641 z "
     style="color:#000000;font-style:normal;font-variant:normal;font-weight:normal;font-stretch:normal;font-size:medium;line-height:normal;font-family:sans-serif;font-variant-ligatures:normal;font-variant-position:normal;font-variant-caps:normal;font-variant-numeric:normal;font-variant-alternates:normal;font-variant-east-asian:normal;font-feature-settings:normal;font-variation-settings:normal;text-indent:0;text-align:start;text-decoration:none;text-decoration-line:none;text-decoration-style:solid;text-decoration-color:#000000;letter-spacing:normal;word-spacing:normal;text-transform:none;writing-mode:lr-tb;direction:ltr;text-orientation:mixed;dominant-baseline:auto;baseline-shift:baseline;text-anchor:start;white-space:normal;shape-padding:0;shape-margin:0;inline-size:0;clip-rule:nonzero;display:inline;overflow:visible;visibility:visible;isolation:auto;mix-blend-mode:normal;color-interpolation:sRGB;color-interpolation-filters:linearRGB;solid-color:#000000;solid-opacity:1;vector-effect:none;fill:#383838;fill-opacity:1;fill-rule:nonzero;stroke:none;stroke-width:5.27296;stroke-linecap:round;stroke-linejoin:round;stroke-miterlimit:4;stroke-dasharray:none;stroke-dashoffset:0;stroke-opacity:1;color-rendering:auto;image-rendering:auto;shape-rendering:auto;text-rendering:auto;enable-background:accumulate;stop-color:#000000;stop-opacity:1;opacity:1" />
  <path
     id="path1152"
     d="M 48.125 21.056641 A 2.6364801 2.6364801 0 0 0 45.488281 23.693359 L 45.488281 41.832031 A 2.6364801 2.6364801 0 0 0 48.125 44.46875 A 2.6364801 2.6364801 0 0 0 50.761719 41.832031 L 50.761719 23.693359 A 2.6364801 2.6364801 0 0 0 48.125 21.056641 z "
     style="color:#000000;font-style:normal;font-variant:normal;font-weight:normal;font-stretch:normal;font-size:medium;line-height:normal;font-family:sans-serif;font-variant-ligatures:normal;font-variant-position:normal;font-variant-caps:normal;font-variant-numeric:normal;font-variant-alternates:normal;font-variant-east-asian:normal;font-feature-settings:normal;font-variation-settings:normal;text-indent:0;text-align:start;text-decoration:none;text-decoration-line:none;text-decoration-style:solid;text-decoration-color:#000000;letter-spacing:normal;word-spacing:normal;text-transform:none;writing-mode:lr-tb;direction:ltr;text-orientation:mixed;dominant-baseline:auto;baseline-shift:baseline;text-anchor:start;white-space:normal;shape-padding:0;shape-margin:0;inline-size:0;clip-rule:nonzero;display:inline;overflow:visible;visibility:visible;isolation:auto;mix-blend-mode:normal;color-interpolation:sRGB;color-interpolation-filters:linearRGB;solid-color:#000000;solid-opacity:1;vector-effect:none;fill:#383838;fill-opacity:1;fill-rule:nonzero;stroke:none;stroke-width:5.27296;stroke-linecap:round;stroke-linejoin:round;stroke-miterlimit:4;stroke-dasharray:none;stroke-dashoffset:0;stroke-opacity:1;color-rendering:auto;image-rendering:auto;shape-rendering:auto;text-rendering:auto;enable-background:accumulate;stop-color:#000000;stop-opacity:1;opacity:1" />
  <metadata
     id="metadata883">
    <rdf:RDF>
      <cc:Work
         rdf:about="">
        <dc:format>image/svg+xml</dc:format>
        <dc:type
           rdf:resource="http://purl.org/dc/dcmitype/StillImage" />
        <dc:title />
      </cc:Work>
    </rdf:RDF>
  </metadata>
  <defs
     id="defs881" />
  <sodipodi:namedview
     inkscape:document-rotation="0"
     pagecolor="#ffffff"
     bordercolor="#666666"
     borderopacity="1"
     objecttolerance="10"
     gridtolerance="10"
     guidetolerance="10"
     inkscape:pageopacity="0"
     inkscape:pageshadow="2"
     inkscape:window-width="1920"
     inkscape:window-height="1046"
     id="namedview879"
     showgrid="false"
     lock-margins="true"
     fit-margin-top="0"
     fit-margin-left="0"
     fit-margin-right="0"
     fit-margin-bottom="0"
     inkscape:zoom="3.0873506"
     inkscape:cx="194.49914"
     inkscape:cy="90.680575"
     inkscape:window-x="-11"
     inkscape:window-y="-11"
     inkscape:window-maximized="1"
     inkscape:current-layer="svg877"
     viewbox-width="311.63528" />
  <style
     type="text/css"
     id="style863" />
  <g
     aria-label="EMIIA.AI"
     id="text835"
     style="font-size:60.6103px;line-height:1.25;font-family:sans-serif;fill:#383838;fill-opacity:1;stroke:none;stroke-width:0.631618;stroke-miterlimit:4;stroke-dasharray:none;stroke-opacity:1"
     transform="translate(38.670306,6.5484415)">
    <path
       d="M 90.521735,2.4454509 V 7.354885 H 55.610203 V 21.780136 H 83.672771 V 26.75018 H 55.610203 v 14.425251 h 34.911532 v 4.909435 H 50.700769 V 2.4454509 Z"
       style="font-style:normal;font-variant:normal;font-weight:normal;font-stretch:normal;font-size:60.6103px;font-family:Orbitron;-inkscape-font-specification:Orbitron;fill:#383838;fill-opacity:1;stroke:none;stroke-width:0.631618;stroke-miterlimit:4;stroke-dasharray:none;stroke-opacity:1"
       id="path1470" />
    <path
       d="M 120.05884,24.022717 138.18132,2.4454509 h 6.72774 V 46.084866 h -4.90944 V 8.0215983 L 120.05884,31.720225 100.11805,8.0215983 V 46.084866 H 95.208615 V 2.4454509 h 6.727745 z"
       style="font-style:normal;font-variant:normal;font-weight:normal;font-stretch:normal;font-size:60.6103px;font-family:Orbitron;-inkscape-font-specification:Orbitron;fill:#383838;fill-opacity:1;stroke:none;stroke-width:0.631618;stroke-miterlimit:4;stroke-dasharray:none;stroke-opacity:1"
       id="path1472" />
    <path
       d="M 151.49949,46.084866 V 2.4454509 h 4.90943 V 46.084866 Z"
       style="font-style:normal;font-variant:normal;font-weight:normal;font-stretch:normal;font-size:60.6103px;font-family:Orbitron;-inkscape-font-specification:Orbitron;fill:#383838;fill-opacity:1;stroke:none;stroke-width:0.631618;stroke-miterlimit:4;stroke-dasharray:none;stroke-opacity:1"
       id="path1474" />
    <path
       d="M 164.87636,46.084866 V 2.4454509 h 4.90944 V 46.084866 Z"
       style="font-style:normal;font-variant:normal;font-weight:normal;font-stretch:normal;font-size:60.6103px;font-family:Orbitron;-inkscape-font-specification:Orbitron;fill:#383838;fill-opacity:1;stroke:none;stroke-width:0.631618;stroke-miterlimit:4;stroke-dasharray:none;stroke-opacity:1"
       id="path1476" />
    <path
       d="m 185.58709,2.4454509 h 29.09295 q 3.03051,0 5.15187,2.1213604 2.12136,2.1213605 2.12136,5.1518754 V 46.084866 h -4.90943 V 30.144357 h -33.82055 v 15.940509 h -4.90943 V 9.7186867 q 0,-3.0305149 2.12136,-5.1518754 2.12136,-2.1213604 5.15187,-2.1213604 z m -2.3638,22.7894721 h 33.82055 V 9.7186867 q 0,-0.9697648 -0.72732,-1.6364781 Q 215.6498,7.354885 214.68004,7.354885 h -29.09295 q -0.96976,0 -1.69708,0.7273236 -0.66672,0.6667133 -0.66672,1.6364781 z"
       style="font-style:normal;font-variant:normal;font-weight:normal;font-stretch:normal;font-size:60.6103px;font-family:Orbitron;-inkscape-font-specification:Orbitron;fill:#383838;fill-opacity:1;stroke:none;stroke-width:0.631618;stroke-miterlimit:4;stroke-dasharray:none;stroke-opacity:1"
       id="path1478" />
    <path
       d="m 233.70788,41.114821 v 4.970045 h -4.97004 v -4.970045 z"
       style="font-style:normal;font-variant:normal;font-weight:normal;font-stretch:normal;font-size:60.6103px;font-family:Orbitron;-inkscape-font-specification:Orbitron;fill:#383838;fill-opacity:1;stroke:none;stroke-width:0.631618;stroke-miterlimit:4;stroke-dasharray:none;stroke-opacity:1"
       id="path1480" />
    <path
       d="m 249.27526,2.4454509 h 29.09294 q 3.03052,0 5.15188,2.1213604 2.12136,2.1213605 2.12136,5.1518754 V 46.084866 H 280.732 V 30.144357 h -33.82054 v 15.940509 h -4.90944 V 9.7186867 q 0,-3.0305149 2.12136,-5.1518754 2.12136,-2.1213604 5.15188,-2.1213604 z m -2.3638,22.7894721 H 280.732 V 9.7186867 q 0,-0.9697648 -0.72732,-1.6364781 Q 279.33797,7.354885 278.3682,7.354885 h -29.09294 q -0.96977,0 -1.69709,0.7273236 -0.66671,0.6667133 -0.66671,1.6364781 z"
       style="font-style:normal;font-variant:normal;font-weight:normal;font-stretch:normal;font-size:60.6103px;font-family:Orbitron;-inkscape-font-specification:Orbitron;fill:#383838;fill-opacity:1;stroke:none;stroke-width:0.631618;stroke-miterlimit:4;stroke-dasharray:none;stroke-opacity:1"
       id="path1482" />
    <path
       d="M 292.60784,46.084866 V 2.4454509 h 4.90943 V 46.084866 Z"
       style="font-style:normal;font-variant:normal;font-weight:normal;font-stretch:normal;font-size:60.6103px;font-family:Orbitron;-inkscape-font-specification:Orbitron;fill:#383838;fill-opacity:1;stroke:none;stroke-width:0.631618;stroke-miterlimit:4;stroke-dasharray:none;stroke-opacity:1"
       id="path1484" />
  </g>
  <g
     style="font-style:normal;font-variant:normal;font-weight:normal;font-stretch:normal;font-size:18.5214px;line-height:1.25;font-family:Orbitron;-inkscape-font-specification:Orbitron;fill:#383838;fill-opacity:1;stroke:none;stroke-width:3.47279;stroke-opacity:1"
     id="text9737"
     aria-label="ANALYTICS"
     transform="translate(14.668814,5.3702383)">
    <path
       id="path10327"
       style="font-style:normal;font-variant:normal;font-weight:normal;font-stretch:normal;font-family:Orbitron;-inkscape-font-specification:Orbitron;fill:#383838;fill-opacity:1;stroke:none;stroke-width:3.47279;stroke-opacity:1"
       d="m 204.73484,55.560656 h 8.89028 q 0.92607,0 1.57431,0.648249 0.64825,0.648249 0.64825,1.574319 v 11.112841 h -1.50023 v -4.871129 h -10.33494 v 4.871129 h -1.50023 V 57.783224 q 0,-0.92607 0.64824,-1.574319 0.64825,-0.648249 1.57432,-0.648249 z m -0.72233,6.964047 h 10.33494 v -4.741479 q 0,-0.296342 -0.22226,-0.500077 -0.20373,-0.222257 -0.50007,-0.222257 h -8.89028 q -0.29634,0 -0.5186,0.222257 -0.20373,0.203735 -0.20373,0.500077 z" />
    <path
       id="path10329"
       style="font-style:normal;font-variant:normal;font-weight:normal;font-stretch:normal;font-family:Orbitron;-inkscape-font-specification:Orbitron;fill:#383838;fill-opacity:1;stroke:none;stroke-width:3.47279;stroke-opacity:1"
       d="m 229.79314,67.192096 v -11.63144 h 1.50023 v 13.335409 h -2.05587 l -9.7793,-11.63144 v 11.63144 h -1.50023 V 55.560656 h 2.05587 z" />
    <path
       id="path10331"
       style="font-style:normal;font-variant:normal;font-weight:normal;font-stretch:normal;font-family:Orbitron;-inkscape-font-specification:Orbitron;fill:#383838;fill-opacity:1;stroke:none;stroke-width:3.47279;stroke-opacity:1"
       d="m 235.62796,55.560656 h 8.89027 q 0.92607,0 1.57432,0.648249 0.64825,0.648249 0.64825,1.574319 v 11.112841 h -1.50023 v -4.871129 h -10.33495 v 4.871129 h -1.50023 V 57.783224 q 0,-0.92607 0.64825,-1.574319 0.64825,-0.648249 1.57432,-0.648249 z m -0.72234,6.964047 h 10.33495 v -4.741479 q 0,-0.296342 -0.22226,-0.500077 -0.20374,-0.222257 -0.50008,-0.222257 h -8.89027 q -0.29634,0 -0.5186,0.222257 -0.20374,0.203735 -0.20374,0.500077 z" />
    <path
       id="path10333"
       style="font-style:normal;font-variant:normal;font-weight:normal;font-stretch:normal;font-family:Orbitron;-inkscape-font-specification:Orbitron;fill:#383838;fill-opacity:1;stroke:none;stroke-width:3.47279;stroke-opacity:1"
       d="m 248.8696,68.896065 v -13.35393 h 1.50024 v 11.853696 h 11.83517 v 1.500234 z" />
    <path
       id="path10335"
       style="font-style:normal;font-variant:normal;font-weight:normal;font-stretch:normal;font-family:Orbitron;-inkscape-font-specification:Orbitron;fill:#383838;fill-opacity:1;stroke:none;stroke-width:3.47279;stroke-opacity:1"
       d="m 271.23622,55.560656 h 1.75953 l -6.13058,8.316109 v 5.0193 h -1.50024 v -5.0193 l -6.13058,-8.316109 h 1.72249 l 5.16747,6.519533 z" />
    <path
       id="path10337"
       style="font-style:normal;font-variant:normal;font-weight:normal;font-stretch:normal;font-family:Orbitron;-inkscape-font-specification:Orbitron;fill:#383838;fill-opacity:1;stroke:none;stroke-width:3.47279;stroke-opacity:1"
       d="m 274.23003,55.560656 h 13.33541 v 1.500234 h -5.90833 v 11.835175 h -1.50023 V 57.06089 h -5.92685 z" />
    <path
       id="path10339"
       style="font-style:normal;font-variant:normal;font-weight:normal;font-stretch:normal;font-family:Orbitron;-inkscape-font-specification:Orbitron;fill:#383838;fill-opacity:1;stroke:none;stroke-width:3.47279;stroke-opacity:1"
       d="M 288.98725,68.896065 V 55.560656 h 1.50023 v 13.335409 z" />
    <path
       id="path10341"
       style="font-style:normal;font-variant:normal;font-weight:normal;font-stretch:normal;font-family:Orbitron;-inkscape-font-specification:Orbitron;fill:#383838;fill-opacity:1;stroke:none;stroke-width:3.47279;stroke-opacity:1"
       d="m 306.35482,57.06089 h -11.0758 q -0.29634,0 -0.5186,0.222257 -0.20373,0.203735 -0.20373,0.500077 v 8.890273 q 0,0.296342 0.20373,0.518599 0.22226,0.203735 0.5186,0.203735 h 11.0758 v 1.500234 h -11.0758 q -0.92607,0 -1.57432,-0.648249 -0.64824,-0.648249 -0.64824,-1.574319 v -8.890273 q 0,-0.92607 0.64824,-1.574319 0.64825,-0.648249 1.57432,-0.648249 h 11.0758 z" />
    <path
       id="path10343"
       style="font-style:normal;font-variant:normal;font-weight:normal;font-stretch:normal;font-family:Orbitron;-inkscape-font-specification:Orbitron;fill:#383838;fill-opacity:1;stroke:none;stroke-width:3.47279;stroke-opacity:1"
       d="m 321.52877,57.783224 v 0.5186 h -1.50023 v -0.5186 q 0,-0.296342 -0.22226,-0.500077 -0.20373,-0.222257 -0.50008,-0.222257 h -8.89027 q -0.29634,0 -0.5186,0.222257 -0.20373,0.203735 -0.20373,0.500077 v 2.981946 q 0,0.296342 0.20373,0.500078 0.22226,0.203735 0.5186,0.203735 h 8.89027 q 0.92607,0 1.57432,0.648249 0.64825,0.648249 0.64825,1.574319 v 2.981946 q 0,0.92607 -0.64825,1.574319 -0.64825,0.648249 -1.57432,0.648249 h -8.89027 q -0.92607,0 -1.57432,-0.648249 -0.64825,-0.648249 -0.64825,-1.574319 v -0.5186 h 1.50024 v 0.5186 q 0,0.296342 0.20373,0.518599 0.22226,0.203735 0.5186,0.203735 h 8.89027 q 0.29635,0 0.50008,-0.203735 0.22226,-0.222257 0.22226,-0.518599 v -2.981946 q 0,-0.296342 -0.22226,-0.500078 -0.20373,-0.203735 -0.50008,-0.203735 h -8.89027 q -0.92607,0 -1.57432,-0.648249 -0.64825,-0.648249 -0.64825,-1.574319 v -2.981946 q 0,-0.92607 0.64825,-1.574319 0.64825,-0.648249 1.57432,-0.648249 h 8.89027 q 0.92607,0 1.57432,0.648249 0.64825,0.648249 0.64825,1.574319 z" />
  </g>
  <g
     transform="matrix(1.4171908,0,0,1.3680827,128.15189,-12.627789)"
     style="stroke:#383838;stroke-width:3.42704;stroke-miterlimit:4;stroke-dasharray:none;stroke-opacity:1"
     id="g906">
    <path
       sodipodi:nodetypes="ccsssssssssssscc"
       id="path892"
       style="color:#000000;font-style:normal;font-variant:normal;font-weight:normal;font-stretch:normal;font-size:medium;line-height:normal;font-family:sans-serif;font-variant-ligatures:normal;font-variant-position:normal;font-variant-caps:normal;font-variant-numeric:normal;font-variant-alternates:normal;font-variant-east-asian:normal;font-feature-settings:normal;font-variation-settings:normal;text-indent:0;text-align:start;text-decoration:none;text-decoration-line:none;text-decoration-style:solid;text-decoration-color:#000000;letter-spacing:normal;word-spacing:normal;text-transform:none;writing-mode:lr-tb;direction:ltr;text-orientation:mixed;dominant-baseline:auto;baseline-shift:baseline;text-anchor:start;white-space:normal;shape-padding:0;shape-margin:0;inline-size:0;clip-rule:nonzero;display:inline;overflow:visible;visibility:visible;isolation:auto;mix-blend-mode:normal;color-interpolation:sRGB;color-interpolation-filters:linearRGB;solid-color:#000000;solid-opacity:1;vector-effect:none;fill:none;fill-opacity:1;fill-rule:nonzero;stroke:#383838;stroke-width:3.42704;stroke-linecap:round;stroke-linejoin:round;stroke-miterlimit:4;stroke-dasharray:none;stroke-dashoffset:0;stroke-opacity:1;paint-order:markers fill stroke;color-rendering:auto;image-rendering:auto;shape-rendering:auto;text-rendering:auto;enable-background:accumulate;stop-color:#000000"
       d="m -64.055251,67.837213 c 4.162715,-4.191748 9.32138,-9.391833 12.323425,-12.349454 4.563925,-4.642106 8.049215,-8.691281 9.56125,-12.776677 0.82766,-2.236271 1.206655,-4.431572 1.290495,-6.557793 0.005,-0.11823 0.003,-0.236483 0.0112,-0.35404 0.14969,-2.252505 -0.0367,-4.242811 -0.374895,-6.133147 -2.118245,-11.838393 -12.461305,-19.009346 -22.30523,-18.986119 -5.57198,0.01314 -11.190295,1.930542 -15.69425,5.839115 -2.270275,1.970161 -4.26285,4.451871 -5.675875,7.297811 -1.289595,2.597344 -2.096499,5.498064 -2.191175,8.590174 -0.11325,3.698729 0.103998,8.488595 2.239744,12.777949 0.42451,0.852572 0.924816,1.68537 1.513386,2.485895 0.437594,0.595179 1.457415,1.840209 1.939066,2.434279 1.971216,2.431307 3.71307,4.196941 6.009159,6.544863 3.269187,3.342987 6.491565,6.816125 11.35362,11.187144 z" />
  </g>
</svg>
