<svg xmlns="http://www.w3.org/2000/svg" xmlns:xlink="http://www.w3.org/1999/xlink" height="65" width="59" style="text-align: center">




<path height="35" width="50" d="m34.923594 17.697239h2.20869c.753343.0 1.359825.470675 1.359825 1.055326v18.735277c0 .584651-.606482 1.055327-1.359825 1.055327h-2.20869c-.753344.0-1.359826-.470676-1.359826-1.055327V18.752565c0-.584651.606482-1.055326 1.359826-1.055326z" style="fill:#000;fill-opacity:1;stroke:none;stroke-width:2.93691;stroke-linejoin:round;stroke-miterlimit:6;stroke-dasharray:none;stroke-opacity:1" id="1" >


    <animateTransform 
       repeatCount="indefinite"
       dur="2s"
       values="0,0;0,-4;0,0"
       type="translate"
       attributeName="transform"/>
            
            
    
            
            
  </path>
  
         
         <path height="35" width="50" d="m34.923594 17.697239h2.20869c.753343.0 1.359825.470675 1.359825 1.055326v18.735277c0 .584651-.606482 1.055327-1.359825 1.055327h-2.20869c-.753344.0-1.359826-.470676-1.359826-1.055327V18.752565c0-.584651.606482-1.055326 1.359826-1.055326z" style="fill:#000;fill-opacity:1;stroke:none;stroke-width:2.93691;stroke-linejoin:round;stroke-miterlimit:6;stroke-dasharray:none;stroke-opacity:1" id="1" >
         
         

      
 </path>      
         
         

<path height="3" width="5" d="m27.104681 23.254679h2.20869c.753344.0 1.359826.483965 1.359826 1.085123v13.311146c0 .601159-.606482 1.085124-1.359826 1.085124h-2.20869c-.753343.0-1.359825-.483965-1.359825-1.085124V24.339802c0-.601158.606482-1.085123 1.359825-1.085123z" style="fill:#000;fill-opacity:1;stroke:none;stroke-width:2.53096;stroke-linejoin:round;stroke-miterlimit:6;stroke-dasharray:none;stroke-opacity:1" id="2">

    <animateTransform 
       repeatCount="indefinite"
       dur="4s"
       values="0,0;0,-6;0,0"
       type="translate"
       attributeName="transform"/>
</path>
         
         <path height="5" width="5" d="m27.104681 23.254679h2.20869c.753344.0 1.359826.483965 1.359826 1.085123v13.311146c0 .601159-.606482 1.085124-1.359826 1.085124h-2.20869c-.753343.0-1.359825-.483965-1.359825-1.085124V24.339802c0-.601158.606482-1.085123 1.359825-1.085123z" style="fill:#000;fill-opacity:1;stroke:none;stroke-width:2.53096;stroke-linejoin:round;stroke-miterlimit:6;stroke-dasharray:none;stroke-opacity:1" id="2">


 

</path>



<path height="35" width="50" d="m18.907189 28.791731h2.931998c.552987.0.998172.49811.998172 1.11684v7.680526c0 .618729-.445185 1.11684-.998172 1.11684h-2.931998c-.552987.0-.998172-.498111-.998172-1.11684v-7.680526c0-.61873.445185-1.11684.998172-1.11684z" style="fill:#000;fill-opacity:1;stroke:none;stroke-width:2.02539;stroke-linejoin:round;stroke-miterlimit:6;stroke-dasharray:none;stroke-opacity:1" id="3">

    <animateTransform 
       repeatCount="indefinite"
       dur="3s"
       values="0,0;0,-8.5;0,0"
       type="translate"
       attributeName="transform"/>

</path>




  <path height="35" width="50" d="m18.907189 28.791731h2.931998c.552987.0.998172.49811.998172 1.11684v7.680526c0 .618729-.445185 1.11684-.998172 1.11684h-2.931998c-.552987.0-.998172-.498111-.998172-1.11684v-7.680526c0-.61873.445185-1.11684.998172-1.11684z" style="fill:#000;fill-opacity:1;stroke:none;stroke-width:2.02539;stroke-linejoin:round;stroke-miterlimit:6;stroke-dasharray:none;stroke-opacity:1" id="3">
  
  
  

</path>
  
       


<path style="fill:none;fill-opacity:1;stroke:#000;stroke-width:5.33292;stroke-linecap:round;stroke-miterlimit:6;stroke-dasharray:none;stroke-opacity:1" d="m20.10681 53.002106C15.406192 48.284267 11.255839 44.012567 10.883821 43.50943 10.51181 43.006296 10.052827 42.388824 9.8639121 42.137256 9.674966 41.885689 9.3461058 41.336821 9.1330846 40.917546 8.9200759 40.498268 8.6477933 39.983702 8.5280002 39.774067 7.6514522 38.239995 6.5703799 35.012521 6.330437 33.213364 6.0024652 30.753894 5.9687177 28.481724 6.2274362 26.281013 6.3654421 25.107038 6.5425322 23.906379 6.6208948 23.612887 7.0152667 22.136285 7.8595746 19.980616 8.5616413 18.657811 8.695155 18.40625 8.9658923 17.891684 9.1632847 17.51433c.1973987-.377348.5977331-.994821.8896363-1.372169.291878-.377354.650676-.857609.797309-1.067251.484347-.692531 2.536834-2.758307 3.764397-3.788821 1.31036-1.09998 1.926912-1.5175503 2.985092-2.0217056.377361-.1797805.774091-.3970123.881678-.4827321.405264-.3229793 2.590728-1.2142415 3.656034-1.4909795.608988-.1582082 1.229345-.3529846 1.378537-.4328493 1.36635-.7312337 9.703294-.6872385 11.159699.058877.209656.1073925.79283.2787337 1.295958.3807329.503129.1020182 1.154918.3073633 1.448404.4563486.293492.1489798 1.204438.5975209 2.02434.9967413.819882.3992394 1.527986.786198 1.573546.8599057.04542.073691.403875.3002617.796251.503441 1.022656.529538 3.352719 2.591665 4.693961 4.154169 1.139621 1.327678 2.389168 3.078703 2.598154 3.640918.05963.160298.260351.531583.446132.825076.185774.293492.422501.808057.526065 1.143474.10352.335423.253826.692613.333972.793761.13133.165735.830193 2.343722 1.188465 3.703928.07728.293491.217381 1.561678.311342 2.818182.170715 2.284094.01871 5.606687-.317229 6.939506-.304028 1.205763-1.046718 3.532491-1.182278 3.703924-.08001.101144-.262654.543294-.405921.982551-.143306.439256-.327572.840058-.409457.890687-.08197.0506-.317066.445925-.522579.878459-.424854.894168-.839629 1.50486-2.139316 3.14961-.298203.377343-4.35813 4.515374-9.022123 9.19561-5.816252 5.836541-8.602475 8.531006-8.869984 8.577895-.344027.06028-1.397652-.942951-8.93661-8.509529z" id="3" >



</path>

  
</svg>
