<?xml version="1.0" encoding="UTF-8" standalone="no"?>
<svg
   xmlns:dc="http://purl.org/dc/elements/1.1/"
   xmlns:cc="http://creativecommons.org/ns#"
   xmlns:rdf="http://www.w3.org/1999/02/22-rdf-syntax-ns#"
   xmlns:svg="http://www.w3.org/2000/svg"
   xmlns="http://www.w3.org/2000/svg"
   xmlns:sodipodi="http://sodipodi.sourceforge.net/DTD/sodipodi-0.dtd"
   xmlns:inkscape="http://www.inkscape.org/namespaces/inkscape"
   inkscape:version="1.0 (4035a4fb49, 2020-05-01)"
   sodipodi:docname="shield.svg"
   id="svg6"
   version="1.1"
   viewBox="0 0 20.21888 22.693559"
   class="bi bi-app-indicator"
   fill="currentColor"
   height="22.69356"
   width="20.21888">
  <metadata
     id="metadata12">
    <rdf:RDF>
      <cc:Work
         rdf:about="">
        <dc:format>image/svg+xml</dc:format>
        <dc:type
           rdf:resource="http://purl.org/dc/dcmitype/StillImage" />
        <dc:title />
      </cc:Work>
    </rdf:RDF>
  </metadata>
  <defs
     id="defs10" />
  <sodipodi:namedview
     inkscape:current-layer="svg6"
     inkscape:window-maximized="1"
     inkscape:window-y="-11"
     inkscape:window-x="-11"
     inkscape:cy="11.451287"
     inkscape:cx="37.468757"
     inkscape:zoom="13.4375"
     fit-margin-bottom="0"
     fit-margin-right="0"
     fit-margin-left="0"
     fit-margin-top="0"
     showgrid="false"
     id="namedview8"
     inkscape:window-height="1046"
     inkscape:window-width="1920"
     inkscape:pageshadow="2"
     inkscape:pageopacity="0"
     guidetolerance="10"
     gridtolerance="10"
     objecttolerance="10"
     borderopacity="1"
     bordercolor="#666666"
     pagecolor="#ffffff"
     inkscape:document-rotation="0" />
  <path
     d="m 5.9741584,2.4547006 c -2.4390705,0 -4.4163278,1.9772574 -4.4163278,4.4163283 v 6.6244901 c 0,2.439071 1.9772573,4.416328 4.4163278,4.416328 h 6.6244906 c 2.439071,0 4.416328,-1.977257 4.416328,-4.416328 V 6.8710289 c 0,-2.4390709 -1.977257,-4.4163283 -4.416328,-4.4163283 z"
     id="path2-7"
     style="fill:none;stroke:#000000;stroke-width:0.331224;stroke-miterlimit:4;stroke-dasharray:none;stroke-opacity:1"
     sodipodi:nodetypes="sssssssss" />
  <path
     d="m 7.6464767,6.0619247 c 0.637809,-0.1734135 1.315591,-0.3291917 1.721203,-0.3291917 0.405611,0 1.0833933,0.1557782 1.7212023,0.3291917 0.652505,0.1763526 1.3103,0.3850366 1.6971,0.5114227 0.330011,0.1089822 0.568499,0.3972693 0.613708,0.7418569 0.350354,2.6317702 -0.462632,4.5822297 -1.449032,5.8725437 -0.418284,0.551972 -0.917038,1.038044 -1.479598,1.441977 -0.194523,0.139776 -0.400625,0.26269 -0.6160593,0.367401 -0.164596,0.0776 -0.341537,0.141082 -0.487321,0.141082 -0.145785,0 -0.322138,-0.06349 -0.487322,-0.141082 -0.215436,-0.104709 -0.421537,-0.227622 -0.616058,-0.367401 -0.562549,-0.403946 -1.061301,-0.890017 -1.479599,-1.441977 -0.9864,-1.290314 -1.799385,-3.2407735 -1.449031,-5.8725437 0.04521,-0.3445876 0.283696,-0.6328747 0.613707,-0.7418569 0.561502,-0.1841068 1.127367,-0.3546307 1.6971,-0.5114227 z"
     id="path2"
     style="fill:none;fill-opacity:1;stroke:#c82323;stroke-width:0.5;stroke-miterlimit:4;stroke-dasharray:none;stroke-opacity:1"
     sodipodi:nodetypes="csccccccscccccc" />
  <g
     style="font-style:normal;font-variant:normal;font-weight:normal;font-stretch:normal;font-size:2.96997px;line-height:1.25;font-family:Montserrat;-inkscape-font-specification:Montserrat;stroke-width:0.55687"
     id="text939"
     aria-label="Объект №1"
     transform="translate(0.89772547,1.2439356)">
    <path
       id="path941"
       style="font-style:normal;font-variant:normal;font-weight:normal;font-stretch:normal;font-family:Montserrat;-inkscape-font-specification:Montserrat;stroke-width:0.55687"
       d="m 1.4603398,20.598459 q -0.3088769,0 -0.56132436,-0.136619 Q 0.64953796,20.322251 0.5069794,20.081684 0.36739081,19.841116 0.36739081,19.541149 q 0,-0.299967 0.13958859,-0.540534 0.14255856,-0.240568 0.39203604,-0.377186 0.25244746,-0.139589 0.56132436,-0.139589 0.3088768,0 0.5553844,0.136619 0.2494774,0.136618 0.392036,0.380156 0.1425585,0.240567 0.1425585,0.540534 0,0.299967 -0.1425585,0.543505 -0.1425586,0.240567 -0.392036,0.377186 -0.2465076,0.136619 -0.5553844,0.136619 z m 0,-0.196018 q 0.2465075,0 0.4454955,-0.109889 0.198988,-0.112859 0.3118468,-0.308877 0.1128589,-0.198988 0.1128589,-0.442526 0,-0.243537 -0.1128589,-0.439555 -0.1128588,-0.198988 -0.3118468,-0.308877 -0.198988,-0.112859 -0.4454955,-0.112859 -0.2465075,0 -0.4484655,0.112859 -0.19898799,0.109889 -0.31481682,0.308877 -0.11285886,0.196018 -0.11285886,0.439555 0,0.243538 0.11285886,0.442526 0.11582883,0.196018 0.31481682,0.308877 0.201958,0.109889 0.4484655,0.109889 z" />
    <path
       id="path943"
       style="font-style:normal;font-variant:normal;font-weight:normal;font-stretch:normal;font-family:Montserrat;-inkscape-font-specification:Montserrat;stroke-width:0.55687"
       d="m 3.7845268,19.057044 q 0.2168078,0 0.3860961,0.09801 0.1722583,0.09504 0.2672973,0.270268 0.095039,0.172258 0.095039,0.395006 0,0.228687 -0.1009789,0.406885 -0.098009,0.175229 -0.2762073,0.273238 -0.1781982,0.09801 -0.4098558,0.09801 -0.3890661,0 -0.6029039,-0.273238 -0.2138379,-0.273237 -0.2138379,-0.754372 0,-0.501925 0.1900781,-0.769222 0.1930481,-0.267297 0.599934,-0.362336 l 0.7009129,-0.160379 0.03564,0.193048 -0.6593333,0.151469 q -0.3356066,0.07425 -0.493015,0.264327 -0.1574085,0.187108 -0.1722583,0.555384 0.095039,-0.181168 0.2643273,-0.282147 0.1692883,-0.103949 0.3890661,-0.103949 z m -0.03267,1.366186 q 0.1633484,0 0.2910571,-0.07425 0.1306787,-0.07722 0.2019579,-0.213838 0.074249,-0.136618 0.074249,-0.308876 0,-0.172259 -0.071279,-0.302937 -0.071279,-0.130679 -0.2019579,-0.201958 -0.1277088,-0.07425 -0.2940271,-0.07425 -0.1663183,0 -0.296997,0.07425 -0.1277087,0.07128 -0.2019579,0.201958 -0.071279,0.130678 -0.071279,0.302937 0,0.172258 0.071279,0.308876 0.074249,0.136619 0.2049279,0.213838 0.1306787,0.07425 0.294027,0.07425 z" />
    <path
       id="path945"
       style="font-style:normal;font-variant:normal;font-weight:normal;font-stretch:normal;font-family:Montserrat;-inkscape-font-specification:Montserrat;stroke-width:0.55687"
       d="m 5.7764019,19.564909 q 0.2880871,0 0.4395555,0.130679 0.1514685,0.130679 0.1514685,0.368276 0,0.252448 -0.1633483,0.386096 -0.1633484,0.130679 -0.4692553,0.130679 H 5.1170685 v -1.375096 h -0.487075 v -0.187108 h 0.6979429 v 0.546474 z m -0.04455,0.852382 q 0.2078979,0 0.3148168,-0.0891 0.106919,-0.0891 0.106919,-0.264327 0,-0.338576 -0.4217358,-0.338576 H 5.3279364 v 0.692003 z" />
    <path
       id="path947"
       style="font-style:normal;font-variant:normal;font-weight:normal;font-stretch:normal;font-family:Montserrat;-inkscape-font-specification:Montserrat;stroke-width:0.55687"
       d="M 8.1348369,19.864876 H 6.8280501 q 0.01782,0.243538 0.1871081,0.395006 0.1692883,0.148499 0.4276757,0.148499 0.1455285,0 0.2672973,-0.05049 0.1217688,-0.05346 0.2108679,-0.154438 l 0.1187988,0.136618 q -0.103949,0.124739 -0.2613574,0.190078 -0.1544384,0.06534 -0.3415465,0.06534 -0.2405676,0 -0.4276757,-0.100979 -0.1841381,-0.103949 -0.2880871,-0.285117 -0.1039489,-0.181169 -0.1039489,-0.409856 0,-0.228688 0.098009,-0.409856 0.100979,-0.181168 0.2732372,-0.282147 0.1752282,-0.100979 0.3920361,-0.100979 0.2168078,0 0.389066,0.100979 0.1722583,0.100979 0.2702673,0.282147 0.098009,0.178198 0.098009,0.409856 z M 7.3804646,19.187723 q -0.2257178,0 -0.3801562,0.145528 -0.1514685,0.142559 -0.1722583,0.374217 H 7.9358489 Q 7.9150591,19.47581 7.7606207,19.333251 7.6091522,19.187723 7.3804646,19.187723 Z" />
    <path
       id="path949"
       style="font-style:normal;font-variant:normal;font-weight:normal;font-stretch:normal;font-family:Montserrat;-inkscape-font-specification:Montserrat;stroke-width:0.55687"
       d="M 9.1689428,19.885666 H 8.8125464 v 0.694973 H 8.6016786 v -1.562204 h 0.2108678 v 0.686063 h 0.3593664 l 0.5494445,-0.686063 h 0.2286876 l -0.6147837,0.757342 0.6593333,0.804862 H 9.745117 Z" />
    <path
       id="path951"
       style="font-style:normal;font-variant:normal;font-weight:normal;font-stretch:normal;font-family:Montserrat;-inkscape-font-specification:Montserrat;stroke-width:0.55687"
       d="m 11.388578,19.205543 h -0.591024 v 1.375096 H 10.586686 V 19.205543 H 9.9956618 v -0.187108 h 1.3929162 z" />
    <path
       id="path953"
       style="font-style:normal;font-variant:normal;font-weight:normal;font-stretch:normal;font-family:Montserrat;-inkscape-font-specification:Montserrat;stroke-width:0.55687"
       d="m 15.054635,19.43423 q -0.145529,0 -0.264327,-0.0594 -0.115829,-0.06237 -0.184139,-0.169288 -0.06534,-0.109889 -0.06534,-0.246508 0,-0.136618 0.06534,-0.243537 0.06831,-0.106919 0.184139,-0.166319 0.118798,-0.06237 0.264327,-0.06237 0.145528,0 0.261357,0.06237 0.118799,0.0594 0.184138,0.166319 0.06831,0.106919 0.06831,0.243537 0,0.136619 -0.06831,0.246508 -0.06534,0.106919 -0.184138,0.169288 -0.115829,0.0594 -0.261357,0.0594 z m -1.02464,-0.93257 h 0.216808 v 2.078979 h -0.181168 l -1.336487,-1.686943 v 1.686943 H 12.509371 V 18.50166 h 0.181168 l 1.339456,1.686943 z m 1.02464,0.115829 q -0.157408,0 -0.258387,0.09504 -0.100979,0.09504 -0.100979,0.246507 0,0.151469 0.09801,0.246508 0.100979,0.09504 0.261357,0.09504 0.160378,0 0.258387,-0.09504 0.100979,-0.09504 0.100979,-0.246508 0,-0.151468 -0.100979,-0.246507 -0.100979,-0.09504 -0.258388,-0.09504 z m -0.454405,1.072159 h 0.90881 v 0.148498 h -0.90881 z" />
    <path
       id="path955"
       style="font-style:normal;font-variant:normal;font-weight:normal;font-stretch:normal;font-family:Montserrat;-inkscape-font-specification:Montserrat;stroke-width:0.55687"
       d="m 16.54426,18.50166 v 2.078979 H 16.330423 V 18.691738 H 15.840378 V 18.50166 Z" />
  </g>
  <path
     id="path6950"
     d="m 20.07935,3.5208909 a 3.2976746,3.2976746 0 1 1 -6.595349,0 3.2976746,3.2976746 0 0 1 6.595349,0 z"
     style="fill:#c82323;fill-opacity:1;stroke-width:1.09923" />
  <g
     transform="matrix(1.2373473,0,0,1.2373473,-3.7705436,-0.53110004)"
     style="font-style:normal;font-variant:normal;font-weight:normal;font-stretch:normal;font-size:4.73798px;line-height:1.25;font-family:Arial;-inkscape-font-specification:Arial;fill:#ffffff;fill-opacity:1;stroke-width:0.888372"
     id="text7564"
     aria-label="1">
    <path
       id="path8325"
       style="font-style:normal;font-variant:normal;font-weight:normal;font-stretch:normal;font-size:3.55349px;font-family:Arial;-inkscape-font-specification:Arial;fill:#ffffff;fill-opacity:1;stroke-width:0.888372"
       d="M 16.92912,4.633677 H 16.616802 V 2.6435144 Q 16.50402,2.7510908 16.320099,2.8586671 16.137913,2.9662435 15.992165,3.0200317 V 2.7181238 q 0.262,-0.1231922 0.458067,-0.2984376 0.196067,-0.1752453 0.277616,-0.3400801 h 0.201272 z" />
  </g>
</svg>
