{"asset":{"generator":"3D Builder","version":"2.0"},"scene":0,"scenes":[{"nodes":[0]}],"nodes":[{"mesh":0,"matrix":[0.99999994039535522,0,0,0,0,-1.1920928244535389E-7,-0.99999982118606567,0,0,0.99999982118606567,-1.1920928244535389E-7,0,-3.3794722557067871,2.0167648792266846,-9.1374082565307617,1]}],"meshes":[{"primitives":[{"attributes":{"POSITION":0},"mode":4,"indices":1,"material":0}]}],"materials":[{"name":"Regular","pbrMetallicRoughness":{"baseColorFactor":[0,0,0,1],"metallicFactor":0,"roughnessFactor":1},"alphaMode":"OPAQUE"}],"accessors":[{"bufferView":0,"byteOffset":0,"count":34828,"componentType":5126,"type":"VEC3","min":[0.35817402601242065,-2.0962800979614258,-2.7611901760101318],"max":[20.52130126953125,27.9403018951416,6.4764504432678223]},{"bufferView":1,"byteOffset":0,"count":208092,"componentType":5125,"type":"SCALAR"}],"bufferViews":[{"buffer":0,"byteOffset":0,"byteLength":417936,"byteStride":12,"target":34962},{"buffer":0,"byteOffset":417936,"byteLength":832368,"target":34963}],"buffers":[{"byteLength":1250304,"uri":"model_domgtlg.bin"}]}