{"asset":{"generator":"3D Builder","version":"2.0"},"scene":0,"scenes":[{"nodes":[0]}],"nodes":[{"children":[1,2,3,4]},{"mesh":0,"matrix":[0.28287211060523987,3.9046174626911068E-10,-3.1613616613412887E-8,0,1.7168186872140723E-9,0.28287112712860107,-7.0813820229886915E-7,0,3.1613520690143559E-8,8.5566773577738786E-7,0.2828713059425354,0,0.0243157297372818,-4.6395629560436191E-9,-0.033470723778009415,1]},{"mesh":1,"matrix":[0.28287211060523987,3.9046174626911068E-10,-3.1613616613412887E-8,0,1.7168186872140723E-9,0.28287112712860107,-7.0813820229886915E-7,0,3.1613520690143559E-8,8.5566773577738786E-7,0.2828713059425354,0,0.0243157297372818,-4.6395629560436191E-9,-0.033470723778009415,1]},{"mesh":2,"matrix":[0.28287211060523987,3.9046174626911068E-10,-3.1613616613412887E-8,0,1.7168186872140723E-9,0.28287112712860107,-7.0813820229886915E-7,0,3.1613520690143559E-8,8.5566773577738786E-7,0.2828713059425354,0,0.0243157297372818,-4.6395629560436191E-9,-0.033470723778009415,1]},{"mesh":3,"matrix":[0.28287211060523987,3.9046174626911068E-10,-3.1613616613412887E-8,0,1.7168186872140723E-9,0.28287112712860107,-7.0813820229886915E-7,0,3.1613520690143559E-8,8.5566773577738786E-7,0.2828713059425354,0,0.0243157297372818,-4.6395629560436191E-9,-0.033470723778009415,1]}],"meshes":[{"primitives":[{"attributes":{"POSITION":0},"mode":4,"indices":1,"material":0}]},{"primitives":[{"attributes":{"POSITION":2},"mode":4,"indices":3,"material":0}]},{"primitives":[{"attributes":{"POSITION":4},"mode":4,"indices":5,"material":0}]},{"primitives":[{"attributes":{"POSITION":6},"mode":4,"indices":7,"material":0}]}],"materials":[{"name":"Regular","pbrMetallicRoughness":{"baseColorFactor":[1,1,1,1],"metallicFactor":0,"roughnessFactor":1},"alphaMode":"OPAQUE"}],"accessors":[{"bufferView":0,"byteOffset":0,"count":136,"componentType":5126,"type":"VEC3","min":[0,0,0],"max":[0.07594599574804306,0.089153997600078583,0.036474399268627167]},{"bufferView":1,"byteOffset":0,"count":816,"componentType":5125,"type":"SCALAR"},{"bufferView":2,"byteOffset":0,"count":20,"componentType":5126,"type":"VEC3","min":[0.021081997081637383,0.041147995740175247,0],"max":[0.026670001447200775,0.0546099953353405,0.036474399268627167]},{"bufferView":3,"byteOffset":0,"count":108,"componentType":5125,"type":"SCALAR"},{"bufferView":4,"byteOffset":0,"count":26,"componentType":5126,"type":"VEC3","min":[0.046481996774673462,0.040894001722335815,0],"max":[0.052323997020721436,0.066039994359016418,0.036474399268627167]},{"bufferView":5,"byteOffset":0,"count":144,"componentType":5125,"type":"SCALAR"},{"bufferView":6,"byteOffset":0,"count":26,"componentType":5126,"type":"VEC3","min":[0.033781997859478,0.041402000933885574,0],"max":[0.039369996637105942,0.060959994792938232,0.036474399268627167]},{"bufferView":7,"byteOffset":0,"count":144,"componentType":5125,"type":"SCALAR"}],"bufferViews":[{"buffer":0,"byteOffset":0,"byteLength":1632,"byteStride":12,"target":34962},{"buffer":0,"byteOffset":1632,"byteLength":3264,"target":34963},{"buffer":0,"byteOffset":4896,"byteLength":240,"byteStride":12,"target":34962},{"buffer":0,"byteOffset":5136,"byteLength":432,"target":34963},{"buffer":0,"byteOffset":5568,"byteLength":312,"byteStride":12,"target":34962},{"buffer":0,"byteOffset":5880,"byteLength":576,"target":34963},{"buffer":0,"byteOffset":6456,"byteLength":312,"byteStride":12,"target":34962},{"buffer":0,"byteOffset":6768,"byteLength":576,"target":34963}],"buffers":[{"byteLength":7344,"uri":"pin_3.bin"}]}