{"asset":{"generator":"3D Builder","version":"2.0"},"scene":0,"scenes":[{"nodes":[0,1,2,3]}],"nodes":[{"mesh":0,"matrix":[0.11782310158014297,3.561311601174566E-8,-0.11782319098711014,0,0.004285086877644062,0.16651594638824463,0.0042844242416322231,0,0.017203342169523239,-0.00088520586723461747,0.017203181982040405,0,0.048219192773103714,6.319535259535769E-6,-0.039291951805353165,1]},{"mesh":1,"matrix":[0.11782310158014297,1.2499896229201113E-7,-0.11782342940568924,0,0.0042846803553402424,0.16651573777198792,0.0042845425195991993,0,0.017203377559781075,-0.00088514882372692227,0.017203202471137047,0,0.048219207674264908,6.3192142079060432E-6,-0.039291966706514359,1]},{"mesh":2,"matrix":[0.11782310158014297,1.2499896229201113E-7,-0.11782342940568924,0,0.0042846803553402424,0.16651573777198792,0.0042845425195991993,0,0.017203377559781075,-0.00088514882372692227,0.017203202471137047,0,0.048219207674264908,6.3192142079060432E-6,-0.039291966706514359,1]},{"mesh":3,"matrix":[0.10490644723176956,4.939490239053157E-8,-0.10490681231021881,0,0.0034115489106625319,0.13258253037929535,0.0034115810412913561,0,0.018556922674179077,-0.00095493014669045806,0.018556823953986168,0,0.047386765480041504,0.0014137654798105359,-0.038485974073410034,1]}],"meshes":[{"primitives":[{"attributes":{"POSITION":0},"mode":4,"indices":1,"material":0}]},{"primitives":[{"attributes":{"POSITION":2},"mode":4,"indices":3,"material":0}]},{"primitives":[{"attributes":{"POSITION":4},"mode":4,"indices":5,"material":0}]},{"primitives":[{"attributes":{"POSITION":6},"mode":4,"indices":7,"material":0}]}],"materials":[{"name":"Regular","pbrMetallicRoughness":{"baseColorFactor":[1,1,1,1],"metallicFactor":0,"roughnessFactor":1},"alphaMode":"OPAQUE"}],"accessors":[{"bufferView":0,"byteOffset":0,"count":136,"componentType":5126,"type":"VEC3","min":[0,0,0],"max":[0.07594599574804306,0.089153997600078583,0.036474399268627167]},{"bufferView":1,"byteOffset":0,"count":816,"componentType":5125,"type":"SCALAR"},{"bufferView":2,"byteOffset":0,"count":26,"componentType":5126,"type":"VEC3","min":[0.046481996774673462,0.040894001722335815,0],"max":[0.052323997020721436,0.066039994359016418,0.036474399268627167]},{"bufferView":3,"byteOffset":0,"count":144,"componentType":5125,"type":"SCALAR"},{"bufferView":4,"byteOffset":0,"count":26,"componentType":5126,"type":"VEC3","min":[0.033781997859478,0.041402000933885574,0],"max":[0.039369996637105942,0.060959994792938232,0.036474399268627167]},{"bufferView":5,"byteOffset":0,"count":144,"componentType":5125,"type":"SCALAR"},{"bufferView":6,"byteOffset":0,"count":26,"componentType":5126,"type":"VEC3","min":[0.033781997859478,0.041402000933885574,0],"max":[0.039369996637105942,0.060959994792938232,0.036474399268627167]},{"bufferView":7,"byteOffset":0,"count":144,"componentType":5125,"type":"SCALAR"}],"bufferViews":[{"buffer":0,"byteOffset":0,"byteLength":1632,"byteStride":12,"target":34962},{"buffer":0,"byteOffset":1632,"byteLength":3264,"target":34963},{"buffer":0,"byteOffset":4896,"byteLength":312,"byteStride":12,"target":34962},{"buffer":0,"byteOffset":5208,"byteLength":576,"target":34963},{"buffer":0,"byteOffset":5784,"byteLength":312,"byteStride":12,"target":34962},{"buffer":0,"byteOffset":6096,"byteLength":576,"target":34963},{"buffer":0,"byteOffset":6672,"byteLength":312,"byteStride":12,"target":34962},{"buffer":0,"byteOffset":6984,"byteLength":576,"target":34963}],"buffers":[{"byteLength":7560,"uri":"pin_5.bin"}]}