{"asset":{"generator":"3D Builder","version":"2.0"},"scene":0,"scenes":[{"nodes":[0,1,2,3]}],"nodes":[{"mesh":0,"matrix":[0.28287211060523987,3.904607193128129E-10,-3.1613620166126566E-8,0,1.7168176880133501E-9,0.28287112712860107,-7.0813820229886915E-7,0,3.1613520690143559E-8,8.5566773577738786E-7,0.2828713059425354,0,0.042170010507106781,-6.716819989094347E-9,-0.050896015018224716,1]},{"mesh":1,"matrix":[0.28287211060523987,3.904607193128129E-10,-3.1613620166126566E-8,0,1.7168176880133501E-9,0.28287112712860107,-7.0813820229886915E-7,0,3.1613520690143559E-8,8.5566773577738786E-7,0.2828713059425354,0,0.042170010507106781,-6.716819989094347E-9,-0.050896015018224716,1]},{"mesh":2,"matrix":[0.28287211060523987,3.904607193128129E-10,-3.1613620166126566E-8,0,1.7168176880133501E-9,0.28287112712860107,-7.0813820229886915E-7,0,3.1613520690143559E-8,8.5566773577738786E-7,0.2828713059425354,0,0.042170010507106781,-6.716819989094347E-9,-0.050896015018224716,1]},{"mesh":3,"matrix":[0.25186136364936829,3.4763553147243442E-10,-2.8147898234465174E-8,0,1.56528323635996E-9,0.2252265065908432,-5.6383095170531305E-7,0,2.517129971124632E-8,6.812964556957013E-7,0.22522665560245514,0,0.0395183190703392,0.00238659605383873,-0.048793438822031021,1]}],"meshes":[{"primitives":[{"attributes":{"POSITION":0},"mode":4,"indices":1,"material":0}]},{"primitives":[{"attributes":{"POSITION":2},"mode":4,"indices":3,"material":0}]},{"primitives":[{"attributes":{"POSITION":4},"mode":4,"indices":5,"material":0}]},{"primitives":[{"attributes":{"POSITION":6},"mode":4,"indices":7,"material":0}]}],"materials":[{"name":"Translucent","pbrMetallicRoughness":{"baseColorFactor":[0.22505581378936768,0.22505581378936768,0.22505581378936768,1],"metallicFactor":0,"roughnessFactor":1},"alphaMode":"OPAQUE"}],"accessors":[{"bufferView":0,"byteOffset":0,"count":136,"componentType":5126,"type":"VEC3","min":[0,0,0],"max":[0.07594599574804306,0.089153997600078583,0.036474399268627167]},{"bufferView":1,"byteOffset":0,"count":816,"componentType":5125,"type":"SCALAR"},{"bufferView":2,"byteOffset":0,"count":26,"componentType":5126,"type":"VEC3","min":[0.046481996774673462,0.040894001722335815,0],"max":[0.052323997020721436,0.066039994359016418,0.036474399268627167]},{"bufferView":3,"byteOffset":0,"count":144,"componentType":5125,"type":"SCALAR"},{"bufferView":4,"byteOffset":0,"count":26,"componentType":5126,"type":"VEC3","min":[0.033781997859478,0.041402000933885574,0],"max":[0.039369996637105942,0.060959994792938232,0.036474399268627167]},{"bufferView":5,"byteOffset":0,"count":144,"componentType":5125,"type":"SCALAR"},{"bufferView":6,"byteOffset":0,"count":26,"componentType":5126,"type":"VEC3","min":[0.033781997859478,0.041402000933885574,0],"max":[0.039369996637105942,0.060959994792938232,0.036474399268627167]},{"bufferView":7,"byteOffset":0,"count":144,"componentType":5125,"type":"SCALAR"}],"bufferViews":[{"buffer":0,"byteOffset":0,"byteLength":1632,"byteStride":12,"target":34962},{"buffer":0,"byteOffset":1632,"byteLength":3264,"target":34963},{"buffer":0,"byteOffset":4896,"byteLength":312,"byteStride":12,"target":34962},{"buffer":0,"byteOffset":5208,"byteLength":576,"target":34963},{"buffer":0,"byteOffset":5784,"byteLength":312,"byteStride":12,"target":34962},{"buffer":0,"byteOffset":6096,"byteLength":576,"target":34963},{"buffer":0,"byteOffset":6672,"byteLength":312,"byteStride":12,"target":34962},{"buffer":0,"byteOffset":6984,"byteLength":576,"target":34963}],"buffers":[{"byteLength":7560,"uri":"pin_4.bin"}]}